<svg width="56" height="57" viewBox="0 0 56 57" fill="none" xmlns="http://www.w3.org/2000/svg">
<path d="M7 23.3132C7 23.0224 7 22.877 7.00756 22.7541C7.13168 20.7386 8.73861 19.1317 10.7541 19.0076C10.877 19 11.0224 19 11.3132 19V19C11.5015 19 11.5956 19 11.6828 18.9962C13.0816 18.9351 14.3467 18.1471 15.0182 16.9185C15.0601 16.8419 15.1016 16.7575 15.1846 16.5885L17.5681 11.7364C18.1024 10.6487 18.3696 10.1048 18.855 9.80241C19.3405 9.5 19.9465 9.5 21.1583 9.5H34.8417C36.0535 9.5 36.6595 9.5 37.145 9.80241C37.6304 10.1048 37.8976 10.6487 38.4319 11.7364L40.8154 16.5885C40.8984 16.7575 40.9399 16.8419 40.9818 16.9185C41.6533 18.1471 42.9184 18.9351 44.3172 18.9962C44.4044 19 44.4985 19 44.6868 19V19C44.9776 19 45.123 19 45.2459 19.0076C47.2614 19.1317 48.8683 20.7386 48.9924 22.7541C49 22.877 49 23.0224 49 23.3132V41.5C49 44.3284 49 45.7426 48.1213 46.6213C47.2426 47.5 45.8284 47.5 43 47.5H13C10.1716 47.5 8.75736 47.5 7.87868 46.6213C7 45.7426 7 44.3284 7 41.5V23.3132Z" stroke="#43639F" stroke-width="2"/>
<path d="M36.3334 30.875C36.3334 35.5862 32.5858 39.375 28 39.375C23.4143 39.375 19.6667 35.5862 19.6667 30.875C19.6667 26.1638 23.4143 22.375 28 22.375C32.5858 22.375 36.3334 26.1638 36.3334 30.875Z" stroke="#43639F" stroke-width="2"/>
</svg>
