<svg width="22" height="22" viewBox="0 0 22 22" fill="none" xmlns="http://www.w3.org/2000/svg">
<path d="M2.75 11.9167V10.75C2.75 6.97876 2.75 5.09315 3.92157 3.92157C5.09315 2.75 6.97876 2.75 10.75 2.75H11.25C15.0212 2.75 16.9069 2.75 18.0784 3.92157C19.25 5.09315 19.25 6.97876 19.25 10.75V11.25C19.25 15.0212 19.25 16.9069 18.0784 18.0784C16.9069 19.25 15.0212 19.25 11.25 19.25H11" stroke="#2C5390" stroke-width="2"/>
<path fill-rule="evenodd" clip-rule="evenodd" d="M17.2491 12.1681C15.8567 10.7804 13.5235 11.1431 12.6129 12.8728L8.09259 7.5991C7.73317 7.17978 7.10187 7.13122 6.68254 7.49064C6.26321 7.85006 6.21465 8.48136 6.57407 8.90069L11.1355 14.2223C12.0466 15.2853 13.7466 15.076 14.3727 13.8238C14.6521 13.2651 15.3968 13.1442 15.8385 13.5859L17.1709 14.9183C17.2319 14.2159 17.2459 13.3363 17.2491 12.1681Z" fill="#2C5390"/>
<circle cx="15.125" cy="6.875" r="1.375" fill="#2C5390"/>
<path d="M7.33331 14.6667V13.6667H8.33331V14.6667H7.33331ZM3.37467 19.1142C2.94341 19.4592 2.31412 19.3893 1.96911 18.958C1.6241 18.5268 1.69402 17.8975 2.12528 17.5525L3.37467 19.1142ZM6.33331 19.25V14.6667H8.33331V19.25H6.33331ZM7.33331 15.6667H2.74998V13.6667H7.33331V15.6667ZM7.95801 15.4476L3.37467 19.1142L2.12528 17.5525L6.70862 13.8858L7.95801 15.4476Z" fill="#2C5390"/>
</svg>
