<svg width="22" height="22" viewBox="0 0 22 22" fill="none" xmlns="http://www.w3.org/2000/svg">
<path d="M2.75 9.03295C2.75 8.09429 3.51093 7.33335 4.44959 7.33335V7.33335C5.09335 7.33335 5.68186 6.96964 5.96976 6.39384L6.72222 4.88891C6.77852 4.77631 6.80668 4.72 6.83581 4.66936C7.17193 4.0851 7.77975 3.70944 8.45265 3.6701C8.51098 3.66669 8.57392 3.66669 8.69982 3.66669H13.3002C13.4261 3.66669 13.489 3.66669 13.5473 3.6701C14.2202 3.70944 14.8281 4.0851 15.1642 4.66936C15.1933 4.72 15.2215 4.77631 15.2778 4.88891L16.0302 6.39384C16.3181 6.96964 16.9066 7.33335 17.5504 7.33335V7.33335C18.4891 7.33335 19.25 8.09429 19.25 9.03295V13.6191C19.25 15.2184 19.25 16.0181 18.9529 16.635C18.658 17.2473 18.164 17.7414 17.5517 18.0363C16.9347 18.3334 16.1351 18.3334 14.5357 18.3334H7.46429C5.86494 18.3334 5.06527 18.3334 4.44835 18.0363C3.83603 17.7414 3.34197 17.2473 3.04709 16.635C2.75 16.0181 2.75 15.2184 2.75 13.6191V9.03295Z" stroke="#2C5390" stroke-width="2"/>
<circle cx="11" cy="11.9167" r="2.66667" stroke="#2C5390" stroke-width="2"/>
</svg>
