<svg width="80" height="80" viewBox="0 0 80 80" fill="none" xmlns="http://www.w3.org/2000/svg">
<rect x="38" y="29" width="10" height="6" rx="2" transform="rotate(90 38 29)" fill="url(#paint0_linear_9_88)"/>
<rect x="51" y="29" width="10" height="6" rx="2" transform="rotate(90 51 29)" fill="url(#paint1_linear_9_88)"/>
<path d="M73.1023 24.981C72.7257 16.0481 65.3742 9 56.4334 9C47.3289 9 39.9055 16.2992 39.752 25.4024L39.1715 59.8314C39.0773 65.4194 43.5813 70 49.1701 70H64.5696C70.2577 70 74.8003 65.2619 74.5607 59.5788L73.1023 24.981Z" fill="url(#paint2_linear_9_88)"/>
<path d="M6.90456 24.8573C7.27851 15.9934 14.5732 9 23.4449 9C32.5881 9 40 16.412 40 25.5551L40 60C40 65.5229 35.5229 70 30 70H15.4308C9.74258 70 5.19994 65.2617 5.43971 59.5785L6.90456 24.8573Z" fill="url(#paint3_linear_9_88)"/>
<defs>
<linearGradient id="paint0_linear_9_88" x1="41.2203" y1="29" x2="43.3937" y2="29.1462" gradientUnits="userSpaceOnUse">
<stop stop-color="#E2E6F3"/>
<stop offset="1" stop-color="#D5DAF0"/>
</linearGradient>
<linearGradient id="paint1_linear_9_88" x1="54.2203" y1="29" x2="56.3937" y2="29.1462" gradientUnits="userSpaceOnUse">
<stop stop-color="#E2E6F3"/>
<stop offset="1" stop-color="#D5DAF0"/>
</linearGradient>
<linearGradient id="paint2_linear_9_88" x1="39" y1="28.5" x2="61.2178" y2="48.6577" gradientUnits="userSpaceOnUse">
<stop stop-color="#F0F6F9"/>
<stop offset="1" stop-color="#CDDFF2"/>
</linearGradient>
<linearGradient id="paint3_linear_9_88" x1="3.00003" y1="25.5" x2="31.8718" y2="58.2922" gradientUnits="userSpaceOnUse">
<stop stop-color="#F0F6F9"/>
<stop offset="1" stop-color="#CDDFF2"/>
</linearGradient>
</defs>
</svg>
