<svg width="225" height="206" viewBox="0 0 225 206" fill="none" xmlns="http://www.w3.org/2000/svg">
<circle cx="109" cy="103" r="103" fill="#4464A0" fill-opacity="0.38"/>
<g clip-path="url(#clip0_189_533)">
<path d="M80.7076 118.326C88.4184 104.719 103.127 94.2715 118.697 95.278C107.212 107.807 100.515 124.007 99.7904 141.013C99.5348 147.572 99.9313 154.894 95.5898 159.806C92.8885 162.862 88.7595 164.342 84.6997 164.652C80.6398 164.963 76.5808 164.227 72.5752 163.494L71.6035 163.793C71.2336 148.146 72.9968 131.933 80.7076 118.326Z" fill="#F0F0F0"/>
<path d="M118.72 95.6056C107.206 101.166 97.3884 110.452 91.3616 121.778C90.0586 124.226 88.9493 126.824 88.4654 129.57C87.9812 132.318 88.3194 134.934 89.2549 137.543C90.1102 139.929 91.2605 142.27 91.5228 144.823C91.7992 147.514 90.8122 150.03 89.0357 152.027C86.862 154.47 83.9428 155.984 81.0369 157.365C77.8103 158.898 74.4348 160.439 72.1495 163.301C71.8726 163.648 71.3524 163.197 71.6289 162.85C75.6049 157.871 82.4109 156.935 87.1305 152.925C89.3327 151.053 90.9861 148.505 90.8817 145.518C90.7905 142.907 89.6064 140.492 88.7196 138.084C87.7884 135.555 87.324 133.012 87.658 130.317C87.9996 127.559 89.01 124.912 90.2449 122.441C93.0298 116.868 96.8411 111.751 101.207 107.328C106.225 102.244 112.073 98.0588 118.497 94.9529C118.895 94.7608 119.115 95.4148 118.72 95.6056Z" fill="white"/>
<path d="M93.127 117.993C91.3619 116.698 90.113 114.816 89.6034 112.683C89.0939 110.55 89.3568 108.304 90.3452 106.348C90.5465 105.952 91.1682 106.248 90.9666 106.643C90.0428 108.464 89.7981 110.555 90.2767 112.541C90.7553 114.526 91.9256 116.275 93.5763 117.47C93.9348 117.731 93.4834 118.251 93.127 117.993Z" fill="white"/>
<path d="M88.6625 136.391C93.0855 135.743 97.1024 133.446 99.9122 129.958C100.19 129.613 100.711 130.064 100.433 130.409C97.5021 134.033 93.317 136.414 88.7129 137.079C88.274 137.142 88.226 136.454 88.6625 136.391Z" fill="white"/>
<path d="M106.564 103.093C107.143 103.737 107.873 104.226 108.687 104.517C109.501 104.809 110.374 104.892 111.228 104.761C111.666 104.693 111.714 105.381 111.279 105.449C110.334 105.59 109.37 105.496 108.47 105.176C107.57 104.857 106.761 104.321 106.115 103.615C106.049 103.554 106.008 103.47 106.001 103.379C105.995 103.289 106.023 103.199 106.08 103.129C106.139 103.06 106.224 103.018 106.315 103.011C106.406 103.004 106.495 103.034 106.564 103.093Z" fill="white"/>
<path d="M149.677 138.203C149.404 138.254 149.132 138.304 148.858 138.36C145.202 139.06 141.608 140.056 138.113 141.339C137.841 141.434 137.567 141.535 137.299 141.637C128.911 144.819 121.185 149.536 114.514 155.547C111.861 157.942 109.394 160.535 107.134 163.305C104.012 167.131 100.931 171.528 96.8526 174.022C96.43 174.287 95.9914 174.526 95.5394 174.736L72.0426 164.959C72.0003 164.91 71.9555 164.866 71.913 164.817L70.957 164.47C71.0637 164.319 71.1775 164.164 71.2841 164.013C71.3456 163.926 71.4123 163.84 71.4738 163.752C71.5165 163.694 71.5594 163.636 71.5946 163.582C71.6087 163.562 71.6231 163.543 71.635 163.529C71.6702 163.474 71.7087 163.427 71.7416 163.378C72.3755 162.514 73.0165 161.652 73.6647 160.793C73.6669 160.788 73.6669 160.788 73.6744 160.785C78.63 154.256 84.1724 148.084 90.4724 142.953C90.662 142.799 90.8535 142.639 91.0539 142.489C93.9064 140.192 96.9413 138.132 100.128 136.331C101.877 135.351 103.673 134.459 105.511 133.661C110.265 131.607 115.31 130.316 120.464 129.836C130.737 128.879 141.2 131.228 149.08 137.702C149.281 137.868 149.477 138.032 149.677 138.203Z" fill="#F0F0F0"/>
<path d="M149.501 138.48C136.97 135.966 123.558 137.451 111.949 142.853C109.439 144.021 106.994 145.425 104.959 147.326C102.924 149.227 101.624 151.52 100.804 154.169C100.055 156.59 99.5687 159.154 98.246 161.351C96.8517 163.666 94.5537 165.079 91.9368 165.601C88.7349 166.238 85.4955 165.684 82.3464 165.032C78.8499 164.307 75.2296 163.499 71.6874 164.404C71.2582 164.514 71.1137 163.839 71.5423 163.73C77.7051 162.156 83.7011 165.519 89.8765 165.167C92.7581 165.003 95.6078 163.966 97.3168 161.519C98.8112 159.379 99.3153 156.735 100.053 154.277C100.827 151.696 101.982 149.385 103.867 147.434C105.794 145.439 108.19 143.936 110.659 142.708C116.227 139.941 122.341 138.157 128.482 137.263C135.539 136.234 142.721 136.424 149.715 137.824C150.147 137.911 149.931 138.566 149.501 138.48Z" fill="white"/>
<path d="M115.63 140.897C114.997 138.798 115.13 136.541 116.003 134.53C116.877 132.519 118.434 130.885 120.398 129.919C120.796 129.725 121.115 130.337 120.716 130.531C118.886 131.426 117.435 132.949 116.626 134.823C115.816 136.697 115.701 138.8 116.302 140.752C116.432 141.176 115.759 141.319 115.63 140.897Z" fill="white"/>
<path d="M101.023 152.891C104.943 155.045 109.529 155.637 113.866 154.549C114.295 154.441 114.44 155.116 114.011 155.224C109.496 156.347 104.725 155.721 100.65 153.471C100.262 153.256 100.637 152.677 101.023 152.891Z" fill="white"/>
<path d="M135.301 137.117C135.377 137.98 135.665 138.812 136.141 139.536C136.616 140.26 137.263 140.854 138.024 141.266C138.415 141.475 138.039 142.054 137.651 141.845C136.813 141.387 136.099 140.73 135.572 139.931C135.045 139.132 134.721 138.216 134.629 137.262C134.613 137.173 134.631 137.081 134.68 137.005C134.729 136.929 134.805 136.874 134.892 136.852C134.981 136.834 135.074 136.851 135.151 136.9C135.227 136.95 135.281 137.028 135.301 137.117Z" fill="white"/>
<path d="M104.917 154.333C101.626 138.372 97.513 133.05 97.513 133.05L95.9416 131.828L94.0519 130.355L94.061 130.166L93.6128 130.013L93.5075 129.931L93.335 129.798L93.3072 129.828L93.2486 129.889L84.6974 126.973L73.8486 123.276L68.825 116.726C68.0068 115.659 66.9535 114.797 65.7475 114.207C64.5415 113.617 63.2157 113.315 61.874 113.325L45.8301 113.444C43.6607 113.46 41.5759 114.29 39.9854 115.77L29.4399 125.582L13.0081 133.455L12.9804 133.427L12.8078 133.55L10.269 134.768L10.3737 135.315L8.80233 136.453C8.80233 136.453 4.689 141.404 1.39832 156.256C0.561206 160.035 0.149148 168.141 0.000417964 178.131C-0.00705276 178.636 0.0856928 179.138 0.273259 179.607C0.460826 180.076 0.739473 180.503 1.093 180.863C1.44652 181.223 1.86787 181.509 2.33255 181.704C2.79722 181.899 3.29595 182 3.79974 182H91.5653L102.52 182C103.023 182 103.521 181.899 103.986 181.704C104.45 181.509 104.871 181.224 105.225 180.864C105.578 180.504 105.857 180.078 106.045 179.609C106.233 179.141 106.326 178.639 106.319 178.134C106.174 167.265 105.762 158.431 104.917 154.333Z" fill="#3F3D56"/>
<path d="M116.178 45.9194C112.763 45.9194 109.489 47.2802 107.074 49.7023C104.66 52.1244 103.303 55.4094 103.303 58.8348C103.303 62.2602 104.66 65.5452 107.074 67.9674C109.489 70.3895 112.763 71.7502 116.178 71.7502H212.125C215.54 71.7502 218.815 70.3895 221.229 67.9674C223.644 65.5452 225 62.2602 225 58.8348C225 55.4094 223.644 52.1244 221.229 49.7023C218.815 47.2802 215.54 45.9194 212.125 45.9194H116.178Z" fill="#E5E5E5"/>
<path d="M116.178 48.5332C113.454 48.5332 110.842 49.6186 108.916 51.5505C106.991 53.4824 105.909 56.1027 105.909 58.8348C105.909 61.5669 106.991 64.1872 108.916 66.1191C110.842 68.051 113.454 69.1363 116.178 69.1363H212.125C214.849 69.1363 217.461 68.051 219.387 66.1191C221.313 64.1872 222.394 61.5669 222.394 58.8348C222.394 56.1027 221.313 53.4824 219.387 51.5505C217.461 49.6186 214.849 48.5332 212.125 48.5332H116.178Z" fill="white"/>
<path d="M56.3717 107.279C67.9802 107.279 77.3908 97.8382 77.3908 86.1931C77.3908 74.5479 67.9802 65.1076 56.3717 65.1076C44.7631 65.1076 35.3525 74.5479 35.3525 86.1931C35.3525 97.8382 44.7631 107.279 56.3717 107.279Z" fill="#D98390"/>
<path d="M50.9947 106.246C50.9049 106.048 50.8154 105.849 50.7261 105.649C50.7605 105.65 50.7946 105.655 50.829 105.656L50.9947 106.246Z" fill="#33363F"/>
<path d="M34.768 66.0665C35.8311 65.2158 37.0736 64.433 38.4328 64.477C39.7919 64.5209 41.1703 65.7524 40.8887 67.087C43.3852 62.6527 47.359 59.2422 52.1124 57.4542C56.8659 55.6661 62.0953 55.6148 66.8827 57.3092C70.2608 58.5048 73.5736 60.8967 74.3496 64.4049C74.5488 65.3054 74.5916 66.2929 75.1521 67.0242C75.8589 67.9462 77.2111 68.1548 78.3245 67.8304C78.3356 67.8272 78.3467 67.8239 78.3578 67.8206C78.5459 67.7561 78.749 67.7498 78.9407 67.8024C79.1324 67.855 79.304 67.964 79.4332 68.1155C79.5625 68.267 79.6434 68.4539 79.6657 68.652C79.6879 68.8502 79.6503 69.0504 79.5578 69.2269L78.602 71.0152C79.8069 71.2846 81.0588 71.2579 82.2512 70.9373C82.4493 70.8852 82.6586 70.8959 82.8504 70.9678C83.0422 71.0397 83.2072 71.1694 83.3226 71.3391C83.438 71.5088 83.4983 71.7101 83.4951 71.9155C83.492 72.1209 83.4255 72.3203 83.3049 72.4863C80.1532 76.8272 74.8876 79.6303 69.5142 79.5974C65.6951 79.574 61.8367 78.2536 58.1199 79.1346C56.682 79.4755 55.3384 80.1349 54.1877 81.0646C53.037 81.9942 52.1084 83.1706 51.47 84.5072C50.8316 85.8438 50.4996 87.3069 50.4984 88.7891C50.4971 90.2712 50.8267 91.7348 51.4629 93.0725C50.3211 91.8197 48.1138 92.1163 46.9458 93.3447C45.7779 94.5731 45.4755 96.4066 45.5932 98.1C45.7731 100.69 46.7848 103.131 47.8512 105.506C38.9099 105.224 30.4529 98.9317 27.6063 90.4217C24.7477 81.876 27.7436 71.6877 34.768 66.0665Z" fill="#33363F"/>
<path opacity="0.2" d="M20.6885 149.514L26.5839 181.691L30.1212 182L20.6885 149.514Z" fill="black"/>
<path opacity="0.2" d="M85.6271 147.087L79.7317 181.668L76.1943 182L85.6271 147.087Z" fill="black"/>
<path d="M39.796 55.2374C38.6657 55.7109 37.4862 55.192 36.9916 54.0036C36.4893 52.7971 36.9584 51.5723 38.1069 51.0913C39.2555 50.6101 40.4139 51.1303 40.9242 52.3563C41.4269 53.5639 40.963 54.7486 39.796 55.2374ZM37.6308 48.7164L36.732 49.0929C36.5075 49.1859 36.2564 49.1909 36.0283 49.107C35.8003 49.0231 35.612 48.8564 35.5006 48.6398L35.4561 48.5526C34.4891 46.8031 34.3783 44.6767 35.1288 42.236C35.8239 40.0465 36.1127 38.5067 35.532 37.1117C34.8606 35.4988 33.427 34.9935 31.5988 35.7254C30.8898 36.0224 30.6641 36.0177 30.1061 36.573C29.9847 36.6952 29.8401 36.7917 29.6807 36.8567C29.5214 36.9216 29.3506 36.9537 29.1786 36.9511C29.0124 36.9491 28.8482 36.9136 28.6959 36.8466C28.5437 36.7796 28.4064 36.6826 28.2923 36.5612C28.0725 36.3274 27.9494 36.0186 27.9478 35.6972C27.9462 35.3758 28.0662 35.0658 28.2836 34.8297C29.2215 33.8448 30.3527 33.0656 31.6059 32.5413C35.5339 30.896 37.5113 33.3251 38.4162 35.499C39.3012 37.6253 38.8034 39.5981 38.0034 42.1532C37.333 44.2762 37.3721 45.8494 38.1336 47.4136C38.1886 47.5319 38.2191 47.6601 38.2235 47.7905C38.2279 47.9209 38.2059 48.0508 38.1589 48.1725C38.112 48.2942 38.041 48.4051 37.9502 48.4986C37.8595 48.592 37.7508 48.6662 37.6308 48.7164Z" fill="#2C5390"/>
<path d="M137.371 64.9946H118.281C118.221 64.995 118.161 64.9833 118.104 64.9604C118.048 64.9374 117.997 64.9034 117.954 64.8606C117.911 64.8177 117.877 64.7667 117.854 64.7105C117.83 64.6544 117.818 64.5941 117.818 64.5333C117.818 64.4725 117.83 64.4122 117.854 64.356C117.877 64.2999 117.911 64.2489 117.954 64.206C117.997 64.1631 118.048 64.1292 118.104 64.1062C118.161 64.0832 118.221 64.0716 118.281 64.072H137.371C137.493 64.0729 137.609 64.1218 137.694 64.2082C137.78 64.2946 137.828 64.4115 137.828 64.5333C137.828 64.6551 137.78 64.7719 137.694 64.8584C137.609 64.9448 137.493 64.9937 137.371 64.9946Z" fill="#2C5390"/>
<path d="M161.588 65.1483H142.498C142.437 65.1487 142.377 65.1371 142.321 65.1141C142.265 65.0911 142.214 65.0572 142.171 65.0143C142.128 64.9714 142.094 64.9205 142.07 64.8643C142.047 64.8081 142.035 64.7479 142.035 64.687C142.035 64.6262 142.047 64.566 142.07 64.5098C142.094 64.4536 142.128 64.4026 142.171 64.3598C142.214 64.3169 142.265 64.283 142.321 64.26C142.377 64.237 142.437 64.2254 142.498 64.2258H161.588C161.649 64.2254 161.709 64.237 161.765 64.26C161.821 64.283 161.872 64.3169 161.915 64.3598C161.958 64.4026 161.992 64.4536 162.016 64.5098C162.039 64.566 162.051 64.6262 162.051 64.687C162.051 64.7479 162.039 64.8081 162.016 64.8643C161.992 64.9205 161.958 64.9714 161.915 65.0143C161.872 65.0572 161.821 65.0911 161.765 65.1141C161.709 65.1371 161.649 65.1487 161.588 65.1483Z" fill="#2C5390"/>
<path d="M185.805 65.3021H166.715C166.594 65.3012 166.477 65.2523 166.392 65.1658C166.306 65.0794 166.258 64.9626 166.258 64.8408C166.258 64.719 166.306 64.6021 166.392 64.5157C166.477 64.4293 166.594 64.3804 166.715 64.3795H185.805C185.866 64.3791 185.926 64.3907 185.982 64.4137C186.038 64.4367 186.089 64.4706 186.132 64.5135C186.175 64.5564 186.209 64.6074 186.233 64.6635C186.256 64.7197 186.268 64.7799 186.268 64.8408C186.268 64.9016 186.256 64.9619 186.233 65.018C186.209 65.0742 186.175 65.1252 186.132 65.1681C186.089 65.2109 186.038 65.2449 185.982 65.2678C185.926 65.2908 185.866 65.3025 185.805 65.3021Z" fill="#2C5390"/>
<path d="M210.022 65.4558H190.932C190.81 65.455 190.694 65.406 190.609 65.3196C190.523 65.2332 190.475 65.1163 190.475 64.9945C190.475 64.8727 190.523 64.7559 190.609 64.6695C190.694 64.5831 190.81 64.5341 190.932 64.5333H210.022C210.143 64.5341 210.259 64.5831 210.345 64.6695C210.43 64.7559 210.478 64.8727 210.478 64.9945C210.478 65.1163 210.43 65.2332 210.345 65.3196C210.259 65.406 210.143 65.455 210.022 65.4558Z" fill="#2C5390"/>
<path d="M127.784 60.7495C129.744 60.7495 131.332 59.156 131.332 57.1903C131.332 55.2246 129.744 53.6311 127.784 53.6311C125.825 53.6311 124.236 55.2246 124.236 57.1903C124.236 59.156 125.825 60.7495 127.784 60.7495Z" fill="#2C5390"/>
<path d="M152.148 60.7495C154.107 60.7495 155.696 59.156 155.696 57.1903C155.696 55.2246 154.107 53.6311 152.148 53.6311C150.188 53.6311 148.6 55.2246 148.6 57.1903C148.6 59.156 150.188 60.7495 152.148 60.7495Z" fill="#2C5390"/>
<path d="M176.51 60.7495C178.47 60.7495 180.058 59.156 180.058 57.1903C180.058 55.2246 178.47 53.6311 176.51 53.6311C174.551 53.6311 172.962 55.2246 172.962 57.1903C172.962 59.156 174.551 60.7495 176.51 60.7495Z" fill="#2C5390"/>
<path d="M200.874 60.7495C202.833 60.7495 204.422 59.156 204.422 57.1903C204.422 55.2246 202.833 53.6311 200.874 53.6311C198.914 53.6311 197.326 55.2246 197.326 57.1903C197.326 59.156 198.914 60.7495 200.874 60.7495Z" fill="#2C5390"/>
</g>
<defs>
<clipPath id="clip0_189_533">
<rect width="225" height="150" fill="white" transform="translate(0 32)"/>
</clipPath>
</defs>
</svg>
