<svg width="24" height="24" viewBox="0 0 24 24" fill="none" xmlns="http://www.w3.org/2000/svg">
<path d="M23.7806 12.5306L21.5306 14.7806C21.461 14.8504 21.3783 14.9057 21.2872 14.9434C21.1962 14.9812 21.0986 15.0006 21 15.0006C20.9014 15.0006 20.8038 14.9812 20.7128 14.9434C20.6218 14.9057 20.539 14.8504 20.4694 14.7806L18.2194 12.5306C18.0786 12.3899 17.9996 12.199 17.9996 12C17.9996 11.801 18.0786 11.6101 18.2194 11.4694C18.3601 11.3286 18.551 11.2496 18.75 11.2496C18.949 11.2496 19.1399 11.3286 19.2806 11.4694L20.25 12.4397V12C20.2509 10.2531 19.6972 8.551 18.6687 7.13892C17.6403 5.72684 16.1901 4.67767 14.5272 4.14254C12.8643 3.60742 11.0744 3.61396 9.41545 4.16123C7.75648 4.7085 6.31404 5.76825 5.29594 7.18781C5.17983 7.34943 5.00427 7.4583 4.80788 7.49047C4.61149 7.52265 4.41037 7.47549 4.24875 7.35938C4.08714 7.24326 3.97827 7.0677 3.94609 6.87131C3.91392 6.67493 3.96108 6.4738 4.07719 6.31219C5.28046 4.63455 6.98521 3.38217 8.94584 2.73545C10.9065 2.08874 13.0218 2.08108 14.9871 2.71358C16.9523 3.34609 18.6661 4.58609 19.8815 6.25497C21.0969 7.92386 21.7511 9.93546 21.75 12V12.4397L22.7194 11.4694C22.8601 11.3286 23.051 11.2496 23.25 11.2496C23.449 11.2496 23.6399 11.3286 23.7806 11.4694C23.9214 11.6101 24.0004 11.801 24.0004 12C24.0004 12.199 23.9214 12.3899 23.7806 12.5306ZM19.92 17.6869C18.7164 19.3632 17.0119 20.6145 15.0519 21.2604C13.0919 21.9064 10.9775 21.9138 9.01297 21.2816C7.04849 20.6493 5.33529 19.41 4.11998 17.7421C2.90466 16.0742 2.24992 14.0637 2.25001 12V11.5603L1.28063 12.5306C1.1399 12.6714 0.949028 12.7504 0.750005 12.7504C0.550982 12.7504 0.360111 12.6714 0.21938 12.5306C0.0786496 12.3899 -0.000411987 12.199 -0.000411987 12C-0.000411987 11.801 0.0786496 11.6101 0.21938 11.4694L2.46938 9.21938C2.53903 9.14964 2.62175 9.09432 2.7128 9.05658C2.80385 9.01884 2.90144 8.99941 3.00001 8.99941C3.09857 8.99941 3.19616 9.01884 3.28721 9.05658C3.37826 9.09432 3.46098 9.14964 3.53063 9.21938L5.78063 11.4694C5.92136 11.6101 6.00042 11.801 6.00042 12C6.00042 12.199 5.92136 12.3899 5.78063 12.5306C5.6399 12.6714 5.44903 12.7504 5.25 12.7504C5.05098 12.7504 4.86011 12.6714 4.71938 12.5306L3.75001 11.5603V12C3.74823 14.0196 4.49049 15.969 5.83501 17.4759C6.67147 16.2638 7.84765 15.3261 9.21563 14.7806C8.4808 14.2019 7.94459 13.4085 7.68157 12.5108C7.41855 11.6132 7.44179 10.6559 7.74805 9.77208C8.05432 8.88825 8.62839 8.12183 9.39044 7.5794C10.1525 7.03696 11.0646 6.74548 12 6.74548C12.9354 6.74548 13.8475 7.03696 14.6096 7.5794C15.3716 8.12183 15.9457 8.88825 16.252 9.77208C16.5582 10.6559 16.5815 11.6132 16.3184 12.5108C16.0554 13.4085 15.5192 14.2019 14.7844 14.7806C16.1536 15.3262 17.3306 16.265 18.1669 17.4788C18.3565 17.2658 18.5352 17.0433 18.7022 16.8122C18.8183 16.6506 18.9939 16.5417 19.1903 16.5095C19.3866 16.4774 19.5878 16.5245 19.7494 16.6406C19.911 16.7567 20.0199 16.9323 20.052 17.1287C20.0842 17.3251 20.0371 17.5262 19.9209 17.6878L19.92 17.6869ZM12 14.25C12.5933 14.25 13.1734 14.0741 13.6667 13.7444C14.1601 13.4148 14.5446 12.9462 14.7716 12.3981C14.9987 11.8499 15.0581 11.2467 14.9424 10.6647C14.8266 10.0828 14.5409 9.54824 14.1213 9.12868C13.7018 8.70912 13.1672 8.4234 12.5853 8.30764C12.0033 8.19189 11.4001 8.2513 10.852 8.47836C10.3038 8.70542 9.83524 9.08994 9.5056 9.58329C9.17595 10.0766 9 10.6567 9 11.25C9 12.0457 9.31608 12.8087 9.87868 13.3713C10.4413 13.9339 11.2044 14.25 12 14.25ZM12 20.25C13.8304 20.2476 15.6083 19.638 17.055 18.5166C16.5124 17.668 15.765 16.9697 14.8816 16.486C13.9982 16.0023 13.0072 15.7487 12 15.7487C10.9928 15.7487 10.0019 16.0023 9.11843 16.486C8.23501 16.9697 7.48757 17.668 6.94501 18.5166C8.38953 19.642 10.1688 20.2521 12 20.25Z" fill="#67A4D3"/>
</svg>
