<svg width="136" height="136" viewBox="0 0 136 136" fill="none" xmlns="http://www.w3.org/2000/svg">
<path d="M123.905 26.4951L41.0952 3.2049C34.8018 1.43489 28.2651 5.1018 26.4951 11.3952L3.20485 94.2048C1.43483 100.498 5.10177 107.035 11.3952 108.805L94.2048 132.095C100.498 133.865 107.035 130.198 108.805 123.905L132.095 41.0952C133.865 34.8018 130.198 28.2651 123.905 26.4951Z" fill="#43639F"/>
<path d="M75.7084 48.7566C75.262 48.7601 74.8175 48.6995 74.3884 48.5766C73.133 48.2148 72.0691 47.376 71.4243 46.2397C70.7795 45.1034 70.6051 43.7598 70.9384 42.4966L74.9384 28.0866C75.306 26.8416 76.148 25.7908 77.2829 25.1607C78.4178 24.5305 79.7549 24.3714 81.006 24.7176C82.2571 25.0639 83.3221 25.8877 83.9716 27.0116C84.6211 28.1356 84.8031 29.4697 84.4784 30.7266L80.4784 45.1366C80.1805 46.1739 79.555 47.0871 78.6952 47.7396C77.8355 48.3921 76.7877 48.7488 75.7084 48.7566Z" fill="white"/>
<path d="M58.4786 109.026C58.2079 109.029 57.9384 108.992 57.6786 108.916C56.9249 108.699 56.2862 108.196 55.8992 107.514C55.5123 106.831 55.408 106.025 55.6085 105.266L59.6085 90.8664C59.6607 90.4382 59.8047 90.0262 60.0306 89.6587C60.2564 89.2911 60.5589 88.9766 60.9174 88.7366C61.2759 88.4965 61.6819 88.3366 62.1078 88.2678C62.5337 88.199 62.9694 88.2228 63.3853 88.3377C63.8011 88.4525 64.1873 88.6557 64.5175 88.9334C64.8476 89.2111 65.114 89.5567 65.2985 89.9467C65.4829 90.3367 65.5811 90.7619 65.5863 91.1933C65.5915 91.6247 65.5036 92.0521 65.3285 92.4464L61.3285 106.846C61.1519 107.468 60.779 108.017 60.2654 108.409C59.7518 108.802 59.1251 109.019 58.4786 109.026Z" fill="white"/>
<path d="M90.6885 56.9865C90.36 56.9897 90.0398 56.8836 89.7783 56.6848C89.5167 56.486 89.3288 56.2059 89.244 55.8885C89.1592 55.5712 89.1824 55.2346 89.31 54.9319C89.4375 54.6292 89.6622 54.3775 89.9485 54.2165L102.949 46.8465C103.289 46.6612 103.689 46.616 104.062 46.7206C104.436 46.8252 104.754 47.0712 104.949 47.4065C105.139 47.746 105.187 48.1473 105.082 48.5223C104.977 48.8973 104.728 49.2153 104.389 49.4065L91.3885 56.7765C91.1756 56.902 90.9354 56.974 90.6885 56.9865Z" fill="white"/>
<path d="M34.4884 90.7965C33.7208 90.8013 32.9734 90.5507 32.3639 90.0842C31.7543 89.6176 31.3172 88.9616 31.1214 88.2194C30.9255 87.4772 30.982 86.691 31.282 85.9844C31.582 85.2778 32.1084 84.6911 32.7784 84.3165L45.7784 76.9465C46.5649 76.5958 47.4537 76.5501 48.272 76.8183C49.0903 77.0864 49.7797 77.6493 50.2062 78.3974C50.6326 79.1455 50.7656 80.0255 50.5794 80.8662C50.3931 81.707 49.9009 82.4485 49.1984 82.9465L36.1984 90.3165C35.6788 90.6201 35.0901 90.7853 34.4884 90.7965Z" fill="white"/>
<path d="M107.408 80.3265C107.229 80.327 107.051 80.3034 106.878 80.2565L92.4785 76.2565C92.0353 76.0656 91.676 75.7208 91.467 75.2858C91.2581 74.8508 91.2134 74.3549 91.3413 73.8896C91.4692 73.4243 91.761 73.0209 92.163 72.7538C92.565 72.4868 93.0499 72.3741 93.5285 72.4365L107.938 76.4365C108.378 76.586 108.751 76.8836 108.995 77.2782C109.239 77.6729 109.338 78.1401 109.276 78.5998C109.213 79.0595 108.992 79.4831 108.652 79.7981C108.311 80.1131 107.872 80.2999 107.408 80.3265Z" fill="white"/>
<path d="M45.1586 65.0665C44.8005 65.0686 44.4438 65.0215 44.0986 64.9265L29.6986 60.9265C28.819 60.5395 28.1082 59.8488 27.6961 58.9808C27.284 58.1127 27.1982 57.1253 27.4543 56.1991C27.7104 55.273 28.2914 54.47 29.0909 53.937C29.8905 53.404 30.8552 53.1766 31.8086 53.2965L46.2086 57.2965C47.0805 57.5993 47.8208 58.1943 48.3041 58.9806C48.7874 59.7669 48.9839 60.6962 48.8603 61.6108C48.7367 62.5254 48.3006 63.3692 47.6259 63.999C46.9513 64.6288 46.0796 65.006 45.1586 65.0665Z" fill="white"/>
<path d="M88.6786 104.807C88.2419 104.806 87.8131 104.69 87.4356 104.471C87.0581 104.251 86.7452 103.936 86.5286 103.557L79.1586 90.5465C78.9917 90.2638 78.8829 89.9507 78.8384 89.6254C78.794 89.3001 78.8148 88.9693 78.8997 88.6522C78.9846 88.335 79.1319 88.038 79.3329 87.7785C79.5339 87.5189 79.7846 87.302 80.0705 87.1405C80.3563 86.979 80.6714 86.8761 80.9975 86.8378C81.3235 86.7995 81.6539 86.8266 81.9694 86.9174C82.2848 87.0083 82.579 87.1611 82.8347 87.367C83.0904 87.5729 83.3025 87.8277 83.4586 88.1165L90.8186 101.117C90.9804 101.398 91.0848 101.71 91.1256 102.032C91.1664 102.355 91.1429 102.682 91.0564 102.995C90.9699 103.309 90.8222 103.602 90.6218 103.858C90.4213 104.114 90.1721 104.327 89.8886 104.487C89.5203 104.697 89.103 104.808 88.6786 104.807Z" fill="white"/>
<path d="M56.8585 50.5464C56.0695 50.5475 55.2944 50.3388 54.6126 49.9417C53.9308 49.5446 53.3668 48.9733 52.9785 48.2864L45.6185 35.2864C45.3303 34.7776 45.1451 34.2169 45.0735 33.6365C45.0019 33.056 45.0454 32.4671 45.2014 31.9035C45.3574 31.3398 45.6229 30.8125 45.9827 30.3514C46.3426 29.8904 46.7897 29.5047 47.2985 29.2164C47.8074 28.9282 48.3681 28.743 48.9485 28.6714C49.529 28.5998 50.1178 28.6433 50.6815 28.7993C51.2451 28.9553 51.7725 29.2208 52.2336 29.5806C52.6946 29.9404 53.0803 30.3876 53.3685 30.8964L60.7285 43.8964C61.017 44.4044 61.2024 44.9644 61.2741 45.5442C61.3458 46.1239 61.3024 46.7122 61.1463 47.2751C60.9902 47.8381 60.7246 48.3647 60.3646 48.8248C60.0046 49.2849 59.5574 49.6695 59.0485 49.9564C58.3834 50.3429 57.6278 50.5464 56.8585 50.5464Z" fill="white"/>
<g filter="url(#filter0_d_435_1377)">
<path d="M59.7344 67.0497C58.7782 65.6613 57.0832 65.8234 56.2418 67.3863C55.9106 68.0022 55.6855 68.8088 55.23 69.1822C54.5346 69.7558 53.6863 69.0323 52.9005 69.1372C51.9791 69.2598 51.2229 70.7259 51.3359 72.1634C51.3871 72.812 51.5836 73.5028 51.3889 74.0806C51.1411 74.8177 50.424 74.8477 50.1224 75.5331C49.8503 76.153 50.0624 77.0673 50.4579 77.4952C50.8534 77.923 51.3628 77.9761 51.8426 77.9421C52.3224 77.908 52.8092 77.8058 53.2769 77.9693C53.7923 78.1519 54.233 78.6506 54.7276 78.9558C55.9072 79.6971 57.2884 79.2842 58.3784 78.2664C59.4684 77.2485 60.3168 75.6925 61.0539 74.0697" fill="white"/>
<g opacity="0.8">
<path d="M59.7344 67.0497C58.7782 65.6613 57.0832 65.8234 56.2418 67.3863C55.9106 68.0022 55.6855 68.8088 55.23 69.1822C54.5346 69.7558 53.6863 69.0323 52.9005 69.1372C51.9791 69.2598 51.2229 70.7259 51.3359 72.1634C51.3871 72.812 51.5836 73.5028 51.3889 74.0806C51.1411 74.8177 50.424 74.8477 50.1224 75.5331C49.8503 76.153 50.0624 77.0673 50.4579 77.4952C50.8534 77.923 51.3628 77.9761 51.8426 77.9421C52.3224 77.908 52.8092 77.8058 53.2769 77.9693C53.7923 78.1519 54.233 78.6506 54.7276 78.9558C55.9072 79.6971 57.2884 79.2842 58.3784 78.2664C59.4684 77.2485 60.3168 75.6925 61.0539 74.0697" fill="#2F475B"/>
</g>
<path d="M59.5021 68.941C58.7198 67.7447 57.2777 67.9123 56.6206 69.2762C56.2199 70.1087 55.9895 71.3814 55.3298 71.5204C54.883 71.6157 54.4605 71.0884 54.0094 71.1429C53.4096 71.2138 53.0472 72.3597 53.201 73.2699C53.3549 74.1801 53.866 74.8355 54.4023 75.2633C56.2598 76.7417 58.7354 75.9596 60.0836 73.4688" fill="white"/>
<path d="M77.2103 71.9864L76.2046 69.7518L77.5128 68.298L78.429 71.2152L77.2703 71.9674" fill="#947C70"/>
<path d="M78.3744 70.8158L79.0863 72.8283C79.0863 72.8283 80.6301 72.3705 80.7848 72.722L78.3458 75.0248L77.1549 71.9603L78.3744 70.8158Z" fill="white"/>
<g opacity="0.6">
<path d="M78.2673 73.3747C78.2482 73.4082 78.2375 73.4517 78.2375 73.4967C78.2375 73.5417 78.2482 73.5851 78.2673 73.6186C78.2882 73.6491 78.3157 73.666 78.3443 73.666C78.3728 73.666 78.4003 73.6491 78.4212 73.6186C78.4416 73.5831 78.4529 73.537 78.4529 73.4892C78.4529 73.4414 78.4416 73.3953 78.4212 73.3598C78.3975 73.331 78.3677 73.3177 78.3379 73.3225C78.3081 73.3273 78.2807 73.3499 78.2613 73.3856" fill="#2F475B"/>
</g>
<g opacity="0.6">
<path d="M78.3455 75.0248L78.2334 74.7086L80.6142 72.6198C80.6142 72.6198 80.7516 72.5912 80.7881 72.722L78.3455 75.0248Z" fill="#2F475B"/>
</g>
<path d="M79.1184 72.7711C79.1244 72.7902 79.0688 72.8556 79.0314 72.97C78.9941 73.0845 78.9941 73.1935 78.981 73.1976C78.968 73.2017 78.9428 73.075 78.988 72.9373C79.0332 72.7997 79.114 72.752 79.1184 72.7711Z" fill="#CDDFF2"/>
<path d="M79.4374 72.6962C79.4469 72.7112 79.4078 72.7916 79.3974 72.9087C79.387 73.0259 79.4078 73.1213 79.3974 73.1308C79.387 73.1404 79.3374 73.0436 79.3513 72.8978C79.3652 72.7521 79.4304 72.6812 79.4374 72.6962Z" fill="#CDDFF2"/>
<path d="M79.7677 73.0395C79.7581 73.0531 79.706 72.9755 79.6973 72.8447C79.6886 72.7139 79.7286 72.6198 79.739 72.6307C79.7494 72.6416 79.739 72.7288 79.7451 72.8365C79.7512 72.9441 79.7781 73.0259 79.7677 73.0395Z" fill="#CDDFF2"/>
<path d="M78.9236 72.3406C78.9236 72.3624 78.8602 72.3883 78.7958 72.4592C78.7315 72.53 78.6915 72.6132 78.6794 72.6023C78.6672 72.5914 78.6915 72.4783 78.7663 72.3965C78.841 72.3148 78.9236 72.3216 78.9236 72.3406Z" fill="#CDDFF2"/>
<path d="M78.775 71.9387C78.775 71.9469 78.7351 72.0028 78.6525 72.0532C78.5748 72.101 78.4917 72.1237 78.4082 72.1199C78.39 72.1217 78.3718 72.1185 78.3543 72.1104C78.3413 72.1048 78.3299 72.0925 78.322 72.0754C78.3141 72.0583 78.3102 72.0375 78.3109 72.0164C78.3118 71.9976 78.3154 71.9795 78.3216 71.9634C78.3278 71.9473 78.3363 71.9337 78.3465 71.9237C78.3618 71.9088 78.3785 71.8977 78.3961 71.891C78.4244 71.8767 78.4535 71.8662 78.483 71.8597C78.5354 71.85 78.5885 71.8532 78.6403 71.8692C78.7272 71.8978 78.775 71.9496 78.7724 71.9578C78.7698 71.966 78.7194 71.936 78.6351 71.9224C78.5864 71.9147 78.5373 71.917 78.4891 71.9292C78.4595 71.936 78.4304 71.9469 78.4021 71.9619C78.3717 71.9755 78.35 71.9959 78.35 72.0205C78.35 72.045 78.35 72.0327 78.3613 72.0396C78.3746 72.0421 78.388 72.0421 78.4013 72.0396C78.4308 72.0396 78.4604 72.0396 78.4882 72.0396C78.5375 72.0326 78.5864 72.0189 78.6342 71.9987C78.6803 71.9741 78.7273 71.9541 78.775 71.9387Z" fill="#CDDFF2"/>
<path d="M78.7697 71.981C78.7697 71.9878 78.7175 71.9428 78.6662 71.8256C78.6368 71.7571 78.6153 71.681 78.6028 71.6008C78.5948 71.5531 78.5902 71.5042 78.5889 71.455C78.5858 71.4235 78.588 71.3913 78.5951 71.3615C78.6023 71.3317 78.6142 71.3053 78.6297 71.2847C78.6403 71.2738 78.6527 71.2681 78.6653 71.2681C78.678 71.2681 78.6904 71.2738 78.701 71.2847C78.7163 71.3006 78.7298 71.3204 78.741 71.3433C78.7615 71.3819 78.7782 71.425 78.7905 71.4714C78.8111 71.5498 78.8191 71.6349 78.814 71.7193C78.8044 71.8556 78.7636 71.9319 78.7601 71.9265C78.7689 71.8607 78.7756 71.7943 78.7801 71.7275C78.7802 71.6527 78.7698 71.5787 78.7497 71.5109C78.738 71.4713 78.7228 71.4346 78.7045 71.4019C78.6853 71.3651 78.6627 71.3419 78.6549 71.3555C78.6472 71.3694 78.6416 71.3857 78.6385 71.4034C78.6353 71.4211 78.6347 71.4396 78.6367 71.4577C78.6364 71.5036 78.6396 71.5493 78.6462 71.594C78.656 71.6687 78.6727 71.7408 78.6958 71.8079C78.7358 71.9142 78.7749 71.9714 78.7697 71.981Z" fill="#CDDFF2"/>
<path d="M73.4856 64.044L76.6096 71.7397L78.3177 69.9193L75.4405 60.6471" fill="#CDDFF2"/>
<path d="M73.7387 62.3558C73.7517 62.364 73.6578 62.6774 73.6135 63.0902C73.5692 63.5031 73.5874 63.8464 73.5735 63.8492C73.5098 63.3347 73.5686 62.8015 73.7387 62.3503V62.3558Z" fill="white"/>
<path d="M73.418 62.3776C73.431 62.3776 73.418 62.7155 73.4536 63.1242C73.4892 63.533 73.5544 63.8519 73.5405 63.8587C73.4053 63.3957 73.3623 62.8795 73.4171 62.3776H73.418Z" fill="white"/>
<path d="M61.3034 64.0208L59.1607 62.9839C56.5756 68.1439 56.7486 73.8135 60.9096 77.1695L63.2209 73.1118L61.3034 64.0208Z" fill="#CDDFF2"/>
<path d="M61.5129 63.1979C60.1413 64.4528 59.4589 67.0948 59.6258 69.6837C59.8092 72.5205 61.0053 75.2865 63.1975 76.0509L77.9336 71.4332C78.5418 71.2425 79.1181 70.8558 79.626 70.2977C80.1339 69.7396 80.5622 69.0222 80.884 68.191C81.2057 67.3597 81.4138 66.4328 81.495 65.4689C81.5762 64.505 81.5288 63.5252 81.3558 62.5915C81.0346 60.8576 80.2994 59.3845 79.3032 58.4783C78.307 57.5721 77.1263 57.3026 76.0065 57.7258L61.5129 63.1979Z" fill="#7C8DAC"/>
<path d="M61.5128 63.1978L61.6492 63.1433L62.0517 62.988L63.6015 62.3953L69.3055 60.2288L73.2448 58.73L75.4405 57.8988L76.0099 57.6849L76.3028 57.5977C76.3515 57.5827 76.4001 57.5664 76.4497 57.5541L76.5992 57.5337C76.6992 57.5214 76.7991 57.5023 76.8991 57.4941H77.2033C77.3051 57.4949 77.4067 57.5058 77.5075 57.5268L77.6605 57.5514L77.737 57.565L77.8126 57.5882L78.116 57.6849C78.2168 57.7217 78.3151 57.7748 78.415 57.8212C78.4646 57.8457 78.515 57.8675 78.5645 57.8947L78.7097 57.986L78.8549 58.08C78.9045 58.108 78.9527 58.1417 78.9991 58.1809L79.2799 58.4098C79.3729 58.4902 79.4598 58.5869 79.5502 58.6823C79.5946 58.7286 79.6372 58.7709 79.6832 58.8186L79.8093 58.9739L79.9362 59.1306L79.9996 59.2082L80.0579 59.2954C80.7162 60.2222 81.1867 61.4311 81.4113 62.7727C81.6436 64.1647 81.5974 65.6349 81.2791 66.9844C80.9502 68.3715 80.3526 69.5626 79.5702 70.3908C79.2401 70.7406 78.8814 71.0188 78.5037 71.2179C78.1282 71.4236 77.7379 71.5136 77.358 71.6389L75.098 72.3461L70.7832 73.7059L63.2052 76.0754H63.1974C62.811 75.9327 62.4359 75.7239 62.0786 75.4527C61.4187 74.9329 60.8532 74.16 60.4349 73.2059C60.2465 72.7696 60.0863 72.3049 59.9568 71.8188C59.9256 71.7016 59.9012 71.5803 59.8699 71.4631C59.8409 71.3479 59.8162 71.2301 59.796 71.1102C59.7743 70.9917 59.7534 70.8745 59.7326 70.7573L59.6856 70.4072C59.6684 70.2926 59.6553 70.1766 59.6465 70.0597C59.637 69.9452 59.6265 69.8308 59.617 69.7177C59.6074 69.6046 59.6065 69.4915 59.6013 69.3798C59.5961 69.2681 59.5918 69.1577 59.5926 69.0487C59.5817 68.2481 59.6539 67.4502 59.8065 66.686C59.927 66.0737 60.1026 65.4915 60.328 64.9569C60.4931 64.5635 60.6894 64.2046 60.9121 63.8887C60.9573 63.826 60.9991 63.7619 61.0399 63.7102L61.1599 63.5671L61.2607 63.4458L61.3476 63.3573L61.5084 63.1992L61.3502 63.3641L61.2633 63.454L61.1625 63.5766L61.0477 63.7197C61.0069 63.7728 60.966 63.8355 60.9208 63.8996C60.7002 64.2165 60.506 64.5759 60.3428 64.9692C60.1189 65.5026 59.9447 66.0835 59.8256 66.6942C59.6755 67.4558 59.6047 68.2504 59.6161 69.0473C59.6161 69.1563 59.6161 69.2667 59.6248 69.3771C59.6335 69.4874 59.6335 69.6005 59.6422 69.7136C59.6509 69.8267 59.6613 69.9398 59.6717 70.0543C59.6806 70.1702 59.6937 70.2853 59.7109 70.399C59.7265 70.5134 59.7421 70.6306 59.7578 70.7478C59.7734 70.865 59.8004 70.9794 59.8212 71.098C59.8418 71.2172 59.8665 71.3345 59.8951 71.4495C59.9229 71.5653 59.9473 71.6852 59.9821 71.8011C60.1112 72.284 60.2707 72.7454 60.4584 73.1786C60.6639 73.6318 60.8999 74.0489 61.1625 74.4226C61.4467 74.8055 61.7582 75.1356 62.0908 75.4064C62.4455 75.6753 62.818 75.8819 63.2017 76.0223H63.1947L70.7701 73.6351L75.0885 72.2807L77.3485 71.5721C77.7292 71.4454 78.1186 71.3569 78.488 71.1525C78.8618 70.9563 79.2169 70.6813 79.5433 70.3349C80.3185 69.5141 80.9103 68.3334 81.2357 66.9585C81.551 65.6226 81.5968 64.1671 81.3669 62.7891C81.1451 61.4605 80.6797 60.2629 80.0283 59.3445L79.9701 59.2587L79.9101 59.1919L79.7849 59.0379L79.6598 58.884C79.618 58.8335 79.5728 58.7927 79.5276 58.7477C79.4407 58.6605 79.3538 58.5638 79.2608 58.4847L78.9826 58.2572C78.9363 58.2197 78.8887 58.186 78.8401 58.1563L78.6958 58.0651L78.5515 57.9724C78.5028 57.9465 78.4533 57.9247 78.4037 57.9015C78.3046 57.8566 78.2073 57.8021 78.1073 57.7653L77.8074 57.6699L77.7327 57.6454L77.6562 57.6331L77.5049 57.6086C77.405 57.5871 77.3042 57.5757 77.2033 57.5745H76.9026C76.8026 57.5827 76.7035 57.6018 76.6053 57.614L76.4566 57.6345C76.408 57.6454 76.3593 57.6617 76.3106 57.6767L76.0212 57.7626L75.4492 57.9656L73.2544 58.7927L69.3141 60.2819L63.6076 62.4212L62.0552 63.0071L61.651 63.157L61.5128 63.1978Z" fill="#CDDFF2"/>
<path d="M63.1974 76.0481L61.2538 82.9753C61.2538 82.9753 70.4242 81.5896 70.033 73.9061L63.1974 76.0481Z" fill="white"/>
<path d="M68.4528 60.5762C68.4528 60.5762 64.0431 53.8697 58.4401 56.6943L61.5145 63.1978L68.4528 60.5762Z" fill="white"/>
<path d="M76.5028 57.6276C78.3951 59.8077 79.5521 68.3319 78.6403 71.0393C84.0034 68.5799 85.1282 61.3651 85.1282 61.3651C81.2514 55.705 76.5028 57.6276 76.5028 57.6276Z" fill="white"/>
<path d="M60.4392 72.8801C60.4479 72.8924 60.1532 73.4456 59.7803 74.1146C59.4074 74.7836 59.0971 75.315 59.085 75.3014C59.0728 75.2878 59.3701 74.736 59.7438 74.0669C60.1176 73.3979 60.4305 72.8665 60.4392 72.8801Z" fill="white"/>
<path d="M85.1255 61.3624C85.1255 61.3624 85.1151 61.3938 85.0925 61.4537L84.9908 61.7181L84.8248 62.1486C84.7917 62.2331 84.7561 62.3244 84.7187 62.4211L84.5849 62.7209C84.4901 62.9321 84.3867 63.1692 84.2693 63.4226L83.8599 64.2184C83.7826 64.3546 83.6991 64.4909 83.6148 64.6394C83.5305 64.7879 83.447 64.9378 83.354 65.0795C83.1611 65.3656 82.9629 65.6777 82.7317 65.9652C82.2395 66.6144 81.701 67.1722 81.1271 67.6275C80.8077 67.8827 80.4778 68.1039 80.1396 68.2897C79.9658 68.3892 79.7867 68.475 79.6102 68.5758C79.4262 68.6677 79.239 68.7432 79.0496 68.802C77.5302 69.3293 75.8551 69.8689 74.095 70.4371C70.5772 71.5762 67.3914 72.5927 65.0845 73.323L62.3516 74.1882L61.6084 74.4185L61.4146 74.4757C61.3711 74.4894 61.3485 74.4934 61.3485 74.4934L61.4137 74.4689L61.6067 74.4035L62.3481 74.161L65.0775 73.278L74.0863 70.3717C75.8439 69.7994 77.5197 69.2612 79.0409 68.7366C79.2281 68.6786 79.4133 68.605 79.5955 68.5159C79.7754 68.4123 79.9536 68.3292 80.1266 68.2297C80.4634 68.0456 80.7922 67.8267 81.1105 67.5744C81.6828 67.1226 82.2203 66.5699 82.7125 65.927C82.9429 65.6409 83.1419 65.3316 83.334 65.0468C83.4314 64.9105 83.514 64.7511 83.6 64.6108C83.6861 64.4704 83.7687 64.3301 83.846 64.1925L84.2572 63.4022C84.3754 63.1501 84.4797 62.9144 84.5762 62.7059L84.7109 62.4075L84.8187 62.135L84.9882 61.7085C85.0343 61.5954 85.069 61.5082 85.0934 61.4469C85.1177 61.3856 85.1255 61.3624 85.1255 61.3624Z" fill="#CDDFF2"/>
<path d="M71.1709 73.5587C71.1709 73.5587 71.1649 73.5505 71.1553 73.5314L71.1127 73.4469L70.9536 73.1199L70.8389 72.8815C70.7989 72.7929 70.7589 72.6921 70.7137 72.5858C70.6268 72.3732 70.5173 72.1361 70.4191 71.8555L70.2583 71.4194C70.2026 71.2682 70.1539 71.102 70.0992 70.9344C69.9853 70.6019 69.8871 70.2299 69.7784 69.8443C69.3307 68.1386 69.0731 66.325 69.017 64.4826C69.01 64.0589 68.9979 63.6569 69.0109 63.2795C69.0161 63.0914 69.0109 62.9089 69.0239 62.7345C69.037 62.56 69.0431 62.3925 69.0518 62.233C69.0648 61.9128 69.0987 61.6267 69.1204 61.3746C69.1335 61.2493 69.1422 61.1321 69.1552 61.0244C69.1682 60.9168 69.1821 60.8214 69.1943 60.7329C69.2178 60.5612 69.236 60.4276 69.2499 60.3241C69.256 60.2818 69.2612 60.2478 69.2656 60.2192C69.2699 60.1905 69.2717 60.1837 69.2725 60.1851C69.2731 60.1973 69.2731 60.2096 69.2725 60.2219C69.2725 60.2491 69.2656 60.2846 69.2612 60.3268L69.2143 60.7356C69.2039 60.8241 69.1917 60.9209 69.1787 61.0272C69.1656 61.1334 69.1595 61.252 69.1482 61.3787C69.1291 61.6308 69.0978 61.9156 69.0865 62.2344C69.0787 62.3938 69.07 62.5614 69.0622 62.7345C69.0544 62.9075 69.0552 63.0901 69.0518 63.2795C69.0405 63.6555 69.0518 64.0561 69.0613 64.4785C69.1201 66.3128 69.3754 68.1184 69.8167 69.8198C69.9236 70.2068 70.0201 70.5787 70.1322 70.9098C70.187 71.0774 70.2348 71.2423 70.2887 71.3949L70.4469 71.8309C70.5425 72.113 70.6485 72.3514 70.7346 72.5653C70.7789 72.673 70.8215 72.7738 70.8571 72.8638C70.8928 72.9537 70.9345 73.0313 70.9675 73.1049C71.0327 73.2412 71.0832 73.3597 71.1205 73.4401L71.1588 73.5287C71.1636 73.5379 71.1676 73.548 71.1709 73.5587Z" fill="#CDDFF2"/>
<path d="M67.0316 66.4135L57.789 69.4112C57.789 69.4112 57.7481 70.8269 57.975 70.8378C58.1645 70.8473 65.0358 68.9043 67.2645 68.2721C67.3502 68.2478 67.4314 68.1947 67.5027 68.1165C67.574 68.0382 67.6336 67.9366 67.6774 67.8187C67.7212 67.7008 67.7481 67.5695 67.7564 67.4337C67.7646 67.2979 67.754 67.1609 67.7252 67.0321C67.6765 66.8153 67.5796 66.6333 67.4521 66.5197C67.3247 66.406 67.1753 66.3683 67.0316 66.4135Z" fill="white"/>
<path d="M76.3184 65.0757C76.32 63.2983 75.3324 61.8552 74.1125 61.8525C72.8927 61.8498 71.9025 63.2886 71.9009 65.066C71.8994 66.8435 72.8869 68.2866 74.1068 68.2893C75.3266 68.2919 76.3168 66.8532 76.3184 65.0757Z" fill="#2F475B"/>
<path d="M76.3193 65.0768C76.3185 65.0586 76.3185 65.0404 76.3193 65.0223C76.3193 64.9828 76.3141 64.931 76.3115 64.8642C76.3115 64.8288 76.3115 64.7906 76.3063 64.747C76.3011 64.7034 76.2967 64.6585 76.2907 64.6108C76.2846 64.5631 76.2794 64.5072 76.2733 64.45C76.2672 64.3928 76.2524 64.3328 76.2411 64.2688C76.2156 64.1293 76.184 63.9927 76.1464 63.86C75.985 63.3138 75.7317 62.8469 75.4136 62.5097C75.1418 62.2193 74.8326 62.0258 74.5079 61.9429C74.4193 61.9193 74.3299 61.9048 74.2401 61.8993C74.1941 61.8993 74.148 61.8897 74.1019 61.8911L73.962 61.902H73.8916L73.8203 61.917L73.6777 61.9497L73.5361 62.0028L73.4639 62.0287L73.3944 62.0669C72.9964 62.2651 72.6434 62.6388 72.3774 63.1433C72.0887 63.6831 71.9304 64.3649 71.9304 65.0693C71.9304 65.7737 72.0887 66.4555 72.3774 66.9953C72.6423 67.5006 72.9945 67.8758 73.3918 68.0758L73.4622 68.1139L73.5343 68.1412L73.676 68.1943L73.8186 68.227L73.889 68.2434H73.9602L74.1002 68.2543C74.1463 68.2543 74.1923 68.2543 74.2375 68.2475C74.3273 68.2421 74.4167 68.2276 74.5053 68.2039C74.828 68.1221 75.1352 67.9295 75.4049 67.6398C75.8093 67.2313 76.105 66.606 76.2368 65.8807C76.2472 65.8167 76.2602 65.7581 76.2681 65.7008C76.2759 65.6436 76.2811 65.5891 76.2863 65.5387C76.2915 65.4883 76.2976 65.4433 76.302 65.4024C76.3063 65.3616 76.302 65.3207 76.3072 65.2866C76.3107 65.2194 76.3133 65.1663 76.315 65.1272C76.3157 65.1094 76.3171 65.0916 76.3193 65.0741C76.3203 65.0922 76.3203 65.1104 76.3193 65.1286V65.2866C76.3193 65.322 76.3193 65.3616 76.3193 65.4052C76.3193 65.4488 76.3107 65.4951 76.3054 65.5414C76.3002 65.5877 76.295 65.6463 76.2898 65.7049C76.2846 65.7635 76.2698 65.8221 76.2594 65.8875C76.2349 66.0303 76.2038 66.1701 76.1664 66.3058C76.1202 66.4668 76.0658 66.6217 76.0038 66.7691C75.8515 67.1281 75.6564 67.4376 75.4293 67.6806C75.1541 67.9778 74.8403 68.1755 74.5105 68.2597C74.4205 68.2838 74.3296 68.2988 74.2384 68.3047C74.1923 68.3047 74.1454 68.3142 74.0985 68.3129L73.9568 68.3033H73.8846L73.8125 68.287L73.6673 68.2543L73.523 68.2011L73.45 68.1739L73.3787 68.1357C72.9728 67.9332 72.6127 67.5514 72.3417 67.0361C72.0459 66.4846 71.8837 65.7872 71.8837 65.0666C71.8837 64.346 72.0459 63.6485 72.3417 63.097C72.6154 62.5842 72.9776 62.2057 73.3848 62.0069L73.4561 61.9701L73.5291 61.9429L73.6743 61.8897L73.8194 61.857L73.8907 61.8421H73.9629L74.1054 61.8325C74.1523 61.8325 74.1993 61.8393 74.2454 61.8421C74.3366 61.8477 74.4275 61.8632 74.5174 61.8884C74.844 61.9723 75.1548 62.1682 75.4275 62.462C75.6545 62.7057 75.849 63.0162 76.0003 63.3763C76.1169 63.6456 76.203 63.9442 76.255 64.2592C76.2655 64.3233 76.2768 64.3832 76.2846 64.4418C76.2924 64.5004 76.2959 64.5549 76.3002 64.6053C76.3046 64.6557 76.3098 64.7021 76.3141 64.7416C76.3185 64.7811 76.3141 64.8233 76.3141 64.8588C76.3141 64.9269 76.3141 64.9787 76.3141 65.0182C76.317 65.0374 76.3187 65.0571 76.3193 65.0768Z" fill="#CDDFF2"/>
<path d="M69.5575 58.5201C69.5575 58.5269 69.5453 58.5501 69.5305 58.5814C69.5158 58.6128 69.5071 58.6414 69.5019 58.6387C69.4966 58.6359 69.5019 58.6005 69.5158 58.5637C69.5297 58.5269 69.5549 58.5106 69.5575 58.5201Z" fill="#2F475B"/>
</g>
<defs>
<filter id="filter0_d_435_1377" x="46" y="56" width="43.1282" height="34.9753" filterUnits="userSpaceOnUse" color-interpolation-filters="sRGB">
<feFlood flood-opacity="0" result="BackgroundImageFix"/>
<feColorMatrix in="SourceAlpha" type="matrix" values="0 0 0 0 0 0 0 0 0 0 0 0 0 0 0 0 0 0 127 0" result="hardAlpha"/>
<feOffset dy="4"/>
<feGaussianBlur stdDeviation="2"/>
<feComposite in2="hardAlpha" operator="out"/>
<feColorMatrix type="matrix" values="0 0 0 0 0 0 0 0 0 0 0 0 0 0 0 0 0 0 0.25 0"/>
<feBlend mode="normal" in2="BackgroundImageFix" result="effect1_dropShadow_435_1377"/>
<feBlend mode="normal" in="SourceGraphic" in2="effect1_dropShadow_435_1377" result="shape"/>
</filter>
</defs>
</svg>
