<svg width="328" height="332" viewBox="0 0 328 332" fill="none" xmlns="http://www.w3.org/2000/svg">
<path d="M198.92 0.595765C161.885 0.201205 124.825 9.95013 91.7611 26.3737C58.6973 42.7972 29.8636 68.682 13.8877 101.562C-2.0883 134.442 -4.12814 174.416 12.0819 207.164C18.1596 219.437 27.3389 231.085 40.3136 235.934C56.9082 242.132 75.3002 236 93.0318 235.351C117.067 234.479 140.241 243.842 161.584 254.775C182.927 265.707 203.526 278.498 226.524 285.411C249.523 292.324 276.049 292.587 296.038 279.443C314.906 267.039 324.913 244.574 327.304 222.38C329.695 200.186 325.465 177.885 321.26 155.954C316.846 133.045 295.528 1.61504 198.92 0.595765Z" fill="#43639F"/>
<g opacity="0.7">
<path d="M198.92 0.595765C161.885 0.201205 124.825 9.95013 91.7611 26.3737C58.6973 42.7972 29.8636 68.682 13.8877 101.562C-2.0883 134.442 -4.12814 174.416 12.0819 207.164C18.1596 219.437 27.3389 231.085 40.3136 235.934C56.9082 242.132 75.3002 236 93.0318 235.351C117.067 234.479 140.241 243.842 161.584 254.775C182.927 265.707 203.526 278.498 226.524 285.411C249.523 292.324 276.049 292.587 296.038 279.443C314.906 267.039 324.913 244.574 327.304 222.38C329.695 200.186 325.465 177.885 321.26 155.954C316.846 133.045 295.528 1.61504 198.92 0.595765Z" fill="white"/>
</g>
<path d="M165.505 331.36C231.991 331.36 285.889 326.289 285.889 320.033C285.889 313.777 231.991 308.706 165.505 308.706C99.0186 308.706 45.1208 313.777 45.1208 320.033C45.1208 326.289 99.0186 331.36 165.505 331.36Z" fill="#43639F"/>
<path opacity="0.5" d="M165.505 331.36C231.991 331.36 285.889 326.289 285.889 320.033C285.889 313.777 231.991 308.706 165.505 308.706C99.0186 308.706 45.1208 313.777 45.1208 320.033C45.1208 326.289 99.0186 331.36 165.505 331.36Z" fill="white"/>
<path d="M265.139 100.362C265.548 103.699 263.91 108.582 260.399 108.212C259.825 108.141 259.263 107.997 258.727 107.785C259.069 105.319 257.556 102.532 258.81 100.387C259.487 99.1864 261.21 96.9588 262.547 96.7615C264.37 96.4738 264.905 98.5288 265.139 100.362Z" fill="#43639F"/>
<path d="M261.268 110.933C260.098 113.399 258.493 115.413 254.722 115.314C253.878 115.28 253.058 115.025 252.348 114.574C251.995 114.365 251.693 114.083 251.46 113.748C251.228 113.414 251.072 113.034 251.002 112.634C250.965 112.11 251.088 111.587 251.354 111.132C251.621 110.677 252.019 110.31 252.498 110.078C253.466 109.612 254.523 109.354 255.6 109.322C256.749 109.25 257.901 109.367 259.011 109.667C259.832 109.957 260.596 110.385 261.268 110.933Z" fill="#43639F"/>
<path d="M252.933 101.981C256.887 106.428 261.243 110.39 265.18 114.673" stroke="#43639F" stroke-miterlimit="10"/>
<path d="M277.746 113.991C277.867 115.882 277.366 117.761 276.316 119.35C275.305 120.83 273.808 121.709 272.136 121.306C271.592 121.149 271.065 120.937 270.564 120.673C270.809 119.399 270.84 118.094 270.656 116.81C270.434 115.567 270.606 114.287 271.15 113.144C271.852 111.952 273.524 109.65 274.978 109.618C276.918 109.576 277.637 111.993 277.746 113.991Z" fill="#43639F"/>
<path d="M272.563 124.109C271.855 125.224 270.889 126.159 269.745 126.839C268.412 127.512 266.889 127.731 265.415 127.463C264.649 127.366 263.925 127.061 263.325 126.584C263.032 126.38 262.795 126.109 262.636 125.793C262.477 125.477 262.401 125.127 262.413 124.775C262.48 124.265 262.681 123.78 262.996 123.369C263.311 122.959 263.73 122.636 264.211 122.433C265.175 122.022 266.221 121.833 267.271 121.882C268.397 121.886 269.512 122.112 270.548 122.548C271.307 122.948 271.989 123.477 272.563 124.109Z" fill="#43639F"/>
<path d="M265.181 114.714C267.179 116.827 269.01 119.071 270.799 121.339C272.588 123.608 274.193 126.025 275.689 128.499" stroke="#43639F" stroke-miterlimit="10"/>
<path d="M288.154 130.11C287.644 133.71 284.476 137.672 281.249 136.267C280.733 136.029 280.253 135.725 279.819 135.363C280.097 134.781 280.292 134.164 280.396 133.53C280.505 132.897 280.563 132.239 280.638 131.59C280.672 130.326 281.101 129.103 281.867 128.088C282.795 127.052 284.86 125.12 286.323 125.351C288.204 125.679 288.422 128.17 288.154 130.11Z" fill="#43639F"/>
<path d="M281.173 139.103C279.209 141.1 277.035 142.391 273.54 141.166C272.044 140.681 270.698 139.341 271.032 137.878C271.184 137.386 271.468 136.944 271.853 136.597C272.239 136.25 272.712 136.011 273.223 135.905C274.26 135.671 275.337 135.671 276.375 135.905C277.475 136.141 278.521 136.576 279.459 137.187C280.151 137.711 280.733 138.362 281.173 139.103Z" fill="#43639F"/>
<path d="M275.664 128.458C278.678 133.41 281.313 138.575 283.548 143.911" stroke="#43639F" stroke-miterlimit="10"/>
<path d="M295.728 147.668C295.185 149.531 294.004 151.151 292.384 152.255C290.879 153.249 289.166 153.488 287.761 152.477C287.31 152.138 286.901 151.749 286.541 151.318C287.266 150.225 287.763 149.001 288.004 147.717C288.195 146.476 288.78 145.325 289.676 144.429C290.729 143.542 293.086 141.963 294.474 142.341C294.894 142.477 295.261 142.735 295.527 143.082C295.793 143.429 295.945 143.847 295.962 144.281C296.138 145.413 296.058 146.57 295.728 147.668Z" fill="#43639F"/>
<path d="M287.075 155.222C284.701 156.718 282.26 157.351 279.175 155.6C277.871 154.869 276.843 153.512 277.503 152.312C277.786 151.901 278.157 151.556 278.591 151.302C279.024 151.048 279.509 150.89 280.011 150.841C281.042 150.73 282.086 150.874 283.046 151.26C284.085 151.647 285.028 152.247 285.813 153.019C286.375 153.666 286.803 154.414 287.075 155.222Z" fill="#43639F"/>
<path d="M283.573 143.911L285.245 147.931C285.76 149.256 286.198 150.609 286.557 151.983C287.299 154.752 287.85 157.567 288.204 160.409" stroke="#43639F" stroke-miterlimit="10"/>
<path d="M298.704 167.322C297.638 168.938 296.06 170.163 294.215 170.807C292.476 171.358 290.787 171.111 289.701 169.763C289.366 169.314 289.086 168.829 288.865 168.317C290.938 166.821 291.623 163.656 293.931 162.563C295.21 162.004 297.935 161.083 299.139 161.93C300.744 163.138 299.833 165.678 298.704 167.322Z" fill="#43639F"/>
<path d="M288.204 172.254C286.935 172.663 285.586 172.773 284.266 172.575C282.827 172.273 281.517 171.544 280.513 170.487C279.459 169.451 278.841 167.881 279.819 166.796C280.195 166.445 280.654 166.192 281.155 166.058C281.655 165.925 282.181 165.916 282.686 166.031C283.709 166.261 284.665 166.72 285.479 167.371C286.359 168.042 287.093 168.881 287.636 169.837C287.986 170.598 288.18 171.419 288.204 172.254Z" fill="#43639F"/>
<path d="M288.204 160.409C288.971 166.079 288.827 171.831 287.778 177.457" stroke="#43639F" stroke-miterlimit="10"/>
<path d="M295.059 187.872C294.227 188.476 293.297 188.937 292.309 189.237C291.37 189.517 290.385 189.617 289.408 189.532C288.572 189.51 287.765 189.224 287.107 188.717C286.449 188.209 285.975 187.506 285.754 186.713C285.643 186.171 285.582 185.621 285.571 185.069C286.837 184.676 288.007 184.03 289.007 183.17C289.967 182.309 291.15 181.723 292.426 181.477C293.822 181.362 296.731 181.312 297.559 182.587C298.696 184.255 296.815 186.54 295.059 187.872Z" fill="#43639F"/>
<path d="M283.389 188.25C282.014 188.076 280.714 187.54 279.624 186.697C278.535 185.855 277.698 184.738 277.202 183.466C276.609 182.192 276.592 180.803 277.829 180.285C278.317 180.138 278.832 180.098 279.338 180.167C279.843 180.237 280.327 180.415 280.755 180.688C281.627 181.237 282.355 181.98 282.879 182.858C283.445 183.772 283.794 184.801 283.899 185.866C283.913 186.689 283.739 187.503 283.389 188.25Z" fill="#43639F"/>
<path d="M287.744 177.457C287.184 180.234 286.307 182.939 285.127 185.521C283.931 188.074 282.363 190.442 280.471 192.549" stroke="#43639F" stroke-miterlimit="10"/>
<path d="M282.511 204.55C280.654 204.799 278.762 204.532 277.052 203.778C275.38 203.013 274.301 201.723 274.452 200.005C274.511 199.441 274.649 198.888 274.862 198.361C277.37 198.673 280.187 197.111 282.386 198.32C283.188 198.76 283.959 199.254 284.693 199.799C285.066 200.043 285.385 200.357 285.632 200.724C285.879 201.092 286.049 201.504 286.131 201.936C286.465 203.696 284.4 204.312 282.511 204.55Z" fill="#43639F"/>
<path d="M271.685 200.851C269.177 199.668 267.229 198.024 267.229 194.423C267.229 192.903 268.14 191.094 269.795 190.856C270.329 190.808 270.866 190.919 271.335 191.174C271.804 191.429 272.185 191.816 272.429 192.286C272.919 193.226 273.204 194.256 273.265 195.311C273.364 196.435 273.265 197.566 272.972 198.657C272.684 199.46 272.248 200.204 271.685 200.851Z" fill="#43639F"/>
<path d="M280.471 192.549C280.028 193.092 279.485 193.56 279 194.07L277.403 195.599L274.251 198.698C273.206 199.717 272.17 200.736 271.1 201.714C270.564 202.199 270.029 202.684 269.478 203.153C268.926 203.622 268.366 204.074 267.806 204.583" stroke="#43639F" stroke-miterlimit="10"/>
<path d="M270.648 216.009C269.816 216.107 268.977 216.132 268.14 216.083C267.233 216.029 266.333 215.883 265.456 215.647C263.784 215.187 262.28 214.234 262.112 212.516C262.074 211.95 262.119 211.383 262.246 210.83C264.838 210.748 267.388 209.08 269.653 210.288C270.882 210.904 273.148 212.573 273.499 213.798C273.623 214.112 273.623 214.462 273.499 214.776C273.377 215.051 273.161 215.275 272.888 215.409C272.179 215.724 271.422 215.927 270.648 216.009Z" fill="#43639F"/>
<path d="M259.588 214.003C258.253 213.881 256.967 213.45 255.834 212.746C254.772 211.99 253.995 210.781 253.794 208.636C253.61 206.852 254.63 204.386 256.436 203.786C256.96 203.613 257.529 203.625 258.046 203.818C258.563 204.011 258.995 204.375 259.27 204.846C259.816 205.8 260.162 206.85 260.29 207.937C260.467 209.099 260.501 210.277 260.39 211.447C260.241 212.331 259.971 213.191 259.588 214.003Z" fill="#43639F"/>
<path d="M267.797 204.583C263.229 208.591 259.632 213.554 257.272 219.108" stroke="#43639F" stroke-miterlimit="10"/>
<path d="M264.796 228.224C263.323 229.134 261.685 229.757 259.972 230.057C258.2 230.328 256.503 230.106 255.592 228.618C255.301 228.127 255.097 227.591 254.99 227.032C257.272 225.873 258.894 223.308 261.452 223.432C262.831 223.432 265.632 223.999 266.468 224.977C267.58 226.243 266.15 227.328 264.796 228.224Z" fill="#43639F"/>
<path d="M253.928 231.027C251.236 231.775 248.603 232.276 246.346 228.602C245.871 227.726 245.622 226.75 245.618 225.758C245.615 224.78 245.978 223.834 246.638 223.103C247.045 222.729 247.57 222.504 248.125 222.465C248.681 222.427 249.233 222.576 249.69 222.889C250.584 223.526 251.345 224.327 251.93 225.248C252.595 226.228 253.139 227.282 253.552 228.388C253.693 228.814 253.781 229.256 253.811 229.704C253.928 230.147 253.928 230.616 253.928 231.027Z" fill="#43639F"/>
<path d="M257.272 219.108C254.874 224.638 253.774 230.628 254.053 236.633" stroke="#43639F" stroke-miterlimit="10"/>
<path d="M324.988 192.804C324.238 193.536 323.352 194.122 322.38 194.53C321.483 194.925 320.512 195.132 319.529 195.138C318.692 195.202 317.856 194.996 317.148 194.551C316.441 194.106 315.9 193.447 315.608 192.672C315.426 192.14 315.308 191.588 315.257 191.028C316.475 190.488 317.561 189.698 318.442 188.71C319.287 187.71 320.369 186.931 321.594 186.442C322.957 186.096 325.816 185.472 326.844 186.713C327.152 187.163 327.334 187.684 327.373 188.226C327.411 188.767 327.303 189.308 327.061 189.795C326.594 190.931 325.887 191.956 324.988 192.804Z" fill="#43639F"/>
<path d="M313.359 194.497C311.968 194.475 310.61 194.074 309.437 193.338C308.264 192.602 307.321 191.561 306.713 190.33C306.053 189.13 305.777 187.798 306.964 187.247C307.917 186.899 308.972 186.935 309.898 187.346C310.835 187.756 311.652 188.393 312.273 189.195C312.958 190.029 313.428 191.013 313.644 192.064C313.73 192.886 313.633 193.716 313.359 194.497Z" fill="#43639F"/>
<path d="M316.227 183.318C316.122 189.001 314.278 194.521 310.935 199.158" stroke="#43639F" stroke-miterlimit="10"/>
<path d="M313.568 211.513C311.63 211.976 309.589 211.755 307.8 210.888C306.186 210.066 305.192 208.677 305.426 206.959C305.529 206.398 305.685 205.847 305.894 205.315C308.402 205.734 311.227 203.885 313.66 204.608C314.989 205.044 317.69 206.12 317.932 207.608C318.3 209.663 315.675 211.02 313.568 211.513Z" fill="#43639F"/>
<path d="M302.625 207.6C301.444 206.983 300.428 206.102 299.657 205.027C298.892 203.793 298.522 202.361 298.596 200.917C298.586 200.215 298.765 199.524 299.114 198.911C299.261 198.638 299.479 198.407 299.746 198.244C300.014 198.081 300.321 197.991 300.635 197.983C301.148 198.018 301.646 198.169 302.089 198.424C302.533 198.68 302.911 199.032 303.194 199.454C303.771 200.304 304.138 201.275 304.264 202.29C304.417 203.369 304.331 204.468 304.013 205.512C303.695 206.292 303.224 207.001 302.625 207.6Z" fill="#43639F"/>
<path d="M310.935 199.158C309.301 201.516 307.408 203.691 305.292 205.644C303.15 207.594 300.845 209.364 298.403 210.937" stroke="#43639F" stroke-miterlimit="10"/>
<path d="M296.79 223.292C294.875 223.062 293.084 222.236 291.682 220.933C290.386 219.675 289.776 218.097 290.503 216.527C290.751 216.019 291.063 215.544 291.431 215.113C293.738 216.239 296.924 215.425 298.913 217.004C299.992 217.875 302.04 219.864 301.797 221.311C301.463 223.218 298.813 223.539 296.79 223.292Z" fill="#43639F"/>
<path d="M287.602 216.42C285.596 214.488 284.35 212.31 285.571 208.899C286.097 207.468 287.368 206.129 288.831 206.482C289.326 206.643 289.77 206.927 290.121 207.305C290.473 207.684 290.719 208.145 290.837 208.644C291.076 209.655 291.076 210.707 290.837 211.718C290.612 212.807 290.175 213.842 289.55 214.768C289.007 215.43 288.347 215.989 287.602 216.42Z" fill="#43639F"/>
<path d="M298.403 210.937C293.436 214.052 288.159 216.661 282.653 218.722" stroke="#43639F" stroke-miterlimit="10"/>
<path d="M279.401 230.517C277.655 229.96 276.093 228.952 274.878 227.599C273.708 226.268 273.106 224.681 273.942 223.144C274.23 222.655 274.584 222.207 274.995 221.812C277.202 223.119 280.379 222.832 282.026 224.755C282.912 225.807 284.492 228.158 284.066 229.506C283.497 231.298 281.165 231.052 279.401 230.517Z" fill="#43639F"/>
<path d="M271.008 222.939C269.035 220.99 267.513 218.878 269.336 215.302C270.121 213.798 271.936 212.425 273.516 212.894C274.018 213.071 274.455 213.39 274.774 213.812C275.092 214.233 275.277 214.737 275.305 215.261C275.361 216.317 275.182 217.372 274.778 218.352C274.374 219.428 273.795 220.433 273.064 221.327C272.463 221.961 271.77 222.504 271.008 222.939Z" fill="#43639F"/>
<path d="M282.653 218.722C277.169 220.867 271.401 222.659 266.042 225.577" stroke="#43639F" stroke-miterlimit="10"/>
<path d="M266.468 237.233C264.795 237.019 263.165 236.553 261.636 235.852C260.064 235.112 258.693 234.011 258.794 232.268C258.848 231.7 258.998 231.144 259.237 230.624C260.536 230.719 261.841 230.719 263.141 230.624C264.369 230.515 265.595 230.854 266.585 231.578C267.655 232.441 269.503 234.545 269.578 235.819C269.72 237.455 268.031 237.373 266.468 237.233Z" fill="#43639F"/>
<path d="M256.068 233.444C254.747 233.205 253.502 232.664 252.432 231.865C251.47 231.043 250.835 229.605 251.102 227.295C251.303 225.339 252.975 222.865 254.956 222.569C255.512 222.474 256.084 222.58 256.565 222.869C257.047 223.158 257.405 223.609 257.573 224.139C257.892 225.205 257.997 226.321 257.882 227.427C257.806 228.63 257.604 229.823 257.281 230.986C256.96 231.842 256.554 232.666 256.068 233.444Z" fill="#43639F"/>
<path d="M266.042 225.577C263.327 227.021 260.829 228.827 258.618 230.945C256.342 233.089 254.572 235.699 253.435 238.589" stroke="#43639F" stroke-miterlimit="10"/>
<path d="M234.817 324.587C234.541 324.653 224.911 324.653 224.626 324.587C217.562 323.058 192.474 314.953 215.088 288.707H244.038C266.635 314.945 241.89 323.058 234.817 324.587Z" fill="white" stroke="#263238" stroke-miterlimit="10"/>
<path d="M244.03 288.879C244.03 289.307 243.378 289.701 242.232 290.055C239.724 289.29 234.976 288.781 229.475 288.781C223.974 288.781 219.201 289.29 216.726 290.055C215.581 289.71 214.929 289.307 214.929 288.879C214.929 287.531 221.441 286.413 229.475 286.413C237.509 286.413 244.03 287.531 244.03 288.879Z" fill="white" stroke="#263238" stroke-miterlimit="10"/>
<path d="M242.224 290.055C239.716 290.811 234.968 291.321 229.467 291.321C223.966 291.321 219.192 290.811 216.718 290.055C219.226 289.29 223.974 288.781 229.467 288.781C234.959 288.781 239.758 289.29 242.224 290.055Z" fill="#263238" stroke="#263238" stroke-miterlimit="10"/>
<path d="M240.627 296.31C241.639 296.105 242.642 295.875 243.62 295.62Z" fill="white"/>
<path d="M240.627 296.31C241.639 296.105 242.642 295.875 243.62 295.62" stroke="#263238" stroke-miterlimit="10"/>
<path d="M215.656 295.201C222.561 297.667 230.662 297.905 238.169 296.746Z" fill="white"/>
<path d="M215.656 295.201C222.561 297.667 230.662 297.905 238.169 296.746" stroke="#263238" stroke-miterlimit="10"/>
<path d="M250.584 248.544C247.282 248.815 242.709 246.777 242.851 243.612C242.892 243.107 242.999 242.61 243.169 242.132C245.56 242.683 248.076 241.384 250.333 242.461C251.571 243.069 254.02 244.516 254.271 245.881C254.572 247.697 252.382 248.396 250.584 248.544Z" fill="#43639F"/>
<path d="M240.301 244.154C237.877 242.872 235.921 241.228 235.879 237.726C235.879 236.255 236.615 234.693 238.027 234.71C238.543 234.758 239.039 234.926 239.475 235.201C239.911 235.475 240.275 235.848 240.535 236.288C241.067 237.151 241.409 238.114 241.539 239.116C241.699 240.141 241.662 241.186 241.43 242.198C241.185 242.915 240.802 243.579 240.301 244.154Z" fill="#43639F"/>
<path d="M247.942 237.019C244.598 240.735 240.711 244.015 236.974 247.549" stroke="#43639F" stroke-miterlimit="10"/>
<path d="M240.109 258.564C238.415 258.592 236.734 258.279 235.168 257.643C233.605 256.969 232.15 255.95 232.008 254.355C231.971 253.844 232.019 253.331 232.15 252.835C234.575 253.073 236.966 251.791 239.164 252.999C240.368 253.648 242.659 255.276 243.002 256.517C243.445 258.178 241.697 258.515 240.109 258.564Z" fill="#43639F"/>
<path d="M229.592 255.44C228.278 255.195 227.031 254.683 225.93 253.936C224.894 253.114 224.175 251.939 224.091 249.826C224.008 248.067 224.877 246.078 226.524 245.765C227.053 245.705 227.588 245.798 228.063 246.033C228.538 246.269 228.933 246.636 229.199 247.089C229.734 247.981 230.089 248.966 230.244 249.991C230.443 251.05 230.488 252.132 230.378 253.205C230.226 253.983 229.961 254.736 229.592 255.44Z" fill="#43639F"/>
<path d="M236.974 247.549C235.082 249.32 233.293 251.194 231.615 253.163C230.76 254.172 229.978 255.237 229.274 256.353C228.94 256.928 228.581 257.479 228.28 258.071L227.444 259.846" stroke="#43639F" stroke-miterlimit="10"/>
<path d="M235.143 268.247C233.643 269.013 232.009 269.493 230.328 269.661C228.597 269.825 226.858 269.513 225.981 268.173C225.713 267.736 225.513 267.263 225.387 266.768C226.47 266.252 227.496 265.627 228.447 264.902C229.38 264.214 230.525 263.863 231.69 263.907C233.045 263.997 235.812 264.647 236.706 265.51C237.308 266.094 237.267 266.579 236.89 267.014C236.395 267.533 235.802 267.952 235.143 268.247Z" fill="#43639F"/>
<path d="M224.309 270.171C221.592 270.647 218.967 270.853 216.785 267.655C215.89 266.299 215.689 264.047 217.052 262.962C217.484 262.65 218.004 262.477 218.539 262.467C219.075 262.457 219.601 262.609 220.045 262.904C220.937 263.478 221.709 264.215 222.319 265.074C222.986 265.93 223.535 266.87 223.949 267.869C224.186 268.614 224.307 269.39 224.309 270.171Z" fill="#43639F"/>
<path d="M227.41 259.846C226.374 262.242 225.587 264.734 225.061 267.285C224.527 269.813 224.192 272.377 224.058 274.955" stroke="#43639F" stroke-miterlimit="10"/>
<path d="M234.056 280.857C232.86 282.07 231.411 283.014 229.81 283.627C228.138 284.235 226.466 284.342 225.212 283.281C224.832 282.933 224.51 282.528 224.259 282.081C226.206 280.626 227.001 278.037 229.458 277.445C230.788 277.108 233.588 276.763 234.709 277.404C236.163 278.226 235.152 279.673 234.056 280.857Z" fill="#43639F"/>
<path d="M224.1 285.624C221.633 286.742 219.084 287.515 216.216 285.073C214.987 284.046 214.252 282.057 215.196 280.766C215.547 280.375 216.003 280.09 216.513 279.944C217.022 279.798 217.563 279.798 218.072 279.944C219.084 280.226 220.034 280.692 220.873 281.317C221.757 281.936 222.541 282.685 223.197 283.536C223.62 284.175 223.925 284.882 224.1 285.624Z" fill="#43639F"/>
<path d="M224.058 274.955C223.776 280.092 224.096 285.244 225.011 290.31" stroke="#43639F" stroke-miterlimit="10"/>
<path d="M255.383 274.051C252.081 275.053 247.131 273.927 246.797 270.656C246.759 270.128 246.792 269.597 246.897 269.077C249.405 269.135 251.721 267.269 254.179 267.869C255.517 268.223 258.225 269.168 258.693 270.499C259.304 272.3 257.189 273.541 255.383 274.051Z" fill="#43639F"/>
<path d="M244.314 271.716C241.672 270.894 239.457 269.612 238.872 266.085C238.621 264.597 239.114 262.871 240.544 262.592C241.057 262.542 241.574 262.615 242.052 262.805C242.53 262.996 242.953 263.298 243.286 263.685C243.966 264.464 244.46 265.382 244.732 266.373C245.055 267.39 245.183 268.458 245.108 269.521C244.982 270.294 244.713 271.038 244.314 271.716Z" fill="#43639F"/>
<path d="M250.868 262.855C248.168 267.384 244.724 271.535 241.447 275.842" stroke="#43639F" stroke-miterlimit="10"/>
<path d="M245.852 286.759C244.139 287.13 242.36 287.099 240.661 286.668C238.947 286.216 237.492 285.304 237.2 283.676C237.116 283.15 237.116 282.615 237.2 282.09C239.708 281.983 241.982 280.224 244.373 281.046C245.677 281.49 248.226 282.69 248.711 283.947C249.338 285.591 247.491 286.356 245.852 286.759Z" fill="#43639F"/>
<path d="M234.817 285.032C232.092 284.539 229.592 283.767 228.831 279.92C228.68 279.07 228.763 278.195 229.074 277.388C229.21 277.003 229.43 276.652 229.719 276.359C230.008 276.067 230.358 275.84 230.746 275.694C231.261 275.569 231.802 275.593 232.304 275.763C232.805 275.934 233.246 276.244 233.572 276.656C234.235 277.475 234.716 278.421 234.984 279.435C235.307 280.487 235.465 281.582 235.453 282.681C235.368 283.493 235.154 284.287 234.817 285.032Z" fill="#43639F"/>
<path d="M241.447 275.826C238.011 280.101 235.059 284.732 232.644 289.636" stroke="#43639F" stroke-miterlimit="10"/>
<path d="M312.389 181.723C312.025 179.797 312.407 177.806 313.46 176.142C313.585 175.986 315.432 173.775 316.059 173.832C317.451 174.518 318.567 175.644 319.228 177.03C320.01 178.479 320.339 180.124 320.173 181.756C319.98 183.285 318.434 186.203 316.344 186.327C314.254 186.45 312.665 183.129 312.389 181.723Z" fill="#43639F"/>
<path d="M245.905 63.4951L163.095 40.2049C156.802 38.4349 150.265 42.1018 148.495 48.3952L125.205 131.205C123.435 137.498 127.102 144.035 133.395 145.805L216.205 169.095C222.498 170.865 229.035 167.198 230.805 160.905L254.095 78.0952C255.865 71.8018 252.198 65.2651 245.905 63.4951Z" fill="#193F8A" fill-opacity="0.77"/>
<path d="M197.708 85.7566C197.262 85.7601 196.818 85.6995 196.388 85.5766C195.133 85.2148 194.069 84.376 193.424 83.2397C192.78 82.1034 192.605 80.7598 192.938 79.4966L196.938 65.0866C197.306 63.8416 198.148 62.7908 199.283 62.1607C200.418 61.5305 201.755 61.3714 203.006 61.7176C204.257 62.0639 205.322 62.8877 205.972 64.0116C206.621 65.1356 206.803 66.4697 206.478 67.7266L202.478 82.1366C202.181 83.1739 201.555 84.0871 200.695 84.7396C199.836 85.3921 198.788 85.7488 197.708 85.7566Z" fill="white"/>
<path d="M180.479 146.026C180.208 146.029 179.938 145.992 179.679 145.916C178.925 145.699 178.286 145.196 177.899 144.514C177.512 143.831 177.408 143.025 177.609 142.266L181.609 127.866C181.661 127.438 181.805 127.026 182.031 126.659C182.256 126.291 182.559 125.977 182.917 125.737C183.276 125.497 183.682 125.337 184.108 125.268C184.534 125.199 184.969 125.223 185.385 125.338C185.801 125.453 186.187 125.656 186.518 125.933C186.848 126.211 187.114 126.557 187.299 126.947C187.483 127.337 187.581 127.762 187.586 128.193C187.592 128.625 187.504 129.052 187.329 129.446L183.329 143.846C183.152 144.468 182.779 145.017 182.265 145.409C181.752 145.802 181.125 146.019 180.479 146.026Z" fill="white"/>
<path d="M212.689 93.9865C212.36 93.9897 212.04 93.8836 211.778 93.6848C211.517 93.486 211.329 93.2059 211.244 92.8885C211.159 92.5712 211.182 92.2346 211.31 91.9319C211.438 91.6292 211.662 91.3775 211.949 91.2165L224.949 83.8465C225.289 83.6612 225.689 83.616 226.062 83.7206C226.436 83.8252 226.754 84.0712 226.949 84.4065C227.139 84.746 227.187 85.1473 227.082 85.5223C226.977 85.8973 226.728 86.2152 226.389 86.4065L213.389 93.7765C213.176 93.902 212.935 93.974 212.689 93.9865Z" fill="white"/>
<path d="M156.488 127.797C155.721 127.801 154.973 127.551 154.364 127.084C153.754 126.618 153.317 125.962 153.121 125.219C152.926 124.477 152.982 123.691 153.282 122.984C153.582 122.278 154.108 121.691 154.778 121.317L167.778 113.947C168.565 113.596 169.454 113.55 170.272 113.818C171.09 114.086 171.78 114.649 172.206 115.397C172.633 116.146 172.766 117.025 172.579 117.866C172.393 118.707 171.901 119.448 171.198 119.947L158.198 127.317C157.679 127.62 157.09 127.785 156.488 127.797Z" fill="white"/>
<path d="M229.409 117.326C229.23 117.327 229.051 117.303 228.879 117.256L214.479 113.256C214.035 113.066 213.676 112.721 213.467 112.286C213.258 111.851 213.213 111.355 213.341 110.89C213.469 110.424 213.761 110.021 214.163 109.754C214.565 109.487 215.05 109.374 215.529 109.436L229.939 113.436C230.378 113.586 230.751 113.884 230.995 114.278C231.239 114.673 231.338 115.14 231.276 115.6C231.213 116.059 230.992 116.483 230.652 116.798C230.311 117.113 229.872 117.3 229.409 117.326Z" fill="white"/>
<path d="M167.159 102.067C166.801 102.069 166.444 102.022 166.099 101.927L151.699 97.9265C150.819 97.5395 150.108 96.8488 149.696 95.9808C149.284 95.1127 149.198 94.1253 149.454 93.1991C149.71 92.273 150.291 91.47 151.091 90.937C151.891 90.404 152.855 90.1766 153.809 90.2965L168.209 94.2965C169.081 94.5993 169.821 95.1943 170.304 95.9806C170.787 96.7669 170.984 97.6962 170.86 98.6108C170.737 99.5254 170.301 100.369 169.626 100.999C168.951 101.629 168.08 102.006 167.159 102.067Z" fill="white"/>
<path d="M210.679 141.807C210.242 141.806 209.813 141.69 209.436 141.471C209.058 141.251 208.745 140.936 208.529 140.557L201.159 127.547C200.992 127.264 200.883 126.951 200.838 126.625C200.794 126.3 200.815 125.969 200.9 125.652C200.985 125.335 201.132 125.038 201.333 124.778C201.534 124.519 201.785 124.302 202.071 124.141C202.356 123.979 202.671 123.876 202.998 123.838C203.324 123.799 203.654 123.827 203.969 123.917C204.285 124.008 204.579 124.161 204.835 124.367C205.09 124.573 205.303 124.828 205.459 125.117L212.819 138.117C212.98 138.398 213.085 138.71 213.126 139.032C213.166 139.355 213.143 139.682 213.056 139.995C212.97 140.309 212.822 140.602 212.622 140.858C212.421 141.114 212.172 141.327 211.889 141.487C211.52 141.697 211.103 141.808 210.679 141.807Z" fill="white"/>
<path d="M178.859 87.5464C178.07 87.5475 177.294 87.3388 176.613 86.9417C175.931 86.5446 175.367 85.9733 174.979 85.2864L167.619 72.2864C167.33 71.7776 167.145 71.2169 167.074 70.6365C167.002 70.056 167.045 69.4671 167.201 68.9035C167.357 68.3398 167.623 67.8124 167.983 67.3514C168.343 66.8904 168.79 66.5047 169.299 66.2164C169.807 65.9282 170.368 65.743 170.949 65.6714C171.529 65.5998 172.118 65.6433 172.682 65.7993C173.245 65.9553 173.773 66.2208 174.234 66.5806C174.695 66.9404 175.08 67.3876 175.369 67.8964L182.729 80.8964C183.017 81.4044 183.202 81.9644 183.274 82.5442C183.346 83.1239 183.302 83.7122 183.146 84.2751C182.99 84.8381 182.725 85.3647 182.365 85.8248C182.005 86.2849 181.557 86.6695 181.049 86.9564C180.383 87.3429 179.628 87.5464 178.859 87.5464Z" fill="white"/>
<path d="M181.734 104.05C180.778 102.661 179.083 102.824 178.242 104.386C177.911 105.002 177.685 105.809 177.23 106.182C176.535 106.756 175.686 106.032 174.9 106.137C173.979 106.26 173.223 107.726 173.336 109.164C173.387 109.812 173.584 110.503 173.389 111.081C173.141 111.818 172.424 111.848 172.122 112.533C171.85 113.153 172.062 114.067 172.458 114.495C172.853 114.923 173.363 114.976 173.843 114.942C174.322 114.908 174.809 114.806 175.277 114.969C175.792 115.152 176.233 115.651 176.728 115.956C177.907 116.697 179.288 116.284 180.378 115.266C181.468 114.249 182.317 112.693 183.054 111.07" fill="white"/>
<path d="M181.734 104.05C180.778 102.661 179.083 102.824 178.242 104.386C177.911 105.002 177.685 105.809 177.23 106.182C176.535 106.756 175.686 106.032 174.9 106.137C173.979 106.26 173.223 107.726 173.336 109.164C173.387 109.812 173.584 110.503 173.389 111.081C173.141 111.818 172.424 111.848 172.122 112.533C171.85 113.153 172.062 114.067 172.458 114.495C172.853 114.923 173.363 114.976 173.843 114.942C174.322 114.908 174.809 114.806 175.277 114.969C175.792 115.152 176.233 115.651 176.728 115.956C177.907 116.697 179.288 116.284 180.378 115.266C181.468 114.249 182.317 112.693 183.054 111.07" fill="#B96249"/>
<path d="M181.502 105.941C180.72 104.745 179.278 104.912 178.621 106.276C178.22 107.109 177.99 108.381 177.33 108.52C176.883 108.616 176.461 108.088 176.009 108.143C175.41 108.214 175.047 109.36 175.201 110.27C175.355 111.18 175.866 111.835 176.402 112.263C178.26 113.742 180.735 112.96 182.084 110.469" fill="white"/>
<path d="M199.21 108.986L198.205 106.752L199.513 105.298L200.429 108.215L199.27 108.967" fill="#947070"/>
<path d="M200.374 107.816L201.086 109.828C201.086 109.828 202.63 109.371 202.785 109.722L200.346 112.025L199.155 108.96L200.374 107.816Z" fill="white"/>
<path d="M200.267 110.375C200.248 110.408 200.238 110.452 200.238 110.497C200.238 110.542 200.248 110.585 200.267 110.619C200.288 110.649 200.316 110.666 200.344 110.666C200.373 110.666 200.4 110.649 200.421 110.619C200.442 110.583 200.453 110.537 200.453 110.489C200.453 110.441 200.442 110.395 200.421 110.36C200.398 110.331 200.368 110.318 200.338 110.323C200.308 110.327 200.281 110.35 200.261 110.386" fill="#B96249"/>
<path d="M200.346 112.025L200.233 111.709L202.614 109.62C202.614 109.62 202.752 109.591 202.788 109.722L200.346 112.025Z" fill="#B96249"/>
<path d="M201.118 109.771C201.124 109.79 201.069 109.856 201.031 109.97C200.994 110.085 200.994 110.194 200.981 110.198C200.968 110.202 200.943 110.075 200.988 109.937C201.033 109.8 201.114 109.752 201.118 109.771Z" fill="#C4602C"/>
<path d="M201.437 109.696C201.447 109.711 201.408 109.792 201.397 109.909C201.387 110.026 201.408 110.121 201.397 110.131C201.387 110.14 201.337 110.044 201.351 109.898C201.365 109.752 201.43 109.681 201.437 109.696Z" fill="#C4602C"/>
<path d="M201.768 110.04C201.758 110.053 201.706 109.976 201.697 109.845C201.689 109.714 201.729 109.62 201.739 109.631C201.749 109.642 201.739 109.729 201.745 109.837C201.751 109.944 201.778 110.026 201.768 110.04Z" fill="#C4602C"/>
<path d="M200.924 109.341C200.924 109.362 200.86 109.388 200.796 109.459C200.732 109.53 200.692 109.613 200.679 109.602C200.667 109.591 200.692 109.478 200.766 109.396C200.841 109.315 200.924 109.322 200.924 109.341Z" fill="#C4602C"/>
<path d="M200.775 108.939C200.775 108.947 200.735 109.003 200.652 109.053C200.575 109.101 200.492 109.124 200.408 109.12C200.39 109.122 200.372 109.118 200.354 109.11C200.341 109.105 200.33 109.092 200.322 109.075C200.314 109.058 200.31 109.037 200.311 109.016C200.312 108.998 200.315 108.979 200.322 108.963C200.328 108.947 200.336 108.934 200.346 108.924C200.362 108.909 200.378 108.898 200.396 108.891C200.424 108.877 200.453 108.866 200.483 108.86C200.535 108.85 200.588 108.853 200.64 108.869C200.727 108.898 200.775 108.95 200.772 108.958C200.77 108.966 200.719 108.936 200.635 108.922C200.586 108.915 200.537 108.917 200.489 108.929C200.459 108.936 200.43 108.947 200.402 108.962C200.372 108.975 200.35 108.996 200.35 109.02C200.35 109.045 200.35 109.033 200.361 109.04C200.375 109.042 200.388 109.042 200.401 109.04C200.431 109.04 200.46 109.04 200.488 109.04C200.538 109.033 200.586 109.019 200.634 108.999C200.68 108.974 200.727 108.954 200.775 108.939Z" fill="#C4602C"/>
<path d="M200.77 108.981C200.77 108.988 200.717 108.943 200.666 108.826C200.637 108.757 200.615 108.681 200.603 108.601C200.595 108.553 200.59 108.504 200.589 108.455C200.586 108.423 200.588 108.391 200.595 108.361C200.602 108.332 200.614 108.305 200.63 108.285C200.64 108.274 200.653 108.268 200.665 108.268C200.678 108.268 200.69 108.274 200.701 108.285C200.716 108.301 200.73 108.32 200.741 108.343C200.761 108.382 200.778 108.425 200.79 108.471C200.811 108.55 200.819 108.635 200.814 108.719C200.804 108.856 200.764 108.932 200.76 108.926C200.769 108.861 200.776 108.794 200.78 108.727C200.78 108.653 200.77 108.579 200.75 108.511C200.738 108.471 200.723 108.435 200.704 108.402C200.685 108.365 200.663 108.342 200.655 108.355C200.647 108.369 200.642 108.386 200.638 108.403C200.635 108.421 200.635 108.44 200.637 108.458C200.636 108.504 200.64 108.549 200.646 108.594C200.656 108.669 200.673 108.741 200.696 108.808C200.736 108.914 200.775 108.971 200.77 108.981Z" fill="#C4602C"/>
<path d="M195.486 101.044L198.61 108.74L200.318 106.919L197.441 97.6472" fill="#C4602C"/>
<path d="M195.739 99.3558C195.752 99.364 195.658 99.6774 195.613 100.09C195.569 100.503 195.587 100.846 195.573 100.849C195.51 100.335 195.569 99.8015 195.739 99.3503V99.3558Z" fill="white"/>
<path d="M195.418 99.3775C195.431 99.3775 195.418 99.7154 195.454 100.124C195.489 100.533 195.554 100.852 195.541 100.859C195.405 100.396 195.363 99.8794 195.418 99.3775Z" fill="white"/>
<path d="M183.303 101.021L181.161 99.9839C178.576 105.144 178.749 110.814 182.91 114.17L185.221 110.112L183.303 101.021Z" fill="#C4602C"/>
<path d="M183.513 100.198C182.141 101.453 181.459 104.095 181.626 106.684C181.809 109.52 183.005 112.286 185.198 113.051L199.934 108.433C200.542 108.242 201.118 107.856 201.626 107.298C202.134 106.74 202.562 106.022 202.884 105.191C203.206 104.36 203.414 103.433 203.495 102.469C203.576 101.505 203.529 100.525 203.356 99.5915C203.035 97.8576 202.299 96.3844 201.303 95.4782C200.307 94.5721 199.126 94.3026 198.007 94.7258L183.513 100.198Z" fill="#A2ACC1"/>
<path d="M183.513 100.198L183.649 100.143L184.052 99.9879L185.602 99.3952L195.245 95.7299L197.441 94.8988L198.01 94.6848L198.303 94.5976C198.352 94.5827 198.4 94.5663 198.45 94.554L198.599 94.5336C198.699 94.5213 198.799 94.5023 198.899 94.4941H199.203C199.305 94.4948 199.407 94.5057 199.508 94.5268L199.661 94.5513L199.737 94.5649L199.813 94.5881L200.116 94.6848C200.217 94.7216 200.315 94.7748 200.415 94.8211C200.465 94.8456 200.515 94.8674 200.565 94.8947L200.71 94.986L200.855 95.08C200.905 95.108 200.953 95.1417 200.999 95.1808L201.28 95.4097C201.373 95.4901 201.46 95.5869 201.55 95.6822C201.595 95.7286 201.637 95.7708 201.683 95.8185L201.936 96.1305L202 96.2082L202.058 96.2954C202.716 97.2221 203.187 98.4311 203.411 99.7727C203.644 101.165 203.597 102.635 203.279 103.984C202.95 105.371 202.353 106.563 201.57 107.391C201.24 107.741 200.881 108.019 200.504 108.218C200.128 108.424 199.738 108.513 199.358 108.639L197.098 109.346L192.783 110.706L185.205 113.075H185.197C184.811 112.933 184.436 112.724 184.079 112.453C183.419 111.933 182.853 111.16 182.435 110.206C182.247 109.77 182.086 109.305 181.957 108.819C181.926 108.702 181.901 108.58 181.87 108.463C181.841 108.348 181.816 108.23 181.796 108.11C181.774 107.992 181.754 107.874 181.733 107.757L181.686 107.407C181.668 107.293 181.655 107.177 181.647 107.06C181.637 106.945 181.627 106.831 181.617 106.718C181.607 106.605 181.607 106.491 181.601 106.38C181.596 106.268 181.592 106.158 181.593 106.049C181.582 105.248 181.654 104.45 181.807 103.686C181.927 103.074 182.103 102.491 182.328 101.957C182.493 101.563 182.689 101.205 182.912 100.889C182.957 100.826 182.999 100.762 183.04 100.71L183.16 100.567L183.261 100.446L183.348 100.357L183.508 100.199L183.35 100.364L183.263 100.454L183.163 100.577L183.048 100.72C183.007 100.773 182.966 100.835 182.921 100.899C182.7 101.216 182.506 101.576 182.343 101.969C182.119 102.503 181.945 103.083 181.826 103.694C181.676 104.456 181.605 105.25 181.616 106.047C181.616 106.156 181.616 106.267 181.625 106.377C181.634 106.487 181.634 106.6 181.642 106.714C181.651 106.827 181.661 106.94 181.672 107.054C181.681 107.17 181.694 107.285 181.711 107.399C181.727 107.513 181.742 107.631 181.758 107.748C181.773 107.865 181.8 107.979 181.821 108.098C181.842 108.217 181.867 108.334 181.895 108.449C181.923 108.565 181.947 108.685 181.982 108.801C182.111 109.284 182.271 109.745 182.458 110.179C182.664 110.632 182.9 111.049 183.163 111.423C183.447 111.805 183.758 112.136 184.091 112.406C184.446 112.675 184.818 112.882 185.202 113.022H185.195L192.77 110.635L199.349 108.572C199.729 108.445 200.119 108.357 200.488 108.152C200.862 107.956 201.217 107.681 201.543 107.335C202.319 106.514 202.91 105.333 203.236 103.958C203.551 102.623 203.597 101.167 203.367 99.789C203.145 98.4604 202.68 97.2629 202.028 96.3444L201.97 96.2586L201.91 96.1918L201.66 95.8839C201.618 95.8335 201.573 95.7926 201.528 95.7476C201.441 95.6604 201.354 95.5637 201.261 95.4847L200.983 95.2571C200.936 95.2196 200.889 95.186 200.84 95.1563L200.696 95.065L200.552 94.9723C200.503 94.9465 200.453 94.9247 200.404 94.9015C200.305 94.8565 200.207 94.802 200.107 94.7652L199.807 94.6699L199.733 94.6453L199.656 94.6331L199.505 94.6085C199.405 94.587 199.304 94.5757 199.203 94.5745H198.903C198.803 94.5826 198.704 94.6017 198.605 94.614L198.457 94.6344C198.408 94.6453 198.359 94.6617 198.311 94.6767L198.021 94.7625L197.449 94.9655L191.314 97.2819L185.608 99.4211L184.055 100.007L183.651 100.157L183.513 100.198Z" fill="#C4602C"/>
<path d="M185.197 113.048L183.254 119.975C183.254 119.975 192.424 118.59 192.033 110.906L185.197 113.048Z" fill="white"/>
<path d="M190.453 97.5762C190.453 97.5762 186.043 90.8697 180.44 93.6943L183.515 100.198L190.453 97.5762Z" fill="white"/>
<path d="M198.503 94.6277C200.395 96.8078 201.552 105.332 200.64 108.039C206.003 105.58 207.128 98.3652 207.128 98.3652C203.251 92.7051 198.503 94.6277 198.503 94.6277Z" fill="white"/>
<path d="M182.439 109.88C182.448 109.892 182.153 110.446 181.78 111.115C181.407 111.784 181.097 112.315 181.085 112.301C181.073 112.288 181.37 111.736 181.744 111.067C182.118 110.398 182.431 109.866 182.439 109.88Z" fill="white"/>
<path d="M207.126 98.3624C207.126 98.3624 207.115 98.3938 207.092 98.4537L206.825 99.1486C206.792 99.2331 206.756 99.3244 206.719 99.4211L206.585 99.7209C206.49 99.9321 206.387 100.169 206.269 100.423L205.86 101.218C205.783 101.355 205.699 101.491 205.615 101.639C205.53 101.788 205.447 101.938 205.354 102.08C205.161 102.366 204.963 102.678 204.732 102.965C204.239 103.614 203.701 104.172 203.127 104.627C202.808 104.883 202.478 105.104 202.14 105.29C201.966 105.389 201.787 105.475 201.61 105.576C201.426 105.668 201.239 105.743 201.05 105.802C199.53 106.329 197.855 106.869 196.095 107.437C192.577 108.576 189.391 109.593 187.084 110.323L184.352 111.188L183.608 111.419L183.415 111.476C183.371 111.489 183.349 111.493 183.349 111.493L183.414 111.469L183.607 111.404L184.348 111.161L196.086 107.372C197.844 106.799 199.52 106.261 201.041 105.737C201.228 105.679 201.413 105.605 201.595 105.516C201.775 105.412 201.954 105.329 202.127 105.23C202.463 105.046 202.792 104.827 203.111 104.574C203.683 104.123 204.22 103.57 204.713 102.927C204.943 102.641 205.142 102.332 205.334 102.047C205.431 101.911 205.514 101.751 205.6 101.611C205.686 101.47 205.769 101.33 205.846 101.192L206.257 100.402C206.375 100.15 206.48 99.9144 206.576 99.7059L206.711 99.4075L206.819 99.135L206.988 98.7085C207.034 98.5954 207.069 98.5082 207.093 98.4469C207.118 98.3856 207.126 98.3624 207.126 98.3624Z" fill="#C4602C"/>
<path d="M193.171 110.559C193.171 110.559 193.165 110.551 193.155 110.531L193.113 110.447L192.954 110.12L192.839 109.881C192.799 109.793 192.759 109.692 192.714 109.586C192.627 109.373 192.517 109.136 192.419 108.855L192.258 108.419C192.203 108.268 192.154 108.102 192.099 107.934C191.985 107.602 191.887 107.23 191.778 106.844C191.331 105.139 191.073 103.325 191.017 101.483C191.01 101.059 190.998 100.657 191.011 100.28C191.016 100.091 191.011 99.9089 191.024 99.7345C191.037 99.5601 191.043 99.3925 191.052 99.2331C191.065 98.9129 191.099 98.6267 191.12 98.3746C191.133 98.2493 191.142 98.1321 191.155 98.0245C191.168 97.9168 191.182 97.8214 191.194 97.7329C191.218 97.5612 191.236 97.4277 191.25 97.3241C191.256 97.2819 191.261 97.2478 191.266 97.2192C191.27 97.1906 191.273 97.1851 191.273 97.1851C191.273 97.1974 191.273 97.2097 191.273 97.2219C191.273 97.2492 191.266 97.2846 191.261 97.3268L191.214 97.7356C191.204 97.8242 191.192 97.9209 191.179 98.0272C191.166 98.1335 191.16 98.252 191.148 98.3787C191.129 98.6308 191.098 98.9156 191.087 99.2344C191.079 99.3938 191.07 99.5614 191.062 99.7345C191.054 99.9075 191.055 100.09 191.052 100.28C191.04 100.656 191.052 101.056 191.061 101.479C191.12 103.313 191.375 105.118 191.817 106.82C191.924 107.207 192.02 107.579 192.132 107.91C192.187 108.077 192.235 108.242 192.289 108.395L192.447 108.831C192.542 109.113 192.649 109.351 192.735 109.565C192.779 109.673 192.822 109.774 192.857 109.864C192.893 109.954 192.934 110.031 192.968 110.105C193.033 110.241 193.083 110.36 193.121 110.44L193.159 110.529C193.164 110.538 193.168 110.548 193.171 110.559Z" fill="#C4602C"/>
<path d="M189.032 103.413L179.789 106.411C179.789 106.411 179.748 107.827 179.975 107.838C180.165 107.847 187.036 105.904 189.265 105.272C189.35 105.248 189.431 105.195 189.503 105.116C189.574 105.038 189.634 104.937 189.677 104.819C189.721 104.701 189.748 104.569 189.756 104.434C189.765 104.298 189.754 104.161 189.725 104.032C189.677 103.815 189.58 103.633 189.452 103.52C189.325 103.406 189.175 103.368 189.032 103.413Z" fill="white"/>
<path d="M198.318 102.076C198.32 100.298 197.332 98.8552 196.112 98.8525C194.893 98.8498 193.902 100.289 193.901 102.066C193.899 103.843 194.887 105.287 196.107 105.289C197.327 105.292 198.317 103.853 198.318 102.076Z" fill="#B96249"/>
<path d="M198.319 102.077C198.318 102.059 198.318 102.04 198.319 102.022C198.319 101.983 198.314 101.931 198.312 101.864C198.312 101.829 198.312 101.791 198.306 101.747C198.301 101.703 198.297 101.658 198.291 101.611C198.285 101.563 198.279 101.507 198.273 101.45C198.267 101.393 198.252 101.333 198.241 101.269C198.216 101.129 198.184 100.993 198.146 100.86C197.985 100.314 197.732 99.8469 197.414 99.5097C197.142 99.2192 196.833 99.0257 196.508 98.9428C196.419 98.9193 196.33 98.9047 196.24 98.8992C196.194 98.8992 196.148 98.8897 196.102 98.8911L195.962 98.902H195.892L195.82 98.9169L195.678 98.9496L195.536 99.0028L195.464 99.0287L195.394 99.0668C194.996 99.265 194.643 99.6387 194.377 100.143C194.089 100.683 193.93 101.365 193.93 102.069C193.93 102.774 194.089 103.455 194.377 103.995C194.642 104.501 194.995 104.876 195.392 105.076L195.462 105.114L195.534 105.141L195.676 105.194L195.819 105.227L195.889 105.243H195.96L196.1 105.254C196.146 105.254 196.192 105.254 196.238 105.247C196.327 105.242 196.417 105.228 196.505 105.204C196.828 105.122 197.135 104.929 197.405 104.64C197.809 104.231 198.105 103.606 198.237 102.881C198.247 102.817 198.26 102.758 198.268 102.701C198.276 102.644 198.281 102.589 198.286 102.539C198.292 102.488 198.298 102.443 198.302 102.402C198.306 102.362 198.302 102.321 198.307 102.287C198.311 102.219 198.313 102.166 198.315 102.127C198.316 102.109 198.317 102.092 198.319 102.074C198.32 102.092 198.32 102.11 198.319 102.129V102.287C198.319 102.322 198.319 102.362 198.319 102.405C198.319 102.449 198.311 102.495 198.305 102.541C198.3 102.588 198.295 102.646 198.29 102.705C198.285 102.763 198.27 102.822 198.259 102.887C198.235 103.03 198.204 103.17 198.166 103.306C198.12 103.467 198.066 103.622 198.004 103.769C197.852 104.128 197.656 104.438 197.429 104.681C197.154 104.978 196.84 105.175 196.511 105.26C196.421 105.284 196.33 105.299 196.238 105.305C196.192 105.305 196.145 105.314 196.098 105.313L195.957 105.303H195.885L195.813 105.287L195.667 105.254L195.523 105.201L195.45 105.174L195.379 105.136C194.973 104.933 194.613 104.551 194.342 104.036C194.046 103.485 193.884 102.787 193.884 102.067C193.884 101.346 194.046 100.648 194.342 100.097C194.615 99.5841 194.978 99.2057 195.385 99.0069L195.456 98.9701L195.529 98.9428L195.674 98.8897L195.819 98.857L195.891 98.842H195.963L196.105 98.8325C196.152 98.8325 196.199 98.8393 196.245 98.842C196.337 98.8476 196.428 98.8631 196.517 98.8883C196.844 98.9723 197.155 99.1681 197.428 99.462C197.655 99.7056 197.849 100.016 198 100.376C198.117 100.646 198.203 100.944 198.255 101.259C198.265 101.323 198.277 101.383 198.285 101.442C198.292 101.5 198.296 101.555 198.3 101.605C198.305 101.656 198.31 101.702 198.314 101.742C198.319 101.781 198.314 101.823 198.314 101.859C198.314 101.927 198.314 101.979 198.314 102.018C198.317 102.037 198.319 102.057 198.319 102.077Z" fill="#C4602C"/>
<path d="M191.558 95.5201C191.558 95.5269 191.545 95.5501 191.531 95.5814C191.516 95.6128 191.507 95.6414 191.502 95.6387C191.497 95.6359 191.502 95.6005 191.516 95.5637C191.53 95.5269 191.555 95.5106 191.558 95.5201Z" fill="#B96249"/>
<path d="M93.7762 134.278C93.7762 134.278 96.3511 148.827 95.8579 150.635C95.3648 151.917 94.4909 153.022 93.3499 153.808L99.1182 167.289V156.743C99.1182 156.743 100.707 132.329 100.899 121.397C100.981 115.97 100.766 110.542 100.255 105.138L97.5215 105.573C97.5215 105.573 94.3865 128.417 93.7762 134.278Z" fill="white" stroke="#263238" stroke-linecap="round" stroke-linejoin="round"/>
<path d="M81.7209 311.106L80.1158 299.5L69.4568 298.678L70.7024 311.361C72.2713 312.611 74.2409 313.271 76.2593 313.224C78.2777 313.178 80.2135 312.427 81.7209 311.106Z" fill="white" stroke="#263238" stroke-linecap="round" stroke-linejoin="round"/>
<path d="M70.0086 309.89C69.6574 312.75 69.3147 315.759 70.1507 318.496C70.9867 321.233 73.4362 323.543 75.8438 322.869C76.3956 322.721 76.9223 322.417 77.5158 322.318C78.5859 322.137 79.6393 322.696 80.6425 323.181C86.7285 326.132 102.596 324.866 103.85 324.217C104.212 324.003 104.506 323.694 104.7 323.326C104.894 322.957 104.98 322.543 104.949 322.129C104.918 321.715 104.77 321.317 104.523 320.981C104.276 320.644 103.939 320.382 103.549 320.222C96.2673 316.827 96.7355 317.682 84.7138 310.983C82.5569 309.783 81.2778 310.358 80.191 311.46C79.4779 312.146 78.6114 312.659 77.6607 312.958C76.71 313.257 75.7015 313.333 74.7155 313.181C73.7295 313.028 72.7935 312.651 71.9821 312.08C71.1706 311.508 70.5063 310.758 70.042 309.89H70.0086Z" fill="#263238"/>
<path d="M81.0189 284.868C75.5765 291.518 68.7631 300.034 68.7631 300.034L63.8474 289.627C63.8474 289.627 75.2672 276.295 81.1275 262.23C81.1275 264.984 81.3533 267.984 81.4285 269.702C81.6291 274.897 81.1025 279.698 81.0189 284.868Z" fill="#263238"/>
<path d="M69.4652 313.038C69.4399 313.477 69.263 313.895 68.9636 314.222C68.0273 315.044 66.9906 313.556 66.2048 312.578C63.7895 309.42 61.6129 306.093 59.6924 302.623L59.0821 297.272L57.293 298.004H57.0673L56.549 297.108C52.5864 290.301 57.3181 288.978 62.3592 289.2C62.936 289.2 64.1399 289.348 66.0794 293.006C66.601 293.85 67.0673 294.726 67.4755 295.628C69.7234 301.149 70.4109 307.164 69.4652 313.038Z" fill="#263238"/>
<path d="M100.589 172.969C100.403 170.016 100.375 167.056 100.506 164.1C100.561 161.795 100.073 159.509 99.0813 157.42C98.0894 155.331 96.6199 153.496 94.7876 152.057C94.7876 152.057 90.4069 157.811 77.892 157.811H77.265C71.6913 157.679 66.1642 156.777 60.846 155.132C58.5918 154.438 56.3809 153.614 54.2249 152.666C54.2249 152.666 54.4757 169.106 55.0023 184.387C55.4538 196.511 58.6306 250.969 60.637 268.297C62.309 282.731 67.2748 296.984 67.8684 303.141C68.1526 306.043 74.8155 305.139 78.0007 304.021C82.1807 302.549 82.4733 301.678 82.4733 301.678C82.7492 297.206 81.537 289.348 81.6373 284.901C93.0403 270.927 110.78 248.815 111.282 245.404C115.153 218.903 101.007 175.715 100.589 172.969ZM89.6796 241.195C89.387 242.987 85.5999 252.374 81.3196 262.625C81.3196 258.087 83.3594 253.361 83.9614 246.037C85.1067 231.948 82.1974 216.445 82.607 205.126C84.9228 214.858 90.2147 237.833 89.6796 241.162V241.195Z" fill="#263238"/>
<path d="M107.578 249.571C105.754 251.099 103.624 252.233 101.325 252.9" stroke="#BFBFBF" stroke-linecap="round" stroke-linejoin="round"/>
<path d="M110.137 246.916C109.777 247.383 109.392 247.831 108.983 248.256" stroke="#BFBFBF" stroke-linecap="round" stroke-linejoin="round"/>
<path d="M85.1905 162.817C86.3358 168.81 86.5197 176.906 84.0201 182.48C83.3959 183.434 82.6515 184.307 81.8047 185.077" stroke="#BFBFBF" stroke-linecap="round" stroke-linejoin="round"/>
<path d="M65.4441 162.176C64.767 165.053 63.5464 169.796 61.958 172.303C60.4342 174.892 57.9308 176.783 54.9941 177.564" stroke="#BFBFBF" stroke-linecap="round" stroke-linejoin="round"/>
<path d="M80.8767 168.243C81.7545 177.959 81.7127 187.387 82.6574 203.72" stroke="#BFBFBF" stroke-linecap="round" stroke-linejoin="round"/>
<path d="M80.3416 163.212C80.4335 163.985 80.5255 164.749 80.6091 165.505" stroke="white" stroke-linecap="round" stroke-linejoin="round"/>
<path d="M89.7214 238.54C90.2913 242.542 91.4428 246.442 93.1407 250.122" stroke="#BFBFBF" stroke-linecap="round" stroke-linejoin="round"/>
<path d="M90.4322 242.305C89.6984 248.008 90.0185 253.795 91.3769 259.386" stroke="#BFBFBF" stroke-linecap="round" stroke-linejoin="round"/>
<path d="M57.5688 176.578C59.0987 198.985 61.2222 216.034 62.9192 233.049" stroke="#BFBFBF" stroke-linecap="round" stroke-linejoin="round"/>
<path d="M62.9778 238.959C62.9778 238.261 62.9778 237.545 62.9778 236.83" stroke="#BFBFBF" stroke-linecap="round" stroke-linejoin="round"/>
<path d="M72.759 304.695C71.5803 301.102 63.4376 273.459 63.0531 261.992C62.7939 254.388 62.4846 248.971 62.8775 241.623" stroke="#BFBFBF" stroke-linecap="round" stroke-linejoin="round"/>
<path d="M81.997 260.035L81.7043 284.786" stroke="#BFBFBF" stroke-linecap="round" stroke-linejoin="round"/>
<path d="M98.558 89.7417C96.6018 79.8777 89.9389 78.5953 88.4257 78.1268C78.0008 74.8963 70.8697 74.3538 62.6267 77.9049C52.9709 82.0806 51.0314 82.2286 48.0553 93.0625C46.3833 98.9892 49.6687 118.947 51.625 127.636C53.1883 134.549 52.7954 152.46 55.805 155.329C61.3895 160.647 69.3064 159.883 76.9641 158.551C83.5936 157.392 94.6623 155.847 97.1786 149.707C97.5381 148.827 97.5047 145.112 97.3793 139.752C96.978 123.534 98.0815 114.229 97.9143 103.847L100.155 102.828C100.155 102.828 100.347 98.7261 98.558 89.7417Z" fill="#43639F"/>
<mask id="mask0_436_1878" style="mask-type:luminance" maskUnits="userSpaceOnUse" x="47" y="75" width="54" height="85">
<path d="M98.558 89.7417C96.6018 79.8777 89.9389 78.5953 88.4257 78.1268C78.0008 74.8963 70.8697 74.3538 62.6267 77.9049C52.9709 82.0806 51.0314 82.2286 48.0553 93.0625C46.3833 98.9892 49.6687 118.947 51.625 127.636C53.1883 134.549 52.7954 152.46 55.805 155.329C61.3895 160.647 69.3064 159.883 76.9641 158.551C83.5936 157.392 94.6623 155.847 97.1786 149.707C97.5381 148.827 97.5047 145.112 97.3793 139.752C96.978 123.534 98.0815 114.229 97.9143 103.847L100.155 102.828C100.155 102.828 100.347 98.7261 98.558 89.7417Z" fill="white"/>
</mask>
<g mask="url(#mask0_436_1878)">
<path opacity="0.2" d="M50.3041 110.834C50.5967 114.188 49.4681 117.788 50.9478 120.805C51.338 121.661 51.9777 122.383 52.7859 122.88C53.594 123.378 54.5342 123.628 55.4873 123.6C56.6744 123.477 57.7946 122.778 58.9817 122.909C60.5033 123.066 61.5483 124.438 62.4428 125.663C64.3134 128.499 66.7098 130.964 69.507 132.93C72.3745 134.779 76.0194 135.708 79.3049 134.738C78.4369 136.135 77.4585 137.462 76.3789 138.708C78.2014 138.042 82.2309 135.157 85.7588 135.141L97.0197 135.067C97.7471 132.749 96.0583 130.209 93.8179 129.181C91.5774 128.154 88.9858 128.285 86.5363 128.614C84.0868 128.943 81.6123 129.436 79.1711 129.107C75.9017 128.501 72.9571 126.774 70.8613 124.233C68.7923 121.704 67.033 118.945 65.6196 116.013C65.0093 117.147 63.3206 117.287 62.1836 116.67C61.1096 115.944 60.213 114.992 59.5586 113.884C57.3265 110.785 53.0545 105.623 49.1169 104.784C48.4649 106.437 50.1452 109.009 50.3041 110.834Z" fill="black"/>
<path opacity="0.2" d="M84.9229 127.299C89.2868 125.655 92.2128 121.397 93.4751 116.958C94.2275 114.278 95.9246 106.921 94.0352 104.628C92.6224 108.483 91.6443 112.478 90.1144 116.309C89.3286 118.265 88.4926 120.197 87.6064 122.063C87.155 122.975 85.8425 126.945 84.9229 127.299Z" fill="black"/>
<path opacity="0.2" d="M53.3973 139.81C56.1979 146.443 62.6518 151.153 69.6575 153.184C76.6632 155.214 84.8225 155.14 92.0038 153.808C82.7493 158.962 70.4768 159.464 60.5702 155.658C58.7895 154.976 57.0172 155.765 55.7047 154.392C52.6951 151.252 52.8288 144.758 53.1967 140.418L51.5247 140.492" fill="black"/>
<path opacity="0.2" d="M71.8143 87.9168C72.1323 88.3864 72.6044 88.7346 73.1519 88.9032C73.4712 88.9346 73.7933 88.8836 74.0865 88.7553C74.3797 88.627 74.6338 88.4259 74.8239 88.1717C75.2031 87.6544 75.5333 87.1041 75.8104 86.5277C76.6078 85.1346 77.8426 84.0329 79.33 83.3876C80.1377 85.2973 81.3587 87.0111 82.908 88.41H83.4264C84.2355 86.4954 84.4649 84.3917 84.0868 82.3519C84.0153 82.6135 83.8881 82.8572 83.7138 83.0669C83.5394 83.2766 83.3218 83.4475 83.0752 83.5685C82.6824 82.7349 82.1638 81.9645 81.537 81.2833C81.2198 80.9459 80.8301 80.6823 80.3963 80.5117C79.9624 80.3411 79.4953 80.2677 79.029 80.2969C78.6349 80.359 78.2536 80.484 77.9004 80.6668C75.5763 81.7765 73.9378 83.9548 72.7088 86.1495C70.9812 84.9018 69.1807 83.7545 67.3167 82.7136C68.6961 84.4727 70.3012 86.1742 71.8143 87.9168Z" fill="black"/>
</g>
<path d="M98.558 89.7417C96.6018 79.8777 89.9389 78.5953 88.4257 78.1268C78.0008 74.8963 70.8697 74.3538 62.6267 77.9049C52.9709 82.0806 51.0314 82.2286 48.0553 93.0625C46.3833 98.9892 49.6687 118.947 51.625 127.636C53.1883 134.549 52.7954 152.46 55.805 155.329C61.3895 160.647 69.3064 159.883 76.9641 158.551C83.5936 157.392 94.6623 155.847 97.1786 149.707C97.5381 148.827 97.5047 145.112 97.3793 139.752C96.978 123.534 98.0815 114.229 97.9143 103.847L100.155 102.828C100.155 102.828 100.347 98.7261 98.558 89.7417Z" stroke="#263238" stroke-miterlimit="10"/>
<path d="M81.4367 75.9403C82.6916 75.9386 83.9157 75.5586 84.9442 74.8517C85.9726 74.1447 86.7559 73.1447 87.1884 71.9865C88.3922 68.6985 88.9524 58.2262 88.9524 56.3191C88.9524 54.4121 87.4225 50.5651 87.1132 48.3786C86.8039 46.1921 85.4412 41.6382 85.4412 41.6382L81.3866 37.7913L75.8104 40.1093L67.9186 41.1368C67.9186 41.1368 66.4472 53.7216 64.4325 51.6995C62.4177 49.6774 56.3317 52.2749 56.7079 57.0425C57.0841 61.8101 63.2872 61.7443 63.2872 61.7443C63.2872 61.7443 64.8254 63.2322 65.745 68.1888C66.3202 71.2713 66.34 74.4293 65.8035 77.5185C66.7976 78.7204 68.087 79.6531 69.5499 80.2285C71.0127 80.8038 72.6007 81.0028 74.1635 80.8065C79.5056 80.1407 80.0155 76.5732 80.0155 76.5732C80.0155 76.5732 80.0824 75.9732 81.4367 75.9403Z" fill="white"/>
<path d="M63.3791 54.782C62.192 53.138 57.9284 50.4747 56.8917 56.0479C55.8551 61.621 61.5148 61.2676 64.4826 61.9581C66.7064 65.5995 71.1706 71.7152 74.9326 73.6305C77.265 74.8224 80.1827 76.2033 82.9331 75.891C85.6836 75.5786 86.7787 73.9593 87.3138 71.4028C88.0547 67.9708 88.5381 64.4898 88.76 60.9881C88.8938 58.7605 89.2867 55.7766 88.3671 53.6641C87.0462 50.6145 87.3305 47.0881 86.3189 43.9727C85.3074 40.8573 82.5653 38.5722 80.0238 36.5747" stroke="#263238" stroke-linecap="round" stroke-linejoin="round"/>
<path d="M73.57 52.7434C75.3089 51.683 76.8221 51.2227 78.2851 52.7434C78.6947 52.7434 79.6394 51.0994 79.6394 51.0994C79.2078 50.5821 78.6261 50.2067 77.9718 50.0231C77.3175 49.8395 76.6219 49.8565 75.9777 50.0719C73.4279 50.6801 73.57 52.7434 73.57 52.7434Z" fill="#263238"/>
<path d="M77.4407 65.1145C78.6362 66.8078 79.9069 67.3257 82.1473 67.1366" stroke="#263238" stroke-linecap="round" stroke-linejoin="round"/>
<path d="M76.5795 55.3409C76.964 55.3409 77.3402 55.9081 77.4155 56.689C77.4907 57.4699 77.2232 58.1275 76.8303 58.1522C76.4374 58.1768 76.0695 57.5768 75.9943 56.8041C75.9191 56.0314 76.22 55.3738 76.5795 55.3409Z" fill="#263238"/>
<path d="M85.0567 54.2395C85.4579 54.2395 85.8341 54.7985 85.8927 55.5794C85.9512 56.3603 85.7087 57.0261 85.3074 57.059C84.9062 57.0918 84.5383 56.4836 84.4714 55.7109C84.4046 54.9382 84.6637 54.2806 85.0567 54.2395Z" fill="#263238"/>
<path d="M84.1202 51.8392C84.1202 51.8392 86.043 50.9185 86.8121 51.5843C86.8121 51.5843 87.3639 49.702 85.9092 49.2663C85.5462 49.1179 85.14 49.1073 84.7694 49.2363C84.3988 49.3654 84.09 49.625 83.9028 49.965L83.9613 51.9953L84.1202 51.8392Z" fill="#263238"/>
<path d="M80.1326 75.7758C80.1827 75.7758 79.7731 78.9076 78.4606 79.7872C77.5826 80.5455 76.4523 80.9608 75.2838 80.9544C72.5835 81.1846 67.2415 79.7954 65.8286 77.5185C66.3476 75.2715 66.4298 72.9483 66.0711 70.6712C65.8286 67.7207 65.2853 64.8017 64.4492 61.958C64.4492 61.958 71.4465 74.7566 80.1326 75.7758Z" stroke="#263238" stroke-linecap="round" stroke-linejoin="round"/>
<path d="M66.4724 75.1593C64.6332 75.5867 63.1284 75.6854 62.7271 76.9266C62.4596 77.7486 63.0698 78.472 63.7219 79.1542C66.4329 81.9186 69.5564 84.2607 72.9848 86.1001C74.4888 83.8735 76.3362 81.8906 78.4606 80.2228C74.4884 79.4677 70.7174 77.9146 67.3836 75.6607L66.4724 75.1593Z" fill="white" stroke="#263238" stroke-linecap="round" stroke-linejoin="round"/>
<path d="M80.1828 76.0225C80.7212 76.0348 81.2492 76.1714 81.724 76.4213C82.1989 76.6712 82.6074 77.0273 82.9165 77.461C83.7023 78.3405 84.3377 81.9491 83.5351 84.2425C81.7461 82.2039 80.6426 79.1214 78.0593 79.9187C80.0824 79.294 80.1828 76.0225 80.1828 76.0225Z" fill="white" stroke="#263238" stroke-linecap="round" stroke-linejoin="round"/>
<path d="M66.188 64.572C66.188 64.572 69.5821 76.8527 73.4361 78.0199C74.5691 78.3336 75.77 78.3198 76.8953 77.9802C78.0205 77.6405 79.0225 76.9894 79.7813 76.1047C72.667 73.8195 66.188 64.572 66.188 64.572Z" fill="#263238"/>
<path d="M69.4067 50.4336C67.0576 51.8392 65.4357 56.0478 67.1244 58.2508C68.8131 60.4538 67.0743 61.7607 66.2884 62.5088C65.6895 61.3343 65.1673 60.1235 64.7251 58.8837C64.2151 57.4206 64.2653 56.1383 63.4293 54.8313C62.9695 54.1079 60.8461 52.9489 60.0017 52.727C58.7561 52.3982 57.4937 53.7216 57.0924 54.9299C56.8057 56.1743 56.846 57.4699 57.2095 58.6947C55.5375 56.9274 55.4037 56.4342 55.2365 54.0504C55.2551 52.7492 55.1937 51.448 55.0526 50.1541C54.7851 48.806 54.0912 47.5566 53.9073 46.2003C53.5896 43.8083 54.8854 41.5313 56.1394 39.4599C57.235 37.4028 58.6669 35.5367 60.3779 33.936C61.9681 32.7077 63.7608 31.7568 65.6781 31.1248C69.9585 29.5383 74.5899 28.5355 79.1127 29.2095C83.6354 29.8836 88.0412 32.4975 89.9807 36.5253C90.7225 37.8777 90.9451 39.4474 90.6077 40.9477C90.3894 41.7034 89.9707 42.3884 89.3945 42.9325C88.8183 43.4767 88.1053 43.8605 87.3287 44.0445C86.552 44.2285 85.7395 44.2062 84.9744 43.9798C84.2094 43.7534 83.5194 43.3311 82.975 42.7561C83.9061 42.9853 84.8892 42.8924 85.7589 42.4931C86.1875 42.2861 86.5513 41.969 86.8118 41.5754C87.0722 41.1819 87.2197 40.7264 87.2386 40.2572C87.2204 39.9477 87.1342 39.6458 86.986 39.3722C86.8378 39.0986 86.631 38.8599 86.38 38.6724C86.1289 38.4849 85.8395 38.3531 85.5317 38.2861C85.2238 38.2192 84.9049 38.2186 84.5968 38.2844C84.3014 38.3889 84.0345 38.559 83.8169 38.7814C83.5993 39.0039 83.4368 39.2728 83.3421 39.5671C83.2475 39.8614 83.2232 40.1732 83.2712 40.4783C83.3191 40.7833 83.4381 41.0734 83.6187 41.3258L82.1724 40.6107L82.0136 41.556L80.3416 40.397L80.2162 41.219C79.4471 40.9148 74.0465 41.219 72.1989 41.4162C71.2727 41.505 70.3572 41.6811 69.4652 41.9423C68.462 42.2382 68.1778 42.3369 67.9939 43.3726C67.4756 46.3565 66.8318 48.7649 69.4067 50.4336Z" fill="#263238"/>
<path d="M70.0505 35.7197C69.8938 35.8606 69.7721 36.0349 69.6946 36.2293C69.6172 36.4237 69.5862 36.633 69.604 36.841C69.6218 37.049 69.6878 37.2503 69.7971 37.4293C69.9064 37.6082 70.056 37.7602 70.2344 37.8734" stroke="#BFBFBF" stroke-linecap="round" stroke-linejoin="round"/>
<path d="M71.7476 36.0814C71.642 36.2341 71.5854 36.4146 71.5854 36.5993C71.5854 36.784 71.642 36.9644 71.7476 37.1171" stroke="#BFBFBF" stroke-linecap="round" stroke-linejoin="round"/>
<path d="M73.4948 36.0732C73.4028 36.4103 73.3025 36.7555 73.2021 37.0925" stroke="#BFBFBF" stroke-linecap="round" stroke-linejoin="round"/>
<path d="M77.8921 35.2349C77.557 35.486 77.3062 35.8301 77.1721 36.2228C77.038 36.6155 77.0267 37.0387 77.1397 37.4378" stroke="#BFBFBF" stroke-linecap="round" stroke-linejoin="round"/>
<path d="M79.0458 37.6022C78.9909 37.0749 79.1365 36.5463 79.4545 36.1183C79.7724 35.6902 80.2403 35.3931 80.7679 35.2842" stroke="#BFBFBF" stroke-linecap="round" stroke-linejoin="round"/>
<path d="M80.6426 37.7748C81.0065 37.03 81.5753 36.4004 82.2845 35.9573C82.9938 35.5142 83.8151 35.2753 84.6554 35.2677" stroke="#BFBFBF" stroke-linecap="round" stroke-linejoin="round"/>
<path d="M82.022 38.4982C82.3093 38.0124 82.7076 37.599 83.1853 37.2905C83.6631 36.9821 84.2072 36.7871 84.7748 36.7209C85.3423 36.6547 85.9178 36.7192 86.4556 36.9092C86.9935 37.0993 87.4791 37.4097 87.874 37.8159" stroke="#BFBFBF" stroke-linecap="round" stroke-linejoin="round"/>
<path d="M65.4691 37.2898C65.3572 37.4539 65.2835 37.6403 65.2534 37.8357C65.2233 38.031 65.2375 38.2305 65.2951 38.4199C65.3526 38.6092 65.452 38.7837 65.5862 38.9308C65.7203 39.0779 65.8859 39.194 66.0711 39.2708" stroke="#BFBFBF" stroke-linecap="round" stroke-linejoin="round"/>
<path d="M67.9688 34.8239C67.4817 35.6191 67.3122 36.5637 67.4928 37.4749C67.6735 38.386 68.1917 39.1988 68.9469 39.7559" stroke="#BFBFBF" stroke-linecap="round" stroke-linejoin="round"/>
<path d="M63.3291 38.679C63.2843 38.8141 63.2714 38.9574 63.2913 39.0982C63.3112 39.2389 63.3634 39.3734 63.4439 39.4914C63.5245 39.6094 63.6313 39.7078 63.7562 39.7793C63.8811 39.8507 64.021 39.8933 64.1651 39.9037" stroke="#BFBFBF" stroke-linecap="round" stroke-linejoin="round"/>
<path d="M61.423 39.8462C61.3748 40.027 61.398 40.2191 61.488 40.3838C61.5779 40.5485 61.728 40.6736 61.9079 40.734" stroke="#BFBFBF" stroke-linecap="round" stroke-linejoin="round"/>
<path d="M59.7342 41.0134C59.715 41.0646 59.7073 41.1192 59.7116 41.1736C59.7159 41.228 59.7321 41.2808 59.7591 41.3284C59.7861 41.376 59.8233 41.4173 59.868 41.4495C59.9128 41.4817 59.9641 41.504 60.0185 41.5148" stroke="#BFBFBF" stroke-linecap="round" stroke-linejoin="round"/>
<path d="M94.5119 102.047C94.9215 116.177 93.1994 130.957 76.1199 138.774" stroke="#263238" stroke-linecap="round" stroke-linejoin="round"/>
<path d="M69.1226 145.218C76.5645 147.216 84.3329 147.758 91.9872 146.813" stroke="#263238" stroke-linecap="round" stroke-linejoin="round"/>
<path d="M63.2288 143.303C64.2069 143.673 65.1934 144.026 66.1882 144.347" stroke="#263238" stroke-linecap="round" stroke-linejoin="round"/>
<path d="M153.383 124.414C153.414 124.066 153.36 123.717 153.226 123.394C153.091 123.072 152.88 122.786 152.609 122.561C152.339 122.335 152.018 122.177 151.672 122.099C151.327 122.02 150.967 122.025 150.624 122.112C150.624 122.194 150.44 122.219 150.457 122.293C151.103 122.79 151.609 123.44 151.928 124.183C152.413 124.216 152.898 124.397 153.383 124.414Z" stroke="#263238" stroke-linecap="round" stroke-linejoin="round"/>
<path d="M143.259 120.41C144.998 121.084 147.439 122.153 148.601 123.592C150.858 126.386 151.343 126.386 151.343 126.386" stroke="#263238" stroke-linecap="round" stroke-linejoin="round"/>
<path d="M52.1767 83.6423C52.1767 83.6423 46.6424 88.5743 48.2057 101.611C49.0417 108.253 57.1426 119.284 57.1426 119.284L79.1879 112.404C79.1879 112.404 73.9796 100.83 68.462 93.0131" stroke="#263238" stroke-miterlimit="10"/>
<path d="M72.04 92.7748C73.4708 96.0193 74.2894 99.4926 74.4561 103.025" stroke="#263238" stroke-linecap="round" stroke-linejoin="round"/>
<path d="M84.463 51.3542C84.463 51.4036 82.3229 54.6422 82.9917 55.5464C85.6502 58.9824 86.018 63.0431 84.856 63.2322C83.3177 63.4705 82.1724 62.254 81.512 61.8101" stroke="#263238" stroke-linecap="round" stroke-linejoin="round"/>
<path d="M50.5883 114.599L54.9522 119.975L79.1962 112.404L76.2201 106.395C76.2201 106.395 50.1369 114.599 50.5883 114.599Z" fill="white" stroke="#263238" stroke-linecap="round" stroke-linejoin="round"/>
<path d="M79.6394 80.3215C79.6394 80.1817 82.6156 95.997 82.6156 95.997L80.6342 96.4491" stroke="#263238" stroke-linecap="round" stroke-linejoin="round"/>
<path d="M97.956 101.258L101.141 100.099L101.342 104.982L97.8975 106.239L97.956 101.258Z" fill="white" stroke="#263238" stroke-linecap="round" stroke-linejoin="round"/>
<path d="M96.2004 92.7666C97.0787 97.1688 97.6651 101.622 97.956 106.099Z" fill="white"/>
<path d="M96.2004 92.7666C97.0787 97.1688 97.6651 101.622 97.956 106.099" stroke="#263238" stroke-linecap="round" stroke-linejoin="round"/>
<path d="M95.1807 87.3989C95.3646 88.4346 95.5485 89.421 95.7408 90.3992Z" fill="white"/>
<path d="M95.1807 87.3989C95.3646 88.4346 95.5485 89.421 95.7408 90.3992" stroke="#263238" stroke-linecap="round" stroke-linejoin="round"/>
<path d="M152.497 125.869C151.953 124.341 151.178 122.903 150.198 121.602C147.13 119.284 148.467 118.536 142.523 117.492C142.523 117.558 131.037 120.41 124.783 123.246C124.783 123.246 83.6604 118.462 83.6604 118.076L77.3068 109.856L59.4248 112.593C59.4248 112.593 68.9636 127.825 76.1448 131.729C76.1448 131.729 110.421 130.907 121.54 130.85C127.584 130.85 130.978 133.875 136.922 127.34C136.922 127.34 140.166 130.488 142.097 129.584C143.368 129.239 139.238 125.819 137.825 124.701C138.276 124.956 144.63 129.272 148.166 129.395C148.334 129.403 148.501 129.357 148.639 129.262C148.778 129.168 148.88 129.031 148.931 128.873C148.982 128.715 148.978 128.545 148.919 128.389C148.861 128.234 148.752 128.102 148.609 128.014C148.609 128.014 139.815 123.164 140.249 122.548C140.249 122.548 145.123 124.274 145.901 125.334C149.153 129.724 151.351 128.187 151.661 127.924C152.296 127.381 151.41 126.888 151.41 126.378C151.343 126.386 152.647 126.756 152.497 125.869Z" fill="white" stroke="#263238" stroke-linecap="round" stroke-linejoin="round"/>
</svg>
