<svg width="56" height="57" viewBox="0 0 56 57" fill="none" xmlns="http://www.w3.org/2000/svg">
<path d="M7 30.875V15.125C7 11.3538 7 9.46815 8.17157 8.29657C9.34315 7.125 11.2288 7.125 15 7.125H41C44.7712 7.125 46.6569 7.125 47.8284 8.29657C49 9.46815 49 11.3538 49 15.125V41.875C49 45.6462 49 47.5319 47.8284 48.7034C46.6569 49.875 44.7712 49.875 41 49.875H28" stroke="#2C5390" stroke-width="2"/>
<path fill-rule="evenodd" clip-rule="evenodd" d="M47 36.9121L42.0019 31.8248L41.9469 31.7688C41.0932 30.8997 40.3749 30.1686 39.7382 29.6862C39.0696 29.1798 38.3112 28.8066 37.4064 28.9526C36.5015 29.0986 35.899 29.6913 35.4237 30.3824C34.9709 31.0405 34.5191 31.9605 33.982 33.054L33.9474 33.1243L33.1202 34.8084C32.8008 35.4585 32.6091 35.8428 32.4416 36.0857L32.434 36.0967L32.424 36.0879C32.2029 35.8925 31.9243 35.5657 31.4577 35.0116L19.4316 20.7306C19.0758 20.3081 18.445 20.2541 18.0225 20.6098C17.6001 20.9656 17.546 21.5964 17.9017 22.0189L29.9279 36.2999L29.9724 36.3528C30.3791 36.8358 30.7536 37.2807 31.0995 37.5864C31.4718 37.9155 31.9973 38.2532 32.6873 38.1688C33.3773 38.0845 33.806 37.6302 34.0881 37.2211C34.3502 36.841 34.6065 36.319 34.8848 35.7522L34.9153 35.6902L35.7425 34.0062C36.3235 32.8234 36.7121 32.0384 37.0715 31.5159C37.418 31.0121 37.6091 30.9458 37.725 30.9271C37.8408 30.9084 38.0431 30.9113 38.5305 31.2804C39.036 31.6634 39.6517 32.2864 40.5752 33.2264L45.9533 38.7005C46.2344 38.9866 46.6452 39.0679 47 38.9428V36.9121ZM32.327 36.2271C32.327 36.227 32.3283 36.2258 32.331 36.2238C32.3283 36.2263 32.327 36.2273 32.327 36.2271ZM32.568 36.1968C32.5672 36.1964 32.5661 36.1959 32.5646 36.1953C32.5678 36.197 32.5693 36.1976 32.5693 36.1975C32.5693 36.1975 32.5689 36.1972 32.568 36.1968Z" fill="#2C5390"/>
<ellipse cx="38.5" cy="17.8125" rx="3.5" ry="3.5625" fill="#2C5390"/>
<path d="M18.6667 38V37H19.6667V38H18.6667ZM7.63144 48.2754C7.20318 48.6242 6.57331 48.5597 6.22458 48.1314C5.87586 47.7032 5.94033 47.0733 6.36859 46.7246L7.63144 48.2754ZM17.6667 49.875V38H19.6667V49.875H17.6667ZM18.6667 39H7.00002V37H18.6667V39ZM19.2981 38.7754L7.63144 48.2754L6.36859 46.7246L18.0353 37.2246L19.2981 38.7754Z" fill="#2C5390"/>
</svg>
