<svg width="16" height="17" viewBox="0 0 16 17" fill="none" xmlns="http://www.w3.org/2000/svg">
<path d="M6.26996 1.5628C7.2749 2.01047 8.72527 2.01047 9.7302 1.5628C10.5467 1.19906 11.46 1.16533 12.3027 1.54648C14.0814 2.35096 14.879 4.70221 14.1042 6.82287L14.1047 6.82308L13.5862 8.18189C13.4638 8.50263 13.1706 8.71249 12.8448 8.71249H3.15539C2.82964 8.71249 2.53641 8.50263 2.41401 8.18189L1.89547 6.82308L1.89595 6.82287C1.12116 4.70221 1.91876 2.35096 3.69747 1.54648C4.54017 1.16534 5.45347 1.19907 6.26996 1.5628Z" fill="url(#paint0_linear_297_563)"/>
<path d="M6.26996 1.5628C7.2749 2.01047 8.72527 2.01047 9.7302 1.5628C10.5467 1.19906 11.46 1.16533 12.3027 1.54648C14.0814 2.35096 14.879 4.70221 14.1042 6.82287L14.1047 6.82308L13.5862 8.18189C13.4638 8.50263 13.1706 8.71249 12.8448 8.71249H3.15539C2.82964 8.71249 2.53641 8.50263 2.41401 8.18189L1.89547 6.82308L1.89595 6.82287C1.12116 4.70221 1.91876 2.35096 3.69747 1.54648C4.54017 1.16534 5.45347 1.19907 6.26996 1.5628Z" fill="url(#paint1_linear_297_563)" fill-opacity="0.1"/>
<path d="M6.26996 1.5628C7.2749 2.01047 8.72527 2.01047 9.7302 1.5628C10.5467 1.19906 11.46 1.16533 12.3027 1.54648C14.0814 2.35096 14.879 4.70221 14.1042 6.82287L14.1047 6.82308L13.5862 8.18189C13.4638 8.50263 13.1706 8.71249 12.8448 8.71249H3.15539C2.82964 8.71249 2.53641 8.50263 2.41401 8.18189L1.89547 6.82308L1.89595 6.82287C1.12116 4.70221 1.91876 2.35096 3.69747 1.54648C4.54017 1.16534 5.45347 1.19907 6.26996 1.5628Z" fill="url(#paint2_linear_297_563)" fill-opacity="0.05"/>
<path d="M4.3999 9.34999H11.5999L10.0957 14.1224C9.79399 15.0797 8.95012 15.725 7.9999 15.725C7.04969 15.725 6.20582 15.0797 5.90408 14.1224L4.3999 9.34999Z" fill="url(#paint3_linear_297_563)"/>
<path d="M2.3999 9.24374C2.3999 8.95034 2.62376 8.71249 2.8999 8.71249H13.0999C13.376 8.71249 13.5999 8.95034 13.5999 9.24374C13.5999 9.53715 13.376 9.77499 13.0999 9.77499H2.8999C2.62376 9.77499 2.3999 9.53715 2.3999 9.24374Z" fill="url(#paint4_linear_297_563)"/>
<path d="M5.3999 14.025C5.3999 13.7903 5.57899 13.6 5.7999 13.6H10.1999C10.4208 13.6 10.5999 13.7903 10.5999 14.025C10.5999 14.2597 10.4208 14.45 10.1999 14.45H5.7999C5.57899 14.45 5.3999 14.2597 5.3999 14.025Z" fill="url(#paint5_linear_297_563)"/>
<path d="M4.8999 12.5375C4.8999 12.3028 5.07899 12.1125 5.2999 12.1125H10.6999C10.9208 12.1125 11.0999 12.3028 11.0999 12.5375C11.0999 12.7722 10.9208 12.9625 10.6999 12.9625H5.2999C5.07899 12.9625 4.8999 12.7722 4.8999 12.5375Z" fill="url(#paint6_linear_297_563)"/>
<path d="M4.3999 11.05C4.3999 10.8153 4.57899 10.625 4.7999 10.625H11.1999C11.4208 10.625 11.5999 10.8153 11.5999 11.05C11.5999 11.2847 11.4208 11.475 11.1999 11.475H4.7999C4.57899 11.475 4.3999 11.2847 4.3999 11.05Z" fill="url(#paint7_linear_297_563)"/>
<defs>
<linearGradient id="paint0_linear_297_563" x1="3.29421" y1="1.27499" x2="11.4756" y2="15.0925" gradientUnits="userSpaceOnUse">
<stop stop-color="#F0F6F9"/>
<stop offset="1" stop-color="#CDDFF2"/>
</linearGradient>
<linearGradient id="paint1_linear_297_563" x1="7.9001" y1="9.03124" x2="7.9001" y2="8.39374" gradientUnits="userSpaceOnUse">
<stop offset="0.241809" stop-color="#065099"/>
<stop offset="1" stop-color="#DFEBF6" stop-opacity="0.47"/>
</linearGradient>
<linearGradient id="paint2_linear_297_563" x1="8.0001" y1="8.71249" x2="8.0001" y2="7.86249" gradientUnits="userSpaceOnUse">
<stop stop-color="#065099"/>
<stop offset="1" stop-color="#065099" stop-opacity="0"/>
</linearGradient>
<linearGradient id="paint3_linear_297_563" x1="11.5999" y1="14.0829" x2="3.31556" y2="11.5033" gradientUnits="userSpaceOnUse">
<stop stop-color="#BCC1D6"/>
<stop offset="1" stop-color="#E9ECFA"/>
</linearGradient>
<linearGradient id="paint4_linear_297_563" x1="6.00668" y1="8.71249" x2="9.05214" y2="9.18558" gradientUnits="userSpaceOnUse">
<stop stop-color="#F0F3FF"/>
<stop offset="1" stop-color="#E1E5F5"/>
</linearGradient>
<linearGradient id="paint5_linear_297_563" x1="7.07448" y1="13.6" x2="8.14453" y2="13.8642" gradientUnits="userSpaceOnUse">
<stop stop-color="#F1F4FF"/>
<stop offset="1" stop-color="#D5DAF0"/>
</linearGradient>
<linearGradient id="paint6_linear_297_563" x1="7.32178" y1="12.1125" x2="8.6192" y2="12.4629" gradientUnits="userSpaceOnUse">
<stop stop-color="#F1F4FF"/>
<stop offset="1" stop-color="#D5DAF0"/>
</linearGradient>
<linearGradient id="paint7_linear_297_563" x1="7.2999" y1="10.625" x2="8.8182" y2="11.0818" gradientUnits="userSpaceOnUse">
<stop stop-color="#F1F4FF"/>
<stop offset="1" stop-color="#D5DAF0"/>
</linearGradient>
</defs>
</svg>
