<svg width="71" height="75" viewBox="0 0 71 75" fill="none" xmlns="http://www.w3.org/2000/svg">
<path d="M4.51085 23.2408C7.67351 30.8597 12.8262 38.9474 20.9432 45.9256C24.089 48.6301 27.4927 50.8817 31.0308 52.7469L31.7368 48.3363C32.0523 46.3647 33.7459 44.9149 35.7336 44.9149C37.7212 44.9149 39.4149 46.3647 39.7304 48.3363L41.1154 56.9903C45.7789 58.5187 50.475 59.5267 54.9532 60.1497L55.7068 56.5735C57.7046 47.0923 60.7562 37.8641 64.8047 29.061L66.0023 26.4568C66.0014 26.4546 66.0014 26.4521 66.0022 26.4498C69.84 16.3387 65.8851 5.13011 57.0674 1.2946C52.889 -0.522933 48.3605 -0.362076 44.312 1.37244C39.3292 3.50723 32.1378 3.50722 27.155 1.37243C23.1065 -0.362067 18.5781 -0.522914 14.3997 1.2946C6.50712 4.72769 2.51048 14.0679 4.51085 23.2408Z" fill="url(#paint0_linear_418_78)"/>
<path d="M4.51085 23.2408C7.67351 30.8597 12.8262 38.9474 20.9432 45.9256C24.089 48.6301 27.4927 50.8817 31.0308 52.7469L31.7368 48.3363C32.0523 46.3647 33.7459 44.9149 35.7336 44.9149C37.7212 44.9149 39.4149 46.3647 39.7304 48.3363L41.1154 56.9903C45.7789 58.5187 50.475 59.5267 54.9532 60.1497L55.7068 56.5735C57.7046 47.0923 60.7562 37.8641 64.8047 29.061L66.0023 26.4568C66.0014 26.4546 66.0014 26.4521 66.0022 26.4498C69.84 16.3387 65.8851 5.13011 57.0674 1.2946C52.889 -0.522933 48.3605 -0.362076 44.312 1.37244C39.3292 3.50723 32.1378 3.50722 27.155 1.37243C23.1065 -0.362067 18.5781 -0.522914 14.3997 1.2946C6.50712 4.72769 2.51048 14.0679 4.51085 23.2408Z" fill="url(#paint1_linear_418_78)" fill-opacity="0.1"/>
<path d="M4.51085 23.2408C7.67351 30.8597 12.8262 38.9474 20.9432 45.9256C24.089 48.6301 27.4927 50.8817 31.0308 52.7469L31.7368 48.3363C32.0523 46.3647 33.7459 44.9149 35.7336 44.9149C37.7212 44.9149 39.4149 46.3647 39.7304 48.3363L41.1154 56.9903C45.7789 58.5187 50.475 59.5267 54.9532 60.1497L55.7068 56.5735C57.7046 47.0923 60.7562 37.8641 64.8047 29.061L66.0023 26.4568C66.0014 26.4546 66.0014 26.4521 66.0022 26.4498C69.84 16.3387 65.8851 5.13011 57.0674 1.2946C52.889 -0.522933 48.3605 -0.362076 44.312 1.37244C39.3292 3.50723 32.1378 3.50722 27.155 1.37243C23.1065 -0.362067 18.5781 -0.522914 14.3997 1.2946C6.50712 4.72769 2.51048 14.0679 4.51085 23.2408Z" fill="url(#paint2_linear_418_78)" fill-opacity="0.1"/>
<path d="M26.0952 49.8216C24.932 49.0489 23.7916 48.2267 22.679 47.3524C22.1419 42.7315 20.9347 38.2032 19.0872 33.9123L14.7292 23.7904C11.7761 16.9316 17.9789 9.66734 25.2157 11.5094L30.0664 12.7442C33.3038 13.5682 36.6961 13.5682 39.9336 12.7442L45.301 11.3779C52.4427 9.56003 58.6226 16.6265 55.8693 23.4623L51.4759 34.3702C49.18 40.0703 48 46.1583 48 52.3035V58.8861C47.2618 58.7191 46.5213 58.5406 45.7795 58.35L44.5479 46.3417C44.2079 43.0269 42.1564 40.1324 39.1413 38.7136C36.8351 37.6283 34.1649 37.6283 31.8586 38.7136C28.8436 40.1324 26.7921 43.0269 26.4521 46.3417L26.0952 49.8216Z" fill="url(#paint3_radial_418_78)"/>
<path d="M0.0126687 40.4967C-0.193295 37.5251 2.13842 35 5.08841 35C7.38944 35 9.40409 36.5594 10.0019 38.8032L16.9038 64.7101C17.7724 67.9704 20.5401 70.3536 23.8654 70.7047C26.8622 71.021 29.7844 69.6271 31.4456 67.0887L31.5057 66.9969C32.0494 66.1662 32.3821 65.2132 32.4746 64.2218L33.3397 54.9492C33.4519 53.7458 35.1267 53.5828 35.4645 54.7424L38.3861 64.7701C38.5718 65.4076 38.8507 66.0136 39.2136 66.568L39.5544 67.0887C41.2156 69.6271 44.1378 71.021 47.1346 70.7047C50.4599 70.3536 53.2276 67.9704 54.0962 64.7101L60.9981 38.8032C61.5959 36.5594 63.6106 35 65.9116 35C68.8616 35 71.1933 37.5251 70.9873 40.4967L69.0985 67.7488C68.6202 74.6491 62.9373 80 56.0873 80H14.9127C8.06266 80 2.3798 74.6491 1.90153 67.7488L0.0126687 40.4967Z" fill="#F7A6A5"/>
<defs>
<linearGradient id="paint0_linear_418_78" x1="57" y1="-2" x2="35" y2="43.5" gradientUnits="userSpaceOnUse">
<stop stop-color="#E0EDF6"/>
<stop offset="1" stop-color="#A5CAE8"/>
</linearGradient>
<linearGradient id="paint1_linear_418_78" x1="10.5" y1="43.5" x2="17" y2="35" gradientUnits="userSpaceOnUse">
<stop stop-color="#043A70"/>
<stop offset="1" stop-color="#065099" stop-opacity="0"/>
</linearGradient>
<linearGradient id="paint2_linear_418_78" x1="55" y1="60" x2="56.5" y2="53" gradientUnits="userSpaceOnUse">
<stop stop-color="#002C57"/>
<stop offset="1" stop-color="#065099" stop-opacity="0"/>
</linearGradient>
<radialGradient id="paint3_radial_418_78" cx="0" cy="0" r="1" gradientUnits="userSpaceOnUse" gradientTransform="translate(35.2575 38.4617) rotate(-70.7665) scale(29.149 25.802)">
<stop stop-color="#F8BAB9"/>
<stop offset="1" stop-color="#C9706F"/>
</radialGradient>
</defs>
</svg>
