<svg width="150" height="331" viewBox="0 0 150 331" fill="none" xmlns="http://www.w3.org/2000/svg">
<path d="M55.9384 321.78L47.8984 319.14L51.8684 299.82L59.9084 302.46L55.9384 321.78Z" fill="#FFB573"/>
<path d="M125.869 321.88H117.399L115.299 302.29H123.759L125.869 321.88Z" fill="#FFB573"/>
<path d="M116.708 320.9H127.018C127.188 320.9 127.352 320.958 127.485 321.063C127.617 321.168 127.71 321.315 127.749 321.48L129.419 329C129.458 329.184 129.455 329.374 129.41 329.556C129.366 329.738 129.281 329.908 129.162 330.053C129.043 330.198 128.893 330.315 128.722 330.394C128.552 330.473 128.366 330.513 128.178 330.51C124.858 330.45 122.439 330.26 118.259 330.26C115.679 330.26 107.929 330.52 104.379 330.52C100.829 330.52 100.379 327.01 101.809 326.69C108.329 325.27 113.249 323.3 115.329 321.42C115.711 321.086 116.201 320.902 116.708 320.9Z" fill="#263238"/>
<path d="M48.0384 317.87L56.9484 320.32C57.1092 320.367 57.2498 320.466 57.3476 320.602C57.4455 320.738 57.4951 320.903 57.4884 321.07L57.0984 328.77C57.0906 328.956 57.0405 329.138 56.9521 329.302C56.8637 329.466 56.7392 329.608 56.588 329.717C56.4368 329.825 56.2629 329.898 56.0793 329.93C55.8958 329.962 55.7074 329.952 55.5284 329.9C52.3284 328.96 47.7384 327.49 43.6984 326.37C38.9784 325.07 38.0984 324.62 32.5584 323.1C29.2084 322.17 29.2084 318.53 30.6984 318.61C37.4684 318.97 39.4484 319.84 45.8984 317.96C46.5894 317.731 47.3306 317.7 48.0384 317.87Z" fill="#263238"/>
<path d="M89.7184 64.76C89.1784 65.46 88.7684 65.98 88.2884 66.57C87.8084 67.16 87.3484 67.68 86.8684 68.23C85.8684 69.32 84.8684 70.38 83.8684 71.42C81.8507 73.5398 79.7139 75.5431 77.4684 77.42C72.8273 81.4354 67.5119 84.5975 61.7684 86.76C60.1848 87.3183 58.5552 87.7366 56.8984 88.01C56.4784 88.07 56.0484 88.15 55.6184 88.2L54.3084 88.32C53.7556 88.3534 53.2013 88.3534 52.6484 88.32C52.1023 88.2886 51.5582 88.2285 51.0184 88.14C49.2583 87.8217 47.545 87.2842 45.9184 86.54C44.5055 85.9229 43.1357 85.2113 41.8184 84.41C39.3336 82.9129 36.9577 81.2421 34.7084 79.41C32.4855 77.6468 30.3778 75.7429 28.3984 73.71L32.2284 68.65C36.9284 70.98 41.7384 73.44 46.3384 75.21C47.4884 75.64 48.6184 76.03 49.6784 76.33C50.5728 76.5968 51.4962 76.7546 52.4284 76.8C52.5584 76.8066 52.6885 76.8066 52.8184 76.8C52.8884 76.8 52.8784 76.8 53.1884 76.72L53.8884 76.6L54.6084 76.43C55.0784 76.33 55.6084 76.13 56.0584 76C56.5084 75.87 57.0584 75.65 57.5384 75.42C59.6295 74.5272 61.6177 73.4107 63.4684 72.09C65.4751 70.7173 67.3892 69.2141 69.1984 67.59C71.0684 65.97 72.8584 64.2 74.6184 62.4C75.4984 61.5 76.3584 60.57 77.1884 59.63L78.4284 58.22L79.5684 56.88L89.7184 64.76Z" fill="#FFB573"/>
<path d="M94.3686 60.6C94.9886 68.66 76.8286 85.12 76.8286 85.12L60.7686 71.2C60.7686 71.2 67.5286 64.04 75.1286 56.83C80.3486 51.88 93.6886 51.87 94.3686 60.6Z" fill="white"/>
<path opacity="0.4" d="M94.3686 60.6C94.9886 68.66 76.8286 85.12 76.8286 85.12L60.7686 71.2C60.7686 71.2 67.5286 64.04 75.1286 56.83C80.3486 51.88 93.6886 51.87 94.3686 60.6Z" fill="#43639F"/>
<path opacity="0.2" d="M86.1585 64.76C78.6985 65.44 73.9285 71.44 71.8385 78.07C71.6085 78.81 71.4085 79.57 71.2485 80.32L76.8085 85.14C76.8085 85.14 85.0785 77.65 90.2585 70.3C90.5385 66.81 89.5485 64.44 86.1585 64.76Z" fill="black"/>
<path d="M34.1586 72.3L31.4086 65.3L22.0286 68.1801C24.0695 70.3475 26.3206 72.3072 28.7486 74.0301L34.1586 72.3Z" fill="#FFB573"/>
<path d="M26.7085 59.87L18.9685 62.97L22.0585 68.2L31.4385 65.32L26.7085 59.87Z" fill="#FFB573"/>
<path opacity="0.2" d="M51.8685 299.83L49.4785 311.43L57.6385 313.51L59.9085 302.47L51.8685 299.83Z" fill="black"/>
<path opacity="0.2" d="M123.759 302.29H115.299L116.389 312.39H124.849L123.759 302.29Z" fill="black"/>
<path d="M128.759 56.69C126.275 65.8232 124.477 75.1291 123.379 84.53C122.579 91.08 122.099 97.34 121.799 103.02C121.099 116.32 121.389 126.46 120.989 129.89L75.8385 126.76C69.6985 78.62 81.4385 53.82 81.4385 53.82C85.008 53.1568 88.6148 52.7127 92.2385 52.49C93.0052 52.4367 93.7852 52.4067 94.5785 52.4C100.996 52.4863 107.403 52.9404 113.769 53.76C114.979 53.91 116.199 54.08 117.389 54.27C123.439 55.22 128.759 56.69 128.759 56.69Z" fill="white"/>
<path opacity="0.4" d="M128.759 56.69C126.275 65.8232 124.477 75.1291 123.379 84.53C122.579 91.08 122.099 97.34 121.799 103.02C121.099 116.32 121.389 126.46 120.989 129.89L75.8385 126.76C69.6985 78.62 81.4385 53.82 81.4385 53.82C85.008 53.1568 88.6148 52.7127 92.2385 52.49C93.0052 52.4367 93.7852 52.4067 94.5785 52.4C100.996 52.4863 107.403 52.9404 113.769 53.76C114.979 53.91 116.199 54.08 117.389 54.27C123.439 55.22 128.759 56.69 128.759 56.69Z" fill="#43639F"/>
<path opacity="0.2" d="M117.349 68.87C117.274 75.7944 119.216 82.5908 122.939 88.43C123.069 87.15 123.219 85.84 123.379 84.53C123.979 79.6 124.759 74.53 125.789 69.35L117.349 68.87Z" fill="black"/>
<path d="M113.378 31.98C111.728 38.07 109.738 49.3 113.768 53.72C111.728 55.5706 109.315 56.9621 106.691 57.8005C104.067 58.6389 101.294 58.9047 98.5584 58.58C93.2584 58.09 93.2484 54.36 94.5584 52.38C101.558 51.22 101.738 46.1 100.868 41.22L113.378 31.98Z" fill="#FFB573"/>
<path opacity="0.2" d="M108.288 35.76L100.898 41.22C101.117 42.3573 101.234 43.5119 101.248 44.67C103.908 44.47 107.718 41.84 108.198 39.1C108.429 38.0011 108.459 36.8697 108.288 35.76Z" fill="black"/>
<path d="M99.9584 22.87C97.9584 25.7 92.7084 20.49 92.9084 15.87C100.508 14.87 96.9084 9.30002 103.808 10.73C109.548 11.86 102.158 19.76 99.9584 22.87Z" fill="#263238"/>
<path d="M118.898 24.7C116.358 32.7 115.278 37.52 110.118 40.7C102.358 45.42 93.2685 39.17 93.3685 30.57C93.4585 22.83 97.6085 11.04 106.368 9.81002C108.297 9.5297 110.265 9.74614 112.086 10.4389C113.907 11.1316 115.522 12.2777 116.777 13.7686C118.031 15.2596 118.885 17.0461 119.256 18.959C119.627 20.8719 119.504 22.8479 118.898 24.7Z" fill="#FFB573"/>
<path d="M114.098 31.98C113.709 30.0052 113.598 27.9856 113.768 25.98C114.056 24.4116 114.55 22.8882 115.238 21.45C115.238 21.45 110.448 18.62 110.338 15.21C110.338 15.21 101.778 17.73 97.2084 13.88C92.6384 10.03 96.7184 5.58 94.3784 3.88C99.9784 3.34 101.678 6.74 105.218 6C108.758 5.26 105.628 2.77 106.098 0C116.768 9.19 121.408 4.88 126.588 10.14C129.898 13.5 126.418 19.8 126.418 19.8C126.418 19.8 131.698 28.76 114.098 31.98Z" fill="#263238"/>
<path d="M124.719 19.6099C124.719 19.6099 129.959 20.69 130.099 15.2C132.799 20.76 129.419 21.6299 124.719 19.6099Z" fill="#263238"/>
<path d="M101.078 32.3299C102.03 32.5934 103.032 32.6236 103.998 32.4183C104.964 32.2129 105.866 31.7778 106.628 31.1499C106.669 31.1087 106.692 31.053 106.692 30.9949C106.692 30.9369 106.669 30.8812 106.628 30.84C106.588 30.802 106.534 30.7809 106.478 30.7809C106.423 30.7809 106.369 30.802 106.328 30.84C105.615 31.4118 104.777 31.8076 103.882 31.9952C102.988 32.1828 102.061 32.1571 101.178 31.92C101.122 31.9098 101.063 31.9203 101.014 31.9497C100.964 31.9791 100.927 32.0253 100.908 32.0799C100.902 32.1351 100.915 32.1908 100.947 32.2368C100.978 32.2828 101.025 32.3158 101.078 32.3299Z" fill="#263238"/>
<path d="M120.318 33.54C119.563 34.2626 118.673 34.8288 117.698 35.2064C116.723 35.5839 115.683 35.7653 114.638 35.74C111.838 35.66 111.268 32.96 112.738 30.74C114.068 28.74 117.118 26.41 119.598 27.57C122.078 28.73 122.158 31.76 120.318 33.54Z" fill="#FFB573"/>
<path d="M47.2385 307.26L61.0485 311.06C61.0485 311.06 78.3485 256.53 82.5985 226.58C83.7285 218.63 85.4685 207.47 88.1185 195.58C91.4785 180.58 95.6785 164.37 99.1185 151.67C102.759 138.29 105.519 128.83 105.519 128.83L75.8385 126.76C75.8385 126.76 63.6885 193.25 60.8385 218.92C57.8985 245.6 47.2385 307.26 47.2385 307.26Z" fill="#43639F"/>
<path opacity="0.3" d="M47.2385 307.26L61.0485 311.06C61.0485 311.06 78.3485 256.53 82.5985 226.58C83.7285 218.63 85.4685 207.47 88.1185 195.58C91.4785 180.58 95.6785 164.37 99.1185 151.67C102.759 138.29 105.519 128.83 105.519 128.83L75.8385 126.76C75.8385 126.76 63.6885 193.25 60.8385 218.92C57.8985 245.6 47.2385 307.26 47.2385 307.26Z" fill="black"/>
<path opacity="0.2" d="M88.1585 195.57C91.5185 180.57 95.7185 164.36 99.1585 151.66L96.0785 145.02C88.6785 153.76 86.6985 180.85 88.1585 195.57Z" fill="black"/>
<path d="M91.8486 127.87C91.8486 127.87 95.0586 200.31 98.6286 224.87C102.539 251.74 112.479 310.46 112.479 310.46H127.969C127.969 310.46 122.849 248.67 120.579 222.29C117.999 192.29 120.989 129.92 120.989 129.92L91.8486 127.87Z" fill="#43639F"/>
<path opacity="0.3" d="M91.8486 127.87C91.8486 127.87 95.0586 200.31 98.6286 224.87C102.539 251.74 112.479 310.46 112.479 310.46H127.969C127.969 310.46 122.849 248.67 120.579 222.29C117.999 192.29 120.989 129.92 120.989 129.92L91.8486 127.87Z" fill="black"/>
<path d="M110.618 310.77H128.868V305.32L108.469 304.97L110.618 310.77Z" fill="#43639F"/>
<path d="M46.2786 307.34L61.8786 311.64L64.1186 306.27L46.3486 301.34L46.2786 307.34Z" fill="#43639F"/>
<path d="M105.998 23.8701C105.838 24.5301 105.348 24.9801 104.918 24.8701C104.488 24.7601 104.268 24.1401 104.438 23.4801C104.608 22.8201 105.088 22.3701 105.518 22.4801C105.948 22.5901 106.158 23.2101 105.998 23.8701Z" fill="#263238"/>
<path d="M98.5185 21.99C98.3485 22.65 97.8685 23.1 97.4385 22.99C97.0085 22.88 96.7885 22.26 96.9485 21.59C97.1085 20.92 97.6085 20.48 98.0385 20.59C98.4685 20.7 98.6885 21.33 98.5185 21.99Z" fill="#263238"/>
<path d="M100.819 22.92C99.5189 24.7431 97.9744 26.3785 96.2285 27.78C97.1285 29.17 99.3685 29.03 99.3685 29.03L100.819 22.92Z" fill="#ED893E"/>
<path d="M108.929 22.04C108.854 22.0342 108.783 22.0077 108.723 21.9635C108.663 21.9194 108.616 21.8593 108.588 21.79C108.404 21.323 108.113 20.9059 107.738 20.5723C107.362 20.2388 106.914 19.9982 106.429 19.87C106.323 19.8505 106.229 19.7904 106.167 19.7025C106.106 19.6146 106.081 19.506 106.099 19.4C106.108 19.348 106.128 19.2985 106.157 19.2542C106.186 19.2099 106.223 19.1718 106.267 19.142C106.31 19.1122 106.36 19.0914 106.411 19.0808C106.463 19.0702 106.517 19.0699 106.569 19.08C107.186 19.2318 107.759 19.5287 108.239 19.9461C108.719 20.3635 109.092 20.8894 109.328 21.48C109.369 21.5784 109.37 21.6886 109.331 21.7875C109.292 21.8864 109.215 21.9662 109.119 22.01C109.057 22.0297 108.993 22.0398 108.929 22.04Z" fill="#263238"/>
<path d="M95.9586 18.61C95.8737 18.6003 95.7936 18.5654 95.7286 18.51C95.6553 18.4352 95.6143 18.3347 95.6143 18.23C95.6143 18.1253 95.6553 18.0248 95.7286 17.95C96.1278 17.4526 96.6401 17.0578 97.2228 16.7986C97.8056 16.5394 98.4419 16.4233 99.0786 16.46C99.1839 16.4749 99.2793 16.5303 99.3446 16.6142C99.4099 16.6982 99.44 16.8042 99.4286 16.91C99.4114 17.0143 99.3555 17.1082 99.2721 17.173C99.1887 17.2379 99.0839 17.269 98.9786 17.26C98.4764 17.2364 97.9757 17.3329 97.5183 17.5416C97.0609 17.7503 96.6599 18.0652 96.3486 18.46C96.3006 18.5147 96.24 18.5569 96.1721 18.583C96.1041 18.6091 96.0309 18.6184 95.9586 18.61Z" fill="#263238"/>
<path d="M113.909 322.38C113.332 322.423 112.758 322.272 112.279 321.95C112.128 321.821 112.012 321.657 111.94 321.472C111.869 321.287 111.844 321.087 111.869 320.89C111.868 320.773 111.899 320.658 111.959 320.558C112.019 320.457 112.105 320.375 112.209 320.32C113.149 319.84 115.879 321.52 116.209 321.71C116.243 321.732 116.27 321.763 116.287 321.801C116.303 321.838 116.307 321.88 116.299 321.92C116.293 321.959 116.276 321.995 116.249 322.024C116.222 322.052 116.187 322.072 116.149 322.08C115.416 322.264 114.664 322.365 113.909 322.38ZM112.649 320.63C112.559 320.629 112.471 320.646 112.389 320.68C112.339 320.68 112.279 320.76 112.269 320.92C112.25 321.053 112.266 321.188 112.313 321.314C112.36 321.44 112.438 321.552 112.539 321.64C112.999 322.03 114.109 322.09 115.539 321.8C114.662 321.223 113.68 320.825 112.649 320.63Z" fill="#43639F"/>
<path d="M116.078 322.08C116.046 322.091 116.011 322.091 115.978 322.08C115.108 321.6 113.408 319.75 113.588 318.81C113.618 318.662 113.698 318.528 113.815 318.432C113.931 318.335 114.077 318.282 114.228 318.28C114.38 318.26 114.535 318.273 114.682 318.318C114.828 318.362 114.964 318.438 115.078 318.54C116.078 319.34 116.268 321.78 116.278 321.89C116.28 321.925 116.272 321.96 116.256 321.991C116.241 322.023 116.217 322.05 116.188 322.07C116.153 322.082 116.115 322.086 116.078 322.08ZM114.368 318.65H114.278C114.018 318.65 113.998 318.8 113.988 318.85C113.878 319.41 114.988 320.85 115.828 321.47C115.767 320.507 115.419 319.584 114.828 318.82C114.701 318.71 114.537 318.649 114.368 318.65Z" fill="#43639F"/>
<path d="M46.9284 318.76C45.5384 318.65 43.1084 318.33 42.4384 317.29C42.345 317.143 42.2873 316.975 42.27 316.802C42.2526 316.628 42.276 316.453 42.3384 316.29C42.3721 316.186 42.4322 316.093 42.5129 316.019C42.5935 315.946 42.6919 315.894 42.7984 315.87C43.9284 315.6 46.7984 318.15 47.0784 318.45C47.1068 318.478 47.1266 318.514 47.1355 318.553C47.1443 318.592 47.1419 318.632 47.1284 318.67C47.1085 318.704 47.0785 318.731 47.0427 318.747C47.0069 318.763 46.967 318.767 46.9284 318.76ZM42.9284 316.22H42.8684C42.8258 316.229 42.7865 316.25 42.7548 316.28C42.7231 316.31 42.7001 316.348 42.6884 316.39C42.6431 316.5 42.6249 316.619 42.6353 316.737C42.6458 316.856 42.6846 316.97 42.7484 317.07C43.1284 317.66 44.4484 318.07 46.3384 318.3C45.1584 317.34 43.5784 316.16 42.9184 316.23L42.9284 316.22Z" fill="#43639F"/>
<path d="M46.7784 318.76C46.0184 317.6 44.7784 315.47 45.2084 314.31C45.2669 314.137 45.3667 313.981 45.4991 313.856C45.6316 313.73 45.7927 313.639 45.9684 313.59C46.0726 313.554 46.1842 313.546 46.2926 313.565C46.4011 313.584 46.5029 313.631 46.5884 313.7C47.4884 314.44 47.1884 318.24 47.1484 318.7C47.1436 318.74 47.1266 318.778 47.0999 318.808C47.0731 318.839 47.0377 318.86 46.9984 318.87C46.9547 318.881 46.9085 318.876 46.8682 318.855C46.8279 318.835 46.7961 318.801 46.7784 318.76ZM46.3484 314.02C46.3123 313.998 46.2708 313.986 46.2284 313.986C46.1861 313.986 46.1446 313.998 46.1084 314.02C45.9919 314.052 45.8846 314.111 45.7958 314.193C45.707 314.274 45.6393 314.376 45.5984 314.49C45.3684 315.15 45.8184 316.49 46.8084 318.08C46.8584 316.46 46.8084 314.46 46.3484 313.98V314.02Z" fill="#43639F"/>
<path d="M130.008 61.5601C131.958 64.3101 133.618 66.9701 135.318 69.7401C137.018 72.5101 138.568 75.3101 140.088 78.1801C143.235 84.0328 145.794 90.1828 147.728 96.5401C147.958 97.3801 148.178 98.2201 148.378 99.0901C148.478 99.5201 148.568 99.96 148.658 100.41L148.788 101.07L148.848 101.41L148.928 101.95C149.183 104.225 148.976 106.527 148.318 108.72C147.328 112.108 145.928 115.362 144.148 118.41C142.541 121.265 140.768 124.023 138.838 126.67C136.955 129.302 134.929 131.829 132.768 134.24L127.568 130.59C130.278 125.16 133.038 119.59 135.158 114.13C135.688 112.77 136.158 111.41 136.568 110.08C136.976 108.84 137.283 107.569 137.488 106.28C137.659 105.449 137.659 104.591 137.488 103.76L137.418 103.53L137.288 103.06C137.208 102.74 137.118 102.42 137.008 102.06C136.818 101.42 136.598 100.76 136.368 100.11C134.289 94.6343 131.767 89.3368 128.828 84.2701C127.368 81.64 125.828 79.0601 124.248 76.4601C122.668 73.8601 121.008 71.2801 119.438 68.8701L130.008 61.5601Z" fill="#FFB573"/>
<path d="M128.759 56.69C136.689 58.29 143.639 77.69 143.639 77.69L127.088 91.1701C127.088 91.1701 121.669 81.31 117.329 71.8C112.599 61.44 119.159 54.76 128.759 56.69Z" fill="white"/>
<path opacity="0.4" d="M128.759 56.69C136.689 58.29 143.639 77.69 143.639 77.69L127.088 91.1701C127.088 91.1701 121.669 81.31 117.329 71.8C112.599 61.44 119.159 54.76 128.759 56.69Z" fill="#43639F"/>
<path d="M18.0589 84.1682L14.061 98.5841L15.015 98.8487L19.0129 84.4328L18.0589 84.1682Z" fill="#43639F"/>
<path d="M12.5899 103.896L10.8608 110.131L11.8148 110.395L13.5439 104.161L12.5899 103.896Z" fill="#43639F"/>
<path d="M123.905 77.7086L41.0952 54.4184C34.8018 52.6484 28.2651 56.3153 26.4951 62.6087L3.20485 145.418C1.43483 151.712 5.10177 158.248 11.3952 160.018L94.2048 183.309C100.498 185.079 107.035 181.412 108.805 175.118L132.095 92.3087C133.865 86.0153 130.198 79.4786 123.905 77.7086Z" fill="#43639F"/>
<path d="M75.7084 99.9701C75.262 99.9736 74.8175 99.913 74.3884 99.7901C73.133 99.4283 72.0691 98.5895 71.4243 97.4532C70.7795 96.3169 70.6051 94.9733 70.9384 93.7101L74.9384 79.3001C75.306 78.0551 76.148 77.0043 77.2829 76.3742C78.4178 75.744 79.7549 75.5849 81.006 75.9311C82.2571 76.2774 83.3221 77.1012 83.9716 78.2251C84.6211 79.3491 84.8031 80.6832 84.4784 81.9401L80.4784 96.3501C80.1805 97.3875 79.555 98.3006 78.6952 98.9531C77.8355 99.6056 76.7877 99.9623 75.7084 99.9701Z" fill="white"/>
<path d="M58.4786 160.24C58.2079 160.243 57.9384 160.206 57.6786 160.13C56.9249 159.913 56.2862 159.409 55.8992 158.727C55.5123 158.045 55.408 157.238 55.6085 156.48L59.6085 142.08C59.6607 141.652 59.8047 141.24 60.0306 140.872C60.2564 140.505 60.5589 140.19 60.9174 139.95C61.2759 139.71 61.6819 139.55 62.1078 139.481C62.5337 139.412 62.9694 139.436 63.3853 139.551C63.8011 139.666 64.1873 139.869 64.5175 140.147C64.8476 140.425 65.114 140.77 65.2985 141.16C65.4829 141.55 65.5811 141.975 65.5863 142.407C65.5915 142.838 65.5036 143.266 65.3285 143.66L61.3285 158.06C61.1519 158.682 60.779 159.23 60.2654 159.623C59.7518 160.016 59.1251 160.232 58.4786 160.24Z" fill="white"/>
<path d="M90.6885 108.2C90.36 108.203 90.0398 108.097 89.7783 107.898C89.5167 107.7 89.3288 107.419 89.244 107.102C89.1592 106.785 89.1824 106.448 89.31 106.145C89.4375 105.843 89.6622 105.591 89.9485 105.43L102.949 98.06C103.289 97.8747 103.689 97.8295 104.062 97.9341C104.436 98.0387 104.754 98.2847 104.949 98.62C105.139 98.9595 105.187 99.3608 105.082 99.7358C104.977 100.111 104.728 100.429 104.389 100.62L91.3885 107.99C91.1756 108.115 90.9354 108.188 90.6885 108.2Z" fill="white"/>
<path d="M34.4884 142.01C33.7208 142.015 32.9734 141.764 32.3639 141.298C31.7543 140.831 31.3172 140.175 31.1214 139.433C30.9255 138.691 30.982 137.904 31.282 137.198C31.582 136.491 32.1084 135.905 32.7784 135.53L45.7784 128.16C46.5649 127.809 47.4537 127.764 48.272 128.032C49.0903 128.3 49.7797 128.863 50.2062 129.611C50.6326 130.359 50.7656 131.239 50.5794 132.08C50.3931 132.921 49.9009 133.662 49.1984 134.16L36.1984 141.53C35.6788 141.834 35.0901 141.999 34.4884 142.01Z" fill="white"/>
<path d="M107.408 131.54C107.229 131.54 107.051 131.517 106.878 131.47L92.4785 127.47C92.0353 127.279 91.676 126.934 91.467 126.499C91.2581 126.064 91.2134 125.568 91.3413 125.103C91.4692 124.638 91.761 124.234 92.163 123.967C92.565 123.7 93.0499 123.588 93.5285 123.65L107.938 127.65C108.378 127.8 108.751 128.097 108.995 128.492C109.239 128.886 109.338 129.354 109.276 129.813C109.213 130.273 108.992 130.697 108.652 131.012C108.311 131.327 107.872 131.513 107.408 131.54Z" fill="white"/>
<path d="M45.1586 116.28C44.8005 116.282 44.4438 116.235 44.0986 116.14L29.6986 112.14C28.819 111.753 28.1082 111.062 27.6961 110.194C27.284 109.326 27.1982 108.339 27.4543 107.413C27.7104 106.486 28.2914 105.683 29.0909 105.15C29.8905 104.617 30.8552 104.39 31.8086 104.51L46.2086 108.51C47.0805 108.813 47.8208 109.408 48.3041 110.194C48.7874 110.98 48.9839 111.91 48.8603 112.824C48.7367 113.739 48.3006 114.583 47.6259 115.213C46.9513 115.842 46.0796 116.22 45.1586 116.28Z" fill="white"/>
<path d="M88.6786 156.02C88.2419 156.019 87.8131 155.903 87.4356 155.684C87.0581 155.465 86.7452 155.149 86.5286 154.77L79.1586 141.76C78.9917 141.477 78.8829 141.164 78.8384 140.839C78.794 140.514 78.8148 140.183 78.8997 139.866C78.9846 139.549 79.1319 139.252 79.3329 138.992C79.5339 138.732 79.7846 138.516 80.0705 138.354C80.3563 138.193 80.6714 138.09 80.9975 138.051C81.3235 138.013 81.6539 138.04 81.9694 138.131C82.2848 138.222 82.579 138.375 82.8347 138.581C83.0904 138.786 83.3025 139.041 83.4586 139.33L90.8186 152.33C90.9804 152.612 91.0848 152.923 91.1256 153.246C91.1664 153.568 91.1429 153.896 91.0564 154.209C90.9699 154.522 90.8222 154.815 90.6218 155.071C90.4213 155.327 90.1721 155.541 89.8886 155.7C89.5203 155.911 89.103 156.021 88.6786 156.02Z" fill="white"/>
<path d="M56.8585 101.76C56.0695 101.761 55.2944 101.552 54.6126 101.155C53.9308 100.758 53.3668 100.187 52.9785 99.4999L45.6185 86.4999C45.3303 85.9911 45.1451 85.4304 45.0735 84.85C45.0019 84.2695 45.0454 83.6807 45.2014 83.117C45.3574 82.5533 45.6229 82.026 45.9827 81.5649C46.3426 81.1039 46.7897 80.7182 47.2985 80.4299C47.8074 80.1417 48.3681 79.9565 48.9485 79.8849C49.529 79.8133 50.1178 79.8568 50.6815 80.0128C51.2451 80.1688 51.7725 80.4343 52.2336 80.7941C52.6946 81.154 53.0803 81.6011 53.3685 82.1099L60.7285 95.1099C61.017 95.6179 61.2024 96.1779 61.2741 96.7577C61.3458 97.3374 61.3024 97.9257 61.1463 98.4886C60.9902 99.0516 60.7246 99.5782 60.3646 100.038C60.0046 100.498 59.5574 100.883 59.0485 101.17C58.3834 101.556 57.6278 101.76 56.8585 101.76Z" fill="white"/>
<path d="M130.569 128.65L121.989 128.34L126.139 138.34C126.139 138.34 133.509 136.98 133.229 133L130.569 128.65Z" fill="#FFB573"/>
<path d="M116.239 132.46L118.309 140.09L126.149 138.32L121.989 128.34L116.239 132.46Z" fill="#FFB573"/>
<g filter="url(#filter0_d_435_1370)">
<path d="M61.2886 117.869C60.278 116.378 58.4865 116.552 57.5972 118.231C57.2471 118.892 57.0092 119.759 56.5278 120.16C55.7928 120.776 54.8961 119.999 54.0656 120.111C53.0918 120.243 52.2925 121.818 52.4119 123.362C52.4661 124.059 52.6737 124.801 52.468 125.421C52.2061 126.213 51.4482 126.245 51.1294 126.981C50.8418 127.647 51.066 128.629 51.484 129.089C51.902 129.548 52.4404 129.606 52.9475 129.569C53.4547 129.532 53.9691 129.423 54.4634 129.598C55.0082 129.794 55.474 130.33 55.9968 130.658C57.2435 131.454 58.7033 131.011 59.8554 129.917C61.0075 128.824 61.9042 127.153 62.6832 125.409" fill="white"/>
<g opacity="0.8">
<path d="M61.2886 117.869C60.278 116.378 58.4865 116.552 57.5972 118.231C57.2471 118.892 57.0092 119.759 56.5278 120.16C55.7928 120.776 54.8961 119.999 54.0656 120.111C53.0918 120.243 52.2925 121.818 52.4119 123.362C52.4661 124.059 52.6737 124.801 52.468 125.421C52.2061 126.213 51.4482 126.245 51.1294 126.981C50.8418 127.647 51.066 128.629 51.484 129.089C51.902 129.548 52.4404 129.606 52.9475 129.569C53.4547 129.532 53.9691 129.423 54.4634 129.598C55.0082 129.794 55.474 130.33 55.9968 130.658C57.2435 131.454 58.7033 131.011 59.8554 129.917C61.0075 128.824 61.9042 127.153 62.6832 125.409" fill="#2F475B"/>
</g>
<path d="M61.0431 119.9C60.2163 118.615 58.6921 118.795 57.9976 120.261C57.5741 121.155 57.3306 122.522 56.6333 122.671C56.1611 122.774 55.7146 122.207 55.2377 122.266C54.6038 122.342 54.2207 123.573 54.3833 124.55C54.5459 125.528 55.0861 126.232 55.653 126.692C57.6163 128.28 60.2328 127.439 61.6578 124.764" fill="white"/>
<path d="M79.7595 123.172L78.6965 120.771L80.0792 119.21L81.0475 122.343L79.8229 123.151" fill="#947C70"/>
<path d="M80.9899 121.914L81.7423 124.076C81.7423 124.076 83.374 123.584 83.5375 123.962L80.9596 126.435L79.7009 123.144L80.9899 121.914Z" fill="white"/>
<g opacity="0.6">
<path d="M80.8767 124.663C80.8564 124.699 80.8452 124.746 80.8452 124.794C80.8452 124.842 80.8564 124.889 80.8767 124.925C80.8988 124.958 80.9278 124.976 80.958 124.976C80.9882 124.976 81.0172 124.958 81.0393 124.925C81.0609 124.887 81.0728 124.837 81.0728 124.786C81.0728 124.735 81.0609 124.685 81.0393 124.647C81.0143 124.616 80.9828 124.602 80.9513 124.607C80.9198 124.612 80.8908 124.636 80.8703 124.675" fill="#2F475B"/>
</g>
<g opacity="0.6">
<path d="M80.9593 126.435L80.8408 126.096L83.3572 123.852C83.3572 123.852 83.5024 123.821 83.5409 123.962L80.9593 126.435Z" fill="#2F475B"/>
</g>
<path d="M81.7762 124.015C81.7826 124.035 81.7238 124.105 81.6843 124.228C81.6448 124.351 81.6448 124.468 81.631 124.473C81.6172 124.477 81.5906 124.341 81.6384 124.193C81.6861 124.045 81.7716 123.994 81.7762 124.015Z" fill="#CDDFF2"/>
<path d="M82.1133 123.934C82.1234 123.95 82.0821 124.037 82.071 124.162C82.06 124.288 82.0821 124.391 82.071 124.401C82.06 124.411 82.0077 124.307 82.0224 124.151C82.0371 123.994 82.106 123.918 82.1133 123.934Z" fill="#CDDFF2"/>
<path d="M82.4624 124.303C82.4523 124.318 82.3972 124.234 82.388 124.094C82.3788 123.953 82.4211 123.852 82.4321 123.864C82.4431 123.876 82.4321 123.969 82.4385 124.085C82.445 124.2 82.4735 124.288 82.4624 124.303Z" fill="#CDDFF2"/>
<path d="M81.5704 123.552C81.5704 123.576 81.5033 123.603 81.4353 123.679C81.3674 123.756 81.3251 123.845 81.3122 123.833C81.2994 123.821 81.3251 123.7 81.4041 123.612C81.4831 123.524 81.5704 123.532 81.5704 123.552Z" fill="#CDDFF2"/>
<path d="M81.4133 123.12C81.4133 123.129 81.371 123.189 81.2837 123.243C81.2016 123.295 81.1138 123.319 81.0256 123.315C81.0064 123.317 80.9871 123.314 80.9686 123.305C80.9549 123.299 80.9428 123.286 80.9345 123.267C80.9261 123.249 80.922 123.226 80.9227 123.204C80.9236 123.184 80.9275 123.164 80.9341 123.147C80.9406 123.13 80.9496 123.115 80.9604 123.104C80.9765 123.088 80.9942 123.076 81.0127 123.069C81.0427 123.054 81.0734 123.043 81.1046 123.036C81.16 123.025 81.2161 123.029 81.2709 123.046C81.3628 123.076 81.4133 123.132 81.4105 123.141C81.4078 123.15 81.3545 123.117 81.2654 123.103C81.2139 123.095 81.1621 123.097 81.111 123.11C81.0798 123.117 81.0491 123.129 81.0192 123.145C80.987 123.16 80.964 123.182 80.964 123.208C80.964 123.235 80.964 123.221 80.976 123.229C80.99 123.231 81.0042 123.231 81.0182 123.229C81.0495 123.229 81.0807 123.229 81.1101 123.229C81.1623 123.221 81.2139 123.207 81.2645 123.185C81.3132 123.158 81.3629 123.137 81.4133 123.12Z" fill="#CDDFF2"/>
<path d="M81.4076 123.166C81.4076 123.173 81.3525 123.125 81.2983 122.999C81.2672 122.925 81.2445 122.844 81.2312 122.757C81.2228 122.706 81.2179 122.654 81.2165 122.601C81.2133 122.567 81.2156 122.532 81.2231 122.5C81.2307 122.468 81.2433 122.44 81.2597 122.418C81.2709 122.406 81.284 122.4 81.2973 122.4C81.3107 122.4 81.3238 122.406 81.335 122.418C81.3512 122.435 81.3655 122.456 81.3773 122.481C81.3989 122.522 81.4166 122.569 81.4296 122.618C81.4514 122.703 81.4599 122.794 81.4544 122.885C81.4443 123.031 81.4012 123.113 81.3975 123.107C81.4068 123.037 81.4139 122.965 81.4186 122.894C81.4187 122.813 81.4077 122.734 81.3865 122.661C81.3742 122.618 81.3581 122.579 81.3387 122.544C81.3185 122.504 81.2946 122.479 81.2863 122.494C81.2782 122.509 81.2723 122.526 81.2689 122.545C81.2656 122.564 81.2649 122.584 81.267 122.604C81.2668 122.653 81.2702 122.702 81.2771 122.75C81.2874 122.83 81.3051 122.908 81.3295 122.98C81.3718 123.094 81.4131 123.156 81.4076 123.166Z" fill="#CDDFF2"/>
<path d="M75.8228 114.64L79.1246 122.907L80.9299 120.951L77.889 110.992" fill="#CDDFF2"/>
<path d="M76.0902 112.827C76.104 112.836 76.0048 113.172 75.9579 113.616C75.911 114.059 75.9303 114.428 75.9156 114.431C75.8483 113.879 75.9104 113.306 76.0902 112.821V112.827Z" fill="white"/>
<path d="M75.7512 112.85C75.765 112.85 75.7512 113.213 75.7889 113.652C75.8266 114.091 75.8955 114.434 75.8808 114.441C75.7378 113.944 75.6924 113.389 75.7503 112.85H75.7512Z" fill="white"/>
<path d="M62.9469 114.615L60.6823 113.502C57.95 119.044 58.1328 125.134 62.5307 128.739L64.9736 124.381L62.9469 114.615Z" fill="#CDDFF2"/>
<path d="M63.1684 113.731C61.7187 115.079 60.9975 117.917 61.1739 120.698C61.3677 123.745 62.6319 126.716 64.9489 127.537L80.524 122.577C81.1668 122.373 81.7759 121.957 82.3127 121.358C82.8495 120.758 83.3023 119.988 83.6423 119.095C83.9824 118.202 84.2023 117.206 84.2881 116.171C84.374 115.136 84.3239 114.083 84.141 113.08C83.8015 111.218 83.0245 109.635 81.9716 108.662C80.9186 107.689 79.6707 107.399 78.4872 107.854L63.1684 113.731Z" fill="#7C8DAC"/>
<path d="M63.1683 113.731L63.3125 113.673L63.7379 113.506L65.376 112.869L71.4047 110.542L75.5683 108.932L77.889 108.04L78.4908 107.81L78.8004 107.716C78.8518 107.7 78.9033 107.682 78.9556 107.669L79.1137 107.647C79.2193 107.634 79.325 107.614 79.4306 107.605H79.7522C79.8597 107.606 79.9671 107.617 80.0737 107.64L80.2354 107.666L80.3163 107.681L80.3962 107.706L80.7168 107.81C80.8234 107.849 80.9272 107.906 81.0329 107.956C81.0852 107.982 81.1385 108.006 81.1909 108.035L81.3443 108.133L81.4977 108.234C81.5502 108.264 81.6012 108.3 81.6502 108.343L81.947 108.588C82.0453 108.675 82.1372 108.779 82.2327 108.881C82.2796 108.931 82.3246 108.976 82.3733 109.027L82.5065 109.194L82.6406 109.363L82.7077 109.446L82.7693 109.54C83.465 110.535 83.9624 111.834 84.1997 113.275C84.4452 114.77 84.3965 116.349 84.0601 117.799C83.7124 119.289 83.0808 120.568 82.2539 121.458C81.905 121.833 81.5258 122.132 81.1266 122.346C80.7297 122.567 80.3172 122.664 79.9157 122.798L77.527 123.558L72.9665 125.019L64.9571 127.564H64.9488C64.5405 127.411 64.144 127.186 63.7664 126.895C63.0688 126.337 62.4712 125.506 62.0291 124.481C61.8299 124.013 61.6607 123.514 61.5238 122.992C61.4907 122.866 61.465 122.735 61.4319 122.61C61.4012 122.486 61.3751 122.359 61.3538 122.23C61.3309 122.103 61.3088 121.977 61.2868 121.851L61.2371 121.475C61.2189 121.352 61.2051 121.228 61.1958 121.102C61.1857 120.979 61.1747 120.856 61.1646 120.735C61.1545 120.613 61.1535 120.492 61.148 120.372C61.1425 120.252 61.1379 120.133 61.1388 120.016C61.1272 119.156 61.2036 118.299 61.3649 117.478C61.4922 116.821 61.6779 116.195 61.9161 115.621C62.0906 115.198 62.298 114.813 62.5335 114.473C62.5812 114.406 62.6253 114.337 62.6685 114.282L62.7953 114.128L62.9019 113.998L62.9937 113.903L63.1637 113.733L62.9965 113.91L62.9046 114.007L62.7981 114.138L62.6768 114.292C62.6336 114.349 62.5904 114.416 62.5427 114.485C62.3094 114.826 62.1042 115.212 61.9317 115.634C61.6951 116.207 61.511 116.831 61.3851 117.487C61.2264 118.305 61.1516 119.159 61.1636 120.015C61.1636 120.132 61.1637 120.25 61.1728 120.369C61.182 120.487 61.182 120.609 61.1912 120.73C61.2004 120.852 61.2114 120.973 61.2224 121.096C61.2318 121.221 61.2456 121.344 61.2638 121.466C61.2803 121.589 61.2969 121.715 61.3134 121.841C61.3299 121.967 61.3584 122.09 61.3805 122.217C61.4022 122.345 61.4283 122.471 61.4586 122.595C61.488 122.719 61.5137 122.848 61.5504 122.973C61.6869 123.491 61.8555 123.987 62.0539 124.452C62.271 124.939 62.5205 125.387 62.7981 125.788C63.0985 126.2 63.4277 126.554 63.7793 126.845C64.1541 127.134 64.5479 127.356 64.9534 127.507H64.946L72.9527 124.942L77.5169 123.488L79.9056 122.727C80.308 122.591 80.7196 122.495 81.11 122.276C81.5051 122.065 81.8804 121.77 82.2254 121.398C83.0447 120.516 83.6702 119.248 84.0141 117.771C84.3474 116.336 84.3958 114.773 84.1528 113.292C83.9184 111.865 83.4265 110.579 82.738 109.592L82.6765 109.5L82.6131 109.428L82.4808 109.263L82.3485 109.098C82.3044 109.044 82.2566 109 82.2088 108.951C82.117 108.858 82.0251 108.754 81.9268 108.669L81.6328 108.424C81.5838 108.384 81.5335 108.348 81.4821 108.316L81.3296 108.218L81.1771 108.119C81.1257 108.091 81.0733 108.067 81.0209 108.042C80.9162 107.994 80.8133 107.936 80.7076 107.896L80.3907 107.794L80.3117 107.767L80.2308 107.754L80.071 107.728C79.9653 107.705 79.8588 107.692 79.7522 107.691H79.4343C79.3286 107.7 79.2239 107.72 79.1201 107.734L78.963 107.756C78.9115 107.767 78.8601 107.785 78.8086 107.801L78.5027 107.893L77.8982 108.111L75.5784 109L71.4138 110.599L65.3824 112.897L63.7416 113.527L63.3144 113.688L63.1683 113.731Z" fill="#CDDFF2"/>
<path d="M64.9488 127.535L62.8945 134.975C62.8945 134.975 72.5871 133.487 72.1736 125.234L64.9488 127.535Z" fill="white"/>
<path d="M70.5034 110.916C70.5034 110.916 65.8427 103.712 59.9207 106.746L63.1702 113.731L70.5034 110.916Z" fill="white"/>
<path d="M79.0117 107.748C81.0118 110.09 82.2346 119.246 81.2709 122.154C86.9394 119.513 88.1282 111.763 88.1282 111.763C84.0307 105.683 79.0117 107.748 79.0117 107.748Z" fill="white"/>
<path d="M62.0336 124.132C62.0427 124.145 61.7313 124.739 61.3372 125.458C60.943 126.176 60.6151 126.747 60.6022 126.732C60.5893 126.718 60.9035 126.125 61.2986 125.406C61.6936 124.688 62.0244 124.117 62.0336 124.132Z" fill="white"/>
<path d="M88.1254 111.76C88.1254 111.76 88.1143 111.794 88.0905 111.858L87.983 112.142L87.8075 112.604C87.7726 112.695 87.7349 112.793 87.6954 112.897L87.5539 113.219C87.4538 113.446 87.3445 113.701 87.2204 113.973L86.7877 114.828C86.7059 114.974 86.6177 115.12 86.5286 115.28C86.4395 115.439 86.3513 115.6 86.253 115.753C86.0491 116.06 85.8396 116.395 85.5952 116.704C85.075 117.401 84.5059 118.001 83.8992 118.49C83.5618 118.764 83.2131 119.001 82.8556 119.201C82.6718 119.308 82.4826 119.4 82.2961 119.508C82.1016 119.607 81.9037 119.688 81.7035 119.751C80.0976 120.318 78.3272 120.897 76.4668 121.507C72.7487 122.731 69.3816 123.823 66.9433 124.607L64.0548 125.537L63.2693 125.784L63.0645 125.846C63.0185 125.86 62.9946 125.865 62.9946 125.865L63.0635 125.838L63.2675 125.768L64.0512 125.507L66.9359 124.559L76.4576 121.437C78.3153 120.823 80.0865 120.244 81.6943 119.681C81.8922 119.619 82.0879 119.54 82.2805 119.444C82.4706 119.333 82.659 119.243 82.8418 119.136C83.1979 118.939 83.5453 118.704 83.8818 118.432C84.4866 117.947 85.0547 117.354 85.575 116.663C85.8185 116.356 86.0288 116.023 86.2319 115.718C86.3348 115.571 86.4221 115.4 86.513 115.249C86.604 115.098 86.6913 114.948 86.773 114.8L87.2076 113.951C87.3325 113.68 87.4428 113.427 87.5447 113.203L87.6871 112.883L87.8011 112.59L87.9802 112.132C88.0289 112.01 88.0657 111.917 88.0914 111.851C88.1171 111.785 88.1254 111.76 88.1254 111.76Z" fill="#CDDFF2"/>
<path d="M73.3763 124.861C73.3763 124.861 73.3699 124.852 73.3597 124.831L73.3147 124.74L73.1466 124.389L73.0253 124.133C72.9831 124.038 72.9408 123.93 72.893 123.816C72.8012 123.587 72.6854 123.333 72.5816 123.031L72.4116 122.563C72.3528 122.4 72.3014 122.222 72.2435 122.042C72.1231 121.685 72.0193 121.285 71.9045 120.871C71.4312 119.039 71.159 117.091 71.0997 115.112C71.0923 114.656 71.0795 114.225 71.0933 113.819C71.0988 113.617 71.0933 113.421 71.107 113.234C71.1208 113.046 71.1273 112.866 71.1364 112.695C71.1502 112.351 71.186 112.044 71.209 111.773C71.2228 111.638 71.232 111.513 71.2458 111.397C71.2595 111.281 71.2742 111.179 71.2871 111.084C71.3119 110.899 71.3312 110.756 71.3459 110.645C71.3523 110.599 71.3578 110.563 71.3624 110.532C71.367 110.501 71.3689 110.494 71.3698 110.495C71.3704 110.509 71.3704 110.522 71.3698 110.535C71.3698 110.564 71.3624 110.602 71.3578 110.648L71.3082 111.087C71.2972 111.182 71.2844 111.286 71.2706 111.4C71.2568 111.514 71.2504 111.641 71.2384 111.778C71.2182 112.048 71.1851 112.354 71.1732 112.697C71.1649 112.868 71.1557 113.048 71.1475 113.234C71.1392 113.42 71.1401 113.616 71.1364 113.819C71.1245 114.223 71.1364 114.653 71.1465 115.107C71.2087 117.077 71.4786 119.017 71.9449 120.844C72.0579 121.26 72.1599 121.66 72.2784 122.015C72.3363 122.195 72.3868 122.372 72.4438 122.536L72.611 123.005C72.712 123.308 72.8241 123.564 72.9151 123.794C72.9619 123.909 73.007 124.017 73.0446 124.114C73.0823 124.211 73.1264 124.294 73.1613 124.373C73.2302 124.519 73.2835 124.647 73.323 124.733L73.3634 124.828C73.3685 124.838 73.3728 124.849 73.3763 124.861Z" fill="#CDDFF2"/>
<path d="M69.0013 117.186L59.2325 120.405C59.2325 120.405 59.1893 121.926 59.4291 121.938C59.6294 121.948 66.8919 119.861 69.2475 119.182C69.338 119.156 69.4239 119.099 69.4993 119.015C69.5746 118.931 69.6376 118.822 69.6839 118.695C69.7302 118.568 69.7587 118.427 69.7674 118.281C69.7761 118.135 69.7649 117.988 69.7344 117.85C69.683 117.617 69.5805 117.422 69.4458 117.3C69.3111 117.177 69.1532 117.137 69.0013 117.186Z" fill="white"/>
<path d="M78.8167 115.749C78.8184 113.839 77.7746 112.289 76.4853 112.286C75.196 112.284 74.1495 113.829 74.1478 115.738C74.1461 117.647 75.19 119.198 76.4792 119.2C77.7685 119.203 78.8151 117.658 78.8167 115.749Z" fill="#2F475B"/>
<path d="M78.8179 115.75C78.8169 115.73 78.8169 115.711 78.8179 115.691C78.8179 115.649 78.8123 115.593 78.8096 115.521C78.8096 115.483 78.8096 115.442 78.8041 115.396C78.7986 115.349 78.794 115.3 78.7875 115.249C78.7811 115.198 78.7756 115.138 78.7692 115.076C78.7627 115.015 78.7471 114.951 78.7352 114.882C78.7082 114.732 78.6748 114.585 78.635 114.443C78.4645 113.856 78.1967 113.355 77.8606 112.992C77.5732 112.68 77.2464 112.472 76.9032 112.383C76.8096 112.358 76.7151 112.342 76.6203 112.337C76.5716 112.337 76.5229 112.326 76.4742 112.328L76.3263 112.34H76.2519L76.1765 112.356L76.0259 112.391L75.8761 112.448L75.7999 112.476L75.7264 112.517C75.3058 112.73 74.9326 113.131 74.6515 113.673C74.3463 114.253 74.1791 114.985 74.1791 115.742C74.1791 116.498 74.3463 117.231 74.6515 117.81C74.9315 118.353 75.3037 118.756 75.7236 118.971L75.798 119.012L75.8743 119.041L76.024 119.098L76.1747 119.134L76.2491 119.151H76.3244L76.4724 119.163C76.5211 119.163 76.5697 119.163 76.6175 119.155C76.7124 119.15 76.8069 119.134 76.9005 119.109C77.2416 119.021 77.5663 118.814 77.8514 118.503C78.2788 118.064 78.5913 117.392 78.7306 116.613C78.7416 116.544 78.7554 116.481 78.7637 116.42C78.7719 116.359 78.7774 116.3 78.7829 116.246C78.7885 116.192 78.7949 116.143 78.7995 116.099C78.8041 116.056 78.7995 116.012 78.805 115.975C78.8087 115.903 78.8114 115.846 78.8133 115.804C78.814 115.785 78.8155 115.766 78.8179 115.747C78.8189 115.766 78.8189 115.786 78.8179 115.805V115.975C78.8179 116.013 78.8179 116.056 78.8179 116.102C78.8179 116.149 78.8087 116.199 78.8032 116.249C78.7977 116.299 78.7921 116.361 78.7866 116.424C78.7811 116.487 78.7655 116.55 78.7545 116.621C78.7286 116.774 78.6958 116.924 78.6562 117.07C78.6073 117.243 78.5499 117.409 78.4844 117.567C78.3234 117.953 78.1172 118.286 77.8771 118.547C77.5862 118.866 77.2546 119.078 76.906 119.169C76.8109 119.194 76.7148 119.211 76.6184 119.217C76.5697 119.217 76.5201 119.227 76.4705 119.226L76.3208 119.215H76.2445L76.1683 119.198L76.0148 119.163L75.8623 119.106L75.7852 119.076L75.7098 119.035C75.2808 118.818 74.9002 118.408 74.6138 117.854C74.3011 117.262 74.1296 116.513 74.1296 115.739C74.1296 114.965 74.3011 114.216 74.6138 113.623C74.9031 113.072 75.2858 112.666 75.7163 112.452L75.7916 112.413L75.8688 112.383L76.0222 112.326L76.1756 112.291L76.2509 112.275H76.3272L76.4779 112.265C76.5275 112.265 76.5771 112.272 76.6258 112.275C76.7222 112.281 76.8183 112.298 76.9134 112.325C77.2585 112.415 77.587 112.625 77.8753 112.941C78.1151 113.203 78.3208 113.536 78.4807 113.923C78.6039 114.212 78.6949 114.533 78.7499 114.872C78.7609 114.94 78.7728 115.005 78.7811 115.068C78.7894 115.131 78.7931 115.189 78.7976 115.243C78.8022 115.297 78.8078 115.347 78.8123 115.39C78.8169 115.432 78.8123 115.477 78.8123 115.516C78.8123 115.589 78.8123 115.644 78.8123 115.687C78.8153 115.707 78.8172 115.728 78.8179 115.75Z" fill="#CDDFF2"/>
<path d="M71.671 108.707C71.671 108.714 71.6581 108.739 71.6425 108.773C71.6269 108.806 71.6177 108.837 71.6122 108.834C71.6067 108.831 71.6122 108.793 71.6269 108.754C71.6416 108.714 71.6682 108.697 71.671 108.707Z" fill="#2F475B"/>
</g>
<defs>
<filter id="filter0_d_435_1370" x="47" y="106" width="45.1282" height="36.9753" filterUnits="userSpaceOnUse" color-interpolation-filters="sRGB">
<feFlood flood-opacity="0" result="BackgroundImageFix"/>
<feColorMatrix in="SourceAlpha" type="matrix" values="0 0 0 0 0 0 0 0 0 0 0 0 0 0 0 0 0 0 127 0" result="hardAlpha"/>
<feOffset dy="4"/>
<feGaussianBlur stdDeviation="2"/>
<feComposite in2="hardAlpha" operator="out"/>
<feColorMatrix type="matrix" values="0 0 0 0 0 0 0 0 0 0 0 0 0 0 0 0 0 0 0.25 0"/>
<feBlend mode="normal" in2="BackgroundImageFix" result="effect1_dropShadow_435_1370"/>
<feBlend mode="normal" in="SourceGraphic" in2="effect1_dropShadow_435_1370" result="shape"/>
</filter>
</defs>
</svg>
