<svg width="328" height="332" viewBox="0 0 328 332" fill="none" xmlns="http://www.w3.org/2000/svg">
<path d="M198.92 0.595765C161.885 0.201205 124.825 9.95013 91.7613 26.3737C58.6975 42.7972 29.8639 68.682 13.8879 101.562C-2.08805 134.442 -4.12789 174.416 12.0821 207.164C18.1599 219.437 27.3391 231.085 40.3139 235.934C56.9085 242.132 75.3005 236 93.032 235.351C117.067 234.479 140.241 243.842 161.584 254.775C182.927 265.707 203.526 278.498 226.525 285.411C249.523 292.324 276.049 292.587 296.038 279.443C314.906 267.039 324.913 244.574 327.304 222.38C329.695 200.186 325.465 177.885 321.26 155.954C316.846 133.045 295.528 1.61504 198.92 0.595765Z" fill="#43639F"/>
<g opacity="0.7">
<path d="M198.92 0.595765C161.885 0.201205 124.825 9.95013 91.7613 26.3737C58.6975 42.7972 29.8639 68.682 13.8879 101.562C-2.08805 134.442 -4.12789 174.416 12.0821 207.164C18.1599 219.437 27.3391 231.085 40.3139 235.934C56.9085 242.132 75.3005 236 93.032 235.351C117.067 234.479 140.241 243.842 161.584 254.775C182.927 265.707 203.526 278.498 226.525 285.411C249.523 292.324 276.049 292.587 296.038 279.443C314.906 267.039 324.913 244.574 327.304 222.38C329.695 200.186 325.465 177.885 321.26 155.954C316.846 133.045 295.528 1.61504 198.92 0.595765Z" fill="white"/>
</g>
<path d="M165.505 331.36C231.991 331.36 285.889 326.289 285.889 320.033C285.889 313.777 231.991 308.706 165.505 308.706C99.0186 308.706 45.1208 313.777 45.1208 320.033C45.1208 326.289 99.0186 331.36 165.505 331.36Z" fill="#43639F"/>
<path opacity="0.5" d="M165.505 331.36C231.991 331.36 285.889 326.289 285.889 320.033C285.889 313.777 231.991 308.706 165.505 308.706C99.0186 308.706 45.1208 313.777 45.1208 320.033C45.1208 326.289 99.0186 331.36 165.505 331.36Z" fill="white"/>
<path d="M257.139 100.362C257.548 103.699 255.91 108.582 252.399 108.212C251.825 108.141 251.263 107.997 250.727 107.785C251.069 105.319 249.556 102.532 250.81 100.387C251.487 99.1864 253.21 96.9588 254.547 96.7615C256.37 96.4738 256.905 98.5288 257.139 100.362Z" fill="#43639F"/>
<path d="M253.268 110.933C252.098 113.399 250.493 115.413 246.722 115.314C245.878 115.28 245.058 115.025 244.348 114.574C243.995 114.365 243.693 114.083 243.46 113.748C243.228 113.414 243.072 113.034 243.002 112.634C242.965 112.11 243.088 111.587 243.354 111.132C243.621 110.677 244.019 110.31 244.498 110.078C245.466 109.612 246.523 109.354 247.6 109.322C248.749 109.25 249.901 109.367 251.011 109.667C251.832 109.957 252.596 110.385 253.268 110.933Z" fill="#43639F"/>
<path d="M244.933 101.981C248.887 106.428 253.243 110.39 257.18 114.673" stroke="#43639F" stroke-miterlimit="10"/>
<path d="M269.746 113.991C269.867 115.882 269.366 117.761 268.316 119.35C267.305 120.83 265.808 121.709 264.136 121.306C263.592 121.149 263.065 120.937 262.564 120.673C262.809 119.399 262.84 118.094 262.656 116.81C262.434 115.567 262.606 114.287 263.15 113.144C263.852 111.952 265.524 109.65 266.978 109.618C268.918 109.576 269.637 111.993 269.746 113.991Z" fill="#43639F"/>
<path d="M264.563 124.109C263.855 125.224 262.889 126.159 261.745 126.839C260.412 127.512 258.889 127.731 257.415 127.463C256.649 127.366 255.925 127.061 255.325 126.584C255.032 126.38 254.795 126.109 254.636 125.793C254.477 125.477 254.401 125.127 254.413 124.775C254.48 124.265 254.681 123.78 254.996 123.369C255.311 122.959 255.73 122.636 256.211 122.433C257.175 122.022 258.221 121.833 259.271 121.882C260.397 121.886 261.512 122.112 262.548 122.548C263.307 122.948 263.989 123.477 264.563 124.109Z" fill="#43639F"/>
<path d="M257.181 114.714C259.179 116.827 261.01 119.071 262.799 121.339C264.588 123.608 266.193 126.025 267.689 128.499" stroke="#43639F" stroke-miterlimit="10"/>
<path d="M280.154 130.11C279.644 133.71 276.476 137.672 273.249 136.267C272.733 136.029 272.253 135.725 271.819 135.363C272.097 134.781 272.292 134.164 272.396 133.53C272.505 132.897 272.563 132.239 272.638 131.59C272.672 130.326 273.101 129.103 273.867 128.088C274.795 127.052 276.86 125.12 278.323 125.351C280.204 125.679 280.422 128.17 280.154 130.11Z" fill="#43639F"/>
<path d="M273.173 139.103C271.209 141.1 269.035 142.391 265.54 141.166C264.044 140.681 262.698 139.341 263.032 137.878C263.184 137.386 263.468 136.944 263.853 136.597C264.239 136.25 264.712 136.011 265.223 135.905C266.26 135.671 267.337 135.671 268.375 135.905C269.475 136.141 270.521 136.576 271.459 137.187C272.151 137.711 272.733 138.362 273.173 139.103Z" fill="#43639F"/>
<path d="M267.664 128.458C270.678 133.41 273.313 138.575 275.548 143.911" stroke="#43639F" stroke-miterlimit="10"/>
<path d="M287.728 147.668C287.185 149.531 286.004 151.151 284.384 152.255C282.879 153.249 281.166 153.488 279.761 152.477C279.31 152.138 278.901 151.749 278.541 151.318C279.266 150.225 279.763 149.001 280.004 147.717C280.195 146.476 280.78 145.325 281.676 144.429C282.729 143.542 285.086 141.963 286.474 142.341C286.894 142.477 287.261 142.735 287.527 143.082C287.793 143.429 287.945 143.847 287.962 144.281C288.138 145.413 288.058 146.57 287.728 147.668Z" fill="#43639F"/>
<path d="M279.075 155.222C276.701 156.718 274.26 157.351 271.175 155.6C269.871 154.869 268.843 153.512 269.503 152.312C269.786 151.901 270.157 151.557 270.591 151.302C271.024 151.048 271.509 150.891 272.011 150.841C273.042 150.73 274.086 150.874 275.046 151.26C276.085 151.647 277.028 152.247 277.813 153.019C278.375 153.666 278.803 154.414 279.075 155.222Z" fill="#43639F"/>
<path d="M275.573 143.911L277.245 147.931C277.76 149.256 278.198 150.609 278.557 151.983C279.299 154.752 279.85 157.567 280.204 160.409" stroke="#43639F" stroke-miterlimit="10"/>
<path d="M290.704 167.322C289.638 168.938 288.06 170.163 286.215 170.807C284.476 171.358 282.787 171.111 281.701 169.763C281.366 169.314 281.086 168.829 280.865 168.317C282.938 166.821 283.623 163.656 285.931 162.563C287.21 162.004 289.935 161.083 291.139 161.93C292.744 163.138 291.833 165.678 290.704 167.322Z" fill="#43639F"/>
<path d="M280.204 172.254C278.935 172.663 277.586 172.773 276.266 172.575C274.827 172.273 273.517 171.544 272.513 170.487C271.459 169.451 270.841 167.881 271.819 166.796C272.195 166.445 272.654 166.192 273.155 166.058C273.655 165.925 274.181 165.916 274.686 166.031C275.709 166.261 276.665 166.72 277.479 167.371C278.359 168.042 279.093 168.881 279.636 169.837C279.986 170.598 280.18 171.419 280.204 172.254Z" fill="#43639F"/>
<path d="M280.204 160.409C280.971 166.079 280.827 171.831 279.778 177.457" stroke="#43639F" stroke-miterlimit="10"/>
<path d="M287.059 187.872C286.227 188.476 285.297 188.937 284.309 189.237C283.37 189.517 282.385 189.617 281.408 189.532C280.572 189.51 279.765 189.224 279.107 188.717C278.449 188.209 277.975 187.506 277.754 186.713C277.643 186.171 277.582 185.621 277.571 185.069C278.837 184.676 280.007 184.03 281.007 183.17C281.967 182.309 283.15 181.723 284.426 181.477C285.822 181.362 288.731 181.312 289.559 182.587C290.696 184.255 288.815 186.54 287.059 187.872Z" fill="#43639F"/>
<path d="M275.389 188.25C274.014 188.076 272.714 187.54 271.624 186.697C270.535 185.855 269.698 184.738 269.202 183.466C268.609 182.192 268.592 180.803 269.829 180.285C270.317 180.138 270.832 180.098 271.338 180.167C271.843 180.237 272.327 180.415 272.755 180.688C273.627 181.237 274.355 181.98 274.879 182.858C275.445 183.772 275.794 184.801 275.899 185.866C275.913 186.689 275.739 187.503 275.389 188.25Z" fill="#43639F"/>
<path d="M279.744 177.457C279.184 180.234 278.307 182.939 277.127 185.521C275.931 188.074 274.363 190.442 272.471 192.549" stroke="#43639F" stroke-miterlimit="10"/>
<path d="M274.511 204.55C272.654 204.799 270.762 204.532 269.052 203.778C267.38 203.013 266.301 201.723 266.452 200.005C266.511 199.441 266.649 198.888 266.862 198.361C269.37 198.673 272.187 197.111 274.386 198.32C275.188 198.76 275.959 199.254 276.693 199.799C277.066 200.043 277.385 200.357 277.632 200.724C277.879 201.092 278.049 201.504 278.131 201.936C278.465 203.695 276.4 204.312 274.511 204.55Z" fill="#43639F"/>
<path d="M263.685 200.851C261.177 199.668 259.229 198.024 259.229 194.423C259.229 192.903 260.14 191.094 261.795 190.856C262.329 190.808 262.866 190.919 263.335 191.174C263.804 191.429 264.185 191.816 264.429 192.286C264.919 193.226 265.204 194.256 265.265 195.311C265.364 196.435 265.265 197.566 264.972 198.657C264.684 199.46 264.248 200.204 263.685 200.851Z" fill="#43639F"/>
<path d="M272.471 192.549C272.028 193.092 271.485 193.56 271 194.07L269.403 195.599L266.251 198.698C265.206 199.717 264.17 200.736 263.1 201.714C262.564 202.199 262.029 202.684 261.478 203.153C260.926 203.622 260.366 204.074 259.806 204.583" stroke="#43639F" stroke-miterlimit="10"/>
<path d="M262.648 216.009C261.816 216.107 260.977 216.132 260.14 216.083C259.233 216.029 258.333 215.883 257.456 215.647C255.784 215.187 254.28 214.234 254.112 212.516C254.074 211.95 254.119 211.383 254.246 210.83C256.838 210.748 259.388 209.08 261.653 210.288C262.882 210.904 265.148 212.573 265.499 213.798C265.623 214.112 265.623 214.462 265.499 214.776C265.377 215.051 265.161 215.275 264.888 215.409C264.179 215.724 263.422 215.927 262.648 216.009Z" fill="#43639F"/>
<path d="M251.588 214.003C250.253 213.881 248.967 213.45 247.834 212.746C246.772 211.989 245.995 210.781 245.794 208.636C245.61 206.852 246.63 204.386 248.436 203.786C248.96 203.613 249.529 203.625 250.046 203.818C250.563 204.011 250.995 204.375 251.27 204.846C251.816 205.8 252.162 206.85 252.29 207.937C252.467 209.099 252.501 210.277 252.39 211.447C252.241 212.331 251.971 213.191 251.588 214.003Z" fill="#43639F"/>
<path d="M259.797 204.583C255.229 208.591 251.632 213.554 249.272 219.108" stroke="#43639F" stroke-miterlimit="10"/>
<path d="M256.796 228.224C255.323 229.134 253.685 229.757 251.972 230.057C250.2 230.328 248.503 230.106 247.592 228.619C247.301 228.127 247.097 227.591 246.99 227.032C249.272 225.873 250.894 223.308 253.452 223.432C254.831 223.432 257.632 223.999 258.468 224.977C259.58 226.243 258.15 227.328 256.796 228.224Z" fill="#43639F"/>
<path d="M245.928 231.027C243.236 231.775 240.603 232.276 238.346 228.602C237.871 227.726 237.622 226.75 237.618 225.758C237.615 224.78 237.978 223.835 238.638 223.103C239.045 222.729 239.57 222.504 240.125 222.465C240.681 222.427 241.233 222.576 241.69 222.889C242.584 223.526 243.345 224.327 243.93 225.248C244.595 226.228 245.139 227.282 245.552 228.388C245.693 228.814 245.781 229.256 245.811 229.704C245.928 230.147 245.928 230.616 245.928 231.027Z" fill="#43639F"/>
<path d="M249.272 219.108C246.874 224.638 245.774 230.628 246.053 236.633" stroke="#43639F" stroke-miterlimit="10"/>
<path d="M316.988 192.804C316.238 193.536 315.352 194.122 314.38 194.53C313.483 194.925 312.512 195.132 311.529 195.138C310.692 195.202 309.856 194.996 309.148 194.551C308.441 194.106 307.9 193.447 307.608 192.672C307.426 192.14 307.308 191.588 307.257 191.028C308.475 190.488 309.561 189.698 310.442 188.71C311.287 187.71 312.369 186.931 313.594 186.442C314.957 186.096 317.816 185.472 318.844 186.713C319.152 187.163 319.334 187.684 319.373 188.226C319.411 188.767 319.303 189.308 319.061 189.795C318.594 190.931 317.887 191.956 316.988 192.804Z" fill="#43639F"/>
<path d="M305.359 194.497C303.968 194.475 302.61 194.074 301.437 193.338C300.264 192.602 299.321 191.561 298.713 190.33C298.053 189.13 297.777 187.798 298.964 187.247C299.917 186.899 300.972 186.935 301.898 187.346C302.835 187.756 303.652 188.393 304.273 189.195C304.958 190.029 305.428 191.013 305.644 192.064C305.73 192.886 305.633 193.716 305.359 194.497Z" fill="#43639F"/>
<path d="M308.227 183.318C308.122 189.001 306.278 194.521 302.935 199.158" stroke="#43639F" stroke-miterlimit="10"/>
<path d="M305.568 211.513C303.63 211.976 301.589 211.755 299.8 210.888C298.186 210.066 297.192 208.677 297.426 206.959C297.529 206.398 297.685 205.847 297.894 205.315C300.402 205.734 303.227 203.885 305.66 204.608C306.989 205.044 309.69 206.12 309.932 207.608C310.3 209.663 307.675 211.02 305.568 211.513Z" fill="#43639F"/>
<path d="M294.625 207.6C293.444 206.983 292.428 206.102 291.657 205.027C290.892 203.793 290.522 202.361 290.596 200.917C290.586 200.215 290.765 199.524 291.114 198.911C291.261 198.638 291.479 198.407 291.746 198.244C292.014 198.081 292.321 197.991 292.635 197.983C293.148 198.018 293.646 198.169 294.089 198.424C294.533 198.68 294.911 199.032 295.194 199.454C295.771 200.304 296.138 201.275 296.264 202.29C296.417 203.369 296.331 204.468 296.013 205.512C295.695 206.292 295.224 207.001 294.625 207.6Z" fill="#43639F"/>
<path d="M302.935 199.158C301.301 201.516 299.408 203.691 297.292 205.644C295.15 207.594 292.845 209.364 290.403 210.937" stroke="#43639F" stroke-miterlimit="10"/>
<path d="M288.79 223.292C286.875 223.062 285.084 222.236 283.682 220.933C282.386 219.675 281.776 218.097 282.503 216.527C282.751 216.019 283.063 215.544 283.431 215.113C285.738 216.239 288.924 215.425 290.913 217.004C291.992 217.875 294.04 219.864 293.797 221.311C293.463 223.218 290.813 223.539 288.79 223.292Z" fill="#43639F"/>
<path d="M279.602 216.42C277.596 214.488 276.35 212.31 277.571 208.899C278.097 207.468 279.368 206.129 280.831 206.482C281.326 206.643 281.77 206.927 282.121 207.305C282.473 207.684 282.719 208.145 282.837 208.644C283.076 209.655 283.076 210.707 282.837 211.718C282.612 212.807 282.175 213.842 281.55 214.768C281.007 215.429 280.347 215.989 279.602 216.42Z" fill="#43639F"/>
<path d="M290.403 210.937C285.436 214.053 280.159 216.661 274.653 218.722" stroke="#43639F" stroke-miterlimit="10"/>
<path d="M271.401 230.517C269.655 229.96 268.093 228.952 266.878 227.599C265.708 226.268 265.106 224.681 265.942 223.144C266.23 222.655 266.584 222.207 266.995 221.812C269.202 223.119 272.379 222.832 274.026 224.755C274.912 225.807 276.492 228.158 276.066 229.506C275.497 231.298 273.165 231.052 271.401 230.517Z" fill="#43639F"/>
<path d="M263.008 222.938C261.035 220.99 259.513 218.878 261.336 215.302C262.121 213.798 263.936 212.425 265.516 212.894C266.018 213.071 266.455 213.39 266.774 213.812C267.092 214.233 267.277 214.737 267.305 215.261C267.361 216.317 267.182 217.372 266.778 218.352C266.374 219.428 265.795 220.433 265.064 221.327C264.463 221.961 263.77 222.504 263.008 222.938Z" fill="#43639F"/>
<path d="M274.653 218.722C269.169 220.867 263.401 222.659 258.042 225.577" stroke="#43639F" stroke-miterlimit="10"/>
<path d="M258.468 237.233C256.795 237.019 255.165 236.553 253.636 235.852C252.064 235.112 250.693 234.011 250.794 232.268C250.848 231.7 250.998 231.144 251.237 230.624C252.536 230.719 253.841 230.719 255.141 230.624C256.369 230.515 257.595 230.854 258.585 231.578C259.655 232.441 261.503 234.545 261.578 235.819C261.72 237.455 260.031 237.373 258.468 237.233Z" fill="#43639F"/>
<path d="M248.068 233.444C246.747 233.205 245.502 232.664 244.432 231.865C243.47 231.043 242.835 229.605 243.102 227.295C243.303 225.339 244.975 222.865 246.956 222.569C247.512 222.474 248.084 222.58 248.565 222.869C249.047 223.158 249.405 223.609 249.573 224.139C249.892 225.205 249.997 226.321 249.882 227.427C249.806 228.63 249.604 229.823 249.281 230.986C248.96 231.842 248.554 232.666 248.068 233.444Z" fill="#43639F"/>
<path d="M258.042 225.577C255.327 227.021 252.829 228.827 250.618 230.945C248.342 233.089 246.572 235.699 245.435 238.589" stroke="#43639F" stroke-miterlimit="10"/>
<path d="M226.817 324.587C226.541 324.653 216.911 324.653 216.626 324.587C209.562 323.058 184.474 314.953 207.088 288.707H236.038C258.635 314.945 233.89 323.058 226.817 324.587Z" fill="white" stroke="#263238" stroke-miterlimit="10"/>
<path d="M236.03 288.879C236.03 289.307 235.378 289.701 234.232 290.055C231.724 289.29 226.976 288.781 221.475 288.781C215.974 288.781 211.201 289.29 208.726 290.055C207.581 289.71 206.929 289.307 206.929 288.879C206.929 287.531 213.441 286.413 221.475 286.413C229.509 286.413 236.03 287.531 236.03 288.879Z" fill="white" stroke="#263238" stroke-miterlimit="10"/>
<path d="M234.224 290.055C231.716 290.811 226.968 291.321 221.467 291.321C215.966 291.321 211.192 290.811 208.718 290.055C211.226 289.29 215.974 288.781 221.467 288.781C226.959 288.781 231.758 289.29 234.224 290.055Z" fill="#263238" stroke="#263238" stroke-miterlimit="10"/>
<path d="M232.627 296.31C233.639 296.105 234.642 295.875 235.62 295.62Z" fill="white"/>
<path d="M232.627 296.31C233.639 296.105 234.642 295.875 235.62 295.62" stroke="#263238" stroke-miterlimit="10"/>
<path d="M207.656 295.201C214.561 297.667 222.662 297.905 230.169 296.746Z" fill="white"/>
<path d="M207.656 295.201C214.561 297.667 222.662 297.905 230.169 296.746" stroke="#263238" stroke-miterlimit="10"/>
<path d="M242.584 248.544C239.282 248.815 234.709 246.776 234.851 243.612C234.892 243.107 234.999 242.61 235.169 242.132C237.56 242.683 240.076 241.384 242.333 242.461C243.571 243.069 246.02 244.516 246.271 245.881C246.572 247.697 244.382 248.396 242.584 248.544Z" fill="#43639F"/>
<path d="M232.301 244.154C229.877 242.872 227.921 241.228 227.879 237.726C227.879 236.255 228.615 234.693 230.027 234.71C230.543 234.758 231.039 234.926 231.475 235.201C231.911 235.475 232.275 235.848 232.535 236.288C233.067 237.151 233.409 238.114 233.539 239.115C233.699 240.141 233.662 241.186 233.43 242.198C233.185 242.915 232.802 243.579 232.301 244.154Z" fill="#43639F"/>
<path d="M239.942 237.019C236.598 240.735 232.711 244.015 228.974 247.549" stroke="#43639F" stroke-miterlimit="10"/>
<path d="M232.109 258.564C230.415 258.592 228.734 258.279 227.168 257.643C225.605 256.969 224.15 255.95 224.008 254.355C223.971 253.844 224.019 253.331 224.15 252.835C226.575 253.073 228.966 251.791 231.164 252.999C232.368 253.648 234.659 255.276 235.002 256.517C235.445 258.178 233.697 258.515 232.109 258.564Z" fill="#43639F"/>
<path d="M221.592 255.44C220.278 255.195 219.031 254.683 217.93 253.936C216.894 253.114 216.175 251.939 216.091 249.826C216.008 248.067 216.877 246.078 218.524 245.765C219.053 245.705 219.588 245.798 220.063 246.033C220.538 246.269 220.933 246.636 221.199 247.089C221.734 247.981 222.089 248.966 222.244 249.991C222.443 251.05 222.488 252.132 222.378 253.205C222.226 253.983 221.961 254.736 221.592 255.44Z" fill="#43639F"/>
<path d="M228.974 247.549C227.082 249.32 225.293 251.194 223.615 253.163C222.76 254.172 221.978 255.237 221.274 256.353C220.94 256.928 220.581 257.479 220.28 258.071L219.444 259.846" stroke="#43639F" stroke-miterlimit="10"/>
<path d="M227.143 268.247C225.643 269.013 224.009 269.493 222.328 269.661C220.597 269.825 218.858 269.513 217.981 268.173C217.713 267.736 217.513 267.262 217.387 266.768C218.47 266.252 219.496 265.627 220.447 264.902C221.38 264.214 222.525 263.863 223.69 263.907C225.045 263.997 227.812 264.647 228.706 265.51C229.308 266.093 229.267 266.578 228.89 267.014C228.395 267.533 227.802 267.952 227.143 268.247Z" fill="#43639F"/>
<path d="M216.309 270.171C213.592 270.647 210.967 270.853 208.785 267.655C207.89 266.299 207.689 264.047 209.052 262.962C209.484 262.65 210.004 262.477 210.539 262.467C211.075 262.457 211.601 262.609 212.045 262.904C212.937 263.478 213.709 264.215 214.319 265.074C214.986 265.93 215.535 266.87 215.949 267.869C216.186 268.614 216.307 269.39 216.309 270.171Z" fill="#43639F"/>
<path d="M219.41 259.846C218.374 262.242 217.587 264.734 217.061 267.285C216.527 269.813 216.192 272.377 216.058 274.955" stroke="#43639F" stroke-miterlimit="10"/>
<path d="M226.056 280.857C224.86 282.07 223.411 283.014 221.81 283.627C220.138 284.235 218.466 284.342 217.212 283.282C216.832 282.933 216.51 282.528 216.259 282.081C218.206 280.626 219.001 278.037 221.458 277.445C222.788 277.108 225.588 276.763 226.709 277.404C228.163 278.226 227.152 279.673 226.056 280.857Z" fill="#43639F"/>
<path d="M216.1 285.624C213.633 286.742 211.084 287.515 208.216 285.073C206.987 284.046 206.252 282.057 207.196 280.766C207.547 280.375 208.003 280.09 208.513 279.944C209.022 279.798 209.563 279.799 210.072 279.944C211.084 280.226 212.034 280.692 212.873 281.317C213.757 281.936 214.541 282.685 215.197 283.536C215.62 284.175 215.925 284.882 216.1 285.624Z" fill="#43639F"/>
<path d="M216.058 274.955C215.776 280.092 216.096 285.244 217.011 290.31" stroke="#43639F" stroke-miterlimit="10"/>
<path d="M247.383 274.05C244.081 275.053 239.131 273.927 238.797 270.656C238.759 270.127 238.792 269.597 238.897 269.077C241.405 269.135 243.721 267.269 246.179 267.869C247.517 268.222 250.225 269.168 250.693 270.499C251.304 272.3 249.189 273.541 247.383 274.05Z" fill="#43639F"/>
<path d="M236.314 271.716C233.672 270.894 231.457 269.612 230.872 266.085C230.621 264.597 231.114 262.871 232.544 262.592C233.057 262.542 233.574 262.615 234.052 262.805C234.53 262.996 234.953 263.298 235.286 263.685C235.966 264.464 236.46 265.382 236.732 266.373C237.055 267.39 237.183 268.458 237.108 269.521C236.982 270.294 236.713 271.038 236.314 271.716Z" fill="#43639F"/>
<path d="M242.868 262.855C240.168 267.384 236.724 271.535 233.447 275.842" stroke="#43639F" stroke-miterlimit="10"/>
<path d="M237.852 286.759C236.139 287.13 234.36 287.099 232.661 286.668C230.947 286.216 229.492 285.304 229.2 283.676C229.116 283.15 229.116 282.615 229.2 282.09C231.708 281.983 233.982 280.224 236.373 281.046C237.677 281.49 240.226 282.69 240.711 283.947C241.338 285.591 239.491 286.356 237.852 286.759Z" fill="#43639F"/>
<path d="M226.817 285.032C224.092 284.539 221.592 283.767 220.831 279.92C220.68 279.07 220.763 278.195 221.074 277.388C221.21 277.003 221.43 276.652 221.719 276.359C222.008 276.067 222.358 275.84 222.746 275.694C223.261 275.569 223.802 275.593 224.304 275.763C224.805 275.934 225.246 276.244 225.572 276.656C226.235 277.475 226.716 278.421 226.984 279.435C227.307 280.487 227.465 281.582 227.453 282.681C227.368 283.493 227.154 284.287 226.817 285.032Z" fill="#43639F"/>
<path d="M233.447 275.826C230.011 280.101 227.059 284.732 224.644 289.636" stroke="#43639F" stroke-miterlimit="10"/>
<path d="M304.389 181.723C304.025 179.797 304.407 177.806 305.46 176.142C305.585 175.986 307.432 173.775 308.059 173.832C309.451 174.518 310.567 175.644 311.228 177.03C312.01 178.479 312.339 180.124 312.173 181.756C311.98 183.285 310.434 186.203 308.344 186.327C306.254 186.45 304.665 183.129 304.389 181.723Z" fill="#43639F"/>
<path d="M253.41 34.6594H92.8982V244.442H253.41V34.6594Z" fill="white"/>
<path d="M253.452 244.853H92.94C92.8291 244.853 92.7228 244.81 92.6444 244.733C92.566 244.656 92.522 244.551 92.522 244.442V34.6594C92.522 34.5504 92.566 34.4459 92.6444 34.3688C92.7228 34.2917 92.8291 34.2484 92.94 34.2484H253.452C253.563 34.2484 253.669 34.2917 253.748 34.3688C253.826 34.4459 253.87 34.5504 253.87 34.6594V244.442C253.87 244.551 253.826 244.656 253.748 244.733C253.669 244.81 253.563 244.853 253.452 244.853ZM93.358 244.031H253.034V35.0704H93.358V244.031Z" fill="#263238"/>
<path d="M232.652 142.752H110.479V147.684H232.652V142.752Z" fill="#263238"/>
<path d="M232.652 111.697H110.479V116.629H232.652V111.697Z" fill="#263238"/>
<path d="M201.26 204.863C199.705 206.507 198.117 208.151 196.495 209.795H110.496V204.863H201.26Z" fill="#263238"/>
<path d="M225.262 173.808C224.192 175.452 223.097 177.096 221.96 178.74H110.496V173.808H225.262Z" fill="#263238"/>
<path d="M153.684 238.778C153.684 238.778 146.544 242.19 126.547 244.031H93.3162" stroke="#263238" stroke-linecap="round" stroke-linejoin="round"/>
<path d="M249.932 124.578C251.168 122.754 251.916 120.654 252.106 118.471C252.357 115.725 252.541 112.527 252.599 110.579L252.917 99.8193V122.934L249.932 124.578Z" fill="#263238"/>
<path d="M251.981 121.98C251.981 122.983 242.634 147.216 225.229 173.766C224.159 175.41 223.063 177.054 221.926 178.698C215.689 187.895 208.771 196.626 201.227 204.822C199.672 206.466 198.084 208.11 196.462 209.754C184.214 221.968 170.103 232.367 154.294 238.326C155.197 237.874 168.966 231.043 171.967 209.754C172.19 208.192 172.349 206.548 172.444 204.822C172.845 197.621 172.059 188.99 169.401 178.698C168.988 177.098 168.528 175.454 168.021 173.766C164.159 160.935 157.521 145.728 146.946 127.734L144.22 121.898L162.027 126.83C241.556 144.988 251.939 121.898 251.939 121.898C251.939 121.898 251.981 121.964 251.981 121.98Z" fill="white" stroke="#263238" stroke-linecap="round" stroke-linejoin="round"/>
<path d="M183.554 195.13C183.61 196.586 183.576 198.043 183.454 199.495Z" fill="white"/>
<path d="M183.554 195.13C183.61 196.586 183.576 198.043 183.454 199.495" stroke="#263238" stroke-linecap="round" stroke-linejoin="round"/>
<path d="M164.426 139.16C175.98 153.874 181.807 178.74 183.328 190.535Z" fill="white"/>
<path d="M164.426 139.16C175.98 153.874 181.807 178.74 183.328 190.535" stroke="#263238" stroke-linecap="round" stroke-linejoin="round"/>
<path d="M112.268 57.5275C111.142 57.5624 110.02 57.3744 108.969 56.9748C107.918 56.5751 106.96 55.9719 106.151 55.201C105.342 54.43 104.698 53.5071 104.259 52.4869C103.819 51.4667 103.593 50.3701 103.593 49.2622C103.593 48.1544 103.819 47.0578 104.259 46.0376C104.698 45.0174 105.342 44.0944 106.151 43.3235C106.96 42.5526 107.918 41.9493 108.969 41.5497C110.02 41.15 111.142 40.9621 112.268 40.997C112.601 40.997 112.92 41.1269 113.155 41.3582C113.39 41.5894 113.522 41.903 113.522 42.23C113.522 42.557 113.39 42.8707 113.155 43.1019C112.92 43.3331 112.601 43.463 112.268 43.463C111.099 43.4533 109.953 43.7853 108.976 44.417C107.999 45.0487 107.234 45.9516 106.78 47.0111C106.325 48.0706 106.201 49.239 106.423 50.368C106.645 51.497 107.204 52.5356 108.027 53.3522C108.85 54.1687 109.902 54.7263 111.048 54.9543C112.194 55.1822 113.384 55.0702 114.465 54.6325C115.546 54.1947 116.471 53.451 117.122 52.4956C117.773 51.5402 118.12 50.4162 118.12 49.2663C118.12 48.9393 118.252 48.6257 118.488 48.3945C118.723 48.1633 119.042 48.0333 119.374 48.0333C119.707 48.0333 120.026 48.1633 120.261 48.3945C120.496 48.6257 120.628 48.9393 120.628 49.2663C120.626 51.4496 119.746 53.5434 118.18 55.091C116.614 56.6386 114.489 57.5144 112.268 57.5275Z" fill="#263238"/>
<path d="M112.068 54.1161C104.385 54.1161 103.967 37.7912 103.958 34.5196V34.421C103.958 31.133 104.351 14.693 112.068 14.693C119.784 14.693 120.319 32.3989 120.361 34.421L113.673 34.5443C113.659 30.7398 113.096 26.9564 112.001 23.3076C111.017 26.9194 110.555 30.6496 110.63 34.3881V34.4868C110.556 38.2447 111.034 41.9934 112.051 45.6166C112.126 45.3783 112.201 45.1152 112.285 44.7946L112.812 43.0109L117.477 44.3508C117.708 44.4169 117.924 44.5272 118.111 44.6754C118.299 44.8236 118.456 45.0068 118.571 45.2145C118.687 45.4222 118.76 45.6503 118.786 45.8858C118.812 46.1212 118.79 46.3594 118.722 46.5866C117.368 51.5761 115.119 54.1161 112.068 54.1161Z" fill="#BFBFBF" stroke="#263238" stroke-linecap="round" stroke-linejoin="round"/>
<path d="M119.416 50.4993C119.084 50.4993 118.765 50.3694 118.529 50.1381C118.294 49.9069 118.162 49.5933 118.162 49.2663C118.162 47.7356 117.547 46.267 116.451 45.18C115.355 44.0931 113.867 43.476 112.31 43.4629C111.978 43.4629 111.659 43.333 111.423 43.1018C111.188 42.8706 111.056 42.557 111.056 42.2299C111.056 41.9029 111.188 41.5893 111.423 41.3581C111.659 41.1269 111.978 40.9969 112.31 40.9969C114.531 41.0121 116.656 41.8898 118.222 43.4387C119.788 44.9876 120.668 47.0823 120.67 49.2663C120.67 49.5933 120.538 49.9069 120.303 50.1381C120.068 50.3694 119.749 50.4993 119.416 50.4993Z" fill="#263238"/>
<path d="M151.895 57.5274C149.711 57.4597 147.64 56.5592 146.12 55.0165C144.6 53.4739 143.75 51.4102 143.75 49.2622C143.75 47.1141 144.6 45.0504 146.12 43.5078C147.64 41.9651 149.711 41.0647 151.895 40.9969C152.227 40.9969 152.546 41.1269 152.782 41.3581C153.017 41.5893 153.149 41.9029 153.149 42.2299C153.149 42.557 153.017 42.8706 152.782 43.1018C152.546 43.333 152.227 43.4629 151.895 43.4629C150.727 43.4629 149.586 43.8033 148.616 44.441C147.645 45.0787 146.889 45.985 146.442 47.0454C145.995 48.1059 145.878 49.2727 146.106 50.3984C146.334 51.5242 146.896 52.5582 147.721 53.3698C148.547 54.1814 149.598 54.7342 150.743 54.9581C151.888 55.182 153.075 55.0671 154.153 54.6278C155.232 54.1886 156.154 53.4448 156.802 52.4904C157.451 51.5361 157.797 50.4141 157.797 49.2663C157.797 48.9393 157.929 48.6256 158.164 48.3944C158.399 48.1632 158.718 48.0333 159.051 48.0333C159.384 48.0333 159.702 48.1632 159.938 48.3944C160.173 48.6256 160.305 48.9393 160.305 49.2663C160.301 51.4573 159.413 53.5573 157.836 55.1058C156.26 56.6544 154.123 57.5252 151.895 57.5274Z" fill="#263238"/>
<path d="M151.702 54.1161C144.02 54.1161 143.593 37.7912 143.593 34.5196V34.421C143.593 31.133 143.978 14.693 151.702 14.693C159.427 14.693 159.954 32.3989 159.996 34.421L153.308 34.5443C153.295 30.7397 152.732 26.9562 151.636 23.3076C150.655 26.92 150.196 30.65 150.273 34.3881V34.4868C150.199 38.2609 150.678 42.0258 151.694 45.666C151.778 45.4276 151.853 45.1645 151.937 44.844L152.463 43.0602L157.128 44.4001C157.359 44.4662 157.575 44.5765 157.763 44.7247C157.951 44.8729 158.107 45.0561 158.223 45.2638C158.338 45.4715 158.411 45.6996 158.437 45.9351C158.463 46.1705 158.442 46.4087 158.374 46.6359C157.003 51.5761 154.754 54.1161 151.702 54.1161Z" fill="#BFBFBF" stroke="#263238" stroke-linecap="round" stroke-linejoin="round"/>
<path d="M159.051 50.4993C158.718 50.4993 158.399 50.3694 158.164 50.1381C157.929 49.9069 157.797 49.5933 157.797 49.2663C157.795 47.7278 157.172 46.253 156.066 45.1651C154.959 44.0772 153.459 43.4651 151.895 43.4629C151.562 43.4629 151.243 43.333 151.008 43.1018C150.773 42.8706 150.641 42.557 150.641 42.2299C150.641 41.9029 150.773 41.5893 151.008 41.3581C151.243 41.1269 151.562 40.9969 151.895 40.9969C154.124 40.9991 156.262 41.8711 157.839 43.4214C159.416 44.9717 160.303 47.0738 160.305 49.2663C160.305 49.5933 160.173 49.9069 159.937 50.1381C159.702 50.3694 159.383 50.4993 159.051 50.4993Z" fill="#263238"/>
<path d="M191.53 57.5274C189.346 57.4597 187.275 56.5592 185.755 55.0165C184.235 53.4739 183.385 51.4102 183.385 49.2622C183.385 47.1141 184.235 45.0504 185.755 43.5078C187.275 41.9651 189.346 41.0647 191.53 40.9969C191.862 40.9969 192.181 41.1269 192.416 41.3581C192.651 41.5893 192.784 41.9029 192.784 42.2299C192.784 42.557 192.651 42.8706 192.416 43.1018C192.181 43.333 191.862 43.4629 191.53 43.4629C190.362 43.4629 189.221 43.8033 188.25 44.441C187.28 45.0787 186.523 45.985 186.077 47.0454C185.63 48.1059 185.513 49.2727 185.741 50.3984C185.969 51.5242 186.531 52.5582 187.356 53.3698C188.182 54.1814 189.233 54.7342 190.378 54.9581C191.523 55.182 192.71 55.0671 193.788 54.6278C194.867 54.1886 195.788 53.4448 196.437 52.4904C197.086 51.5361 197.432 50.4141 197.432 49.2663C197.432 48.9393 197.564 48.6256 197.799 48.3944C198.034 48.1632 198.353 48.0333 198.686 48.0333C199.018 48.0333 199.337 48.1632 199.572 48.3944C199.808 48.6256 199.94 48.9393 199.94 49.2663C199.935 51.4573 199.048 53.5573 197.471 55.1058C195.895 56.6544 193.758 57.5252 191.53 57.5274Z" fill="#263238"/>
<path d="M191.329 54.1161C183.646 54.1161 183.228 37.7912 183.22 34.5196V34.421C183.22 31.133 183.613 14.693 191.329 14.693C199.045 14.693 199.589 32.3989 199.622 34.421L192.934 34.5443C192.921 30.7398 192.358 26.9564 191.262 23.3076C190.283 26.9312 189.83 30.6727 189.916 34.421V34.5196C189.842 38.2775 190.321 42.0263 191.337 45.6495C191.413 45.4111 191.496 45.1481 191.571 44.8275L192.106 43.0438L196.763 44.3836C196.994 44.4497 197.21 44.5601 197.398 44.7083C197.586 44.8565 197.742 45.0397 197.858 45.2474C197.973 45.4551 198.046 45.6832 198.072 45.9186C198.098 46.1541 198.076 46.3923 198.009 46.6195C196.604 51.5761 194.389 54.1161 191.329 54.1161Z" fill="#BFBFBF" stroke="#263238" stroke-linecap="round" stroke-linejoin="round"/>
<path d="M198.686 50.4993C198.353 50.4993 198.034 50.3694 197.799 50.1381C197.564 49.9069 197.432 49.5933 197.432 49.2663C197.429 47.7278 196.807 46.253 195.7 45.1651C194.594 44.0772 193.094 43.4651 191.529 43.4629C191.197 43.4629 190.878 43.333 190.643 43.1018C190.408 42.8706 190.275 42.557 190.275 42.2299C190.275 41.9029 190.408 41.5893 190.643 41.3581C190.878 41.1269 191.197 40.9969 191.529 40.9969C193.761 40.9969 195.901 41.8679 197.479 43.4185C199.058 44.969 199.946 47.0724 199.948 49.2663C199.946 49.594 199.812 49.9076 199.575 50.1386C199.339 50.3696 199.019 50.4993 198.686 50.4993Z" fill="#263238"/>
<path d="M231.164 57.5275C230.038 57.5624 228.916 57.3744 227.865 56.9748C226.814 56.5751 225.856 55.9719 225.047 55.201C224.238 54.43 223.594 53.5071 223.155 52.4869C222.715 51.4667 222.489 50.3701 222.489 49.2622C222.489 48.1544 222.715 47.0578 223.155 46.0376C223.594 45.0174 224.238 44.0944 225.047 43.3235C225.856 42.5526 226.814 41.9493 227.865 41.5497C228.916 41.15 230.038 40.9621 231.164 40.997C231.497 40.997 231.816 41.1269 232.051 41.3582C232.286 41.5894 232.418 41.903 232.418 42.23C232.418 42.557 232.286 42.8707 232.051 43.1019C231.816 43.3331 231.497 43.463 231.164 43.463C229.997 43.4614 228.855 43.8004 227.883 44.4371C226.911 45.0738 226.153 45.9795 225.705 47.0398C225.257 48.1001 225.139 49.2672 225.366 50.3935C225.593 51.5198 226.154 52.5546 226.98 53.367C227.805 54.1794 228.856 54.733 230.001 54.9576C231.147 55.1821 232.334 55.0677 233.413 54.6287C234.492 54.1897 235.414 53.4459 236.063 52.4914C236.712 51.5368 237.058 50.4145 237.058 49.2663C237.058 48.9393 237.19 48.6257 237.425 48.3945C237.661 48.1633 237.98 48.0333 238.312 48.0333C238.645 48.0333 238.964 48.1633 239.199 48.3945C239.434 48.6257 239.566 48.9393 239.566 49.2663C239.564 51.4567 238.678 53.5566 237.103 55.1054C235.528 56.6542 233.392 57.5253 231.164 57.5275Z" fill="#263238"/>
<path d="M230.964 54.1161C223.281 54.1161 222.863 37.7912 222.854 34.5196V34.421C222.854 31.133 223.247 14.693 230.964 14.693C238.68 14.693 239.24 32.4318 239.24 34.4539L232.552 34.5772C232.534 30.773 231.972 26.9902 230.88 23.3404C229.891 26.9514 229.43 30.6823 229.509 34.421V34.5196C229.447 38.284 229.934 42.0376 230.955 45.666C231.039 45.4276 231.114 45.1645 231.198 44.844L231.724 43.0602L236.389 44.4001C236.621 44.4662 236.836 44.5765 237.024 44.7247C237.212 44.8729 237.368 45.0561 237.484 45.2638C237.6 45.4715 237.673 45.6996 237.699 45.9351C237.724 46.1705 237.703 46.4087 237.635 46.6359C236.264 51.5761 234.015 54.1161 230.964 54.1161Z" fill="#BFBFBF" stroke="#263238" stroke-linecap="round" stroke-linejoin="round"/>
<path d="M238.312 50.4993C237.979 50.4993 237.66 50.3694 237.425 50.1381C237.19 49.9069 237.058 49.5933 237.058 49.2663C237.058 47.7286 236.437 46.2537 235.332 45.1656C234.227 44.0775 232.728 43.4651 231.164 43.4629C230.832 43.4629 230.513 43.333 230.277 43.1018C230.042 42.8706 229.91 42.557 229.91 42.2299C229.91 41.9029 230.042 41.5893 230.277 41.3581C230.513 41.1269 230.832 40.9969 231.164 40.9969C233.393 41.0013 235.528 41.8742 237.103 43.4243C238.678 44.9744 239.564 47.0752 239.566 49.2663C239.566 49.5933 239.434 49.9069 239.199 50.1381C238.963 50.3694 238.645 50.4993 238.312 50.4993Z" fill="#263238"/>
<path d="M274.789 242.062C278.672 225.457 268.13 208.901 251.243 205.083C234.355 201.265 217.518 211.63 213.634 228.235C209.751 244.839 220.293 261.395 237.18 265.213C254.068 269.031 270.905 258.666 274.789 242.062Z" fill="#43639F" stroke="#263238" stroke-miterlimit="10"/>
<path d="M93.7762 134.278C93.7762 134.278 96.3511 148.827 95.8579 150.635C95.3648 151.917 94.4909 153.022 93.3499 153.808L99.1182 167.289V156.743C99.1182 156.743 100.707 132.329 100.899 121.397C100.981 115.97 100.766 110.542 100.255 105.138L97.5215 105.573C97.5215 105.573 94.3865 128.417 93.7762 134.278Z" fill="white" stroke="#263238" stroke-linecap="round" stroke-linejoin="round"/>
<path d="M81.7209 311.106L80.1158 299.5L69.4568 298.678L70.7024 311.361C72.2713 312.611 74.2409 313.271 76.2593 313.224C78.2777 313.178 80.2135 312.427 81.7209 311.106Z" fill="white" stroke="#263238" stroke-linecap="round" stroke-linejoin="round"/>
<path d="M70.0086 309.89C69.6574 312.75 69.3147 315.759 70.1507 318.496C70.9867 321.233 73.4362 323.543 75.8438 322.869C76.3956 322.721 76.9223 322.417 77.5158 322.318C78.5859 322.137 79.6393 322.696 80.6425 323.181C86.7285 326.132 102.596 324.866 103.85 324.217C104.212 324.003 104.506 323.694 104.7 323.326C104.894 322.957 104.98 322.543 104.949 322.129C104.918 321.715 104.77 321.317 104.523 320.981C104.276 320.644 103.939 320.382 103.549 320.222C96.2673 316.827 96.7355 317.682 84.7138 310.983C82.5569 309.783 81.2778 310.358 80.191 311.46C79.4779 312.146 78.6114 312.659 77.6607 312.958C76.71 313.257 75.7015 313.333 74.7155 313.181C73.7295 313.028 72.7935 312.651 71.9821 312.08C71.1706 311.508 70.5063 310.758 70.042 309.89H70.0086Z" fill="#263238"/>
<path d="M81.0189 284.868C75.5765 291.518 68.7631 300.034 68.7631 300.034L63.8474 289.627C63.8474 289.627 75.2672 276.295 81.1275 262.23C81.1275 264.984 81.3533 267.984 81.4285 269.702C81.6291 274.897 81.1025 279.698 81.0189 284.868Z" fill="#263238"/>
<path d="M69.4652 313.038C69.4399 313.477 69.263 313.895 68.9636 314.222C68.0273 315.044 66.9906 313.556 66.2048 312.578C63.7895 309.42 61.6129 306.093 59.6924 302.623L59.0821 297.272L57.293 298.004H57.0673L56.549 297.108C52.5864 290.301 57.3181 288.978 62.3592 289.2C62.936 289.2 64.1399 289.348 66.0794 293.006C66.601 293.85 67.0673 294.726 67.4755 295.628C69.7234 301.149 70.4109 307.164 69.4652 313.038Z" fill="#263238"/>
<path d="M100.589 172.969C100.403 170.016 100.375 167.056 100.506 164.1C100.561 161.795 100.073 159.509 99.0813 157.42C98.0894 155.331 96.6199 153.496 94.7876 152.057C94.7876 152.057 90.4069 157.811 77.892 157.811H77.265C71.6913 157.679 66.1642 156.777 60.846 155.132C58.5918 154.438 56.3809 153.614 54.2249 152.666C54.2249 152.666 54.4757 169.106 55.0023 184.387C55.4538 196.511 58.6306 250.969 60.637 268.296C62.309 282.731 67.2748 296.984 67.8684 303.141C68.1526 306.043 74.8155 305.138 78.0007 304.021C82.1807 302.549 82.4733 301.678 82.4733 301.678C82.7492 297.206 81.537 289.348 81.6373 284.901C93.0403 270.927 110.78 248.815 111.282 245.404C115.153 218.902 101.007 175.715 100.589 172.969ZM89.6796 241.195C89.387 242.987 85.5999 252.374 81.3196 262.625C81.3196 258.087 83.3594 253.361 83.9614 246.037C85.1067 231.948 82.1974 216.445 82.607 205.126C84.9228 214.858 90.2147 237.833 89.6796 241.162V241.195Z" fill="#263238"/>
<path d="M107.578 249.571C105.754 251.099 103.624 252.233 101.325 252.9" stroke="#BFBFBF" stroke-linecap="round" stroke-linejoin="round"/>
<path d="M110.137 246.916C109.777 247.383 109.392 247.831 108.983 248.256" stroke="#BFBFBF" stroke-linecap="round" stroke-linejoin="round"/>
<path d="M85.1905 162.817C86.3358 168.81 86.5197 176.907 84.0201 182.48C83.3959 183.434 82.6515 184.307 81.8047 185.077" stroke="#BFBFBF" stroke-linecap="round" stroke-linejoin="round"/>
<path d="M65.4441 162.176C64.767 165.053 63.5464 169.796 61.958 172.303C60.4342 174.892 57.9308 176.783 54.9941 177.564" stroke="#BFBFBF" stroke-linecap="round" stroke-linejoin="round"/>
<path d="M80.8767 168.243C81.7545 177.959 81.7127 187.387 82.6574 203.72" stroke="#BFBFBF" stroke-linecap="round" stroke-linejoin="round"/>
<path d="M80.3416 163.212C80.4335 163.985 80.5255 164.749 80.6091 165.505" stroke="white" stroke-linecap="round" stroke-linejoin="round"/>
<path d="M89.7214 238.54C90.2913 242.542 91.4428 246.442 93.1407 250.122" stroke="#BFBFBF" stroke-linecap="round" stroke-linejoin="round"/>
<path d="M90.4322 242.305C89.6984 248.008 90.0185 253.795 91.3769 259.386" stroke="#BFBFBF" stroke-linecap="round" stroke-linejoin="round"/>
<path d="M57.5688 176.578C59.0987 198.985 61.2222 216.034 62.9192 233.049" stroke="#BFBFBF" stroke-linecap="round" stroke-linejoin="round"/>
<path d="M62.9778 238.959C62.9778 238.261 62.9778 237.545 62.9778 236.83" stroke="#BFBFBF" stroke-linecap="round" stroke-linejoin="round"/>
<path d="M72.759 304.695C71.5803 301.102 63.4376 273.459 63.0531 261.992C62.7939 254.388 62.4846 248.971 62.8775 241.623" stroke="#BFBFBF" stroke-linecap="round" stroke-linejoin="round"/>
<path d="M81.997 260.035L81.7043 284.786" stroke="#BFBFBF" stroke-linecap="round" stroke-linejoin="round"/>
<path d="M98.558 89.7417C96.6018 79.8777 89.9389 78.5953 88.4257 78.1268C78.0008 74.8963 70.8697 74.3538 62.6267 77.9049C52.9709 82.0806 51.0314 82.2286 48.0553 93.0625C46.3833 98.9892 49.6687 118.947 51.625 127.636C53.1883 134.549 52.7954 152.46 55.805 155.329C61.3895 160.647 69.3064 159.883 76.9641 158.551C83.5936 157.392 94.6623 155.847 97.1786 149.707C97.5381 148.827 97.5047 145.112 97.3793 139.752C96.978 123.534 98.0815 114.229 97.9143 103.847L100.155 102.828C100.155 102.828 100.347 98.7261 98.558 89.7417Z" fill="#43639F"/>
<mask id="mask0_437_2201" style="mask-type:luminance" maskUnits="userSpaceOnUse" x="47" y="75" width="54" height="85">
<path d="M98.558 89.7417C96.6018 79.8777 89.9389 78.5953 88.4257 78.1268C78.0008 74.8963 70.8697 74.3538 62.6267 77.9049C52.9709 82.0806 51.0314 82.2286 48.0553 93.0625C46.3833 98.9892 49.6687 118.947 51.625 127.636C53.1883 134.549 52.7954 152.46 55.805 155.329C61.3895 160.647 69.3064 159.883 76.9641 158.551C83.5936 157.392 94.6623 155.847 97.1786 149.707C97.5381 148.827 97.5047 145.112 97.3793 139.752C96.978 123.534 98.0815 114.229 97.9143 103.847L100.155 102.828C100.155 102.828 100.347 98.7261 98.558 89.7417Z" fill="white"/>
</mask>
<g mask="url(#mask0_437_2201)">
<path opacity="0.2" d="M50.3041 110.834C50.5967 114.188 49.4681 117.788 50.9478 120.805C51.338 121.661 51.9777 122.383 52.7859 122.88C53.594 123.378 54.5342 123.628 55.4873 123.6C56.6744 123.477 57.7946 122.778 58.9817 122.909C60.5033 123.066 61.5483 124.438 62.4428 125.663C64.3134 128.499 66.7098 130.964 69.507 132.93C72.3745 134.779 76.0194 135.708 79.3049 134.738C78.4369 136.135 77.4585 137.462 76.3789 138.708C78.2014 138.042 82.2309 135.157 85.7588 135.141L97.0197 135.067C97.7471 132.749 96.0583 130.209 93.8179 129.181C91.5774 128.154 88.9858 128.285 86.5363 128.614C84.0868 128.943 81.6123 129.436 79.1711 129.107C75.9017 128.501 72.9571 126.774 70.8613 124.233C68.7923 121.704 67.033 118.945 65.6196 116.013C65.0093 117.147 63.3206 117.287 62.1836 116.67C61.1096 115.944 60.213 114.992 59.5586 113.884C57.3265 110.785 53.0545 105.623 49.1169 104.784C48.4649 106.437 50.1452 109.009 50.3041 110.834Z" fill="black"/>
<path opacity="0.2" d="M84.9229 127.299C89.2868 125.655 92.2128 121.397 93.4751 116.958C94.2275 114.278 95.9246 106.921 94.0352 104.628C92.6224 108.483 91.6443 112.478 90.1144 116.309C89.3286 118.265 88.4926 120.197 87.6064 122.063C87.155 122.975 85.8425 126.945 84.9229 127.299Z" fill="black"/>
<path opacity="0.2" d="M53.3973 139.81C56.1979 146.443 62.6518 151.153 69.6575 153.184C76.6632 155.214 84.8225 155.14 92.0038 153.808C82.7493 158.962 70.4768 159.464 60.5702 155.658C58.7895 154.976 57.0172 155.765 55.7047 154.392C52.6951 151.252 52.8288 144.758 53.1967 140.418L51.5247 140.492" fill="black"/>
<path opacity="0.2" d="M71.8143 87.9168C72.1323 88.3864 72.6044 88.7346 73.1519 88.9032C73.4712 88.9346 73.7933 88.8836 74.0865 88.7553C74.3797 88.627 74.6338 88.4259 74.8239 88.1717C75.2031 87.6544 75.5333 87.1041 75.8104 86.5277C76.6078 85.1346 77.8426 84.0329 79.33 83.3876C80.1377 85.2973 81.3587 87.0111 82.908 88.41H83.4264C84.2355 86.4954 84.4649 84.3917 84.0868 82.3519C84.0153 82.6135 83.8881 82.8572 83.7138 83.0669C83.5394 83.2766 83.3218 83.4475 83.0752 83.5685C82.6824 82.7349 82.1638 81.9645 81.537 81.2833C81.2198 80.9459 80.8301 80.6823 80.3963 80.5117C79.9624 80.3411 79.4953 80.2677 79.029 80.2969C78.6349 80.359 78.2536 80.484 77.9004 80.6668C75.5763 81.7765 73.9378 83.9548 72.7088 86.1495C70.9812 84.9018 69.1807 83.7545 67.3167 82.7136C68.6961 84.4727 70.3012 86.1742 71.8143 87.9168Z" fill="black"/>
</g>
<path d="M98.558 89.7417C96.6018 79.8777 89.9389 78.5953 88.4257 78.1268C78.0008 74.8963 70.8697 74.3538 62.6267 77.9049C52.9709 82.0806 51.0314 82.2286 48.0553 93.0625C46.3833 98.9892 49.6687 118.947 51.625 127.636C53.1883 134.549 52.7954 152.46 55.805 155.329C61.3895 160.647 69.3064 159.883 76.9641 158.551C83.5936 157.392 94.6623 155.847 97.1786 149.707C97.5381 148.827 97.5047 145.112 97.3793 139.752C96.978 123.534 98.0815 114.229 97.9143 103.847L100.155 102.828C100.155 102.828 100.347 98.7261 98.558 89.7417Z" stroke="#263238" stroke-miterlimit="10"/>
<path d="M81.4367 75.9403C82.6916 75.9386 83.9157 75.5586 84.9442 74.8517C85.9726 74.1447 86.7559 73.1447 87.1884 71.9865C88.3922 68.6985 88.9524 58.2262 88.9524 56.3191C88.9524 54.4121 87.4225 50.5651 87.1132 48.3786C86.8039 46.1921 85.4412 41.6382 85.4412 41.6382L81.3866 37.7913L75.8104 40.1093L67.9186 41.1368C67.9186 41.1368 66.4472 53.7216 64.4325 51.6995C62.4177 49.6774 56.3317 52.2749 56.7079 57.0425C57.0841 61.8101 63.2872 61.7443 63.2872 61.7443C63.2872 61.7443 64.8254 63.2322 65.745 68.1888C66.3202 71.2713 66.34 74.4293 65.8035 77.5185C66.7976 78.7204 68.087 79.6531 69.5499 80.2285C71.0127 80.8038 72.6007 81.0028 74.1635 80.8065C79.5056 80.1407 80.0155 76.5732 80.0155 76.5732C80.0155 76.5732 80.0824 75.9732 81.4367 75.9403Z" fill="white"/>
<path d="M63.3791 54.782C62.192 53.138 57.9284 50.4747 56.8917 56.0479C55.8551 61.621 61.5148 61.2676 64.4826 61.9581C66.7064 65.5995 71.1706 71.7152 74.9326 73.6305C77.265 74.8224 80.1827 76.2033 82.9331 75.891C85.6836 75.5786 86.7787 73.9593 87.3138 71.4028C88.0547 67.9708 88.5381 64.4898 88.76 60.9881C88.8938 58.7605 89.2867 55.7766 88.3671 53.6641C87.0462 50.6145 87.3305 47.0881 86.3189 43.9727C85.3074 40.8573 82.5653 38.5722 80.0238 36.5747" stroke="#263238" stroke-linecap="round" stroke-linejoin="round"/>
<path d="M73.57 52.7434C75.3089 51.683 76.8221 51.2227 78.2851 52.7434C78.6947 52.7434 79.6394 51.0994 79.6394 51.0994C79.2078 50.5821 78.6261 50.2067 77.9718 50.0231C77.3175 49.8395 76.6219 49.8565 75.9777 50.0719C73.4279 50.6801 73.57 52.7434 73.57 52.7434Z" fill="#263238"/>
<path d="M77.4407 65.1145C78.6362 66.8078 79.9069 67.3257 82.1473 67.1366" stroke="#263238" stroke-linecap="round" stroke-linejoin="round"/>
<path d="M76.5795 55.3409C76.964 55.3409 77.3402 55.9081 77.4155 56.689C77.4907 57.4699 77.2232 58.1275 76.8303 58.1522C76.4374 58.1768 76.0695 57.5768 75.9943 56.8041C75.9191 56.0314 76.22 55.3738 76.5795 55.3409Z" fill="#263238"/>
<path d="M85.0567 54.2395C85.4579 54.2395 85.8341 54.7985 85.8927 55.5794C85.9512 56.3603 85.7087 57.0261 85.3074 57.059C84.9062 57.0918 84.5383 56.4836 84.4714 55.7109C84.4046 54.9382 84.6637 54.2806 85.0567 54.2395Z" fill="#263238"/>
<path d="M84.1202 51.8392C84.1202 51.8392 86.043 50.9185 86.8121 51.5843C86.8121 51.5843 87.3639 49.702 85.9092 49.2663C85.5462 49.1179 85.14 49.1073 84.7694 49.2363C84.3988 49.3654 84.09 49.625 83.9028 49.965L83.9613 51.9953L84.1202 51.8392Z" fill="#263238"/>
<path d="M80.1326 75.7758C80.1827 75.7758 79.7731 78.9076 78.4606 79.7872C77.5826 80.5455 76.4523 80.9608 75.2838 80.9544C72.5835 81.1846 67.2415 79.7954 65.8286 77.5185C66.3476 75.2715 66.4298 72.9483 66.0711 70.6712C65.8286 67.7207 65.2853 64.8017 64.4492 61.958C64.4492 61.958 71.4465 74.7566 80.1326 75.7758Z" stroke="#263238" stroke-linecap="round" stroke-linejoin="round"/>
<path d="M66.4724 75.1593C64.6332 75.5867 63.1284 75.6854 62.7271 76.9266C62.4596 77.7486 63.0698 78.472 63.7219 79.1542C66.4329 81.9186 69.5564 84.2607 72.9848 86.1001C74.4888 83.8735 76.3362 81.8906 78.4606 80.2228C74.4884 79.4677 70.7174 77.9146 67.3836 75.6607L66.4724 75.1593Z" fill="white" stroke="#263238" stroke-linecap="round" stroke-linejoin="round"/>
<path d="M80.1828 76.0225C80.7212 76.0348 81.2492 76.1714 81.724 76.4213C82.1989 76.6712 82.6074 77.0273 82.9165 77.461C83.7023 78.3405 84.3377 81.9491 83.5351 84.2425C81.7461 82.2039 80.6426 79.1214 78.0593 79.9187C80.0824 79.294 80.1828 76.0225 80.1828 76.0225Z" fill="white" stroke="#263238" stroke-linecap="round" stroke-linejoin="round"/>
<path d="M66.188 64.572C66.188 64.572 69.5821 76.8527 73.4361 78.0199C74.5691 78.3336 75.77 78.3198 76.8953 77.9802C78.0205 77.6405 79.0225 76.9894 79.7813 76.1047C72.667 73.8195 66.188 64.572 66.188 64.572Z" fill="#263238"/>
<path d="M69.4067 50.4336C67.0576 51.8392 65.4357 56.0478 67.1244 58.2508C68.8131 60.4538 67.0743 61.7607 66.2884 62.5088C65.6895 61.3343 65.1673 60.1235 64.7251 58.8837C64.2151 57.4206 64.2653 56.1383 63.4293 54.8313C62.9695 54.1079 60.8461 52.9489 60.0017 52.727C58.7561 52.3982 57.4937 53.7216 57.0924 54.9299C56.8057 56.1743 56.846 57.4699 57.2095 58.6947C55.5375 56.9274 55.4037 56.4342 55.2365 54.0504C55.2551 52.7492 55.1937 51.448 55.0526 50.1541C54.7851 48.806 54.0912 47.5566 53.9073 46.2003C53.5896 43.8083 54.8854 41.5313 56.1394 39.4599C57.235 37.4028 58.6669 35.5367 60.3779 33.936C61.9681 32.7077 63.7608 31.7568 65.6781 31.1248C69.9585 29.5383 74.5899 28.5355 79.1127 29.2095C83.6354 29.8836 88.0412 32.4975 89.9807 36.5253C90.7225 37.8777 90.9451 39.4474 90.6077 40.9477C90.3894 41.7034 89.9707 42.3884 89.3945 42.9325C88.8183 43.4767 88.1053 43.8605 87.3287 44.0445C86.552 44.2285 85.7395 44.2062 84.9744 43.9798C84.2094 43.7534 83.5194 43.3311 82.975 42.7561C83.9061 42.9853 84.8892 42.8924 85.7589 42.4931C86.1875 42.2861 86.5513 41.969 86.8118 41.5754C87.0722 41.1819 87.2197 40.7264 87.2386 40.2572C87.2204 39.9477 87.1342 39.6458 86.986 39.3722C86.8378 39.0986 86.631 38.8599 86.38 38.6724C86.1289 38.4849 85.8395 38.3531 85.5317 38.2861C85.2238 38.2192 84.9049 38.2186 84.5968 38.2844C84.3014 38.3889 84.0345 38.559 83.8169 38.7814C83.5993 39.0039 83.4368 39.2728 83.3421 39.5671C83.2475 39.8614 83.2232 40.1732 83.2712 40.4783C83.3191 40.7833 83.4381 41.0734 83.6187 41.3258L82.1724 40.6107L82.0136 41.556L80.3416 40.397L80.2162 41.219C79.4471 40.9148 74.0465 41.219 72.1989 41.4162C71.2727 41.505 70.3572 41.6811 69.4652 41.9423C68.462 42.2382 68.1778 42.3369 67.9939 43.3726C67.4756 46.3565 66.8318 48.7649 69.4067 50.4336Z" fill="#263238"/>
<path d="M70.0505 35.7197C69.8938 35.8606 69.7721 36.0349 69.6946 36.2293C69.6172 36.4237 69.5862 36.633 69.604 36.841C69.6218 37.049 69.6878 37.2503 69.7971 37.4293C69.9064 37.6082 70.056 37.7602 70.2344 37.8734" stroke="#BFBFBF" stroke-linecap="round" stroke-linejoin="round"/>
<path d="M71.7476 36.0814C71.642 36.2341 71.5854 36.4146 71.5854 36.5993C71.5854 36.784 71.642 36.9644 71.7476 37.1171" stroke="#BFBFBF" stroke-linecap="round" stroke-linejoin="round"/>
<path d="M73.4948 36.0732C73.4028 36.4103 73.3025 36.7555 73.2021 37.0925" stroke="#BFBFBF" stroke-linecap="round" stroke-linejoin="round"/>
<path d="M77.8921 35.2349C77.557 35.486 77.3062 35.8301 77.1721 36.2228C77.038 36.6155 77.0267 37.0387 77.1397 37.4378" stroke="#BFBFBF" stroke-linecap="round" stroke-linejoin="round"/>
<path d="M79.0458 37.6022C78.9909 37.0749 79.1365 36.5463 79.4545 36.1183C79.7724 35.6902 80.2403 35.3931 80.7679 35.2842" stroke="#BFBFBF" stroke-linecap="round" stroke-linejoin="round"/>
<path d="M80.6426 37.7748C81.0065 37.03 81.5753 36.4004 82.2845 35.9573C82.9938 35.5142 83.8151 35.2753 84.6554 35.2677" stroke="#BFBFBF" stroke-linecap="round" stroke-linejoin="round"/>
<path d="M82.022 38.4982C82.3093 38.0124 82.7076 37.599 83.1853 37.2905C83.6631 36.9821 84.2072 36.7871 84.7748 36.7209C85.3423 36.6547 85.9178 36.7192 86.4556 36.9092C86.9935 37.0993 87.4791 37.4097 87.874 37.8159" stroke="#BFBFBF" stroke-linecap="round" stroke-linejoin="round"/>
<path d="M65.4691 37.2898C65.3572 37.4539 65.2835 37.6403 65.2534 37.8357C65.2233 38.031 65.2375 38.2305 65.2951 38.4199C65.3526 38.6092 65.452 38.7837 65.5862 38.9308C65.7203 39.0779 65.8859 39.194 66.0711 39.2708" stroke="#BFBFBF" stroke-linecap="round" stroke-linejoin="round"/>
<path d="M67.9688 34.8239C67.4817 35.6191 67.3122 36.5637 67.4928 37.4749C67.6735 38.386 68.1917 39.1988 68.9469 39.7559" stroke="#BFBFBF" stroke-linecap="round" stroke-linejoin="round"/>
<path d="M63.3291 38.679C63.2843 38.8141 63.2714 38.9574 63.2913 39.0982C63.3112 39.2389 63.3634 39.3734 63.4439 39.4914C63.5245 39.6094 63.6313 39.7078 63.7562 39.7793C63.8811 39.8507 64.021 39.8933 64.1651 39.9037" stroke="#BFBFBF" stroke-linecap="round" stroke-linejoin="round"/>
<path d="M61.423 39.8462C61.3748 40.027 61.398 40.2191 61.488 40.3838C61.5779 40.5485 61.728 40.6736 61.9079 40.734" stroke="#BFBFBF" stroke-linecap="round" stroke-linejoin="round"/>
<path d="M59.7342 41.0134C59.715 41.0646 59.7073 41.1192 59.7116 41.1736C59.7159 41.228 59.7321 41.2808 59.7591 41.3284C59.7861 41.376 59.8233 41.4173 59.868 41.4495C59.9128 41.4817 59.9641 41.504 60.0185 41.5148" stroke="#BFBFBF" stroke-linecap="round" stroke-linejoin="round"/>
<path d="M94.5119 102.047C94.9215 116.177 93.1994 130.957 76.1199 138.774" stroke="#263238" stroke-linecap="round" stroke-linejoin="round"/>
<path d="M69.1226 145.218C76.5645 147.216 84.3329 147.758 91.9872 146.813" stroke="#263238" stroke-linecap="round" stroke-linejoin="round"/>
<path d="M63.2288 143.303C64.2069 143.673 65.1934 144.026 66.1882 144.347" stroke="#263238" stroke-linecap="round" stroke-linejoin="round"/>
<path d="M153.383 124.414C153.414 124.066 153.36 123.717 153.226 123.394C153.091 123.072 152.88 122.786 152.609 122.561C152.339 122.335 152.018 122.177 151.672 122.099C151.327 122.02 150.967 122.025 150.624 122.112C150.624 122.194 150.44 122.219 150.457 122.293C151.103 122.79 151.609 123.44 151.928 124.183C152.413 124.216 152.898 124.397 153.383 124.414Z" stroke="#263238" stroke-linecap="round" stroke-linejoin="round"/>
<path d="M152.497 125.869C151.953 124.341 151.178 122.903 150.198 121.602C147.13 119.284 148.467 118.536 142.523 117.492C142.523 117.558 131.037 120.41 124.783 123.246C124.783 123.246 83.6604 118.462 83.6604 118.076L77.3068 109.856L59.4248 112.593C59.4248 112.593 68.9636 127.825 76.1448 131.729C76.1448 131.729 110.421 130.907 121.54 130.85C127.584 130.85 130.978 133.875 136.922 127.34C136.922 127.34 140.166 130.488 142.097 129.584C143.368 129.239 139.238 125.819 137.825 124.701C138.276 124.956 144.63 129.272 148.166 129.395C148.334 129.403 148.501 129.357 148.639 129.262C148.778 129.168 148.88 129.031 148.931 128.873C148.982 128.715 148.978 128.545 148.919 128.389C148.861 128.234 148.752 128.102 148.609 128.014C148.609 128.014 139.815 123.164 140.249 122.548C140.249 122.548 145.123 124.274 145.901 125.334C149.153 129.724 151.351 128.187 151.661 127.924C152.296 127.381 151.41 126.888 151.41 126.378C151.343 126.386 152.647 126.756 152.497 125.869Z" fill="white" stroke="#263238" stroke-linecap="round" stroke-linejoin="round"/>
<path d="M143.259 120.41C144.998 121.084 147.439 122.153 148.601 123.592C150.858 126.386 151.343 126.386 151.343 126.386" stroke="#263238" stroke-linecap="round" stroke-linejoin="round"/>
<path d="M52.1767 83.6423C52.1767 83.6423 46.6424 88.5743 48.2057 101.611C49.0417 108.253 57.1426 119.284 57.1426 119.284L79.1879 112.404C79.1879 112.404 73.9796 100.83 68.462 93.0131" stroke="#263238" stroke-miterlimit="10"/>
<path d="M72.04 92.7748C73.4708 96.0193 74.2894 99.4926 74.4561 103.025" stroke="#263238" stroke-linecap="round" stroke-linejoin="round"/>
<path d="M84.463 51.3542C84.463 51.4036 82.3229 54.6422 82.9917 55.5464C85.6502 58.9824 86.018 63.0431 84.856 63.2322C83.3177 63.4705 82.1724 62.254 81.512 61.8101" stroke="#263238" stroke-linecap="round" stroke-linejoin="round"/>
<path d="M50.5883 114.599L54.9522 119.975L79.1962 112.404L76.2201 106.395C76.2201 106.395 50.1369 114.599 50.5883 114.599Z" fill="white" stroke="#263238" stroke-linecap="round" stroke-linejoin="round"/>
<path d="M79.6394 80.3215C79.6394 80.1817 82.6156 95.997 82.6156 95.997L80.6342 96.4491" stroke="#263238" stroke-linecap="round" stroke-linejoin="round"/>
<path d="M97.956 101.258L101.141 100.099L101.342 104.982L97.8975 106.239L97.956 101.258Z" fill="white" stroke="#263238" stroke-linecap="round" stroke-linejoin="round"/>
<path d="M96.2004 92.7666C97.0787 97.1688 97.6651 101.622 97.956 106.099Z" fill="white"/>
<path d="M96.2004 92.7666C97.0787 97.1688 97.6651 101.622 97.956 106.099" stroke="#263238" stroke-linecap="round" stroke-linejoin="round"/>
<path d="M95.1807 87.3989C95.3646 88.4346 95.5485 89.421 95.7408 90.3992Z" fill="white"/>
<path d="M95.1807 87.3989C95.3646 88.4346 95.5485 89.421 95.7408 90.3992" stroke="#263238" stroke-linecap="round" stroke-linejoin="round"/>
<g filter="url(#filter0_d_437_2201)">
<path d="M236.771 235.965C235.554 234.799 233.927 235.301 233.419 237.002C233.22 237.672 233.163 238.508 232.792 238.966C232.227 239.669 231.25 239.132 230.502 239.394C229.624 239.701 229.181 241.289 229.583 242.674C229.764 243.299 230.097 243.936 230.023 244.541C229.93 245.313 229.234 245.488 229.077 246.22C228.936 246.882 229.329 247.734 229.803 248.073C230.277 248.412 230.787 248.361 231.25 248.23C231.713 248.1 232.169 247.901 232.66 247.967C233.201 248.041 233.734 248.44 234.28 248.639C235.585 249.126 236.854 248.441 237.716 247.224C238.577 246.006 239.092 244.311 239.485 242.572" fill="white"/>
<g opacity="0.8">
<path d="M236.771 235.965C235.554 234.799 233.927 235.301 233.419 237.002C233.22 237.672 233.163 238.508 232.792 238.966C232.227 239.669 231.25 239.132 230.502 239.394C229.624 239.701 229.181 241.289 229.583 242.674C229.764 243.299 230.097 243.936 230.023 244.541C229.93 245.313 229.234 245.488 229.077 246.22C228.936 246.882 229.329 247.734 229.803 248.073C230.277 248.412 230.787 248.361 231.25 248.23C231.713 248.1 232.169 247.901 232.66 247.967C233.201 248.041 233.734 248.44 234.28 248.639C235.585 249.126 236.854 248.441 237.716 247.224C238.577 246.006 239.092 244.311 239.485 242.572" fill="white"/>
</g>
<path d="M236.927 237.864C235.918 236.851 234.54 237.307 234.173 238.776C233.949 239.673 233.981 240.966 233.364 241.235C232.945 241.419 232.425 240.988 231.994 241.133C231.421 241.324 231.298 242.52 231.633 243.38C231.968 244.24 232.602 244.778 233.214 245.089C235.332 246.16 237.598 244.893 238.414 242.18" fill="white"/>
<path d="M254.885 237.259L253.447 235.274L254.434 233.586L255.922 236.257L254.94 237.228" fill="#947C70"/>
<path d="M255.788 235.877L256.892 237.703C256.892 237.703 258.311 236.942 258.534 237.255L256.612 240.004L254.825 237.245L255.788 235.877Z" fill="white"/>
<g opacity="0.6">
<path d="M256.201 238.404C256.189 238.441 256.187 238.486 256.197 238.53C256.206 238.574 256.225 238.614 256.25 238.643C256.277 238.669 256.307 238.68 256.335 238.674C256.363 238.668 256.387 238.646 256.401 238.612C256.414 238.573 256.416 238.526 256.406 238.479C256.396 238.432 256.376 238.389 256.349 238.359C256.32 238.335 256.288 238.328 256.26 238.339C256.231 238.35 256.209 238.377 256.197 238.416" fill="white"/>
</g>
<g opacity="0.6">
<path d="M256.612 240.004L256.438 239.718L258.346 237.19C258.346 237.19 258.475 237.134 258.537 237.255L256.612 240.004Z" fill="white"/>
</g>
<path d="M256.912 237.641C256.922 237.658 256.881 237.734 256.867 237.853C256.854 237.973 256.876 238.08 256.864 238.086C256.852 238.093 256.802 237.974 256.818 237.83C256.834 237.686 256.904 237.623 256.912 237.641Z" fill="#CDDFF2"/>
<path d="M257.209 237.503C257.222 237.516 257.2 237.602 257.213 237.719C257.227 237.836 257.267 237.925 257.258 237.937C257.25 237.948 257.182 237.863 257.166 237.718C257.15 237.572 257.2 237.49 257.209 237.503Z" fill="#CDDFF2"/>
<path d="M257.602 237.772C257.596 237.788 257.529 237.722 257.494 237.596C257.459 237.469 257.479 237.369 257.491 237.378C257.504 237.386 257.511 237.474 257.539 237.578C257.567 237.682 257.61 237.757 257.602 237.772Z" fill="#CDDFF2"/>
<path d="M256.634 237.259C256.639 237.28 256.582 237.318 256.533 237.401C256.484 237.483 256.462 237.573 256.448 237.564C256.434 237.556 256.435 237.441 256.491 237.345C256.548 237.25 256.63 237.24 256.634 237.259Z" fill="#CDDFF2"/>
<path d="M256.407 236.895C256.409 236.903 256.381 236.966 256.31 237.032C256.244 237.095 256.167 237.134 256.085 237.147C256.067 237.153 256.049 237.153 256.03 237.149C256.016 237.146 256.003 237.136 255.991 237.121C255.98 237.106 255.972 237.086 255.968 237.065C255.966 237.047 255.965 237.028 255.968 237.011C255.971 236.994 255.977 236.979 255.985 236.967C255.997 236.95 256.011 236.935 256.026 236.925C256.051 236.906 256.078 236.889 256.105 236.877C256.155 236.857 256.207 236.849 256.261 236.855C256.352 236.865 256.409 236.906 256.409 236.914C256.408 236.923 256.352 236.904 256.267 236.908C256.218 236.91 256.17 236.922 256.125 236.944C256.098 236.957 256.071 236.973 256.047 236.994C256.02 237.013 256.003 237.037 256.008 237.061C256.013 237.085 256.01 237.073 256.023 237.078C256.036 237.078 256.049 237.075 256.062 237.07C256.091 237.064 256.12 237.058 256.147 237.052C256.194 237.035 256.239 237.012 256.282 236.983C256.322 236.949 256.364 236.92 256.407 236.895Z" fill="#CDDFF2"/>
<path d="M256.411 236.938C256.412 236.944 256.352 236.911 256.278 236.807C256.235 236.745 256.199 236.675 256.17 236.599C256.153 236.554 256.138 236.507 256.127 236.459C256.118 236.429 256.113 236.397 256.114 236.367C256.115 236.336 256.122 236.308 256.133 236.284C256.141 236.272 256.152 236.263 256.164 236.261C256.176 236.258 256.19 236.261 256.202 236.27C256.221 236.282 256.238 236.299 256.253 236.319C256.281 236.353 256.306 236.392 256.328 236.435C256.364 236.507 256.389 236.589 256.401 236.673C256.419 236.808 256.395 236.891 256.39 236.886C256.386 236.82 256.379 236.754 256.37 236.687C256.354 236.614 256.329 236.544 256.296 236.481C256.276 236.445 256.254 236.412 256.23 236.384C256.203 236.352 256.177 236.334 256.172 236.349C256.167 236.364 256.165 236.381 256.165 236.399C256.166 236.417 256.169 236.435 256.174 236.452C256.183 236.497 256.196 236.541 256.211 236.584C256.236 236.655 256.267 236.722 256.303 236.783C256.364 236.879 256.414 236.927 256.411 236.938Z" fill="#CDDFF2"/>
<path d="M249.628 230.236L254.247 237.139L255.55 235.011L250.855 226.513" fill="#CDDFF2"/>
<path d="M249.534 228.531C249.548 228.537 249.52 228.863 249.56 229.276C249.6 229.689 249.688 230.022 249.675 230.027C249.508 229.536 249.458 229.002 249.533 228.526L249.534 228.531Z" fill="white"/>
<path d="M249.224 228.618C249.237 228.615 249.293 228.949 249.411 229.342C249.528 229.735 249.657 230.034 249.645 230.043C249.418 229.617 249.272 229.12 249.224 228.618L249.224 228.618Z" fill="white"/>
<path d="M237.694 232.681L235.386 232.1C233.899 237.677 235.217 243.194 239.972 245.637L241.413 241.195L237.694 232.681Z" fill="#CDDFF2"/>
<path d="M237.732 231.833C236.643 233.34 236.51 236.065 237.198 238.566C237.953 241.307 239.684 243.774 241.986 244.078L255.481 236.571C256.038 236.261 256.524 235.765 256.908 235.116C257.292 234.467 257.567 233.677 257.713 232.798C257.86 231.919 257.876 230.969 257.76 230.009C257.644 229.048 257.399 228.098 257.041 227.219C256.375 225.586 255.357 224.293 254.198 223.607C253.038 222.921 251.828 222.897 250.817 223.538L237.732 231.833Z" fill="#7C8DAC"/>
<path d="M237.732 231.833L237.855 231.752L238.217 231.518L239.615 230.624L244.762 227.347L248.316 225.081L250.298 223.822L250.812 223.497L251.081 223.352C251.126 223.328 251.17 223.302 251.216 223.28L251.358 223.23C251.454 223.197 251.548 223.159 251.644 223.13L251.942 223.069C252.042 223.049 252.143 223.039 252.246 223.039L252.401 223.032L252.479 223.03L252.558 223.037L252.874 223.071C252.98 223.086 253.087 223.118 253.195 223.143C253.248 223.157 253.302 223.168 253.356 223.185L253.517 223.245L253.678 223.308C253.732 223.325 253.786 223.348 253.84 223.377L254.161 223.545C254.268 223.604 254.373 223.682 254.481 223.757C254.534 223.793 254.584 223.826 254.639 223.863L254.794 223.99L254.95 224.117L255.027 224.181L255.102 224.254C255.935 225.028 256.64 226.117 257.132 227.385C257.641 228.701 257.894 230.15 257.856 231.536C257.815 232.961 257.471 234.249 256.872 235.218C256.62 235.628 256.325 235.973 255.996 236.244C255.67 236.522 255.306 236.689 254.959 236.889L252.889 238.039L248.939 240.245L241.998 244.1L241.991 244.102C241.583 244.041 241.174 243.912 240.769 243.719C240.017 243.344 239.307 242.701 238.704 241.852C238.431 241.463 238.18 241.04 237.955 240.59C237.901 240.482 237.852 240.368 237.798 240.259C237.746 240.153 237.698 240.042 237.654 239.929C237.609 239.817 237.565 239.707 237.52 239.596L237.403 239.263C237.363 239.154 237.327 239.043 237.295 238.93C237.262 238.82 237.229 238.71 237.197 238.601C237.164 238.493 237.141 238.382 237.113 238.274C237.085 238.165 237.058 238.058 237.037 237.951C236.864 237.17 236.773 236.373 236.768 235.594C236.762 234.97 236.816 234.365 236.928 233.795C237.01 233.377 237.13 232.985 237.284 232.631C237.316 232.56 237.343 232.489 237.373 232.43L237.461 232.266L237.536 232.127L237.603 232.022L237.728 231.835L237.607 232.028L237.54 232.134L237.466 232.275L237.383 232.438C237.353 232.498 237.326 232.568 237.295 232.64C237.143 232.995 237.025 233.386 236.945 233.804C236.834 234.372 236.781 234.976 236.788 235.598C236.796 236.375 236.887 237.167 237.06 237.945C237.082 238.052 237.104 238.16 237.135 238.266C237.166 238.373 237.189 238.483 237.22 238.592C237.252 238.701 237.285 238.81 237.318 238.92C237.351 239.032 237.387 239.142 237.426 239.25C237.465 239.359 237.504 239.47 237.543 239.582C237.582 239.693 237.632 239.8 237.676 239.912C237.72 240.024 237.768 240.134 237.82 240.241C237.87 240.349 237.919 240.461 237.976 240.568C238.2 241.014 238.45 241.434 238.722 241.82C239.015 242.222 239.33 242.583 239.663 242.896C240.019 243.213 240.391 243.473 240.772 243.671C241.173 243.863 241.58 243.989 241.984 244.049L241.977 244.051L248.912 240.178L252.866 237.977L254.936 236.825C255.283 236.624 255.647 236.458 255.967 236.183C256.293 235.916 256.585 235.574 256.835 235.169C257.428 234.208 257.768 232.932 257.808 231.52C257.846 230.148 257.596 228.713 257.092 227.41C256.605 226.154 255.907 225.076 255.083 224.308L255.009 224.236L254.936 224.183L254.783 224.057L254.629 223.932C254.578 223.891 254.525 223.86 254.472 223.825C254.369 223.758 254.264 223.68 254.157 223.622L253.839 223.455C253.786 223.428 253.732 223.405 253.679 223.386L253.519 223.325L253.359 223.264C253.306 223.248 253.253 223.237 253.2 223.224C253.094 223.2 252.987 223.167 252.882 223.151L252.569 223.118L252.491 223.109L252.414 223.113L252.26 223.12C252.158 223.119 252.057 223.128 251.958 223.147L251.664 223.208C251.567 223.237 251.474 223.275 251.381 223.307L251.239 223.357C251.194 223.378 251.149 223.404 251.105 223.428L250.839 223.571L250.32 223.886L248.338 225.14L244.781 227.397L239.626 230.648L238.225 231.536L237.859 231.765L237.732 231.833Z" fill="#CDDFF2"/>
<path d="M241.985 244.075L241.485 251.253C241.485 251.253 250.185 248.038 248.245 240.593L241.985 244.075Z" fill="white"/>
<path d="M243.997 227.86C243.997 227.86 238.32 222.185 233.406 226.087L237.734 231.832L243.997 227.86Z" fill="white"/>
<path d="M251.283 223.341C253.578 225.093 256.438 233.206 256.093 236.042C260.847 232.547 260.487 225.254 260.487 225.254C255.544 220.497 251.283 223.341 251.283 223.341Z" fill="white"/>
<path d="M238.643 241.532C238.654 241.542 238.477 242.143 238.247 242.874C238.018 243.605 237.822 244.188 237.807 244.177C237.792 244.166 237.971 243.566 238.202 242.835C238.432 242.104 238.631 241.52 238.643 241.532Z" fill="white"/>
<path d="M260.483 225.252C260.483 225.252 260.48 225.285 260.47 225.348L260.424 225.627L260.348 226.083C260.333 226.172 260.317 226.269 260.3 226.371L260.229 226.692C260.179 226.918 260.126 227.171 260.062 227.443L259.823 228.305C259.775 228.454 259.72 228.604 259.668 228.767C259.615 228.929 259.564 229.093 259.502 229.251C259.371 229.57 259.24 229.916 259.072 230.244C258.721 230.98 258.307 231.635 257.837 232.197C257.576 232.512 257.298 232.795 257.004 233.046C256.854 233.178 256.696 233.298 256.544 233.433C256.382 233.56 256.214 233.672 256.041 233.768C254.66 234.592 253.129 235.46 251.52 236.373C248.306 238.201 245.392 239.842 243.281 241.024L240.78 242.425L240.099 242.801L239.921 242.897C239.881 242.919 239.86 242.927 239.86 242.927L239.919 242.89L240.094 242.787L240.771 242.399L243.265 240.982L251.498 236.311C253.103 235.394 254.636 234.528 256.019 233.706C256.191 233.611 256.357 233.501 256.517 233.377C256.672 233.239 256.83 233.122 256.979 232.989C257.272 232.741 257.55 232.46 257.81 232.148C258.279 231.59 258.693 230.94 259.045 230.211C259.213 229.884 259.345 229.54 259.476 229.223C259.543 229.07 259.592 228.897 259.648 228.742C259.703 228.587 259.756 228.433 259.804 228.282L260.046 227.425C260.111 227.154 260.165 226.902 260.218 226.679L260.289 226.359L260.339 226.071L260.419 225.619C260.441 225.498 260.458 225.406 260.469 225.341C260.48 225.276 260.483 225.252 260.483 225.252Z" fill="#CDDFF2"/>
<path d="M249.289 240.022C249.289 240.022 249.281 240.015 249.268 239.999L249.209 239.925L248.987 239.637L248.827 239.426C248.77 239.348 248.71 239.257 248.644 239.162C248.516 238.972 248.361 238.762 248.208 238.507L247.962 238.112C247.877 237.975 247.795 237.822 247.708 237.669C247.529 237.367 247.357 237.023 247.173 236.667C246.389 235.087 245.769 233.364 245.341 231.571C245.248 231.157 245.155 230.766 245.091 230.394C245.058 230.209 245.016 230.031 244.994 229.857C244.971 229.684 244.943 229.519 244.919 229.361C244.867 229.045 244.842 228.757 244.813 228.506C244.8 228.381 244.785 228.264 244.776 228.156C244.767 228.048 244.761 227.952 244.755 227.863C244.743 227.69 244.734 227.555 244.727 227.451C244.724 227.409 244.722 227.374 244.721 227.345C244.719 227.316 244.72 227.309 244.721 227.311C244.724 227.322 244.726 227.334 244.728 227.347C244.734 227.373 244.734 227.409 244.738 227.452L244.775 227.861C244.783 227.95 244.791 228.047 244.799 228.154C244.808 228.261 244.826 228.378 244.841 228.505C244.873 228.755 244.9 229.041 244.954 229.355C244.978 229.513 245.004 229.679 245.031 229.85C245.059 230.021 245.096 230.199 245.131 230.385C245.196 230.756 245.289 231.146 245.384 231.558C245.813 233.342 246.429 235.059 247.205 236.635C247.388 236.992 247.558 237.337 247.735 237.639C247.823 237.792 247.903 237.944 247.987 238.082L248.23 238.477C248.381 238.734 248.533 238.946 248.66 239.138C248.726 239.234 248.788 239.324 248.841 239.405C248.894 239.486 248.951 239.554 248.998 239.619C249.089 239.739 249.163 239.845 249.216 239.916L249.271 239.995C249.278 240.003 249.284 240.012 249.289 240.022Z" fill="#CDDFF2"/>
<path d="M243.788 233.864L235.345 238.672C235.345 238.672 235.591 240.066 235.816 240.031C236.003 240.002 242.338 236.707 244.393 235.637C244.472 235.595 244.541 235.527 244.595 235.436C244.649 235.345 244.686 235.233 244.705 235.109C244.724 234.985 244.724 234.851 244.705 234.716C244.685 234.581 244.647 234.449 244.593 234.329C244.501 234.127 244.369 233.968 244.222 233.882C244.074 233.797 243.92 233.79 243.788 233.864Z" fill="white"/>
<path d="M252.611 230.672C252.253 228.931 250.993 227.718 249.798 227.963C248.603 228.207 247.925 229.817 248.283 231.558C248.642 233.299 249.901 234.512 251.097 234.267C252.292 234.023 252.97 232.413 252.611 230.672Z" fill="white"/>
<path d="M252.613 230.673C252.608 230.656 252.604 230.638 252.601 230.62C252.593 230.581 252.578 230.531 252.562 230.467C252.555 230.432 252.547 230.394 252.533 230.353C252.519 230.311 252.506 230.268 252.49 230.223C252.474 230.177 252.458 230.123 252.44 230.069C252.423 230.014 252.396 229.958 252.372 229.898C252.319 229.766 252.26 229.639 252.197 229.517C251.928 229.014 251.585 228.609 251.206 228.343C250.88 228.113 250.538 227.987 250.204 227.971C250.112 227.966 250.022 227.97 249.933 227.983C249.888 227.992 249.841 227.992 249.796 228.003L249.661 228.042L249.592 228.056L249.525 228.085L249.392 228.146L249.264 228.227L249.199 228.267L249.138 228.318C248.789 228.593 248.519 229.03 248.361 229.578C248.187 230.165 248.17 230.865 248.313 231.555C248.456 232.245 248.749 232.88 249.141 233.35C249.503 233.792 249.924 234.088 250.353 234.203L250.43 234.226L250.506 234.238L250.656 234.261L250.802 234.265L250.874 234.266L250.944 234.252L251.083 234.234C251.128 234.225 251.173 234.216 251.216 234.2C251.303 234.176 251.388 234.144 251.47 234.103C251.769 233.957 252.031 233.707 252.236 233.368C252.55 232.886 252.712 232.214 252.695 231.477C252.692 231.412 252.693 231.352 252.689 231.295C252.685 231.237 252.679 231.183 252.674 231.132C252.669 231.082 252.665 231.036 252.661 230.996C252.657 230.955 252.645 230.915 252.643 230.881C252.633 230.815 252.625 230.762 252.618 230.723C252.616 230.706 252.613 230.688 252.612 230.67C252.617 230.688 252.62 230.706 252.623 230.724L252.655 230.879C252.662 230.913 252.67 230.952 252.679 230.995C252.688 231.037 252.689 231.084 252.693 231.131C252.697 231.177 252.704 231.236 252.711 231.294C252.718 231.353 252.715 231.413 252.718 231.479C252.723 231.624 252.721 231.767 252.712 231.908C252.699 232.075 252.677 232.237 252.646 232.394C252.57 232.777 252.442 233.119 252.268 233.403C252.059 233.75 251.792 234.007 251.486 234.156C251.403 234.198 251.317 234.231 251.229 234.256C251.184 234.265 251.14 234.284 251.093 234.292L250.953 234.311L250.882 234.326L250.808 234.325L250.659 234.322L250.507 234.299L250.43 234.287L250.353 234.264C249.914 234.148 249.484 233.847 249.114 233.398C248.713 232.917 248.413 232.267 248.267 231.562C248.121 230.856 248.138 230.14 248.316 229.54C248.48 228.983 248.758 228.539 249.117 228.261L249.179 228.211L249.245 228.169L249.377 228.088L249.512 228.027L249.579 227.997L249.65 227.983L249.787 227.945C249.833 227.935 249.881 227.932 249.926 227.926C250.017 227.913 250.109 227.909 250.202 227.916C250.539 227.932 250.883 228.061 251.209 228.293C251.481 228.486 251.735 228.751 251.956 229.073C252.124 229.313 252.269 229.588 252.384 229.886C252.407 229.946 252.43 230.003 252.45 230.058C252.469 230.114 252.484 230.167 252.498 230.215C252.513 230.264 252.527 230.308 252.54 230.346C252.552 230.384 252.556 230.426 252.563 230.461C252.577 230.527 252.588 230.578 252.596 230.617C252.602 230.635 252.608 230.654 252.613 230.673Z" fill="#CDDFF2"/>
<path d="M244.662 225.622C244.664 225.629 244.657 225.654 244.648 225.688C244.64 225.722 244.638 225.751 244.632 225.75C244.626 225.748 244.624 225.712 244.63 225.674C244.637 225.635 244.658 225.614 244.662 225.622Z" fill="white"/>
</g>
<path d="M128.209 93L133.676 76.72H137.933L143.4 93H140.485L135.612 78.029H135.953L131.091 93H128.209ZM131.663 88.325L132.301 85.96H139.297L139.935 88.325H131.663ZM149.064 93.132C148.463 93.132 147.828 93.1137 147.161 93.077C146.501 93.0477 145.863 92.9963 145.247 92.923V80.196C145.665 80.108 146.116 80.031 146.6 79.965C147.091 79.899 147.586 79.8477 148.085 79.811C148.584 79.7743 149.068 79.756 149.537 79.756C152.067 79.756 153.97 80.3023 155.246 81.395C156.529 82.4803 157.171 84.1707 157.171 86.466C157.171 88.0207 156.87 89.2893 156.269 90.272C155.668 91.2473 154.766 91.9697 153.563 92.439C152.36 92.901 150.861 93.132 149.064 93.132ZM149.768 90.866C150.758 90.866 151.579 90.7193 152.232 90.426C152.885 90.1327 153.372 89.6633 153.695 89.018C154.025 88.3653 154.19 87.5073 154.19 86.444C154.19 85.3953 154.025 84.5483 153.695 83.903C153.372 83.2503 152.885 82.7737 152.232 82.473C151.579 82.1723 150.765 82.022 149.79 82.022C149.526 82.022 149.247 82.0367 148.954 82.066C148.661 82.088 148.4 82.121 148.173 82.165V90.789C148.437 90.8183 148.701 90.8403 148.965 90.855C149.229 90.8623 149.497 90.866 149.768 90.866ZM163.523 93.132C162.922 93.132 162.287 93.1137 161.62 93.077C160.96 93.0477 160.322 92.9963 159.706 92.923V80.196C160.124 80.108 160.575 80.031 161.059 79.965C161.55 79.899 162.045 79.8477 162.544 79.811C163.043 79.7743 163.527 79.756 163.996 79.756C166.526 79.756 168.429 80.3023 169.705 81.395C170.988 82.4803 171.63 84.1707 171.63 86.466C171.63 88.0207 171.329 89.2893 170.728 90.272C170.127 91.2473 169.225 91.9697 168.022 92.439C166.819 92.901 165.32 93.132 163.523 93.132ZM164.227 90.866C165.217 90.866 166.038 90.7193 166.691 90.426C167.344 90.1327 167.831 89.6633 168.154 89.018C168.484 88.3653 168.649 87.5073 168.649 86.444C168.649 85.3953 168.484 84.5483 168.154 83.903C167.831 83.2503 167.344 82.7737 166.691 82.473C166.038 82.1723 165.224 82.022 164.249 82.022C163.985 82.022 163.706 82.0367 163.413 82.066C163.12 82.088 162.859 82.121 162.632 82.165V90.789C162.896 90.8183 163.16 90.8403 163.424 90.855C163.688 90.8623 163.956 90.866 164.227 90.866ZM187.113 93.209C185.844 93.209 184.707 93.055 183.703 92.747C182.705 92.4317 181.858 91.944 181.162 91.284C180.465 90.6167 179.933 89.755 179.567 88.699C179.2 87.643 179.017 86.3743 179.017 84.893C179.017 82.9937 179.339 81.4243 179.985 80.185C180.637 78.9457 181.58 78.0253 182.812 77.424C184.044 76.8153 185.536 76.511 187.289 76.511C187.912 76.511 188.513 76.5477 189.093 76.621C189.672 76.687 190.24 76.7897 190.798 76.929V79.382C190.262 79.2427 189.72 79.14 189.17 79.074C188.627 79.008 188.07 78.975 187.498 78.975C186.302 78.975 185.305 79.1693 184.506 79.558C183.706 79.9467 183.105 80.5737 182.702 81.439C182.306 82.297 182.108 83.4337 182.108 84.849C182.108 86.3083 182.309 87.4707 182.713 88.336C183.116 89.194 183.706 89.81 184.484 90.184C185.268 90.558 186.233 90.745 187.377 90.745C187.949 90.745 188.513 90.701 189.071 90.613C189.628 90.525 190.204 90.3893 190.798 90.206V92.659C190.27 92.8277 189.69 92.9597 189.06 93.055C188.429 93.1577 187.78 93.209 187.113 93.209ZM191.782 93L196.303 79.91H200.56L205.092 93H202.21L198.261 81.076H198.569L194.631 93H191.782ZM194.851 89.469L195.478 87.291H201.374L202.001 89.469H194.851ZM209.787 93.165C209.119 93.165 208.452 93.1173 207.785 93.022C207.117 92.934 206.509 92.8057 205.959 92.637V90.36C206.377 90.4847 206.806 90.5873 207.246 90.668C207.693 90.7487 208.133 90.811 208.566 90.855C208.998 90.899 209.398 90.921 209.765 90.921C210.432 90.921 210.964 90.8587 211.36 90.734C211.763 90.6093 212.049 90.4297 212.218 90.195C212.394 89.953 212.482 89.6633 212.482 89.326C212.482 89.04 212.419 88.798 212.295 88.6C212.177 88.3947 211.961 88.2187 211.646 88.072C211.338 87.918 210.901 87.7787 210.337 87.654L209.457 87.467C208.129 87.181 207.158 86.7337 206.542 86.125C205.926 85.5163 205.618 84.7133 205.618 83.716C205.618 82.9387 205.819 82.253 206.223 81.659C206.633 81.0577 207.264 80.5883 208.115 80.251C208.973 79.9137 210.076 79.745 211.426 79.745C211.99 79.745 212.551 79.778 213.109 79.844C213.666 79.9027 214.168 79.987 214.616 80.097V82.374C214.124 82.2493 213.615 82.154 213.087 82.088C212.559 82.022 212.027 81.989 211.492 81.989C210.722 81.989 210.117 82.055 209.677 82.187C209.244 82.3117 208.936 82.4913 208.753 82.726C208.569 82.9607 208.478 83.2357 208.478 83.551C208.478 83.9763 208.61 84.31 208.874 84.552C209.138 84.794 209.673 85.0067 210.48 85.19L211.349 85.377C212.28 85.575 213.039 85.839 213.626 86.169C214.212 86.4917 214.641 86.8987 214.913 87.39C215.191 87.8813 215.331 88.4717 215.331 89.161C215.331 89.953 215.122 90.6497 214.704 91.251C214.293 91.8523 213.677 92.3217 212.856 92.659C212.034 92.9963 211.011 93.165 209.787 93.165ZM217.649 93V79.91H227.307V82.077H220.509V90.833H227.406V93H217.649ZM219.387 87.412V85.245H226.361V87.412H219.387Z" fill="black"/>
<defs>
<filter id="filter0_d_437_2201" x="225.048" y="222.498" width="39.4448" height="36.7551" filterUnits="userSpaceOnUse" color-interpolation-filters="sRGB">
<feFlood flood-opacity="0" result="BackgroundImageFix"/>
<feColorMatrix in="SourceAlpha" type="matrix" values="0 0 0 0 0 0 0 0 0 0 0 0 0 0 0 0 0 0 127 0" result="hardAlpha"/>
<feOffset dy="4"/>
<feGaussianBlur stdDeviation="2"/>
<feComposite in2="hardAlpha" operator="out"/>
<feColorMatrix type="matrix" values="0 0 0 0 0 0 0 0 0 0 0 0 0 0 0 0 0 0 0.25 0"/>
<feBlend mode="normal" in2="BackgroundImageFix" result="effect1_dropShadow_437_2201"/>
<feBlend mode="normal" in="SourceGraphic" in2="effect1_dropShadow_437_2201" result="shape"/>
</filter>
</defs>
</svg>
