<svg width="328" height="331" viewBox="0 0 328 331" fill="none" xmlns="http://www.w3.org/2000/svg">
<path d="M198.047 0.0115363C161.013 -0.383024 123.953 9.3659 90.889 25.7895C57.8252 42.213 28.9916 68.0978 13.0156 100.978C-2.96037 133.858 -5.00021 173.832 11.2098 206.58C17.2876 218.853 26.4668 230.5 39.4416 235.35C56.0362 241.548 74.4282 235.416 92.1597 234.767C116.195 233.895 139.369 243.258 160.712 254.19C182.055 265.123 202.654 277.913 225.652 284.826C248.651 291.739 275.177 292.002 295.166 278.859C314.034 266.455 324.041 243.989 326.432 221.795C328.823 199.601 324.593 177.301 320.388 155.37C315.974 132.46 294.656 1.03082 198.047 0.0115363Z" fill="#43639F"/>
<g opacity="0.7">
<path d="M198.047 0.0115363C161.013 -0.383024 123.953 9.3659 90.889 25.7895C57.8252 42.213 28.9916 68.0978 13.0156 100.978C-2.96037 133.858 -5.00021 173.832 11.2098 206.58C17.2876 218.853 26.4668 230.5 39.4416 235.35C56.0362 241.548 74.4282 235.416 92.1597 234.767C116.195 233.895 139.369 243.258 160.712 254.19C182.055 265.123 202.654 277.913 225.652 284.826C248.651 291.739 275.177 292.002 295.166 278.859C314.034 266.455 324.041 243.989 326.432 221.795C328.823 199.601 324.593 177.301 320.388 155.37C315.974 132.46 294.656 1.03082 198.047 0.0115363Z" fill="white"/>
</g>
<path d="M164.633 330.776C231.119 330.776 285.017 325.705 285.017 319.449C285.017 313.193 231.119 308.122 164.633 308.122C98.1463 308.122 44.2485 313.193 44.2485 319.449C44.2485 325.705 98.1463 330.776 164.633 330.776Z" fill="#43639F"/>
<path opacity="0.5" d="M164.633 330.776C231.119 330.776 285.017 325.705 285.017 319.449C285.017 313.193 231.119 308.122 164.633 308.122C98.1463 308.122 44.2485 313.193 44.2485 319.449C44.2485 325.705 98.1463 330.776 164.633 330.776Z" fill="white"/>
<path d="M256.267 99.7776C256.676 103.115 255.038 107.998 251.526 107.628C250.953 107.557 250.391 107.413 249.854 107.2C250.197 104.734 248.684 101.948 249.938 99.8023C250.615 98.6022 252.337 96.3746 253.675 96.1773C255.497 95.8896 256.032 97.9446 256.267 99.7776Z" fill="#43639F"/>
<path d="M252.396 110.349C251.225 112.815 249.62 114.828 245.85 114.73C245.006 114.696 244.186 114.44 243.476 113.99C243.123 113.78 242.82 113.499 242.588 113.164C242.356 112.829 242.2 112.449 242.13 112.05C242.093 111.526 242.216 111.003 242.482 110.548C242.749 110.093 243.147 109.726 243.626 109.494C244.593 109.027 245.651 108.769 246.728 108.737C247.876 108.666 249.029 108.783 250.139 109.083C250.96 109.373 251.724 109.801 252.396 110.349Z" fill="#43639F"/>
<path d="M244.061 101.397C248.015 105.844 252.371 109.806 256.308 114.089" stroke="#43639F" stroke-miterlimit="10"/>
<path d="M268.873 113.406C268.995 115.297 268.493 117.177 267.444 118.766C266.432 120.245 264.936 121.125 263.264 120.722C262.719 120.565 262.193 120.353 261.692 120.089C261.937 118.815 261.968 117.51 261.784 116.226C261.562 114.983 261.734 113.703 262.277 112.56C262.98 111.368 264.652 109.066 266.106 109.033C268.046 108.992 268.765 111.409 268.873 113.406Z" fill="#43639F"/>
<path d="M263.69 123.525C262.982 124.64 262.017 125.575 260.873 126.254C259.539 126.928 258.016 127.147 256.542 126.879C255.776 126.781 255.053 126.477 254.452 125.999C254.16 125.796 253.923 125.524 253.764 125.209C253.605 124.893 253.528 124.543 253.541 124.191C253.608 123.681 253.809 123.196 254.124 122.785C254.439 122.374 254.858 122.051 255.339 121.848C256.302 121.438 257.349 121.249 258.398 121.298C259.525 121.302 260.639 121.528 261.675 121.963C262.435 122.364 263.117 122.893 263.69 123.525Z" fill="#43639F"/>
<path d="M256.308 114.13C258.306 116.242 260.137 118.486 261.926 120.755C263.715 123.024 265.32 125.44 266.817 127.915" stroke="#43639F" stroke-miterlimit="10"/>
<path d="M279.282 129.526C278.772 133.126 275.603 137.088 272.376 135.683C271.861 135.445 271.38 135.141 270.947 134.778C271.225 134.197 271.419 133.58 271.524 132.945C271.632 132.312 271.691 131.655 271.766 131.005C271.799 129.742 272.228 128.519 272.995 127.504C273.923 126.468 275.988 124.536 277.451 124.766C279.332 125.095 279.549 127.586 279.282 129.526Z" fill="#43639F"/>
<path d="M272.301 138.519C270.337 140.516 268.163 141.807 264.668 140.582C263.172 140.097 261.826 138.757 262.16 137.294C262.312 136.802 262.596 136.36 262.981 136.013C263.366 135.666 263.839 135.427 264.351 135.321C265.388 135.087 266.465 135.087 267.502 135.321C268.603 135.557 269.649 135.992 270.587 136.603C271.279 137.127 271.861 137.778 272.301 138.519Z" fill="#43639F"/>
<path d="M266.792 127.874C269.805 132.826 272.44 137.991 274.675 143.327" stroke="#43639F" stroke-miterlimit="10"/>
<path d="M286.856 147.084C286.313 148.946 285.132 150.567 283.512 151.67C282.007 152.665 280.293 152.903 278.889 151.892C278.438 151.553 278.029 151.164 277.668 150.733C278.393 149.64 278.891 148.417 279.131 147.133C279.323 145.891 279.908 144.741 280.803 143.845C281.857 142.957 284.214 141.379 285.602 141.757C286.022 141.893 286.389 142.151 286.655 142.498C286.921 142.845 287.073 143.263 287.09 143.697C287.265 144.829 287.185 145.985 286.856 147.084Z" fill="#43639F"/>
<path d="M278.203 154.638C275.829 156.134 273.388 156.767 270.303 155.016C268.999 154.284 267.97 152.928 268.631 151.728C268.914 151.317 269.285 150.972 269.718 150.718C270.152 150.464 270.637 150.306 271.139 150.257C272.17 150.146 273.213 150.29 274.174 150.676C275.212 151.063 276.155 151.663 276.941 152.435C277.502 153.082 277.931 153.83 278.203 154.638Z" fill="#43639F"/>
<path d="M274.7 143.327L276.372 147.347C276.887 148.672 277.326 150.025 277.685 151.399C278.427 154.168 278.977 156.983 279.332 159.825" stroke="#43639F" stroke-miterlimit="10"/>
<path d="M289.832 166.738C288.766 168.353 287.188 169.578 285.343 170.223C283.604 170.774 281.915 170.527 280.828 169.179C280.494 168.73 280.213 168.245 279.992 167.732C282.065 166.236 282.751 163.072 285.058 161.978C286.337 161.419 289.063 160.499 290.267 161.345C291.872 162.554 290.96 165.094 289.832 166.738Z" fill="#43639F"/>
<path d="M279.332 171.67C278.063 172.079 276.714 172.189 275.394 171.99C273.955 171.689 272.645 170.96 271.64 169.902C270.587 168.867 269.968 167.297 270.947 166.212C271.323 165.861 271.782 165.608 272.282 165.474C272.783 165.341 273.309 165.332 273.814 165.447C274.837 165.677 275.793 166.135 276.606 166.787C277.487 167.458 278.221 168.296 278.763 169.253C279.114 170.014 279.307 170.835 279.332 171.67Z" fill="#43639F"/>
<path d="M279.332 159.825C280.098 165.494 279.954 171.247 278.905 176.873" stroke="#43639F" stroke-miterlimit="10"/>
<path d="M286.187 187.288C285.355 187.891 284.425 188.353 283.436 188.652C282.498 188.933 281.513 189.033 280.535 188.948C279.699 188.926 278.893 188.64 278.235 188.132C277.577 187.625 277.103 186.922 276.882 186.129C276.771 185.587 276.709 185.037 276.698 184.485C277.965 184.092 279.135 183.445 280.134 182.586C281.095 181.725 282.278 181.139 283.553 180.893C284.95 180.778 287.859 180.728 288.686 182.002C289.823 183.671 287.942 185.956 286.187 187.288Z" fill="#43639F"/>
<path d="M274.516 187.666C273.142 187.492 271.841 186.955 270.752 186.113C269.663 185.271 268.826 184.154 268.33 182.882C267.736 181.608 267.72 180.219 268.957 179.701C269.445 179.554 269.96 179.514 270.465 179.583C270.971 179.653 271.455 179.83 271.883 180.104C272.755 180.652 273.482 181.396 274.006 182.274C274.573 183.188 274.922 184.216 275.026 185.282C275.041 186.104 274.867 186.919 274.516 187.666Z" fill="#43639F"/>
<path d="M278.872 176.873C278.312 179.649 277.434 182.355 276.255 184.937C275.059 187.49 273.49 189.857 271.599 191.965" stroke="#43639F" stroke-miterlimit="10"/>
<path d="M273.638 203.966C271.781 204.215 269.89 203.947 268.179 203.193C266.507 202.429 265.429 201.138 265.579 199.42C265.638 198.857 265.776 198.303 265.989 197.776C268.497 198.089 271.314 196.527 273.513 197.735C274.316 198.176 275.087 198.67 275.82 199.215C276.193 199.458 276.513 199.773 276.76 200.14C277.007 200.507 277.176 200.919 277.258 201.352C277.593 203.111 275.528 203.728 273.638 203.966Z" fill="#43639F"/>
<path d="M262.812 200.267C260.304 199.083 258.356 197.439 258.356 193.839C258.356 192.318 259.268 190.51 260.923 190.272C261.457 190.224 261.993 190.335 262.463 190.59C262.932 190.845 263.313 191.232 263.556 191.702C264.047 192.642 264.332 193.672 264.392 194.727C264.492 195.85 264.393 196.982 264.1 198.072C263.812 198.876 263.376 199.62 262.812 200.267Z" fill="#43639F"/>
<path d="M271.599 191.965C271.156 192.507 270.612 192.976 270.127 193.486L268.531 195.015L265.379 198.114C264.334 199.133 263.297 200.152 262.227 201.13C261.692 201.615 261.157 202.1 260.605 202.569C260.054 203.037 259.493 203.489 258.933 203.999" stroke="#43639F" stroke-miterlimit="10"/>
<path d="M261.776 215.425C260.944 215.523 260.104 215.548 259.268 215.499C258.36 215.445 257.461 215.299 256.584 215.063C254.912 214.603 253.407 213.649 253.24 211.931C253.202 211.366 253.247 210.799 253.374 210.246C255.965 210.164 258.515 208.495 260.781 209.704C262.01 210.32 264.275 211.989 264.626 213.214C264.751 213.528 264.751 213.877 264.626 214.192C264.505 214.467 264.289 214.691 264.016 214.825C263.306 215.14 262.55 215.343 261.776 215.425Z" fill="#43639F"/>
<path d="M250.715 213.419C249.381 213.297 248.095 212.866 246.962 212.161C245.9 211.405 245.123 210.197 244.922 208.051C244.738 206.268 245.758 203.802 247.564 203.202C248.088 203.029 248.657 203.04 249.174 203.234C249.69 203.427 250.123 203.79 250.398 204.262C250.943 205.215 251.29 206.266 251.418 207.353C251.595 208.514 251.629 209.693 251.518 210.863C251.369 211.747 251.099 212.606 250.715 213.419Z" fill="#43639F"/>
<path d="M258.925 203.999C254.357 208.006 250.76 212.97 248.4 218.524" stroke="#43639F" stroke-miterlimit="10"/>
<path d="M255.924 227.64C254.451 228.55 252.813 229.173 251.1 229.473C249.328 229.744 247.631 229.522 246.719 228.034C246.429 227.543 246.225 227.006 246.117 226.448C248.4 225.289 250.022 222.724 252.58 222.847C253.959 222.847 256.76 223.415 257.596 224.393C258.708 225.659 257.278 226.744 255.924 227.64Z" fill="#43639F"/>
<path d="M245.056 230.443C242.364 231.191 239.73 231.692 237.473 228.018C236.999 227.142 236.749 226.166 236.746 225.174C236.742 224.196 237.105 223.25 237.766 222.519C238.173 222.145 238.698 221.92 239.253 221.881C239.808 221.842 240.36 221.992 240.817 222.305C241.712 222.942 242.473 223.743 243.058 224.664C243.723 225.644 244.267 226.698 244.68 227.804C244.821 228.23 244.908 228.672 244.939 229.119C245.056 229.563 245.056 230.032 245.056 230.443Z" fill="#43639F"/>
<path d="M248.4 218.524C246.002 224.054 244.902 230.044 245.181 236.049" stroke="#43639F" stroke-miterlimit="10"/>
<path d="M316.116 192.22C315.365 192.952 314.48 193.538 313.508 193.946C312.61 194.34 311.64 194.547 310.657 194.554C309.819 194.618 308.984 194.412 308.276 193.967C307.569 193.522 307.028 192.863 306.736 192.088C306.553 191.556 306.435 191.004 306.385 190.444C307.603 189.904 308.689 189.114 309.57 188.126C310.414 187.126 311.497 186.347 312.722 185.857C314.084 185.512 316.943 184.887 317.972 186.129C318.28 186.579 318.462 187.1 318.5 187.641C318.538 188.182 318.431 188.724 318.189 189.211C317.721 190.346 317.015 191.372 316.116 192.22Z" fill="#43639F"/>
<path d="M304.487 193.913C303.096 193.891 301.738 193.489 300.565 192.754C299.391 192.018 298.448 190.977 297.841 189.746C297.18 188.545 296.905 187.214 298.092 186.663C299.045 186.315 300.099 186.35 301.026 186.762C301.963 187.172 302.78 187.808 303.4 188.611C304.086 189.445 304.556 190.429 304.771 191.48C304.858 192.302 304.761 193.132 304.487 193.913Z" fill="#43639F"/>
<path d="M307.354 182.734C307.25 188.417 305.405 193.937 302.062 198.574" stroke="#43639F" stroke-miterlimit="10"/>
<path d="M304.696 210.929C302.758 211.392 300.716 211.171 298.928 210.304C297.314 209.482 296.319 208.093 296.553 206.375C296.656 205.813 296.813 205.263 297.021 204.731C299.529 205.15 302.355 203.3 304.788 204.024C306.117 204.459 308.817 205.536 309.06 207.024C309.428 209.079 306.803 210.435 304.696 210.929Z" fill="#43639F"/>
<path d="M293.753 207.016C292.572 206.399 291.555 205.517 290.785 204.443C290.02 203.209 289.65 201.777 289.723 200.333C289.714 199.631 289.893 198.939 290.242 198.327C290.388 198.053 290.607 197.823 290.874 197.66C291.142 197.497 291.448 197.406 291.763 197.398C292.276 197.434 292.773 197.585 293.217 197.84C293.661 198.095 294.038 198.448 294.321 198.87C294.899 199.719 295.266 200.691 295.391 201.706C295.544 202.785 295.459 203.884 295.14 204.928C294.823 205.707 294.351 206.417 293.753 207.016Z" fill="#43639F"/>
<path d="M302.063 198.574C300.428 200.932 298.536 203.107 296.42 205.059C294.277 207.009 291.973 208.78 289.531 210.353" stroke="#43639F" stroke-miterlimit="10"/>
<path d="M287.918 222.708C286.002 222.478 284.212 221.651 282.81 220.349C281.514 219.091 280.903 217.513 281.631 215.943C281.879 215.435 282.19 214.96 282.559 214.529C284.866 215.655 288.051 214.841 290.041 216.419C291.119 217.291 293.168 219.28 292.925 220.727C292.591 222.634 289.941 222.954 287.918 222.708Z" fill="#43639F"/>
<path d="M278.73 215.836C276.723 213.904 275.478 211.726 276.698 208.314C277.225 206.884 278.496 205.544 279.959 205.898C280.453 206.059 280.898 206.343 281.249 206.721C281.6 207.1 281.847 207.561 281.965 208.06C282.204 209.071 282.204 210.123 281.965 211.134C281.74 212.222 281.302 213.258 280.678 214.184C280.135 214.845 279.475 215.405 278.73 215.836Z" fill="#43639F"/>
<path d="M289.531 210.353C284.564 213.468 279.287 216.077 273.781 218.137" stroke="#43639F" stroke-miterlimit="10"/>
<path d="M270.529 229.933C268.783 229.376 267.221 228.368 266.006 227.015C264.835 225.683 264.234 224.097 265.07 222.56C265.358 222.071 265.712 221.623 266.123 221.228C268.33 222.535 271.507 222.247 273.154 224.171C274.04 225.223 275.62 227.574 275.193 228.922C274.625 230.714 272.293 230.467 270.529 229.933Z" fill="#43639F"/>
<path d="M262.135 222.354C260.162 220.406 258.641 218.294 260.463 214.718C261.249 213.214 263.063 211.841 264.643 212.309C265.145 212.487 265.583 212.806 265.901 213.227C266.22 213.649 266.404 214.153 266.432 214.677C266.489 215.733 266.309 216.788 265.906 217.767C265.501 218.844 264.923 219.849 264.192 220.743C263.591 221.377 262.898 221.92 262.135 222.354Z" fill="#43639F"/>
<path d="M273.781 218.137C268.297 220.283 262.528 222.075 257.169 224.993" stroke="#43639F" stroke-miterlimit="10"/>
<path d="M257.596 236.649C255.923 236.435 254.293 235.969 252.764 235.268C251.192 234.528 249.821 233.427 249.921 231.684C249.976 231.116 250.125 230.56 250.364 230.04C251.664 230.135 252.969 230.135 254.268 230.04C255.497 229.931 256.723 230.27 257.713 230.994C258.783 231.857 260.63 233.961 260.706 235.235C260.848 236.871 259.159 236.789 257.596 236.649Z" fill="#43639F"/>
<path d="M247.196 232.859C245.875 232.621 244.629 232.08 243.559 231.281C242.598 230.459 241.963 229.021 242.23 226.711C242.431 224.755 244.103 222.28 246.084 221.984C246.64 221.889 247.212 221.996 247.693 222.285C248.174 222.574 248.533 223.025 248.701 223.554C249.02 224.62 249.125 225.737 249.01 226.842C248.934 228.046 248.732 229.239 248.408 230.402C248.088 231.258 247.682 232.082 247.196 232.859Z" fill="#43639F"/>
<path d="M257.169 224.993C254.455 226.437 251.956 228.243 249.746 230.361C247.47 232.505 245.7 235.115 244.562 238.005" stroke="#43639F" stroke-miterlimit="10"/>
<path d="M225.945 324.003C225.669 324.069 216.038 324.069 215.754 324.003C208.69 322.474 183.601 314.369 206.215 288.122H235.166C257.763 314.361 233.017 322.474 225.945 324.003Z" fill="white" stroke="#263238" stroke-miterlimit="10"/>
<path d="M235.158 288.295C235.158 288.723 234.505 289.117 233.36 289.471C230.852 288.706 226.104 288.196 220.603 288.196C215.102 288.196 210.328 288.706 207.854 289.471C206.708 289.125 206.056 288.723 206.056 288.295C206.056 286.947 212.569 285.829 220.603 285.829C228.637 285.829 235.158 286.947 235.158 288.295Z" fill="white" stroke="#263238" stroke-miterlimit="10"/>
<path d="M233.352 289.471C230.844 290.227 226.095 290.736 220.594 290.736C215.094 290.736 210.32 290.227 207.845 289.471C210.353 288.706 215.102 288.196 220.594 288.196C226.087 288.196 230.886 288.706 233.352 289.471Z" fill="#263238" stroke="#263238" stroke-miterlimit="10"/>
<path d="M231.755 295.726C232.766 295.521 233.77 295.29 234.748 295.036Z" fill="white"/>
<path d="M231.755 295.726C232.766 295.521 233.77 295.29 234.748 295.036" stroke="#263238" stroke-miterlimit="10"/>
<path d="M206.784 294.616C213.689 297.082 221.79 297.321 229.297 296.162Z" fill="white"/>
<path d="M206.784 294.616C213.689 297.082 221.79 297.321 229.297 296.162" stroke="#263238" stroke-miterlimit="10"/>
<path d="M241.712 247.96C238.41 248.231 233.837 246.192 233.979 243.028C234.02 242.523 234.127 242.026 234.297 241.548C236.687 242.099 239.204 240.8 241.461 241.877C242.698 242.485 245.148 243.932 245.399 245.296C245.7 247.113 243.509 247.812 241.712 247.96Z" fill="#43639F"/>
<path d="M231.429 243.57C229.005 242.288 227.048 240.644 227.007 237.142C227.007 235.671 227.742 234.109 229.155 234.125C229.671 234.174 230.167 234.342 230.603 234.616C231.039 234.891 231.403 235.264 231.663 235.704C232.195 236.567 232.536 237.53 232.666 238.531C232.826 239.556 232.789 240.602 232.558 241.614C232.312 242.331 231.929 242.995 231.429 243.57Z" fill="#43639F"/>
<path d="M239.07 236.435C235.726 240.151 231.838 243.43 228.102 246.965" stroke="#43639F" stroke-miterlimit="10"/>
<path d="M231.237 257.98C229.543 258.008 227.862 257.695 226.296 257.059C224.733 256.385 223.278 255.366 223.136 253.771C223.099 253.26 223.147 252.746 223.278 252.25C225.702 252.489 228.093 251.207 230.292 252.415C231.496 253.064 233.786 254.692 234.129 255.933C234.572 257.593 232.825 257.93 231.237 257.98Z" fill="#43639F"/>
<path d="M220.72 254.856C219.406 254.611 218.159 254.099 217.058 253.352C216.021 252.53 215.302 251.354 215.219 249.242C215.135 247.483 216.005 245.494 217.652 245.181C218.18 245.121 218.715 245.214 219.191 245.449C219.666 245.684 220.061 246.051 220.327 246.505C220.862 247.397 221.217 248.382 221.372 249.406C221.571 250.466 221.616 251.548 221.506 252.62C221.354 253.399 221.089 254.152 220.72 254.856Z" fill="#43639F"/>
<path d="M228.102 246.965C226.21 248.736 224.42 250.61 222.743 252.579C221.888 253.587 221.106 254.653 220.402 255.769C220.068 256.344 219.708 256.895 219.407 257.487L218.571 259.262" stroke="#43639F" stroke-miterlimit="10"/>
<path d="M226.271 267.663C224.771 268.429 223.137 268.909 221.455 269.077C219.725 269.241 217.986 268.929 217.108 267.589C216.84 267.152 216.64 266.678 216.515 266.183C217.598 265.668 218.624 265.043 219.574 264.317C220.508 263.63 221.653 263.279 222.818 263.323C224.172 263.413 226.94 264.063 227.834 264.926C228.436 265.509 228.394 265.994 228.018 266.43C227.523 266.949 226.929 267.368 226.271 267.663Z" fill="#43639F"/>
<path d="M215.436 269.586C212.719 270.063 210.094 270.269 207.912 267.071C207.018 265.715 206.817 263.462 208.18 262.377C208.612 262.066 209.131 261.893 209.667 261.883C210.203 261.872 210.729 262.025 211.173 262.32C212.064 262.894 212.836 263.631 213.447 264.49C214.114 265.346 214.662 266.286 215.077 267.285C215.313 268.03 215.435 268.806 215.436 269.586Z" fill="#43639F"/>
<path d="M218.538 259.262C217.502 261.657 216.714 264.15 216.189 266.701C215.655 269.229 215.319 271.793 215.186 274.37" stroke="#43639F" stroke-miterlimit="10"/>
<path d="M225.184 280.272C223.988 281.485 222.539 282.43 220.937 283.043C219.265 283.651 217.593 283.758 216.339 282.697C215.96 282.349 215.638 281.944 215.386 281.497C217.334 280.042 218.128 277.453 220.586 276.861C221.915 276.524 224.716 276.179 225.836 276.82C227.291 277.642 226.279 279.089 225.184 280.272Z" fill="#43639F"/>
<path d="M215.227 285.04C212.761 286.158 210.211 286.931 207.344 284.489C206.115 283.462 205.379 281.473 206.324 280.182C206.674 279.791 207.131 279.505 207.64 279.36C208.15 279.214 208.69 279.214 209.2 279.36C210.212 279.642 211.162 280.108 212 280.733C212.885 281.352 213.669 282.101 214.324 282.952C214.747 283.591 215.053 284.298 215.227 285.04Z" fill="#43639F"/>
<path d="M215.185 274.37C214.904 279.508 215.224 284.66 216.138 289.725" stroke="#43639F" stroke-miterlimit="10"/>
<path d="M246.51 273.466C243.208 274.469 238.259 273.343 237.925 270.071C237.886 269.543 237.92 269.012 238.025 268.493C240.533 268.551 242.849 266.685 245.307 267.285C246.644 267.638 249.353 268.584 249.821 269.915C250.431 271.715 248.316 272.957 246.51 273.466Z" fill="#43639F"/>
<path d="M235.442 271.132C232.8 270.31 230.584 269.027 229.999 265.501C229.748 264.013 230.242 262.287 231.671 262.008C232.184 261.957 232.702 262.031 233.18 262.221C233.657 262.412 234.081 262.714 234.413 263.101C235.094 263.879 235.588 264.798 235.86 265.789C236.183 266.806 236.311 267.874 236.236 268.937C236.11 269.71 235.84 270.454 235.442 271.132Z" fill="#43639F"/>
<path d="M241.996 262.271C239.296 266.8 235.851 270.951 232.574 275.258" stroke="#43639F" stroke-miterlimit="10"/>
<path d="M236.98 286.174C235.266 286.546 233.488 286.515 231.788 286.084C230.075 285.632 228.62 284.719 228.327 283.092C228.244 282.566 228.244 282.031 228.327 281.505C230.835 281.399 233.109 279.639 235.5 280.461C236.804 280.905 239.354 282.105 239.839 283.363C240.466 285.007 238.618 285.772 236.98 286.174Z" fill="#43639F"/>
<path d="M225.945 284.448C223.22 283.955 220.72 283.182 219.959 279.335C219.807 278.485 219.891 277.611 220.202 276.804C220.338 276.418 220.558 276.067 220.847 275.775C221.136 275.482 221.486 275.256 221.874 275.11C222.389 274.984 222.93 275.008 223.431 275.179C223.933 275.35 224.373 275.66 224.699 276.072C225.363 276.891 225.844 277.837 226.112 278.85C226.435 279.903 226.593 280.998 226.58 282.097C226.496 282.909 226.281 283.702 225.945 284.448Z" fill="#43639F"/>
<path d="M232.574 275.242C229.139 279.517 226.187 284.148 223.771 289.051" stroke="#43639F" stroke-miterlimit="10"/>
<path d="M303.517 181.139C303.153 179.213 303.535 177.222 304.587 175.558C304.713 175.402 306.56 173.19 307.187 173.248C308.579 173.933 309.695 175.06 310.356 176.446C311.138 177.895 311.467 179.539 311.301 181.172C311.108 182.701 309.562 185.619 307.472 185.742C305.382 185.866 303.793 182.545 303.517 181.139Z" fill="#43639F"/>
<path d="M252.537 34.0751H92.0254V243.858H252.537V34.0751Z" fill="white"/>
<path d="M252.579 244.269H92.0674C91.9566 244.269 91.8502 244.225 91.7718 244.148C91.6935 244.071 91.6494 243.967 91.6494 243.858V34.0751C91.6494 33.9661 91.6935 33.8616 91.7718 33.7845C91.8502 33.7074 91.9566 33.6641 92.0674 33.6641H252.579C252.69 33.6641 252.797 33.7074 252.875 33.7845C252.953 33.8616 252.997 33.9661 252.997 34.0751V243.858C252.997 243.967 252.953 244.071 252.875 244.148C252.797 244.225 252.69 244.269 252.579 244.269ZM92.4854 243.447H252.161V34.4861H92.4854V243.447Z" fill="#263238"/>
<path d="M231.779 142.168H109.606V147.1H231.779V142.168Z" fill="#263238"/>
<path d="M231.779 111.113H109.606V116.045H231.779V111.113Z" fill="#263238"/>
<path d="M200.388 204.278C198.833 205.922 197.245 207.566 195.623 209.21H109.624V204.278H200.388Z" fill="#263238"/>
<path d="M224.39 173.223C223.32 174.867 222.224 176.511 221.087 178.155H109.624V173.223H224.39Z" fill="#263238"/>
<path d="M152.811 238.194C152.811 238.194 145.672 241.605 125.675 243.447H92.4438" stroke="#263238" stroke-linecap="round" stroke-linejoin="round"/>
<path d="M249.06 123.994C250.295 122.17 251.043 120.07 251.233 117.886C251.484 115.141 251.668 111.943 251.727 109.995L252.044 99.2351V122.35L249.06 123.994Z" fill="#263238"/>
<path d="M251.108 121.396C251.108 122.399 241.762 146.632 224.356 173.182C223.286 174.826 222.191 176.47 221.054 178.114C214.817 187.311 207.898 196.042 200.354 204.237C198.8 205.881 197.211 207.525 195.589 209.169C183.342 221.384 169.23 231.783 153.421 237.742C154.324 237.29 168.093 230.459 171.094 209.169C171.317 207.608 171.476 205.964 171.571 204.237C171.972 197.037 171.186 188.406 168.528 178.114C168.116 176.514 167.656 174.87 167.149 173.182C163.286 160.351 156.648 145.144 146.073 127.15L143.348 121.314L161.154 126.246C240.683 144.404 251.066 121.314 251.066 121.314C251.066 121.314 251.108 121.38 251.108 121.396Z" fill="white" stroke="#263238" stroke-linecap="round" stroke-linejoin="round"/>
<path d="M182.681 194.546C182.737 196.002 182.704 197.459 182.581 198.911Z" fill="white"/>
<path d="M182.681 194.546C182.737 196.002 182.704 197.459 182.581 198.911" stroke="#263238" stroke-linecap="round" stroke-linejoin="round"/>
<path d="M163.554 138.576C175.107 153.29 180.934 178.155 182.456 189.951Z" fill="white"/>
<path d="M163.554 138.576C175.107 153.29 180.934 178.155 182.456 189.951" stroke="#263238" stroke-linecap="round" stroke-linejoin="round"/>
<path d="M111.396 56.9432C110.269 56.9781 109.147 56.7901 108.097 56.3905C107.046 55.9908 106.087 55.3876 105.278 54.6167C104.469 53.8457 103.825 52.9228 103.386 51.9026C102.947 50.8824 102.72 49.7858 102.72 48.678C102.72 47.5701 102.947 46.4735 103.386 45.4533C103.825 44.4331 104.469 43.5102 105.278 42.7392C106.087 41.9683 107.046 41.3651 108.097 40.9654C109.147 40.5658 110.269 40.3778 111.396 40.4127C111.728 40.4127 112.047 40.5426 112.282 40.7739C112.517 41.0051 112.65 41.3187 112.65 41.6457C112.65 41.9728 112.517 42.2864 112.282 42.5176C112.047 42.7488 111.728 42.8787 111.396 42.8787C110.226 42.869 109.08 43.201 108.103 43.8327C107.126 44.4644 106.361 45.3673 105.907 46.4268C105.453 47.4864 105.329 48.6547 105.551 49.7837C105.773 50.9127 106.331 51.9513 107.154 52.7679C107.978 53.5844 109.029 54.142 110.175 54.37C111.322 54.5979 112.511 54.4859 113.592 54.0482C114.674 53.6104 115.598 52.8667 116.249 51.9113C116.9 50.9559 117.247 49.8319 117.248 48.6821C117.248 48.355 117.38 48.0414 117.615 47.8102C117.85 47.579 118.169 47.4491 118.502 47.4491C118.834 47.4491 119.153 47.579 119.388 47.8102C119.623 48.0414 119.756 48.355 119.756 48.6821C119.753 50.8653 118.873 52.9591 117.307 54.5067C115.741 56.0543 113.616 56.9301 111.396 56.9432Z" fill="#263238"/>
<path d="M111.195 53.5319C103.512 53.5319 103.094 37.207 103.086 33.9354V33.8368C103.086 30.5488 103.479 14.1088 111.195 14.1088C118.911 14.1088 119.446 31.8146 119.488 33.8368L112.8 33.9601C112.787 30.1555 112.224 26.3722 111.128 22.7233C110.144 26.3352 109.683 30.0654 109.757 33.8039V33.9025C109.683 37.6604 110.162 41.4092 111.178 45.0324C111.254 44.794 111.329 44.531 111.413 44.2104L111.939 42.4267L116.604 43.7665C116.835 43.8326 117.051 43.9429 117.239 44.0912C117.427 44.2394 117.583 44.4226 117.699 44.6303C117.814 44.838 117.887 45.0661 117.913 45.3015C117.939 45.537 117.918 45.7751 117.85 46.0024C116.495 50.9919 114.247 53.5319 111.195 53.5319Z" fill="#BFBFBF" stroke="#263238" stroke-linecap="round" stroke-linejoin="round"/>
<path d="M118.544 49.9151C118.211 49.9151 117.892 49.7852 117.657 49.554C117.422 49.3227 117.29 49.0091 117.29 48.6821C117.29 47.1515 116.675 45.6828 115.579 44.5959C114.483 43.5089 112.994 42.8918 111.438 42.8788C111.105 42.8788 110.786 42.7489 110.551 42.5176C110.316 42.2864 110.184 41.9728 110.184 41.6458C110.184 41.3188 110.316 41.0051 110.551 40.7739C110.786 40.5427 111.105 40.4128 111.438 40.4128C113.659 40.428 115.784 41.3056 117.35 42.8545C118.916 44.4035 119.795 46.4981 119.798 48.6821C119.798 49.0091 119.665 49.3227 119.43 49.554C119.195 49.7852 118.876 49.9151 118.544 49.9151Z" fill="#263238"/>
<path d="M151.022 56.9432C148.838 56.8755 146.767 55.975 145.247 54.4324C143.727 52.8897 142.877 50.826 142.877 48.678C142.877 46.53 143.727 44.4662 145.247 42.9236C146.767 41.381 148.838 40.4805 151.022 40.4128C151.355 40.4128 151.674 40.5427 151.909 40.7739C152.144 41.0051 152.276 41.3188 152.276 41.6458C152.276 41.9728 152.144 42.2864 151.909 42.5176C151.674 42.7489 151.355 42.8788 151.022 42.8788C149.855 42.8788 148.714 43.2191 147.743 43.8568C146.772 44.4945 146.016 45.4008 145.569 46.4613C145.122 47.5217 145.006 48.6885 145.233 49.8143C145.461 50.94 146.023 51.9741 146.849 52.7857C147.674 53.5973 148.726 54.15 149.871 54.3739C151.015 54.5978 152.202 54.4829 153.281 54.0437C154.359 53.6044 155.281 52.8606 155.929 51.9062C156.578 50.9519 156.924 49.8299 156.924 48.6821C156.924 48.3551 157.056 48.0415 157.291 47.8102C157.527 47.579 157.846 47.4491 158.178 47.4491C158.511 47.4491 158.83 47.579 159.065 47.8102C159.3 48.0415 159.432 48.3551 159.432 48.6821C159.428 50.8732 158.54 52.9731 156.963 54.5217C155.387 56.0702 153.25 56.941 151.022 56.9432Z" fill="#263238"/>
<path d="M150.83 53.5319C143.147 53.5319 142.721 37.207 142.721 33.9354V33.8368C142.721 30.5488 143.105 14.1088 150.83 14.1088C158.555 14.1088 159.081 31.8146 159.123 33.8368L152.435 33.9601C152.422 30.1555 151.859 26.372 150.763 22.7233C149.783 26.3357 149.324 30.0658 149.4 33.8039V33.9025C149.327 37.6767 149.805 41.4416 150.822 45.0817C150.905 44.8433 150.98 44.5803 151.064 44.2597L151.591 42.476L156.256 43.8158C156.487 43.8819 156.703 43.9923 156.89 44.1405C157.078 44.2887 157.235 44.4719 157.35 44.6796C157.466 44.8873 157.539 45.1154 157.565 45.3509C157.591 45.5863 157.569 45.8245 157.501 46.0517C156.13 50.9919 153.881 53.5319 150.83 53.5319Z" fill="#BFBFBF" stroke="#263238" stroke-linecap="round" stroke-linejoin="round"/>
<path d="M158.178 49.9151C157.846 49.9151 157.527 49.7852 157.292 49.554C157.056 49.3227 156.924 49.0091 156.924 48.6821C156.922 47.1436 156.299 45.6688 155.193 44.5809C154.087 43.4931 152.587 42.881 151.022 42.8788C150.689 42.8788 150.371 42.7489 150.135 42.5176C149.9 42.2864 149.768 41.9728 149.768 41.6458C149.768 41.3188 149.9 41.0051 150.135 40.7739C150.371 40.5427 150.689 40.4128 151.022 40.4128C153.252 40.415 155.39 41.2869 156.966 42.8372C158.543 44.3875 159.43 46.4896 159.432 48.6821C159.432 49.0091 159.3 49.3227 159.065 49.554C158.83 49.7852 158.511 49.9151 158.178 49.9151Z" fill="#263238"/>
<path d="M190.657 56.9432C188.473 56.8755 186.402 55.975 184.882 54.4324C183.362 52.8897 182.512 50.826 182.512 48.678C182.512 46.53 183.362 44.4662 184.882 42.9236C186.402 41.381 188.473 40.4805 190.657 40.4128C190.99 40.4128 191.309 40.5427 191.544 40.7739C191.779 41.0051 191.911 41.3188 191.911 41.6458C191.911 41.9728 191.779 42.2864 191.544 42.5176C191.309 42.7489 190.99 42.8788 190.657 42.8788C189.49 42.8788 188.349 43.2191 187.378 43.8568C186.407 44.4945 185.651 45.4008 185.204 46.4613C184.757 47.5217 184.641 48.6885 184.868 49.8143C185.096 50.94 185.658 51.9741 186.484 52.7857C187.309 53.5973 188.361 54.15 189.506 54.3739C190.65 54.5978 191.837 54.4829 192.916 54.0437C193.994 53.6044 194.916 52.8606 195.564 51.9062C196.213 50.9519 196.559 49.8299 196.559 48.6821C196.559 48.3551 196.691 48.0415 196.926 47.8102C197.162 47.579 197.481 47.4491 197.813 47.4491C198.146 47.4491 198.465 47.579 198.7 47.8102C198.935 48.0415 199.067 48.3551 199.067 48.6821C199.063 50.8732 198.175 52.9731 196.598 54.5217C195.022 56.0702 192.885 56.941 190.657 56.9432Z" fill="#263238"/>
<path d="M190.456 53.5319C182.774 53.5319 182.356 37.207 182.347 33.9354V33.8368C182.347 30.5488 182.74 14.1088 190.456 14.1088C198.173 14.1088 198.716 31.8146 198.749 33.8368L192.061 33.9601C192.048 30.1555 191.485 26.3722 190.389 22.7233C189.411 26.347 188.958 30.0884 189.044 33.8368V33.9354C188.969 37.6933 189.448 41.442 190.465 45.0653C190.54 44.8269 190.624 44.5639 190.699 44.2433L191.234 42.4595L195.89 43.7994C196.122 43.8655 196.337 43.9758 196.525 44.124C196.713 44.2723 196.869 44.4555 196.985 44.6632C197.101 44.8709 197.174 45.099 197.2 45.3344C197.225 45.5699 197.204 45.808 197.136 46.0352C195.732 50.9919 193.516 53.5319 190.456 53.5319Z" fill="#BFBFBF" stroke="#263238" stroke-linecap="round" stroke-linejoin="round"/>
<path d="M197.813 49.9151C197.48 49.9151 197.161 49.7852 196.926 49.554C196.691 49.3227 196.559 49.0091 196.559 48.6821C196.557 47.1436 195.934 45.6688 194.828 44.5809C193.721 43.4931 192.222 42.881 190.657 42.8788C190.324 42.8788 190.005 42.7489 189.77 42.5176C189.535 42.2864 189.403 41.9728 189.403 41.6458C189.403 41.3188 189.535 41.0051 189.77 40.7739C190.005 40.5427 190.324 40.4128 190.657 40.4128C192.888 40.4128 195.028 41.2837 196.607 42.8343C198.185 44.3849 199.073 46.4882 199.075 48.6821C199.073 49.0099 198.939 49.3235 198.703 49.5545C198.466 49.7855 198.146 49.9151 197.813 49.9151Z" fill="#263238"/>
<path d="M230.292 56.9432C229.166 56.9781 228.044 56.7901 226.993 56.3905C225.942 55.9908 224.983 55.3876 224.174 54.6167C223.365 53.8457 222.722 52.9228 222.282 51.9026C221.843 50.8824 221.616 49.7858 221.616 48.678C221.616 47.5701 221.843 46.4735 222.282 45.4533C222.722 44.4331 223.365 43.5102 224.174 42.7392C224.983 41.9683 225.942 41.3651 226.993 40.9654C228.044 40.5658 229.166 40.3778 230.292 40.4127C230.624 40.4127 230.943 40.5426 231.178 40.7739C231.414 41.0051 231.546 41.3187 231.546 41.6457C231.546 41.9728 231.414 42.2864 231.178 42.5176C230.943 42.7488 230.624 42.8787 230.292 42.8787C229.124 42.8771 227.982 43.2161 227.01 43.8528C226.039 44.4895 225.281 45.3953 224.833 46.4555C224.385 47.5158 224.267 48.6829 224.494 49.8092C224.72 50.9355 225.282 51.9703 226.107 52.7827C226.932 53.5951 227.984 54.1487 229.129 54.3733C230.274 54.5979 231.461 54.4834 232.54 54.0444C233.619 53.6054 234.541 52.8616 235.19 51.9071C235.839 50.9525 236.186 49.8302 236.186 48.6821C236.186 48.355 236.318 48.0414 236.553 47.8102C236.788 47.579 237.107 47.4491 237.44 47.4491C237.772 47.4491 238.091 47.579 238.326 47.8102C238.561 48.0414 238.694 48.355 238.694 48.6821C238.691 50.8724 237.805 52.9724 236.23 54.5211C234.655 56.0699 232.519 56.941 230.292 56.9432Z" fill="#263238"/>
<path d="M230.091 53.5319C222.408 53.5319 221.99 37.207 221.982 33.9354V33.8368C221.982 30.5488 222.375 14.1088 230.091 14.1088C237.807 14.1088 238.368 31.8475 238.368 33.8696L231.68 33.9929C231.662 30.1887 231.099 26.406 230.008 22.7562C229.019 26.3672 228.557 30.098 228.636 33.8368V33.9354C228.574 37.6997 229.061 41.4534 230.083 45.0817C230.166 44.8433 230.242 44.5803 230.325 44.2597L230.852 42.476L235.517 43.8158C235.748 43.8819 235.964 43.9923 236.152 44.1405C236.339 44.2887 236.496 44.4719 236.611 44.6796C236.727 44.8873 236.8 45.1154 236.826 45.3509C236.852 45.5863 236.83 45.8245 236.762 46.0517C235.391 50.9919 233.143 53.5319 230.091 53.5319Z" fill="#BFBFBF" stroke="#263238" stroke-linecap="round" stroke-linejoin="round"/>
<path d="M237.439 49.9151C237.107 49.9151 236.788 49.7852 236.553 49.554C236.318 49.3227 236.185 49.0091 236.185 48.6821C236.185 47.1444 235.565 45.6695 234.46 44.5814C233.355 43.4933 231.855 42.881 230.292 42.8788C229.959 42.8788 229.64 42.7489 229.405 42.5176C229.17 42.2864 229.038 41.9728 229.038 41.6458C229.038 41.3188 229.17 41.0051 229.405 40.7739C229.64 40.5427 229.959 40.4128 230.292 40.4128C232.52 40.4171 234.656 41.29 236.231 42.8401C237.806 44.3902 238.691 46.491 238.693 48.6821C238.693 49.0091 238.561 49.3227 238.326 49.554C238.091 49.7852 237.772 49.9151 237.439 49.9151Z" fill="#263238"/>
<path d="M273.916 241.477C277.8 224.873 267.258 208.317 250.37 204.499C233.483 200.681 216.645 211.046 212.762 227.65C208.879 244.255 219.421 260.811 236.308 264.629C253.195 268.447 270.033 258.082 273.916 241.477Z" fill="#43639F" stroke="#263238" stroke-miterlimit="10"/>
<path d="M92.9039 133.693C92.9039 133.693 95.4788 148.243 94.9855 150.051C94.4925 151.332 93.6185 152.438 92.4775 153.224L98.2459 166.705V156.159C98.2459 156.159 99.8343 131.745 100.027 120.813C100.108 115.385 99.8934 109.958 99.3829 104.553L96.6492 104.989C96.6492 104.989 93.5142 127.833 92.9039 133.693Z" fill="white" stroke="#263238" stroke-linecap="round" stroke-linejoin="round"/>
<path d="M80.8486 310.522L79.2435 298.915L68.5845 298.093L69.8301 310.777C71.399 312.026 73.3685 312.687 75.387 312.64C77.4054 312.593 79.3412 311.843 80.8486 310.522Z" fill="white" stroke="#263238" stroke-linecap="round" stroke-linejoin="round"/>
<path d="M69.1365 309.305C68.7854 312.166 68.4426 315.175 69.2786 317.912C70.1146 320.649 72.5641 322.959 74.9718 322.285C75.5235 322.137 76.0502 321.833 76.6438 321.734C77.7138 321.553 78.7672 322.112 79.7704 322.597C85.8565 325.548 101.724 324.282 102.978 323.633C103.34 323.419 103.634 323.11 103.828 322.742C104.022 322.373 104.108 321.958 104.077 321.544C104.046 321.13 103.898 320.733 103.651 320.396C103.404 320.06 103.067 319.797 102.677 319.638C95.3952 316.243 95.8634 317.098 83.8417 310.399C81.6848 309.199 80.4058 309.774 79.319 310.875C78.6058 311.562 77.7393 312.075 76.7886 312.374C75.838 312.673 74.8294 312.749 73.8434 312.597C72.8575 312.444 71.9214 312.067 71.11 311.496C70.2986 310.924 69.6342 310.174 69.1699 309.305H69.1365Z" fill="#263238"/>
<path d="M80.1465 284.284C74.7042 290.934 67.8908 299.45 67.8908 299.45L62.9751 289.043C62.9751 289.043 74.3949 275.71 80.2552 261.646C80.2552 264.4 80.4809 267.4 80.5562 269.118C80.7568 274.313 80.2301 279.113 80.1465 284.284Z" fill="#263238"/>
<path d="M68.5929 312.454C68.5676 312.893 68.3907 313.31 68.0913 313.637C67.155 314.459 66.1183 312.972 65.3325 311.993C62.9172 308.836 60.7405 305.509 58.82 302.039L58.2098 296.688L56.4207 297.419H56.195L55.6767 296.523C51.714 289.717 56.4458 288.394 61.4869 288.616C62.0637 288.616 63.2676 288.764 65.2071 292.422C65.7286 293.266 66.195 294.141 66.6032 295.044C68.8511 300.564 69.5386 306.58 68.5929 312.454Z" fill="#263238"/>
<path d="M99.7171 172.385C99.5303 169.432 99.5024 166.471 99.6335 163.516C99.6885 161.211 99.201 158.925 98.209 156.836C97.2171 154.747 95.7476 152.912 93.9153 151.473C93.9153 151.473 89.5346 157.227 77.0197 157.227H76.3927C70.819 157.095 65.2919 156.193 59.9737 154.547C57.7195 153.854 55.5086 153.03 53.3525 152.081C53.3525 152.081 53.6033 168.521 54.13 183.802C54.5815 195.927 57.7583 250.384 59.7647 267.712C61.4367 282.147 66.4025 296.4 66.9961 302.557C67.2803 305.458 73.9432 304.554 77.1284 303.436C81.3084 301.965 81.601 301.094 81.601 301.094C81.8769 296.622 80.6647 288.764 80.765 284.317C92.168 270.343 109.908 248.231 110.41 244.82C114.28 218.318 100.135 175.13 99.7171 172.385ZM88.8073 240.611C88.5147 242.403 84.7276 251.79 80.4473 262.04C80.4473 257.503 82.4871 252.776 83.0891 245.452C84.2344 231.363 81.3251 215.86 81.7347 204.542C84.0505 214.274 89.3423 237.249 88.8073 240.578V240.611Z" fill="#263238"/>
<path d="M106.706 248.987C104.881 250.515 102.751 251.649 100.453 252.316" stroke="#BFBFBF" stroke-linecap="round" stroke-linejoin="round"/>
<path d="M109.265 246.332C108.905 246.799 108.52 247.246 108.111 247.672" stroke="#BFBFBF" stroke-linecap="round" stroke-linejoin="round"/>
<path d="M84.3179 162.233C85.4633 168.226 85.6472 176.322 83.1475 181.895C82.5233 182.85 81.7789 183.722 80.9321 184.493" stroke="#BFBFBF" stroke-linecap="round" stroke-linejoin="round"/>
<path d="M64.5716 161.592C63.8944 164.469 62.6739 169.212 61.0855 171.719C59.5617 174.308 57.0583 176.199 54.1216 176.98" stroke="#BFBFBF" stroke-linecap="round" stroke-linejoin="round"/>
<path d="M80.0044 167.658C80.8822 177.374 80.8404 186.803 81.7851 203.136" stroke="#BFBFBF" stroke-linecap="round" stroke-linejoin="round"/>
<path d="M79.4692 162.628C79.5612 163.4 79.6532 164.165 79.7368 164.921" stroke="white" stroke-linecap="round" stroke-linejoin="round"/>
<path d="M88.8491 237.956C89.419 241.958 90.5705 245.858 92.2684 249.538" stroke="#BFBFBF" stroke-linecap="round" stroke-linejoin="round"/>
<path d="M89.5596 241.721C88.8259 247.424 89.1459 253.21 90.5043 258.802" stroke="#BFBFBF" stroke-linecap="round" stroke-linejoin="round"/>
<path d="M56.6968 175.993C58.2267 198.401 60.3501 215.449 62.0472 232.465" stroke="#BFBFBF" stroke-linecap="round" stroke-linejoin="round"/>
<path d="M62.1055 238.375C62.1055 237.676 62.1055 236.961 62.1055 236.246" stroke="#BFBFBF" stroke-linecap="round" stroke-linejoin="round"/>
<path d="M71.8867 304.11C70.7079 300.518 62.5653 272.874 62.1807 261.407C61.9216 253.804 61.6123 248.387 62.0052 241.038" stroke="#BFBFBF" stroke-linecap="round" stroke-linejoin="round"/>
<path d="M81.1246 259.451L80.832 284.202" stroke="#BFBFBF" stroke-linecap="round" stroke-linejoin="round"/>
<path d="M97.6857 89.1574C95.7295 79.2934 89.0665 78.0111 87.5534 77.5425C77.1285 74.3121 69.9974 73.7695 61.7544 77.3206C52.0986 81.4963 50.1591 81.6443 47.1829 92.4783C45.5109 98.4049 48.7964 118.363 50.7527 127.052C52.316 133.965 51.9231 151.876 54.9327 154.745C60.5171 160.063 68.4341 159.299 76.0918 157.967C82.7213 156.808 93.79 155.263 96.3063 149.122C96.6658 148.243 96.6323 144.527 96.5069 139.168C96.1057 122.95 97.2092 113.645 97.042 103.263L99.2825 102.244C99.2825 102.244 99.4747 98.1418 97.6857 89.1574Z" fill="#43639F"/>
<mask id="mask0_438_2521" style="mask-type:luminance" maskUnits="userSpaceOnUse" x="46" y="74" width="54" height="85">
<path d="M97.6857 89.1574C95.7295 79.2934 89.0665 78.0111 87.5534 77.5425C77.1285 74.3121 69.9974 73.7695 61.7544 77.3206C52.0986 81.4963 50.1591 81.6443 47.1829 92.4783C45.5109 98.4049 48.7964 118.363 50.7527 127.052C52.316 133.965 51.9231 151.876 54.9327 154.745C60.5171 160.063 68.4341 159.299 76.0918 157.967C82.7213 156.808 93.79 155.263 96.3063 149.122C96.6658 148.243 96.6323 144.527 96.5069 139.168C96.1057 122.95 97.2092 113.645 97.042 103.263L99.2825 102.244C99.2825 102.244 99.4747 98.1418 97.6857 89.1574Z" fill="white"/>
</mask>
<g mask="url(#mask0_438_2521)">
<path opacity="0.2" d="M49.432 110.25C49.7246 113.604 48.596 117.204 50.0757 120.221C50.4659 121.076 51.1057 121.798 51.9138 122.296C52.722 122.794 53.6621 123.044 54.6152 123.016C55.8023 122.892 56.9226 122.194 58.1097 122.325C59.6312 122.481 60.6762 123.854 61.5707 125.079C63.4413 127.915 65.8377 130.38 68.6349 132.345C71.5024 134.195 75.1474 135.124 78.4328 134.154C77.5648 135.55 76.5865 136.878 75.5068 138.124C77.3293 137.458 81.3588 134.573 84.8868 134.556L96.1477 134.482C96.875 132.164 95.1863 129.624 92.9458 128.597C90.7053 127.569 88.1137 127.701 85.6642 128.03C83.2148 128.359 80.7402 128.852 78.2991 128.523C75.0296 127.917 72.085 126.189 69.9892 123.649C67.9203 121.12 66.161 118.361 64.7475 115.429C64.1372 116.563 62.4485 116.703 61.3116 116.086C60.2375 115.36 59.3409 114.408 58.6865 113.3C56.4544 110.201 52.1824 105.038 48.2449 104.2C47.5928 105.852 49.2732 108.425 49.432 110.25Z" fill="black"/>
<path opacity="0.2" d="M84.0508 126.715C88.4147 125.071 91.3407 120.813 92.6031 116.374C93.3555 113.694 95.0525 106.337 93.1632 104.044C91.7503 107.899 90.7722 111.894 89.2423 115.724C88.4565 117.681 87.6205 119.613 86.7343 121.478C86.2829 122.391 84.9704 126.361 84.0508 126.715Z" fill="black"/>
<path opacity="0.2" d="M52.525 139.225C55.3256 145.859 61.7795 150.569 68.7852 152.599C75.7909 154.63 83.9502 154.556 91.1315 153.224C81.8769 158.378 69.6045 158.879 59.6979 155.074C57.9172 154.391 56.1449 155.18 54.8323 153.808C51.8227 150.668 51.9565 144.174 52.3243 139.834L50.6523 139.908" fill="black"/>
<path opacity="0.2" d="M70.9425 87.3325C71.2605 87.8021 71.7326 88.1503 72.2801 88.319C72.5994 88.3503 72.9215 88.2993 73.2147 88.171C73.5079 88.0427 73.762 87.8416 73.9521 87.5874C74.3313 87.0701 74.6615 86.5198 74.9386 85.9434C75.7359 84.5503 76.9707 83.4486 78.4581 82.8033C79.2659 84.713 80.4869 86.4269 82.0362 87.8257H82.5545C83.3637 85.9111 83.5931 83.8074 83.215 81.7676C83.1435 82.0292 83.0163 82.2729 82.8419 82.4826C82.6676 82.6923 82.4499 82.8633 82.2034 82.9842C81.8106 82.1507 81.292 81.3802 80.6652 80.699C80.348 80.3616 79.9583 80.0981 79.5244 79.9274C79.0906 79.7568 78.6235 79.6834 78.1572 79.7126C77.763 79.7747 77.3818 79.8997 77.0286 80.0825C74.7045 81.1922 73.0659 83.3705 71.837 85.5652C70.1093 84.3175 68.3089 83.1702 66.4448 82.1293C67.8242 83.8884 69.4293 85.5899 70.9425 87.3325Z" fill="black"/>
</g>
<path d="M97.6857 89.1574C95.7295 79.2934 89.0665 78.0111 87.5534 77.5425C77.1285 74.3121 69.9974 73.7695 61.7544 77.3206C52.0986 81.4963 50.1591 81.6443 47.1829 92.4783C45.5109 98.4049 48.7964 118.363 50.7527 127.052C52.316 133.965 51.9231 151.876 54.9327 154.745C60.5171 160.063 68.4341 159.299 76.0918 157.967C82.7213 156.808 93.79 155.263 96.3063 149.122C96.6658 148.243 96.6323 144.527 96.5069 139.168C96.1057 122.95 97.2092 113.645 97.042 103.263L99.2825 102.244C99.2825 102.244 99.4747 98.1418 97.6857 89.1574Z" stroke="#263238" stroke-miterlimit="10"/>
<path d="M80.5644 75.356C81.8193 75.3543 83.0434 74.9743 84.0719 74.2674C85.1003 73.5604 85.8836 72.5604 86.3161 71.4022C87.5199 68.1142 88.0801 57.6419 88.0801 55.7349C88.0801 53.8278 86.5502 49.9809 86.2409 47.7943C85.9315 45.6078 84.5689 41.0539 84.5689 41.0539L80.5143 37.207L74.9381 39.525L67.0463 40.5525C67.0463 40.5525 65.5749 53.1373 63.5602 51.1152C61.5454 49.0931 55.4593 51.6906 55.8355 56.4582C56.2117 61.2258 62.4149 61.1601 62.4149 61.1601C62.4149 61.1601 63.9531 62.6479 64.8727 67.6045C65.4479 70.687 65.4677 73.845 64.9312 76.9342C65.9253 78.1361 67.2147 79.0689 68.6776 79.6442C70.1404 80.2195 71.7284 80.4185 73.2912 80.2222C78.6333 79.5564 79.1432 75.9889 79.1432 75.9889C79.1432 75.9889 79.2101 75.3889 80.5644 75.356Z" fill="white"/>
<path d="M62.507 54.1977C61.3199 52.5537 57.0563 49.8904 56.0196 55.4636C54.983 61.0368 60.6427 60.6833 63.6105 61.3738C65.8343 65.0152 70.2985 71.1309 74.0605 73.0462C76.393 74.2381 79.3106 75.619 82.061 75.3067C84.8115 74.9943 85.9066 73.375 86.4417 70.8186C87.1826 67.3865 87.666 63.9055 87.888 60.4038C88.0217 58.1762 88.4146 55.1923 87.495 53.0798C86.1742 50.0302 86.4584 46.5038 85.4468 43.3884C84.4353 40.273 81.6932 37.9879 79.1518 35.9904" stroke="#263238" stroke-linecap="round" stroke-linejoin="round"/>
<path d="M72.6977 52.1592C74.4366 51.0988 75.9498 50.6385 77.4128 52.1592C77.8224 52.1592 78.7671 50.5152 78.7671 50.5152C78.3355 49.998 77.7538 49.6225 77.0995 49.4389C76.4452 49.2553 75.7496 49.2723 75.1054 49.4877C72.5556 50.096 72.6977 52.1592 72.6977 52.1592Z" fill="#263238"/>
<path d="M76.5684 64.5303C77.7638 66.2236 79.0346 66.7414 81.275 66.5524" stroke="#263238" stroke-linecap="round" stroke-linejoin="round"/>
<path d="M75.7072 54.7567C76.0917 54.7567 76.4679 55.3239 76.5432 56.1048C76.6184 56.8857 76.3509 57.5433 75.958 57.568C75.5651 57.5926 75.1972 56.9926 75.122 56.2199C75.0467 55.4472 75.3477 54.7896 75.7072 54.7567Z" fill="#263238"/>
<path d="M84.1841 53.6552C84.5854 53.6552 84.9616 54.2142 85.0201 54.9951C85.0786 55.776 84.8362 56.4418 84.4349 56.4747C84.0336 56.5076 83.6658 55.8993 83.5989 55.1266C83.532 54.3539 83.7912 53.6963 84.1841 53.6552Z" fill="#263238"/>
<path d="M83.2481 51.255C83.2481 51.255 85.1709 50.3344 85.94 51.0002C85.94 51.0002 86.4918 49.1178 85.0372 48.6821C84.6741 48.5338 84.2679 48.5231 83.8973 48.6522C83.5267 48.7812 83.2179 49.0409 83.0308 49.3808L83.0893 51.4112L83.2481 51.255Z" fill="#263238"/>
<path d="M79.2605 75.1916C79.3107 75.1916 78.901 78.3234 77.5885 79.203C76.7106 79.9612 75.5803 80.3766 74.4117 80.3702C71.7114 80.6004 66.3694 79.2112 64.9566 76.9342C65.4755 74.6872 65.5578 72.364 65.199 70.087C64.9565 67.1365 64.4132 64.2174 63.5771 61.3738C63.5771 61.3738 70.5745 74.1723 79.2605 75.1916Z" stroke="#263238" stroke-linecap="round" stroke-linejoin="round"/>
<path d="M65.5998 74.5751C63.7606 75.0026 62.2558 75.1012 61.8545 76.3424C61.587 77.1644 62.1973 77.8878 62.8494 78.5701C65.5604 81.3344 68.6838 83.6766 72.1122 85.516C73.6162 83.2893 75.4636 81.3065 77.588 79.6386C73.6158 78.8835 69.8448 77.3304 66.511 75.0766L65.5998 74.5751Z" fill="white" stroke="#263238" stroke-linecap="round" stroke-linejoin="round"/>
<path d="M79.3105 75.4382C79.8489 75.4506 80.3769 75.5872 80.8517 75.8371C81.3266 76.0869 81.7351 76.4431 82.0442 76.8767C82.83 77.7563 83.4654 81.3649 82.6628 83.6582C80.8738 81.6197 79.7703 78.5372 77.187 79.3345C79.2101 78.7098 79.3105 75.4382 79.3105 75.4382Z" fill="white" stroke="#263238" stroke-linecap="round" stroke-linejoin="round"/>
<path d="M65.3159 63.9877C65.3159 63.9877 68.7101 76.2684 72.564 77.4357C73.6971 77.7493 74.898 77.7355 76.0232 77.3959C77.1485 77.0562 78.1504 76.4051 78.9093 75.5204C71.7949 73.2352 65.3159 63.9877 65.3159 63.9877Z" fill="#263238"/>
<path d="M68.5344 49.8494C66.1852 51.255 64.5634 55.4636 66.2521 57.6666C67.9408 59.8695 66.2019 61.1765 65.4161 61.9245C64.8172 60.7501 64.295 59.5393 63.8528 58.2995C63.3428 56.8364 63.393 55.554 62.557 54.2471C62.0972 53.5237 59.9738 52.3647 59.1294 52.1427C57.8838 51.8139 56.6214 53.1374 56.2201 54.3457C55.9334 55.59 55.9737 56.8857 56.3372 58.1105C54.6652 56.3432 54.5314 55.85 54.3642 53.4662C54.3828 52.1649 54.3214 50.8638 54.1803 49.5699C53.9128 48.2218 53.2189 46.9724 53.035 45.6161C52.7173 43.224 54.0131 40.9471 55.2671 38.8757C56.3627 36.8186 57.7946 34.9524 59.5056 33.3518C61.0958 32.1235 62.8885 31.1726 64.8058 30.5406C69.0862 28.9541 73.7176 27.9513 78.2404 28.6253C82.7631 29.2994 87.1688 31.9133 89.1084 35.9411C89.8502 37.2935 90.0728 38.8631 89.7354 40.3635C89.5171 41.1191 89.0984 41.8041 88.5222 42.3483C87.946 42.8925 87.233 43.2762 86.4563 43.4602C85.6796 43.6443 84.8672 43.6219 84.1021 43.3955C83.3371 43.1692 82.647 42.7468 82.1027 42.1719C83.0338 42.4011 84.0168 42.3082 84.8866 41.9088C85.3152 41.7018 85.679 41.3848 85.9395 40.9912C86.1999 40.5976 86.3474 40.1422 86.3663 39.673C86.3481 39.3635 86.2619 39.0616 86.1137 38.788C85.9655 38.5144 85.7587 38.2756 85.5076 38.0881C85.2566 37.9007 84.9672 37.7689 84.6594 37.7019C84.3515 37.6349 84.0326 37.6344 83.7245 37.7002C83.4291 37.8046 83.1622 37.9747 82.9446 38.1972C82.7269 38.4197 82.5645 38.6885 82.4698 38.9828C82.3752 39.2772 82.3509 39.589 82.3989 39.894C82.4468 40.1991 82.5658 40.4891 82.7464 40.7416L81.3001 40.0265L81.1413 40.9718L79.4693 39.8127L79.3439 40.6347C78.5748 40.3306 73.1742 40.6347 71.3266 40.832C70.4003 40.9207 69.4849 41.0969 68.5929 41.3581C67.5897 41.654 67.3055 41.7527 67.1216 42.7884C66.6032 45.7722 65.9595 48.1807 68.5344 49.8494Z" fill="#263238"/>
<path d="M69.178 35.1356C69.0212 35.2764 68.8995 35.4508 68.8221 35.6451C68.7447 35.8395 68.7137 36.0488 68.7314 36.2568C68.7492 36.4649 68.8153 36.6661 68.9246 36.8451C69.0339 37.0241 69.1835 37.176 69.3619 37.2892" stroke="#BFBFBF" stroke-linecap="round" stroke-linejoin="round"/>
<path d="M70.8751 35.4973C70.7694 35.65 70.7129 35.8304 70.7129 36.0151C70.7129 36.1998 70.7694 36.3803 70.8751 36.533" stroke="#BFBFBF" stroke-linecap="round" stroke-linejoin="round"/>
<path d="M72.6222 35.489C72.5302 35.826 72.4299 36.1713 72.3296 36.5083" stroke="#BFBFBF" stroke-linecap="round" stroke-linejoin="round"/>
<path d="M77.02 34.6506C76.6849 34.9017 76.4342 35.2458 76.3 35.6385C76.1659 36.0312 76.1546 36.4545 76.2676 36.8535" stroke="#BFBFBF" stroke-linecap="round" stroke-linejoin="round"/>
<path d="M78.1735 37.0179C78.1186 36.4906 78.2641 35.962 78.5821 35.534C78.9001 35.106 79.368 34.8088 79.8956 34.6999" stroke="#BFBFBF" stroke-linecap="round" stroke-linejoin="round"/>
<path d="M79.77 37.1906C80.1339 36.4458 80.7027 35.8162 81.412 35.3731C82.1212 34.9299 82.9425 34.6911 83.7828 34.6835" stroke="#BFBFBF" stroke-linecap="round" stroke-linejoin="round"/>
<path d="M81.1494 37.9139C81.4368 37.4282 81.835 37.0147 82.3128 36.7063C82.7905 36.3978 83.3347 36.2028 83.9022 36.1367C84.4698 36.0705 85.0452 36.135 85.5831 36.325C86.1209 36.5151 86.6065 36.8254 87.0014 37.2317" stroke="#BFBFBF" stroke-linecap="round" stroke-linejoin="round"/>
<path d="M64.5968 36.7056C64.4849 36.8697 64.4112 37.0561 64.3811 37.2514C64.351 37.4468 64.3652 37.6463 64.4228 37.8356C64.4803 38.025 64.5797 38.1994 64.7138 38.3465C64.848 38.4937 65.0136 38.6098 65.1987 38.6866" stroke="#BFBFBF" stroke-linecap="round" stroke-linejoin="round"/>
<path d="M67.0967 34.2396C66.6097 35.0348 66.4401 35.9795 66.6208 36.8906C66.8015 37.8017 67.3196 38.6145 68.0748 39.1716" stroke="#BFBFBF" stroke-linecap="round" stroke-linejoin="round"/>
<path d="M62.4565 38.0947C62.4118 38.2298 62.3988 38.3732 62.4187 38.514C62.4386 38.6547 62.4908 38.7892 62.5714 38.9072C62.6519 39.0252 62.7587 39.1236 62.8836 39.195C63.0086 39.2665 63.1484 39.309 63.2925 39.3195" stroke="#BFBFBF" stroke-linecap="round" stroke-linejoin="round"/>
<path d="M60.5505 39.262C60.5023 39.4429 60.5255 39.6349 60.6154 39.7996C60.7054 39.9643 60.8554 40.0894 61.0353 40.1498" stroke="#BFBFBF" stroke-linecap="round" stroke-linejoin="round"/>
<path d="M58.8617 40.4293C58.8425 40.4804 58.8348 40.5351 58.839 40.5894C58.8433 40.6438 58.8595 40.6966 58.8865 40.7442C58.9135 40.7918 58.9507 40.8332 58.9955 40.8654C59.0402 40.8975 59.0916 40.9198 59.1459 40.9307" stroke="#BFBFBF" stroke-linecap="round" stroke-linejoin="round"/>
<path d="M93.6396 101.463C94.0492 115.593 92.327 130.372 75.2476 138.19" stroke="#263238" stroke-linecap="round" stroke-linejoin="round"/>
<path d="M68.25 144.634C75.6919 146.632 83.4604 147.174 91.1146 146.229" stroke="#263238" stroke-linecap="round" stroke-linejoin="round"/>
<path d="M62.3564 142.719C63.3346 143.089 64.321 143.442 65.3159 143.763" stroke="#263238" stroke-linecap="round" stroke-linejoin="round"/>
<path d="M152.511 123.829C152.542 123.482 152.488 123.133 152.353 122.81C152.219 122.488 152.007 122.202 151.737 121.976C151.467 121.751 151.145 121.592 150.8 121.514C150.455 121.436 150.095 121.441 149.752 121.528C149.752 121.61 149.568 121.635 149.585 121.709C150.231 122.206 150.737 122.856 151.056 123.599C151.541 123.632 152.026 123.813 152.511 123.829Z" stroke="#263238" stroke-linecap="round" stroke-linejoin="round"/>
<path d="M151.625 125.284C151.081 123.757 150.306 122.318 149.326 121.018C146.257 118.7 147.595 117.952 141.651 116.908C141.651 116.974 130.164 119.826 123.911 122.662C123.911 122.662 82.7884 117.878 82.7884 117.492L76.4348 109.272L58.5527 112.009C58.5527 112.009 68.0915 127.241 75.2727 131.145C75.2727 131.145 109.549 130.323 120.668 130.266C126.712 130.266 130.106 133.291 136.05 126.756C136.05 126.756 139.294 129.904 141.225 129C142.495 128.654 138.366 125.235 136.953 124.117C137.404 124.372 143.758 128.687 147.294 128.811C147.462 128.819 147.629 128.773 147.767 128.678C147.906 128.584 148.008 128.447 148.059 128.289C148.11 128.131 148.106 127.961 148.047 127.805C147.989 127.65 147.88 127.518 147.737 127.43C147.737 127.43 138.942 122.58 139.377 121.963C139.377 121.963 144.251 123.69 145.029 124.75C148.281 129.139 150.479 127.602 150.789 127.339C151.424 126.797 150.538 126.304 150.538 125.794C150.471 125.802 151.775 126.172 151.625 125.284Z" fill="white" stroke="#263238" stroke-linecap="round" stroke-linejoin="round"/>
<path d="M142.387 119.826C144.126 120.5 146.567 121.569 147.729 123.007C149.986 125.802 150.471 125.802 150.471 125.802" stroke="#263238" stroke-linecap="round" stroke-linejoin="round"/>
<path d="M51.3044 83.0582C51.3044 83.0582 45.7701 87.9902 47.3334 101.027C48.1694 107.669 56.2703 118.7 56.2703 118.7L78.3156 111.82C78.3156 111.82 73.1073 100.246 67.5897 92.429" stroke="#263238" stroke-miterlimit="10"/>
<path d="M71.168 92.1906C72.5987 95.435 73.4174 98.9083 73.584 102.441" stroke="#263238" stroke-linecap="round" stroke-linejoin="round"/>
<path d="M83.5907 50.77C83.5907 50.8193 81.4506 54.058 82.1194 54.9622C84.7779 58.3982 85.1457 62.4589 83.9836 62.6479C82.4454 62.8863 81.3001 61.6697 80.6396 61.2259" stroke="#263238" stroke-linecap="round" stroke-linejoin="round"/>
<path d="M49.7162 114.015L54.0802 119.391L78.3242 111.82L75.348 105.811C75.348 105.811 49.2648 114.015 49.7162 114.015Z" fill="white" stroke="#263238" stroke-linecap="round" stroke-linejoin="round"/>
<path d="M78.7671 79.7373C78.7671 79.5976 81.7432 95.4128 81.7432 95.4128L79.7619 95.8649" stroke="#263238" stroke-linecap="round" stroke-linejoin="round"/>
<path d="M97.0839 100.674L100.269 99.5146L100.47 104.397L97.0254 105.655L97.0839 100.674Z" fill="white" stroke="#263238" stroke-linecap="round" stroke-linejoin="round"/>
<path d="M95.3281 92.1824C96.2064 96.5846 96.7928 101.038 97.0837 105.515Z" fill="white"/>
<path d="M95.3281 92.1824C96.2064 96.5846 96.7928 101.038 97.0837 105.515" stroke="#263238" stroke-linecap="round" stroke-linejoin="round"/>
<path d="M94.3081 86.8147C94.492 87.8504 94.676 88.8368 94.8682 89.815Z" fill="white"/>
<path d="M94.3081 86.8147C94.492 87.8504 94.676 88.8368 94.8682 89.815" stroke="#263238" stroke-linecap="round" stroke-linejoin="round"/>
<path d="M127.337 92.4158L132.804 76.1358H137.061L142.528 92.4158H139.613L134.74 77.4448H135.081L130.219 92.4158H127.337ZM130.791 87.7408L131.429 85.3758H138.425L139.063 87.7408H130.791ZM148.192 92.5478C147.591 92.5478 146.956 92.5294 146.289 92.4928C145.629 92.4634 144.991 92.4121 144.375 92.3388V79.6118C144.793 79.5238 145.244 79.4468 145.728 79.3808C146.219 79.3148 146.714 79.2634 147.213 79.2268C147.712 79.1901 148.196 79.1718 148.665 79.1718C151.195 79.1718 153.098 79.7181 154.374 80.8108C155.657 81.8961 156.299 83.5864 156.299 85.8818C156.299 87.4364 155.998 88.7051 155.397 89.6878C154.796 90.6631 153.894 91.3854 152.691 91.8548C151.488 92.3168 149.989 92.5478 148.192 92.5478ZM148.896 90.2818C149.886 90.2818 150.707 90.1351 151.36 89.8418C152.013 89.5484 152.5 89.0791 152.823 88.4338C153.153 87.7811 153.318 86.9231 153.318 85.8598C153.318 84.8111 153.153 83.9641 152.823 83.3188C152.5 82.6661 152.013 82.1894 151.36 81.8888C150.707 81.5881 149.893 81.4378 148.918 81.4378C148.654 81.4378 148.375 81.4524 148.082 81.4818C147.789 81.5038 147.528 81.5368 147.301 81.5808V90.2048C147.565 90.2341 147.829 90.2561 148.093 90.2708C148.357 90.2781 148.625 90.2818 148.896 90.2818ZM162.651 92.5478C162.05 92.5478 161.415 92.5294 160.748 92.4928C160.088 92.4634 159.45 92.4121 158.834 92.3388V79.6118C159.252 79.5238 159.703 79.4468 160.187 79.3808C160.678 79.3148 161.173 79.2634 161.672 79.2268C162.171 79.1901 162.655 79.1718 163.124 79.1718C165.654 79.1718 167.557 79.7181 168.833 80.8108C170.116 81.8961 170.758 83.5864 170.758 85.8818C170.758 87.4364 170.457 88.7051 169.856 89.6878C169.255 90.6631 168.353 91.3854 167.15 91.8548C165.947 92.3168 164.448 92.5478 162.651 92.5478ZM163.355 90.2818C164.345 90.2818 165.166 90.1351 165.819 89.8418C166.472 89.5484 166.959 89.0791 167.282 88.4338C167.612 87.7811 167.777 86.9231 167.777 85.8598C167.777 84.8111 167.612 83.9641 167.282 83.3188C166.959 82.6661 166.472 82.1894 165.819 81.8888C165.166 81.5881 164.352 81.4378 163.377 81.4378C163.113 81.4378 162.834 81.4524 162.541 81.4818C162.248 81.5038 161.987 81.5368 161.76 81.5808V90.2048C162.024 90.2341 162.288 90.2561 162.552 90.2708C162.816 90.2781 163.084 90.2818 163.355 90.2818ZM186.241 92.6248C184.972 92.6248 183.835 92.4708 182.831 92.1628C181.833 91.8474 180.986 91.3598 180.29 90.6998C179.593 90.0324 179.061 89.1708 178.695 88.1148C178.328 87.0588 178.145 85.7901 178.145 84.3088C178.145 82.4094 178.467 80.8401 179.113 79.6008C179.765 78.3614 180.708 77.4411 181.94 76.8398C183.172 76.2311 184.664 75.9268 186.417 75.9268C187.04 75.9268 187.641 75.9634 188.221 76.0368C188.8 76.1028 189.368 76.2054 189.926 76.3448V78.7978C189.39 78.6584 188.848 78.5558 188.298 78.4898C187.755 78.4238 187.198 78.3908 186.626 78.3908C185.43 78.3908 184.433 78.5851 183.634 78.9738C182.834 79.3624 182.233 79.9894 181.83 80.8548C181.434 81.7128 181.236 82.8494 181.236 84.2648C181.236 85.7241 181.437 86.8864 181.841 87.7518C182.244 88.6098 182.834 89.2258 183.612 89.5998C184.396 89.9738 185.361 90.1608 186.505 90.1608C187.077 90.1608 187.641 90.1168 188.199 90.0288C188.756 89.9408 189.332 89.8051 189.926 89.6218V92.0748C189.398 92.2434 188.818 92.3754 188.188 92.4708C187.557 92.5734 186.908 92.6248 186.241 92.6248ZM190.91 92.4158L195.431 79.3258H199.688L204.22 92.4158H201.338L197.389 80.4918H197.697L193.759 92.4158H190.91ZM193.979 88.8848L194.606 86.7068H200.502L201.129 88.8848H193.979ZM208.914 92.5808C208.247 92.5808 207.58 92.5331 206.912 92.4378C206.245 92.3498 205.636 92.2214 205.086 92.0528V89.7758C205.504 89.9004 205.933 90.0031 206.373 90.0838C206.821 90.1644 207.261 90.2268 207.693 90.2708C208.126 90.3148 208.526 90.3368 208.892 90.3368C209.56 90.3368 210.091 90.2744 210.487 90.1498C210.891 90.0251 211.177 89.8454 211.345 89.6108C211.521 89.3688 211.609 89.0791 211.609 88.7418C211.609 88.4558 211.547 88.2138 211.422 88.0158C211.305 87.8104 211.089 87.6344 210.773 87.4878C210.465 87.3338 210.029 87.1944 209.464 87.0698L208.584 86.8828C207.257 86.5968 206.285 86.1494 205.669 85.5408C205.053 84.9321 204.745 84.1291 204.745 83.1318C204.745 82.3544 204.947 81.6688 205.35 81.0748C205.761 80.4734 206.392 80.0041 207.242 79.6668C208.1 79.3294 209.204 79.1608 210.553 79.1608C211.118 79.1608 211.679 79.1938 212.236 79.2598C212.794 79.3184 213.296 79.4028 213.743 79.5128V81.7898C213.252 81.6651 212.742 81.5698 212.214 81.5038C211.686 81.4378 211.155 81.4048 210.619 81.4048C209.849 81.4048 209.244 81.4708 208.804 81.6028C208.372 81.7274 208.064 81.9071 207.88 82.1418C207.697 82.3764 207.605 82.6514 207.605 82.9668C207.605 83.3921 207.737 83.7258 208.001 83.9678C208.265 84.2098 208.801 84.4224 209.607 84.6058L210.476 84.7928C211.408 84.9908 212.167 85.2548 212.753 85.5848C213.34 85.9074 213.769 86.3144 214.04 86.8058C214.319 87.2971 214.458 87.8874 214.458 88.5768C214.458 89.3688 214.249 90.0654 213.831 90.6668C213.421 91.2681 212.805 91.7374 211.983 92.0748C211.162 92.4121 210.139 92.5808 208.914 92.5808ZM216.777 92.4158V79.3258H226.435V81.4928H219.637V90.2488H226.534V92.4158H216.777ZM218.515 86.8278V84.6608H225.489V86.8278H218.515Z" fill="black"/>
<path d="M262.6 234.994C262.601 235.372 262.526 235.746 262.38 236.096C262.233 236.445 262.017 236.763 261.746 237.03C261.474 237.298 261.151 237.51 260.795 237.654C260.44 237.798 260.059 237.872 259.674 237.871H247.226V250.118C247.226 250.881 246.918 251.613 246.369 252.153C245.82 252.692 245.076 252.995 244.3 252.995C243.524 252.995 242.78 252.692 242.231 252.153C241.682 251.613 241.374 250.881 241.374 250.118V237.846H228.926C228.15 237.846 227.406 237.543 226.857 237.003C226.308 236.464 226 235.732 226 234.969C226 234.206 226.308 233.474 226.857 232.935C227.406 232.395 228.15 232.092 228.926 232.092H241.374V219.877C241.374 219.114 241.682 218.382 242.231 217.843C242.78 217.303 243.524 217 244.3 217C245.076 217 245.82 217.303 246.369 217.843C246.918 218.382 247.226 219.114 247.226 219.877V232.092H259.674C260.06 232.092 260.443 232.167 260.8 232.313C261.156 232.459 261.48 232.673 261.752 232.943C262.024 233.213 262.239 233.533 262.385 233.885C262.53 234.237 262.603 234.614 262.6 234.994Z" fill="white"/>
</svg>
