<svg width="276" height="309" viewBox="0 0 276 309" fill="none" xmlns="http://www.w3.org/2000/svg">
<path d="M168.316 29.7691C139.876 29.4724 111.416 36.8019 86.0248 49.1495C60.6337 61.4972 38.4911 80.958 26.2225 105.678C13.9538 130.398 12.3874 160.451 24.8357 185.072C29.5031 194.299 36.5522 203.056 46.5161 206.702C59.2598 211.362 73.3838 206.752 87.0006 206.264C105.458 205.609 123.254 212.648 139.645 220.867C156.035 229.086 171.854 238.703 189.515 243.9C207.177 249.097 227.547 249.295 242.897 239.413C257.387 230.088 265.072 213.198 266.908 196.512C268.744 179.826 265.496 163.059 262.267 146.571C258.877 129.347 242.506 30.5354 168.316 29.7691Z" fill="#43639F"/>
<g opacity="0.7">
<path d="M168.316 29.7691C139.876 29.4724 111.416 36.8019 86.0248 49.1495C60.6337 61.4972 38.4911 80.958 26.2225 105.678C13.9538 130.398 12.3874 160.451 24.8357 185.072C29.5031 194.299 36.5522 203.056 46.5161 206.702C59.2598 211.362 73.3838 206.752 87.0006 206.264C105.458 205.609 123.254 212.648 139.645 220.867C156.035 229.086 171.854 238.703 189.515 243.9C207.177 249.097 227.547 249.295 242.897 239.413C257.387 230.088 265.072 213.198 266.908 196.512C268.744 179.826 265.496 163.059 262.267 146.571C258.877 129.347 242.506 30.5354 168.316 29.7691Z" fill="white"/>
</g>
<path d="M142.656 278.446C193.713 278.446 235.104 274.633 235.104 269.93C235.104 265.227 193.713 261.414 142.656 261.414C91.598 261.414 50.2076 265.227 50.2076 269.93C50.2076 274.633 91.598 278.446 142.656 278.446Z" fill="#43639F"/>
<path opacity="0.5" d="M142.656 278.446C193.713 278.446 235.104 274.633 235.104 269.93C235.104 265.227 193.713 261.414 142.656 261.414C91.598 261.414 50.2076 265.227 50.2076 269.93C50.2076 274.633 91.598 278.446 142.656 278.446Z" fill="white"/>
<path d="M213.025 104.776C213.34 107.285 212.081 110.956 209.385 110.678C208.944 110.624 208.513 110.516 208.101 110.356C208.364 108.502 207.202 106.407 208.165 104.794C208.685 103.892 210.008 102.217 211.035 102.069C212.435 101.853 212.845 103.398 213.025 104.776Z" fill="#43639F"/>
<path d="M210.053 112.723C209.154 114.577 207.921 116.091 205.026 116.017C204.377 115.992 203.748 115.799 203.203 115.461C202.932 115.303 202.699 115.092 202.521 114.84C202.343 114.588 202.223 114.303 202.169 114.002C202.141 113.608 202.235 113.215 202.44 112.873C202.644 112.531 202.95 112.255 203.318 112.08C204.061 111.73 204.873 111.536 205.7 111.512C206.582 111.458 207.467 111.546 208.319 111.771C208.95 111.99 209.537 112.312 210.053 112.723Z" fill="#43639F"/>
<path d="M203.652 105.993C206.689 109.337 210.033 112.315 213.057 115.535" stroke="#43639F" stroke-miterlimit="10"/>
<path d="M222.707 115.022C222.8 116.444 222.415 117.857 221.609 119.052C220.832 120.164 219.683 120.825 218.399 120.522C217.981 120.404 217.576 120.245 217.192 120.047C217.38 119.088 217.404 118.107 217.262 117.142C217.092 116.207 217.224 115.245 217.641 114.386C218.18 113.49 219.464 111.759 220.582 111.734C222.071 111.704 222.623 113.52 222.707 115.022Z" fill="#43639F"/>
<path d="M218.726 122.63C218.183 123.468 217.441 124.171 216.563 124.681C215.539 125.188 214.369 125.353 213.237 125.151C212.649 125.078 212.093 124.849 211.632 124.49C211.407 124.337 211.226 124.133 211.103 123.895C210.981 123.658 210.922 123.395 210.932 123.13C210.983 122.747 211.138 122.382 211.38 122.073C211.622 121.764 211.943 121.522 212.313 121.369C213.053 121.06 213.856 120.918 214.662 120.955C215.528 120.958 216.383 121.128 217.179 121.456C217.762 121.757 218.286 122.154 218.726 122.63Z" fill="#43639F"/>
<path d="M213.057 115.566C214.592 117.154 215.998 118.841 217.372 120.547C218.745 122.253 219.978 124.07 221.127 125.93" stroke="#43639F" stroke-miterlimit="10"/>
<path d="M230.699 127.141C230.308 129.848 227.875 132.827 225.397 131.77C225.001 131.591 224.632 131.363 224.299 131.09C224.512 130.653 224.662 130.189 224.742 129.712C224.825 129.236 224.87 128.742 224.928 128.254C224.953 127.303 225.283 126.384 225.872 125.621C226.584 124.842 228.17 123.39 229.293 123.563C230.738 123.81 230.905 125.683 230.699 127.141Z" fill="#43639F"/>
<path d="M225.339 133.902C223.83 135.404 222.161 136.374 219.477 135.453C218.328 135.089 217.294 134.081 217.551 132.981C217.668 132.612 217.886 132.279 218.182 132.018C218.477 131.757 218.841 131.578 219.233 131.498C220.03 131.322 220.857 131.322 221.654 131.498C222.499 131.675 223.302 132.002 224.023 132.462C224.554 132.856 225 133.345 225.339 133.902Z" fill="#43639F"/>
<path d="M221.108 125.899C223.422 129.622 225.446 133.506 227.162 137.517" stroke="#43639F" stroke-miterlimit="10"/>
<path d="M236.516 140.342C236.099 141.742 235.192 142.96 233.948 143.79C232.792 144.538 231.476 144.717 230.398 143.957C230.052 143.702 229.737 143.41 229.46 143.086C230.017 142.264 230.399 141.344 230.584 140.379C230.731 139.445 231.18 138.58 231.868 137.907C232.677 137.239 234.487 136.053 235.553 136.337C235.875 136.439 236.157 136.633 236.362 136.894C236.566 137.155 236.683 137.469 236.696 137.795C236.831 138.647 236.769 139.516 236.516 140.342Z" fill="#43639F"/>
<path d="M229.871 146.021C228.048 147.146 226.173 147.622 223.804 146.305C222.803 145.755 222.013 144.736 222.52 143.833C222.738 143.524 223.023 143.265 223.356 143.074C223.688 142.883 224.061 142.764 224.446 142.727C225.238 142.644 226.039 142.752 226.777 143.042C227.574 143.333 228.299 143.784 228.902 144.365C229.333 144.851 229.662 145.414 229.871 146.021Z" fill="#43639F"/>
<path d="M227.181 137.517L228.465 140.539C228.861 141.536 229.197 142.553 229.473 143.586C230.043 145.668 230.466 147.784 230.738 149.921" stroke="#43639F" stroke-miterlimit="10"/>
<path d="M238.802 155.118C237.983 156.333 236.771 157.254 235.354 157.738C234.019 158.152 232.722 157.967 231.887 156.953C231.63 156.616 231.415 156.251 231.245 155.866C232.837 154.741 233.364 152.362 235.136 151.54C236.118 151.12 238.211 150.427 239.135 151.064C240.368 151.972 239.668 153.882 238.802 155.118Z" fill="#43639F"/>
<path d="M230.738 158.826C229.764 159.134 228.728 159.216 227.714 159.067C226.609 158.84 225.603 158.292 224.832 157.497C224.023 156.719 223.548 155.538 224.299 154.722C224.588 154.459 224.94 154.268 225.325 154.168C225.709 154.068 226.113 154.061 226.501 154.148C227.286 154.32 228.02 154.665 228.645 155.155C229.321 155.659 229.885 156.29 230.301 157.009C230.571 157.581 230.719 158.198 230.738 158.826Z" fill="#43639F"/>
<path d="M230.738 149.921C231.327 154.183 231.216 158.508 230.411 162.738" stroke="#43639F" stroke-miterlimit="10"/>
<path d="M236.002 170.568C235.363 171.022 234.649 171.369 233.89 171.594C233.169 171.805 232.413 171.88 231.662 171.816C231.02 171.8 230.401 171.585 229.896 171.203C229.39 170.821 229.026 170.293 228.857 169.697C228.772 169.289 228.724 168.876 228.716 168.461C229.688 168.165 230.587 167.679 231.354 167.033C232.092 166.386 233 165.945 233.98 165.76C235.052 165.673 237.286 165.636 237.922 166.594C238.795 167.849 237.351 169.567 236.002 170.568Z" fill="#43639F"/>
<path d="M227.04 170.852C225.985 170.721 224.986 170.318 224.149 169.685C223.313 169.052 222.67 168.212 222.289 167.256C221.833 166.298 221.821 165.253 222.771 164.864C223.146 164.753 223.541 164.723 223.929 164.775C224.317 164.828 224.689 164.961 225.018 165.167C225.687 165.579 226.246 166.138 226.648 166.798C227.084 167.486 227.351 168.259 227.432 169.06C227.443 169.678 227.309 170.291 227.04 170.852Z" fill="#43639F"/>
<path d="M230.385 162.738C229.955 164.825 229.281 166.859 228.375 168.801C227.457 170.72 226.252 172.5 224.799 174.084" stroke="#43639F" stroke-miterlimit="10"/>
<path d="M226.366 183.107C224.94 183.294 223.487 183.093 222.174 182.526C220.89 181.952 220.061 180.981 220.177 179.69C220.222 179.266 220.328 178.85 220.492 178.454C222.418 178.689 224.581 177.514 226.27 178.423C226.886 178.754 227.478 179.126 228.042 179.535C228.328 179.718 228.573 179.955 228.763 180.231C228.953 180.507 229.083 180.817 229.146 181.142C229.403 182.464 227.817 182.928 226.366 183.107Z" fill="#43639F"/>
<path d="M218.052 180.326C216.126 179.436 214.63 178.2 214.63 175.493C214.63 174.35 215.33 172.991 216.601 172.811C217.011 172.776 217.423 172.859 217.784 173.051C218.144 173.242 218.437 173.533 218.623 173.887C219 174.593 219.219 175.368 219.265 176.161C219.342 177.006 219.266 177.856 219.041 178.676C218.82 179.28 218.485 179.84 218.052 180.326Z" fill="#43639F"/>
<path d="M224.799 174.084C224.459 174.492 224.042 174.845 223.67 175.228L222.443 176.377L220.023 178.707C219.22 179.473 218.424 180.24 217.603 180.975C217.192 181.34 216.781 181.704 216.357 182.057C215.933 182.409 215.503 182.749 215.073 183.132" stroke="#43639F" stroke-miterlimit="10"/>
<path d="M217.256 191.722C216.617 191.796 215.972 191.814 215.33 191.778C214.633 191.737 213.943 191.627 213.269 191.45C211.985 191.104 210.83 190.387 210.701 189.096C210.672 188.671 210.706 188.244 210.804 187.829C212.794 187.767 214.752 186.512 216.492 187.421C217.436 187.884 219.176 189.139 219.445 190.06C219.541 190.296 219.541 190.559 219.445 190.795C219.352 191.002 219.186 191.17 218.977 191.271C218.431 191.508 217.851 191.66 217.256 191.722Z" fill="#43639F"/>
<path d="M208.762 190.214C207.737 190.122 206.75 189.798 205.88 189.269C205.064 188.7 204.467 187.792 204.313 186.179C204.172 184.838 204.955 182.984 206.342 182.532C206.745 182.403 207.181 182.411 207.578 182.556C207.975 182.702 208.307 182.975 208.518 183.33C208.937 184.046 209.204 184.836 209.302 185.653C209.438 186.527 209.464 187.413 209.379 188.292C209.264 188.957 209.057 189.603 208.762 190.214Z" fill="#43639F"/>
<path d="M215.067 183.132C211.559 186.145 208.797 189.876 206.984 194.052" stroke="#43639F" stroke-miterlimit="10"/>
<path d="M212.762 200.906C211.631 201.59 210.373 202.058 209.058 202.284C207.697 202.488 206.393 202.321 205.694 201.202C205.47 200.833 205.314 200.43 205.231 200.01C206.984 199.138 208.229 197.21 210.194 197.303C211.253 197.303 213.404 197.729 214.046 198.465C214.9 199.416 213.802 200.232 212.762 200.906Z" fill="#43639F"/>
<path d="M204.416 203.013C202.349 203.575 200.326 203.952 198.593 201.19C198.229 200.531 198.037 199.798 198.035 199.052C198.032 198.316 198.311 197.606 198.818 197.055C199.13 196.775 199.533 196.605 199.96 196.576C200.386 196.547 200.81 196.659 201.161 196.895C201.848 197.373 202.433 197.976 202.882 198.668C203.392 199.405 203.81 200.198 204.127 201.029C204.236 201.35 204.303 201.682 204.326 202.018C204.416 202.352 204.416 202.704 204.416 203.013Z" fill="#43639F"/>
<path d="M206.984 194.052C205.143 198.21 204.298 202.713 204.512 207.228" stroke="#43639F" stroke-miterlimit="10"/>
<path d="M258.986 174.276C258.41 174.827 257.73 175.267 256.983 175.574C256.294 175.87 255.548 176.026 254.794 176.031C254.151 176.079 253.509 175.924 252.966 175.59C252.422 175.255 252.007 174.759 251.783 174.177C251.643 173.777 251.552 173.362 251.513 172.941C252.448 172.535 253.283 171.941 253.959 171.198C254.607 170.446 255.439 169.86 256.379 169.493C257.426 169.233 259.622 168.763 260.411 169.697C260.648 170.035 260.788 170.427 260.817 170.834C260.846 171.241 260.764 171.648 260.578 172.014C260.219 172.868 259.676 173.638 258.986 174.276Z" fill="#43639F"/>
<path d="M250.056 175.549C248.987 175.532 247.944 175.23 247.043 174.677C246.142 174.124 245.418 173.341 244.952 172.416C244.445 171.514 244.233 170.512 245.144 170.098C245.876 169.837 246.686 169.863 247.398 170.172C248.117 170.481 248.744 170.959 249.221 171.563C249.748 172.19 250.109 172.93 250.274 173.72C250.341 174.338 250.266 174.962 250.056 175.549Z" fill="#43639F"/>
<path d="M252.258 167.144C252.177 171.417 250.761 175.567 248.194 179.053" stroke="#43639F" stroke-miterlimit="10"/>
<path d="M250.216 188.342C248.728 188.69 247.16 188.524 245.786 187.872C244.547 187.254 243.783 186.21 243.963 184.918C244.042 184.496 244.163 184.082 244.323 183.682C246.249 183.997 248.419 182.607 250.287 183.15C251.308 183.478 253.381 184.288 253.568 185.406C253.85 186.951 251.834 187.971 250.216 188.342Z" fill="#43639F"/>
<path d="M241.812 185.4C240.906 184.936 240.125 184.274 239.533 183.466C238.946 182.538 238.662 181.461 238.718 180.376C238.711 179.848 238.848 179.328 239.116 178.868C239.229 178.662 239.397 178.489 239.602 178.366C239.807 178.243 240.043 178.175 240.285 178.169C240.678 178.196 241.06 178.31 241.401 178.502C241.742 178.693 242.032 178.958 242.249 179.276C242.693 179.914 242.974 180.645 243.071 181.408C243.188 182.219 243.123 183.045 242.878 183.83C242.634 184.416 242.272 184.95 241.812 185.4Z" fill="#43639F"/>
<path d="M248.194 179.053C246.939 180.826 245.486 182.461 243.86 183.929C242.215 185.395 240.446 186.727 238.57 187.909" stroke="#43639F" stroke-miterlimit="10"/>
<path d="M237.331 197.198C235.86 197.025 234.486 196.403 233.409 195.424C232.414 194.478 231.945 193.292 232.503 192.111C232.694 191.73 232.933 191.373 233.216 191.049C234.988 191.895 237.434 191.283 238.962 192.47C239.79 193.125 241.363 194.621 241.177 195.708C240.92 197.142 238.885 197.383 237.331 197.198Z" fill="#43639F"/>
<path d="M230.276 192.031C228.735 190.579 227.778 188.941 228.716 186.376C229.12 185.301 230.096 184.294 231.219 184.56C231.599 184.681 231.941 184.894 232.21 185.178C232.48 185.463 232.67 185.81 232.76 186.185C232.944 186.945 232.944 187.736 232.76 188.496C232.587 189.315 232.251 190.093 231.772 190.789C231.355 191.286 230.848 191.707 230.276 192.031Z" fill="#43639F"/>
<path d="M238.57 187.909C234.756 190.251 230.703 192.212 226.475 193.762" stroke="#43639F" stroke-miterlimit="10"/>
<path d="M223.978 202.63C222.637 202.211 221.437 201.453 220.505 200.436C219.606 199.435 219.143 198.242 219.785 197.086C220.007 196.719 220.279 196.382 220.594 196.085C222.289 197.068 224.729 196.852 225.994 198.298C226.674 199.089 227.887 200.856 227.56 201.87C227.124 203.217 225.332 203.032 223.978 202.63Z" fill="#43639F"/>
<path d="M217.532 196.932C216.017 195.467 214.848 193.879 216.248 191.191C216.852 190.06 218.245 189.028 219.458 189.38C219.844 189.513 220.18 189.753 220.424 190.07C220.669 190.387 220.811 190.766 220.832 191.16C220.876 191.953 220.737 192.747 220.427 193.483C220.117 194.293 219.673 195.048 219.111 195.721C218.65 196.197 218.118 196.605 217.532 196.932Z" fill="#43639F"/>
<path d="M226.475 193.762C222.264 195.375 217.834 196.722 213.719 198.916" stroke="#43639F" stroke-miterlimit="10"/>
<path d="M214.046 207.679C212.761 207.518 211.51 207.168 210.335 206.641C209.128 206.084 208.075 205.256 208.152 203.946C208.194 203.519 208.309 203.101 208.493 202.71C209.491 202.781 210.493 202.781 211.491 202.71C212.434 202.628 213.376 202.883 214.136 203.427C214.958 204.076 216.376 205.658 216.434 206.616C216.543 207.846 215.247 207.784 214.046 207.679Z" fill="#43639F"/>
<path d="M206.06 204.83C205.045 204.65 204.088 204.244 203.267 203.643C202.529 203.025 202.041 201.944 202.246 200.207C202.4 198.736 203.684 196.876 205.206 196.654C205.632 196.582 206.071 196.663 206.441 196.88C206.811 197.097 207.086 197.436 207.215 197.834C207.46 198.636 207.541 199.475 207.453 200.306C207.394 201.211 207.239 202.108 206.99 202.982C206.744 203.626 206.432 204.245 206.06 204.83Z" fill="#43639F"/>
<path d="M213.719 198.916C211.634 200.001 209.715 201.359 208.018 202.951C206.27 204.563 204.911 206.525 204.037 208.699" stroke="#43639F" stroke-miterlimit="10"/>
<path d="M189.74 273.354C189.528 273.403 182.132 273.403 181.914 273.354C176.489 272.204 157.223 266.111 174.589 246.378H196.821C214.174 266.105 195.171 272.204 189.74 273.354Z" fill="white" stroke="#263238" stroke-miterlimit="10"/>
<path d="M196.815 246.508C196.815 246.829 196.314 247.126 195.434 247.392C193.508 246.817 189.862 246.434 185.637 246.434C181.413 246.434 177.747 246.817 175.847 247.392C174.967 247.132 174.467 246.829 174.467 246.508C174.467 245.494 179.468 244.654 185.637 244.654C191.807 244.654 196.815 245.494 196.815 246.508Z" fill="white" stroke="#263238" stroke-miterlimit="10"/>
<path d="M195.428 247.392C193.502 247.96 189.855 248.343 185.631 248.343C181.407 248.343 177.741 247.96 175.841 247.392C177.767 246.817 181.413 246.434 185.631 246.434C189.849 246.434 193.534 246.817 195.428 247.392Z" fill="#263238" stroke="#263238" stroke-miterlimit="10"/>
<path d="M194.202 252.095C194.979 251.94 195.749 251.767 196.5 251.575L194.202 252.095Z" fill="white"/>
<path d="M194.202 252.095C194.979 251.94 195.749 251.767 196.5 251.575" stroke="#263238" stroke-miterlimit="10"/>
<path d="M175.025 251.26C180.328 253.114 186.549 253.293 192.314 252.422L175.025 251.26Z" fill="white"/>
<path d="M175.025 251.26C180.328 253.114 186.549 253.293 192.314 252.422" stroke="#263238" stroke-miterlimit="10"/>
<path d="M201.848 216.183C199.312 216.387 195.8 214.854 195.909 212.475C195.941 212.095 196.023 211.721 196.153 211.362C197.99 211.776 199.922 210.8 201.655 211.609C202.606 212.067 204.487 213.154 204.679 214.18C204.91 215.546 203.228 216.071 201.848 216.183Z" fill="#43639F"/>
<path d="M193.951 212.882C192.09 211.918 190.587 210.682 190.555 208.05C190.555 206.943 191.12 205.769 192.205 205.782C192.601 205.818 192.982 205.945 193.317 206.151C193.652 206.357 193.931 206.637 194.131 206.968C194.539 207.617 194.802 208.341 194.902 209.094C195.024 209.865 194.996 210.651 194.818 211.412C194.63 211.951 194.336 212.45 193.951 212.882Z" fill="#43639F"/>
<path d="M199.819 207.518C197.251 210.312 194.266 212.777 191.396 215.435" stroke="#43639F" stroke-miterlimit="10"/>
<path d="M193.804 223.716C192.503 223.737 191.212 223.502 190.01 223.024C188.809 222.517 187.692 221.751 187.583 220.552C187.554 220.168 187.591 219.781 187.692 219.409C189.554 219.588 191.39 218.624 193.078 219.532C194.003 220.02 195.762 221.244 196.025 222.177C196.365 223.426 195.024 223.679 193.804 223.716Z" fill="#43639F"/>
<path d="M185.727 221.368C184.718 221.184 183.761 220.798 182.915 220.237C182.119 219.619 181.567 218.735 181.503 217.147C181.439 215.824 182.106 214.329 183.371 214.094C183.777 214.048 184.188 214.118 184.553 214.295C184.918 214.472 185.222 214.748 185.426 215.089C185.836 215.759 186.109 216.5 186.228 217.27C186.381 218.067 186.416 218.881 186.331 219.687C186.214 220.272 186.011 220.838 185.727 221.368Z" fill="#43639F"/>
<path d="M191.396 215.435C189.943 216.766 188.569 218.175 187.281 219.656C186.624 220.414 186.024 221.215 185.483 222.054C185.227 222.486 184.951 222.9 184.719 223.345L184.077 224.68" stroke="#43639F" stroke-miterlimit="10"/>
<path d="M189.99 230.996C188.838 231.572 187.584 231.933 186.292 232.059C184.963 232.183 183.628 231.948 182.954 230.94C182.748 230.612 182.595 230.256 182.498 229.884C183.33 229.496 184.118 229.026 184.848 228.481C185.564 227.964 186.444 227.7 187.339 227.733C188.379 227.801 190.504 228.289 191.191 228.938C191.653 229.377 191.621 229.741 191.332 230.069C190.952 230.459 190.496 230.774 189.99 230.996Z" fill="#43639F"/>
<path d="M181.67 232.442C179.583 232.801 177.568 232.955 175.892 230.551C175.205 229.531 175.051 227.838 176.097 227.022C176.429 226.788 176.828 226.658 177.239 226.65C177.651 226.643 178.055 226.757 178.396 226.979C179.081 227.411 179.673 227.965 180.142 228.611C180.655 229.254 181.076 229.961 181.394 230.712C181.576 231.272 181.669 231.855 181.67 232.442Z" fill="#43639F"/>
<path d="M184.052 224.68C183.256 226.481 182.651 228.355 182.248 230.273C181.838 232.173 181.58 234.101 181.477 236.039" stroke="#43639F" stroke-miterlimit="10"/>
<path d="M189.156 240.476C188.237 241.388 187.124 242.098 185.894 242.559C184.61 243.016 183.326 243.096 182.363 242.299C182.072 242.037 181.825 241.733 181.631 241.397C183.127 240.303 183.737 238.356 185.625 237.911C186.645 237.658 188.796 237.399 189.656 237.881C190.773 238.499 189.997 239.586 189.156 240.476Z" fill="#43639F"/>
<path d="M181.509 244.061C179.616 244.901 177.657 245.482 175.455 243.646C174.512 242.874 173.947 241.378 174.672 240.408C174.941 240.114 175.292 239.899 175.683 239.79C176.074 239.681 176.49 239.681 176.881 239.79C177.658 240.002 178.387 240.352 179.031 240.822C179.711 241.288 180.313 241.851 180.816 242.491C181.141 242.971 181.375 243.502 181.509 244.061Z" fill="#43639F"/>
<path d="M181.477 236.039C181.261 239.901 181.507 243.775 182.209 247.583" stroke="#43639F" stroke-miterlimit="10"/>
<path d="M205.533 235.359C202.997 236.113 199.197 235.266 198.94 232.807C198.91 232.41 198.936 232.011 199.017 231.62C200.943 231.663 202.721 230.261 204.609 230.712C205.636 230.978 207.716 231.688 208.075 232.689C208.544 234.043 206.92 234.976 205.533 235.359Z" fill="#43639F"/>
<path d="M197.033 233.604C195.004 232.986 193.303 232.022 192.854 229.371C192.661 228.252 193.04 226.954 194.138 226.744C194.531 226.706 194.929 226.762 195.296 226.905C195.663 227.048 195.988 227.275 196.243 227.566C196.766 228.151 197.145 228.842 197.354 229.587C197.602 230.352 197.7 231.155 197.643 231.954C197.546 232.535 197.339 233.094 197.033 233.604Z" fill="#43639F"/>
<path d="M202.066 226.942C199.993 230.347 197.348 233.468 194.831 236.706" stroke="#43639F" stroke-miterlimit="10"/>
<path d="M198.214 244.913C196.898 245.193 195.532 245.169 194.227 244.845C192.911 244.506 191.794 243.82 191.57 242.596C191.505 242.201 191.505 241.798 191.57 241.403C193.496 241.323 195.242 240 197.078 240.618C198.079 240.952 200.038 241.854 200.41 242.8C200.891 244.036 199.473 244.611 198.214 244.913Z" fill="#43639F"/>
<path d="M189.74 243.616C187.647 243.245 185.727 242.664 185.143 239.772C185.027 239.133 185.091 238.475 185.329 237.868C185.434 237.579 185.603 237.315 185.825 237.095C186.047 236.875 186.316 236.704 186.613 236.595C187.009 236.501 187.425 236.519 187.81 236.647C188.195 236.775 188.533 237.008 188.783 237.318C189.293 237.934 189.662 238.645 189.868 239.407C190.116 240.198 190.237 241.022 190.228 241.848C190.163 242.458 189.998 243.055 189.74 243.616Z" fill="#43639F"/>
<path d="M194.831 236.694C192.193 239.908 189.926 243.39 188.071 247.076" stroke="#43639F" stroke-miterlimit="10"/>
<path d="M249.311 165.945C249.031 164.497 249.324 163 250.133 161.749C250.229 161.632 251.648 159.969 252.129 160.013C253.198 160.528 254.055 161.375 254.563 162.417C255.164 163.506 255.416 164.743 255.288 165.97C255.14 167.12 253.953 169.313 252.348 169.406C250.743 169.499 249.523 167.002 249.311 165.945Z" fill="#43639F"/>
<path d="M210.162 55.379H86.8979V213.099H210.162V55.379Z" fill="white"/>
<path d="M210.194 213.408H86.93C86.8449 213.408 86.7632 213.375 86.703 213.317C86.6428 213.259 86.609 213.181 86.609 213.099V55.379C86.609 55.297 86.6428 55.2184 86.703 55.1605C86.7632 55.1025 86.8449 55.07 86.93 55.07H210.194C210.279 55.07 210.361 55.1025 210.421 55.1605C210.481 55.2184 210.515 55.297 210.515 55.379V213.099C210.515 213.181 210.481 213.259 210.421 213.317C210.361 213.375 210.279 213.408 210.194 213.408ZM87.251 212.79H209.873V55.688H87.251V212.79Z" fill="#263238"/>
<path d="M194.221 136.646H100.399V140.354H194.221V136.646Z" fill="#263238"/>
<path d="M194.221 89.9437H117.791V93.6517H194.221V89.9437Z" fill="#263238"/>
<path d="M194.221 113.298H100.399V117.006H194.221V113.298Z" fill="#263238"/>
<path d="M170.114 183.342C168.92 184.578 167.7 185.814 166.455 187.05H100.412V183.342H170.114Z" fill="#263238"/>
<path d="M188.546 159.994C187.724 161.23 186.883 162.466 186.01 163.702H100.412V159.994H188.546Z" fill="#263238"/>
<path d="M133.578 208.841C133.578 208.841 128.095 211.405 112.738 212.79H87.2189" stroke="#263238" stroke-linecap="round" stroke-linejoin="round"/>
<path d="M207.491 122.982C208.44 121.611 209.014 120.032 209.16 118.39C209.353 116.326 209.494 113.922 209.539 112.457L209.783 104.368V121.746L207.491 122.982Z" fill="#263238"/>
<path d="M209.064 121.029C209.064 121.783 201.887 140.002 188.52 159.963C187.698 161.199 186.857 162.435 185.984 163.671C181.194 170.585 175.881 177.15 170.088 183.311C168.894 184.547 167.674 185.783 166.429 187.019C157.024 196.203 146.187 204.02 134.046 208.501C134.74 208.161 145.314 203.025 147.618 187.019C147.789 185.845 147.911 184.609 147.984 183.311C148.292 177.897 147.689 171.408 145.647 163.671C145.331 162.468 144.978 161.232 144.588 159.963C141.622 150.316 136.525 138.883 128.403 125.355L126.31 120.967L139.985 124.675C201.058 138.327 209.032 120.967 209.032 120.967C209.032 120.967 209.064 121.017 209.064 121.029Z" fill="white" stroke="#263238" stroke-linecap="round" stroke-linejoin="round"/>
<path d="M156.516 176.025C156.559 177.119 156.533 178.215 156.439 179.307L156.516 176.025Z" fill="white"/>
<path d="M156.516 176.025C156.559 177.119 156.533 178.215 156.439 179.307" stroke="#263238" stroke-linecap="round" stroke-linejoin="round"/>
<path d="M141.827 133.945C150.7 145.008 155.175 163.702 156.343 172.57L141.827 133.945Z" fill="white"/>
<path d="M141.827 133.945C150.7 145.008 155.175 163.702 156.343 172.57" stroke="#263238" stroke-linecap="round" stroke-linejoin="round"/>
<path d="M101.773 72.5717C100.908 72.598 100.047 72.4567 99.2396 72.1562C98.4326 71.8558 97.6965 71.4023 97.0751 70.8226C96.4537 70.243 95.9596 69.5491 95.6222 68.7821C95.2848 68.0151 95.1109 67.1907 95.1109 66.3578C95.1109 65.5248 95.2848 64.7004 95.6222 63.9334C95.9596 63.1664 96.4537 62.4725 97.0751 61.8929C97.6965 61.3132 98.4326 60.8597 99.2396 60.5593C100.047 60.2588 100.908 60.1175 101.773 60.1438C102.028 60.1438 102.273 60.2414 102.454 60.4153C102.635 60.5891 102.736 60.8249 102.736 61.0708C102.736 61.3166 102.635 61.5524 102.454 61.7262C102.273 61.9001 102.028 61.9978 101.773 61.9978C100.875 61.9904 99.9949 62.24 99.2445 62.715C98.4941 63.1899 97.9071 63.8687 97.5582 64.6653C97.2092 65.4619 97.1139 66.3403 97.2844 67.1891C97.4549 68.0379 97.8836 68.8188 98.5159 69.4327C99.1482 70.0466 99.9557 70.4658 100.836 70.6372C101.716 70.8086 102.63 70.7243 103.46 70.3952C104.29 70.0661 105.001 69.5069 105.5 68.7886C106 68.0704 106.267 67.2253 106.267 66.3608C106.267 66.115 106.368 65.8792 106.549 65.7054C106.73 65.5315 106.975 65.4338 107.23 65.4338C107.485 65.4338 107.73 65.5315 107.911 65.7054C108.092 65.8792 108.193 66.115 108.193 66.3608C108.191 68.0022 107.515 69.5764 106.313 70.7399C105.11 71.9035 103.478 72.562 101.773 72.5717Z" fill="#263238"/>
<path d="M101.619 70.007C95.719 70.007 95.398 57.7336 95.3915 55.2739V55.1998C95.3915 52.7278 95.6933 40.3678 101.619 40.3678C107.545 40.3678 107.955 53.6795 107.988 55.1998L102.852 55.2925C102.841 52.4321 102.409 49.5877 101.568 46.8444C100.812 49.5599 100.457 52.3643 100.515 55.175V55.2492C100.458 58.0745 100.825 60.8929 101.606 63.6169C101.664 63.4377 101.722 63.2399 101.786 62.9989L102.19 61.6579L105.773 62.6652C105.95 62.7149 106.116 62.7978 106.26 62.9093C106.404 63.0207 106.524 63.1585 106.613 63.3146C106.702 63.4708 106.758 63.6423 106.778 63.8193C106.798 63.9963 106.781 64.1753 106.729 64.3462C105.689 68.0974 103.962 70.007 101.619 70.007Z" fill="#BFBFBF" stroke="#263238" stroke-linecap="round" stroke-linejoin="round"/>
<path d="M107.262 67.2878C107.007 67.2878 106.762 67.1902 106.581 67.0163C106.401 66.8425 106.299 66.6067 106.299 66.3608C106.299 65.2101 105.827 64.1059 104.985 63.2887C104.144 62.4715 103.001 62.0075 101.805 61.9978C101.55 61.9978 101.305 61.9001 101.124 61.7262C100.944 61.5524 100.842 61.3166 100.842 61.0708C100.842 60.8249 100.944 60.5891 101.124 60.4153C101.305 60.2414 101.55 60.1438 101.805 60.1438C103.511 60.1552 105.143 60.815 106.345 61.9795C107.548 63.1441 108.224 64.7189 108.225 66.3608C108.225 66.6067 108.124 66.8425 107.943 67.0163C107.763 67.1902 107.518 67.2878 107.262 67.2878Z" fill="#263238"/>
<path d="M132.204 72.5717C130.527 72.5208 128.937 71.8438 127.769 70.684C126.602 69.5243 125.949 67.9727 125.949 66.3578C125.949 64.7428 126.602 63.1913 127.769 62.0315C128.937 60.8717 130.527 60.1947 132.204 60.1438C132.459 60.1438 132.704 60.2414 132.885 60.4153C133.065 60.5891 133.167 60.8249 133.167 61.0708C133.167 61.3166 133.065 61.5524 132.885 61.7262C132.704 61.9001 132.459 61.9978 132.204 61.9978C131.307 61.9978 130.431 62.2537 129.686 62.7331C128.94 63.2125 128.359 63.8939 128.016 64.6912C127.673 65.4884 127.584 66.3657 127.758 67.212C127.933 68.0584 128.365 68.8358 128.999 69.446C129.633 70.0562 130.44 70.4717 131.32 70.6401C132.199 70.8084 133.11 70.722 133.938 70.3918C134.767 70.0616 135.474 69.5023 135.972 68.7848C136.471 68.0673 136.736 67.2238 136.736 66.3608C136.736 66.115 136.838 65.8792 137.018 65.7054C137.199 65.5315 137.444 65.4338 137.699 65.4338C137.955 65.4338 138.2 65.5315 138.38 65.7054C138.561 65.8792 138.662 66.115 138.662 66.3608C138.659 68.0081 137.977 69.5869 136.767 70.7512C135.556 71.9154 133.915 72.5701 132.204 72.5717Z" fill="#263238"/>
<path d="M132.056 70.007C126.156 70.007 125.829 57.7336 125.829 55.2739V55.1998C125.829 52.7278 126.124 40.3678 132.056 40.3678C137.988 40.3678 138.393 53.6795 138.425 55.1998L133.289 55.2925C133.279 52.4321 132.847 49.5876 132.005 46.8444C131.252 49.5603 130.9 52.3647 130.958 55.175V55.2492C130.902 58.0867 131.269 60.9173 132.05 63.654C132.114 63.4748 132.172 63.277 132.236 63.036L132.64 61.6949L136.223 62.7023C136.4 62.752 136.566 62.8349 136.71 62.9464C136.855 63.0578 136.975 63.1955 137.063 63.3517C137.152 63.5078 137.208 63.6793 137.228 63.8563C137.248 64.0334 137.231 64.2124 137.179 64.3832C136.126 68.0974 134.399 70.007 132.056 70.007Z" fill="#BFBFBF" stroke="#263238" stroke-linecap="round" stroke-linejoin="round"/>
<path d="M137.699 67.2878C137.444 67.2878 137.199 67.1902 137.018 67.0163C136.838 66.8425 136.736 66.6067 136.736 66.3608C136.735 65.2042 136.257 64.0954 135.407 63.2775C134.557 62.4596 133.405 61.9994 132.204 61.9978C131.948 61.9978 131.703 61.9001 131.523 61.7262C131.342 61.5524 131.241 61.3166 131.241 61.0708C131.241 60.8249 131.342 60.5891 131.523 60.4153C131.703 60.2414 131.948 60.1438 132.204 60.1438C133.916 60.1454 135.558 60.8009 136.769 61.9665C137.98 63.1321 138.661 64.7125 138.662 66.3608C138.662 66.6067 138.561 66.8425 138.38 67.0163C138.2 67.1902 137.955 67.2878 137.699 67.2878Z" fill="#263238"/>
<path d="M162.641 72.5717C160.964 72.5208 159.374 71.8438 158.206 70.684C157.039 69.5243 156.386 67.9727 156.386 66.3578C156.386 64.7428 157.039 63.1913 158.206 62.0315C159.374 60.8717 160.964 60.1947 162.641 60.1438C162.896 60.1438 163.141 60.2414 163.322 60.4153C163.503 60.5891 163.604 60.8249 163.604 61.0708C163.604 61.3166 163.503 61.5524 163.322 61.7262C163.141 61.9001 162.896 61.9978 162.641 61.9978C161.745 61.9978 160.868 62.2537 160.123 62.7331C159.378 63.2125 158.797 63.8939 158.454 64.6912C158.111 65.4884 158.021 66.3657 158.196 67.212C158.371 68.0584 158.802 68.8358 159.436 69.446C160.07 70.0562 160.878 70.4717 161.757 70.6401C162.636 70.8084 163.547 70.722 164.376 70.3918C165.204 70.0616 165.912 69.5023 166.41 68.7848C166.908 68.0673 167.174 67.2238 167.174 66.3608C167.174 66.115 167.275 65.8792 167.456 65.7054C167.636 65.5315 167.881 65.4338 168.137 65.4338C168.392 65.4338 168.637 65.5315 168.818 65.7054C168.998 65.8792 169.1 66.115 169.1 66.3608C169.096 68.0081 168.414 69.5869 167.204 70.7512C165.993 71.9154 164.352 72.5701 162.641 72.5717Z" fill="#263238"/>
<path d="M162.487 70.007C156.587 70.007 156.266 57.7336 156.26 55.2739V55.1998C156.26 52.7278 156.561 40.3678 162.487 40.3678C168.413 40.3678 168.83 53.6795 168.856 55.1998L163.72 55.2925C163.709 52.4321 163.277 49.5877 162.436 46.8444C161.684 49.5688 161.336 52.3817 161.402 55.1998V55.2739C161.345 58.0992 161.713 60.9176 162.493 63.6416C162.551 63.4624 162.615 63.2647 162.673 63.0236L163.084 61.6826L166.66 62.6899C166.838 62.7396 167.003 62.8226 167.148 62.934C167.292 63.0454 167.412 63.1832 167.501 63.3393C167.589 63.4955 167.645 63.667 167.665 63.844C167.685 64.021 167.669 64.2 167.617 64.3709C166.538 68.0974 164.837 70.007 162.487 70.007Z" fill="#BFBFBF" stroke="#263238" stroke-linecap="round" stroke-linejoin="round"/>
<path d="M168.137 67.2878C167.881 67.2878 167.636 67.1902 167.456 67.0163C167.275 66.8425 167.174 66.6067 167.174 66.3608C167.172 65.2042 166.694 64.0954 165.844 63.2775C164.995 62.4596 163.843 61.9994 162.641 61.9978C162.386 61.9978 162.141 61.9001 161.96 61.7262C161.78 61.5524 161.678 61.3166 161.678 61.0708C161.678 60.8249 161.78 60.5891 161.96 60.4153C162.141 60.2414 162.386 60.1438 162.641 60.1438C164.355 60.1438 165.998 60.7986 167.21 61.9643C168.422 63.1301 169.104 64.7114 169.106 66.3608C169.104 66.6073 169.001 66.843 168.82 67.0167C168.638 67.1904 168.393 67.2878 168.137 67.2878Z" fill="#263238"/>
<path d="M193.078 72.5717C192.213 72.598 191.352 72.4567 190.545 72.1562C189.738 71.8558 189.002 71.4023 188.38 70.8226C187.759 70.243 187.265 69.5491 186.927 68.7821C186.59 68.0151 186.416 67.1907 186.416 66.3578C186.416 65.5248 186.59 64.7004 186.927 63.9334C187.265 63.1664 187.759 62.4725 188.38 61.8929C189.002 61.3132 189.738 60.8597 190.545 60.5593C191.352 60.2588 192.213 60.1175 193.078 60.1438C193.334 60.1438 193.579 60.2414 193.759 60.4153C193.94 60.5891 194.041 60.8249 194.041 61.0708C194.041 61.3166 193.94 61.5524 193.759 61.7262C193.579 61.9001 193.334 61.9978 193.078 61.9978C192.182 61.9965 191.305 62.2514 190.558 62.7301C189.812 63.2087 189.23 63.8897 188.886 64.6869C188.542 65.484 188.452 66.3615 188.626 67.2082C188.8 68.055 189.231 68.833 189.865 69.4438C190.498 70.0546 191.306 70.4708 192.185 70.6396C193.065 70.8085 193.976 70.7224 194.805 70.3924C195.633 70.0623 196.342 69.5031 196.84 68.7855C197.338 68.0678 197.604 67.224 197.604 66.3608C197.604 66.115 197.706 65.8792 197.886 65.7054C198.067 65.5315 198.312 65.4338 198.567 65.4338C198.823 65.4338 199.068 65.5315 199.248 65.7054C199.429 65.8792 199.53 66.115 199.53 66.3608C199.529 68.0076 198.848 69.5864 197.639 70.7508C196.429 71.9152 194.789 72.5701 193.078 72.5717Z" fill="#263238"/>
<path d="M192.924 70.007C187.024 70.007 186.703 57.7336 186.697 55.2739V55.1998C186.697 52.7278 186.999 40.3678 192.924 40.3678C198.85 40.3678 199.28 53.7042 199.28 55.2245L194.144 55.3172C194.13 52.4571 193.698 49.6131 192.86 46.8691C192.101 49.5839 191.746 52.3889 191.807 55.1998V55.2739C191.759 58.104 192.133 60.9261 192.918 63.654C192.982 63.4748 193.04 63.277 193.104 63.036L193.508 61.6949L197.091 62.7023C197.268 62.752 197.434 62.8349 197.578 62.9464C197.723 63.0578 197.843 63.1955 197.931 63.3517C198.02 63.5078 198.076 63.6793 198.096 63.8563C198.116 64.0334 198.099 64.2124 198.047 64.3832C196.994 68.0974 195.268 70.007 192.924 70.007Z" fill="#BFBFBF" stroke="#263238" stroke-linecap="round" stroke-linejoin="round"/>
<path d="M198.567 67.2878C198.312 67.2878 198.067 67.1902 197.886 67.0163C197.706 66.8425 197.604 66.6067 197.604 66.3608C197.604 65.2047 197.128 64.0959 196.279 63.2779C195.431 62.4598 194.279 61.9994 193.078 61.9978C192.823 61.9978 192.578 61.9001 192.397 61.7262C192.217 61.5524 192.115 61.3166 192.115 61.0708C192.115 60.8249 192.217 60.5891 192.397 60.4153C192.578 60.2414 192.823 60.1438 193.078 60.1438C194.79 60.147 196.43 60.8033 197.639 61.9687C198.849 63.1341 199.529 64.7135 199.53 66.3608C199.53 66.6067 199.429 66.8425 199.248 67.0163C199.068 67.1902 198.823 67.2878 198.567 67.2878Z" fill="#263238"/>
<path d="M226.579 211.309C229.561 198.825 221.466 186.378 208.497 183.508C195.529 180.637 182.599 188.43 179.616 200.914C176.634 213.397 184.73 225.844 197.698 228.715C210.667 231.586 223.597 223.793 226.579 211.309Z" fill="#43639F" stroke="#263238" stroke-miterlimit="10"/>
<path d="M217.16 206.122C217.161 206.406 217.103 206.687 216.99 206.95C216.878 207.213 216.712 207.452 216.503 207.653C216.295 207.854 216.047 208.013 215.774 208.122C215.501 208.23 215.208 208.285 214.913 208.285H205.353V217.493C205.353 218.066 205.117 218.617 204.695 219.022C204.274 219.428 203.702 219.656 203.106 219.656C202.51 219.656 201.939 219.428 201.517 219.022C201.096 218.617 200.859 218.066 200.859 217.493V208.266H191.3C190.704 208.266 190.132 208.038 189.711 207.632C189.29 207.227 189.053 206.677 189.053 206.103C189.053 205.529 189.29 204.979 189.711 204.574C190.132 204.168 190.704 203.94 191.3 203.94H200.859V194.757C200.859 194.183 201.096 193.633 201.517 193.227C201.939 192.821 202.51 192.594 203.106 192.594C203.702 192.594 204.274 192.821 204.695 193.227C205.117 193.633 205.353 194.183 205.353 194.757V203.94H214.913C215.209 203.94 215.503 203.997 215.777 204.106C216.051 204.216 216.3 204.377 216.508 204.58C216.717 204.783 216.882 205.024 216.994 205.288C217.106 205.553 217.162 205.836 217.16 206.122Z" fill="white"/>
<path d="M87.572 130.274C87.572 130.274 89.5493 141.213 89.1706 142.573C88.7919 143.536 88.1208 144.367 87.2446 144.958L91.6744 155.093V147.164C91.6744 147.164 92.8942 128.81 93.0418 120.59C93.1046 116.51 92.9395 112.43 92.5475 108.366L90.4481 108.694C90.4481 108.694 88.0406 125.868 87.572 130.274Z" fill="white" stroke="#263238" stroke-linecap="round" stroke-linejoin="round"/>
<path d="M78.3143 263.219L77.0817 254.492L68.8962 253.874L69.8528 263.41C71.0576 264.35 72.5701 264.846 74.1201 264.811C75.6701 264.776 77.1567 264.211 78.3143 263.219Z" fill="white" stroke="#263238" stroke-linecap="round" stroke-linejoin="round"/>
<path d="M69.3199 262.304C69.0503 264.455 68.7871 266.716 69.4291 268.774C70.0711 270.832 71.9521 272.569 73.8011 272.062C74.2248 271.951 74.6293 271.722 75.0851 271.648C75.9069 271.512 76.7158 271.932 77.4862 272.297C82.1599 274.516 94.3451 273.564 95.3081 273.076C95.5859 272.915 95.8119 272.683 95.9609 272.406C96.1099 272.128 96.1762 271.817 96.1522 271.506C96.1283 271.194 96.0151 270.895 95.8252 270.642C95.6354 270.389 95.3764 270.192 95.077 270.072C89.4852 267.52 89.8447 268.163 80.6127 263.126C78.9564 262.224 77.9741 262.656 77.1395 263.484C76.5919 264.001 75.9264 264.386 75.1964 264.611C74.4663 264.836 73.6918 264.893 72.9346 264.778C72.1775 264.664 71.4586 264.38 70.8355 263.951C70.2123 263.521 69.7022 262.957 69.3456 262.304H69.3199Z" fill="#263238"/>
<path d="M77.7751 243.492C73.5956 248.492 68.3633 254.894 68.3633 254.894L64.5884 247.07C64.5884 247.07 73.3581 237.046 77.8585 226.472C77.8585 228.543 78.0319 230.798 78.0896 232.09C78.2437 235.996 77.8393 239.605 77.7751 243.492Z" fill="#263238"/>
<path d="M68.9026 264.671C68.8833 265.001 68.7474 265.315 68.5174 265.561C67.7984 266.179 67.0023 265.06 66.3988 264.325C64.544 261.951 62.8725 259.45 61.3977 256.841L60.929 252.818L59.5551 253.368H59.3818L58.9837 252.694C55.9407 247.577 59.5744 246.582 63.4456 246.749C63.8886 246.749 64.8131 246.86 66.3025 249.61C66.7031 250.245 67.0612 250.903 67.3747 251.582C69.1009 255.732 69.6289 260.255 68.9026 264.671Z" fill="#263238"/>
<path d="M92.8043 159.364C92.6608 157.144 92.6394 154.918 92.7401 152.695C92.7823 150.963 92.4079 149.244 91.6462 147.673C90.8844 146.103 89.756 144.723 88.3488 143.642C88.3488 143.642 84.9847 147.968 75.374 147.968H74.8925C70.6122 147.868 66.3677 147.19 62.2836 145.953C60.5525 145.431 58.8547 144.812 57.199 144.099C57.199 144.099 57.3916 156.459 57.796 167.948C58.1427 177.063 60.5823 218.006 62.1231 231.033C63.4071 241.885 67.2206 252.601 67.6764 257.23C67.8947 259.412 73.0114 258.732 75.4575 257.891C78.6675 256.785 78.8921 256.13 78.8921 256.13C79.104 252.768 78.1731 246.86 78.2501 243.517C87.007 233.011 100.63 216.387 101.015 213.822C103.988 193.897 93.1253 161.428 92.8043 159.364ZM84.4262 210.658C84.2015 212.005 81.2932 219.062 78.0062 226.769C78.0062 223.358 79.5727 219.804 80.0349 214.298C80.9144 203.705 78.6803 192.05 78.9949 183.54C80.7732 190.857 84.8371 208.13 84.4262 210.633V210.658Z" fill="#263238"/>
<path d="M98.1714 216.955C96.7702 218.104 95.1342 218.956 93.3693 219.458" stroke="#BFBFBF" stroke-linecap="round" stroke-linejoin="round"/>
<path d="M100.136 214.959C99.8599 215.31 99.5642 215.646 99.2499 215.966" stroke="#BFBFBF" stroke-linecap="round" stroke-linejoin="round"/>
<path d="M80.9786 151.731C81.8582 156.237 81.9994 162.324 80.0798 166.514C79.6005 167.231 79.0288 167.887 78.3785 168.467" stroke="#BFBFBF" stroke-linecap="round" stroke-linejoin="round"/>
<path d="M65.8146 151.249C65.2946 153.412 64.3573 156.978 63.1375 158.863C61.9673 160.809 60.0448 162.231 57.7896 162.818" stroke="#BFBFBF" stroke-linecap="round" stroke-linejoin="round"/>
<path d="M77.666 155.81C78.3401 163.115 78.3079 170.203 79.0334 182.483" stroke="#BFBFBF" stroke-linecap="round" stroke-linejoin="round"/>
<path d="M77.2551 152.028C77.3257 152.609 77.3963 153.184 77.4605 153.752" stroke="white" stroke-linecap="round" stroke-linejoin="round"/>
<path d="M84.4583 208.662C84.8958 211.67 85.7801 214.603 87.084 217.369" stroke="#BFBFBF" stroke-linecap="round" stroke-linejoin="round"/>
<path d="M85.004 211.492C84.4405 215.78 84.6863 220.13 85.7295 224.334" stroke="#BFBFBF" stroke-linecap="round" stroke-linejoin="round"/>
<path d="M59.767 162.077C60.9418 178.923 62.5725 191.741 63.8758 204.533" stroke="#BFBFBF" stroke-linecap="round" stroke-linejoin="round"/>
<path d="M63.9207 208.977C63.9207 208.451 63.9207 207.914 63.9207 207.376" stroke="#BFBFBF" stroke-linecap="round" stroke-linejoin="round"/>
<path d="M71.4321 258.398C70.5269 255.698 64.2738 234.914 63.9785 226.293C63.7795 220.577 63.5419 216.504 63.8437 210.979" stroke="#BFBFBF" stroke-linecap="round" stroke-linejoin="round"/>
<path d="M78.5262 224.822L78.3015 243.43" stroke="#BFBFBF" stroke-linecap="round" stroke-linejoin="round"/>
<path d="M91.2442 96.7912C89.7419 89.3752 84.6252 88.4111 83.4632 88.0588C75.4574 85.6301 69.9812 85.2222 63.6511 87.892C56.236 91.0314 54.7465 91.1426 52.461 99.2879C51.177 103.744 53.7001 118.749 55.2023 125.281C56.4029 130.478 56.1011 143.945 58.4123 146.101C62.7009 150.1 68.7806 149.525 74.6614 148.524C79.7524 147.653 88.2525 146.491 90.1849 141.874C90.461 141.213 90.4353 138.42 90.339 134.39C90.0308 122.197 90.8783 115.201 90.7499 107.396L92.4704 106.63C92.4704 106.63 92.6181 103.546 91.2442 96.7912Z" fill="#43639F"/>
<mask id="mask0_349_1376" style="mask-type:luminance" maskUnits="userSpaceOnUse" x="52" y="86" width="41" height="64">
<path d="M91.2442 96.7912C89.7419 89.3752 84.6252 88.4111 83.4632 88.0588C75.4574 85.6301 69.9812 85.2222 63.6511 87.892C56.236 91.0314 54.7465 91.1426 52.461 99.2879C51.177 103.744 53.7001 118.749 55.2023 125.281C56.4029 130.478 56.1011 143.945 58.4123 146.101C62.7009 150.1 68.7806 149.525 74.6614 148.524C79.7524 147.653 88.2525 146.491 90.1849 141.874C90.461 141.213 90.4353 138.42 90.339 134.39C90.0308 122.197 90.8783 115.201 90.7499 107.396L92.4704 106.63C92.4704 106.63 92.6181 103.546 91.2442 96.7912Z" fill="white"/>
</mask>
<g mask="url(#mask0_349_1376)">
<path opacity="0.2" d="M54.1879 112.649C54.4126 115.17 53.5459 117.877 54.6823 120.145C54.982 120.789 55.4732 121.332 56.0938 121.706C56.7144 122.08 57.4365 122.268 58.1683 122.247C59.08 122.154 59.9403 121.629 60.8519 121.727C62.0203 121.845 62.8228 122.877 63.5098 123.798C64.9463 125.93 66.7866 127.783 68.9347 129.261C71.1367 130.651 73.9359 131.35 76.4589 130.62C75.7923 131.671 75.041 132.669 74.2119 133.605C75.6115 133.105 78.7059 130.936 81.4152 130.923L90.0629 130.868C90.6215 129.125 89.3246 127.215 87.604 126.443C85.8835 125.67 83.8933 125.769 82.0122 126.016C80.1312 126.264 78.2308 126.634 76.3562 126.387C73.8454 125.931 71.5842 124.633 69.9747 122.722C68.3859 120.821 67.0348 118.747 65.9494 116.542C65.4807 117.395 64.1839 117.5 63.3108 117.037C62.486 116.491 61.7974 115.775 61.2949 114.942C59.5807 112.612 56.3001 108.731 53.2763 108.101C52.7755 109.343 54.066 111.277 54.1879 112.649Z" fill="black"/>
<path opacity="0.2" d="M80.7732 125.028C84.1244 123.792 86.3714 120.59 87.3409 117.253C87.9187 115.238 89.2219 109.707 87.771 107.983C86.686 110.882 85.9349 113.885 84.76 116.765C84.1565 118.236 83.5145 119.688 82.834 121.091C82.4873 121.777 81.4794 124.762 80.7732 125.028Z" fill="black"/>
<path opacity="0.2" d="M56.5633 134.434C58.714 139.421 63.6703 142.962 69.0502 144.488C74.4302 146.015 80.6961 145.959 86.2109 144.958C79.1039 148.833 69.6794 149.21 62.0717 146.349C60.7042 145.836 59.3432 146.429 58.3352 145.397C56.024 143.036 56.1268 138.154 56.4092 134.891L55.1252 134.946" fill="black"/>
<path opacity="0.2" d="M70.7066 95.4192C70.9508 95.7722 71.3133 96.034 71.7338 96.1608C71.979 96.1844 72.2264 96.146 72.4515 96.0496C72.6766 95.9531 72.8718 95.8019 73.0178 95.6108C73.309 95.2219 73.5626 94.8082 73.7753 94.3748C74.3877 93.3274 75.3359 92.4992 76.4782 92.014C77.0985 93.4498 78.0361 94.7383 79.2259 95.79H79.624C80.2454 94.3505 80.4215 92.7689 80.1311 91.2353C80.0762 91.432 79.9786 91.6152 79.8447 91.7729C79.7108 91.9305 79.5436 92.0591 79.3543 92.15C79.0527 91.5233 78.6544 90.9441 78.173 90.4319C77.9295 90.1783 77.6302 89.9801 77.297 89.8518C76.9638 89.7235 76.6052 89.6684 76.247 89.6903C75.9444 89.737 75.6516 89.831 75.3803 89.9684C73.5956 90.8027 72.3373 92.4404 71.3935 94.0905C70.0668 93.1524 68.6841 92.2898 67.2526 91.5073C68.3119 92.8298 69.5446 94.109 70.7066 95.4192Z" fill="black"/>
</g>
<path d="M91.2442 96.7912C89.7419 89.3752 84.6252 88.4111 83.4632 88.0588C75.4574 85.6301 69.9812 85.2222 63.6511 87.892C56.236 91.0314 54.7465 91.1426 52.461 99.2879C51.177 103.744 53.7001 118.749 55.2023 125.281C56.4029 130.478 56.1011 143.945 58.4123 146.101C62.7009 150.1 68.7806 149.525 74.6614 148.524C79.7524 147.653 88.2525 146.491 90.1849 141.874C90.461 141.213 90.4353 138.42 90.339 134.39C90.0308 122.197 90.8783 115.201 90.7499 107.396L92.4704 106.63C92.4704 106.63 92.6181 103.546 91.2442 96.7912Z" stroke="#263238" stroke-miterlimit="10"/>
<path d="M78.0961 86.4149C79.0597 86.4137 79.9998 86.128 80.7896 85.5965C81.5794 85.065 82.1809 84.3131 82.513 83.4424C83.4375 80.9704 83.8677 73.097 83.8677 71.6633C83.8677 70.2295 82.6928 67.3373 82.4553 65.6934C82.2177 64.0495 81.1713 60.6258 81.1713 60.6258L78.0576 57.7336L73.7754 59.4763L67.7149 60.2488C67.7149 60.2488 66.585 69.7104 65.0378 68.1901C63.4906 66.6698 58.8168 68.6227 59.1057 72.2071C59.3946 75.7915 64.1583 75.7421 64.1583 75.7421C64.1583 75.7421 65.3395 76.8607 66.0457 80.5872C66.4875 82.9047 66.5027 85.2789 66.0907 87.6015C66.8541 88.5051 67.8443 89.2064 68.9677 89.6389C70.0911 90.0715 71.3105 90.2211 72.5107 90.0735C76.6131 89.5729 77.0047 86.8908 77.0047 86.8908C77.0047 86.8908 77.056 86.4397 78.0961 86.4149Z" fill="white"/>
<path d="M64.2289 70.5076C63.3172 69.2716 60.043 67.2693 59.247 71.4593C58.4509 75.6494 62.7972 75.3836 65.0763 75.9028C66.784 78.6405 70.2123 83.2384 73.1013 84.6784C74.8925 85.5745 77.1331 86.6127 79.2453 86.3779C81.3574 86.143 82.1985 84.9256 82.6093 83.0036C83.1783 80.4233 83.5495 77.8062 83.72 75.1735C83.8227 73.4987 84.1245 71.2554 83.4183 69.6671C82.4039 67.3744 82.6222 64.7231 81.8454 62.3809C81.0685 60.0387 78.9628 58.3207 77.0111 56.8189" stroke="#263238" stroke-linecap="round" stroke-linejoin="round"/>
<path d="M72.0549 68.975C73.3902 68.1778 74.5522 67.8317 75.6757 68.975C75.9903 68.975 76.7158 67.739 76.7158 67.739C76.3844 67.3501 75.9376 67.0678 75.4352 66.9298C74.9327 66.7918 74.3985 66.8046 73.9038 66.9665C71.9457 67.4238 72.0549 68.975 72.0549 68.975Z" fill="#263238"/>
<path d="M75.0273 78.2759C75.9453 79.549 76.9212 79.9383 78.6417 79.7962" stroke="#263238" stroke-linecap="round" stroke-linejoin="round"/>
<path d="M74.366 70.9279C74.6614 70.9279 74.9503 71.3543 75.008 71.9414C75.0658 72.5285 74.8604 73.0229 74.5586 73.0414C74.2569 73.06 73.9744 72.6088 73.9166 72.0279C73.8589 71.447 74.09 70.9526 74.366 70.9279Z" fill="#263238"/>
<path d="M80.8759 70.0997C81.1841 70.0997 81.473 70.52 81.5179 71.1071C81.5629 71.6942 81.3767 72.1948 81.0685 72.2195C80.7604 72.2442 80.4779 71.7869 80.4265 71.206C80.3752 70.625 80.5742 70.1306 80.8759 70.0997Z" fill="#263238"/>
<path d="M80.1569 68.2952C80.1569 68.2952 81.6335 67.603 82.2241 68.1036C82.2241 68.1036 82.6479 66.6884 81.5308 66.3608C81.252 66.2493 80.9401 66.2413 80.6555 66.3383C80.3708 66.4353 80.1337 66.6305 79.99 66.8861L80.0349 68.4126L80.1569 68.2952Z" fill="#263238"/>
<path d="M77.0945 86.2913C77.133 86.2913 76.8185 88.6459 75.8105 89.3072C75.1363 89.8773 74.2683 90.1895 73.3709 90.1847C71.2973 90.3578 67.1949 89.3134 66.1099 87.6015C66.5084 85.9121 66.5716 84.1655 66.2961 82.4536C66.1099 80.2353 65.6926 78.0407 65.0506 75.9028C65.0506 75.9028 70.4241 85.525 77.0945 86.2913Z" stroke="#263238" stroke-linecap="round" stroke-linejoin="round"/>
<path d="M66.6043 85.8278C65.1919 86.1492 64.0363 86.2234 63.7281 87.1565C63.5227 87.7745 63.9913 88.3184 64.4921 88.8313C66.574 90.9096 68.9726 92.6705 71.6055 94.0534C72.7604 92.3794 74.1791 90.8886 75.8105 89.6347C72.7601 89.067 69.8642 87.8993 67.304 86.2048L66.6043 85.8278Z" fill="white" stroke="#263238" stroke-linecap="round" stroke-linejoin="round"/>
<path d="M77.1331 86.4767C77.5466 86.486 77.952 86.5887 78.3167 86.7766C78.6813 86.9644 78.995 87.2322 79.2324 87.5582C79.8359 88.2195 80.3238 90.9325 79.7075 92.6567C78.3336 91.1241 77.4862 88.8066 75.5024 89.4061C77.056 88.9364 77.1331 86.4767 77.1331 86.4767Z" fill="white" stroke="#263238" stroke-linecap="round" stroke-linejoin="round"/>
<path d="M66.386 77.868C66.386 77.868 68.9925 87.1009 71.9521 87.9785C72.8222 88.2143 73.7445 88.2039 74.6086 87.9486C75.4727 87.6932 76.2421 87.2037 76.8249 86.5385C71.3615 84.8205 66.386 77.868 66.386 77.868Z" fill="#263238"/>
<path d="M68.8577 67.2384C67.0537 68.2952 65.8082 71.4593 67.105 73.1156C68.4019 74.7718 67.0665 75.7544 66.463 76.3168C66.0031 75.4338 65.6021 74.5235 65.2625 73.5914C64.8709 72.4914 64.9094 71.5273 64.2674 70.5447C63.9143 70.0009 62.2836 69.1295 61.6352 68.9626C60.6786 68.7154 59.7092 69.7104 59.401 70.6189C59.1808 71.5544 59.2118 72.5285 59.4909 73.4493C58.2069 72.1206 58.1042 71.7498 57.9758 69.9576C57.9901 68.9793 57.9429 68.0011 57.8345 67.0283C57.6291 66.0148 57.0962 65.0754 56.955 64.0557C56.711 62.2573 57.7061 60.5455 58.6691 58.9881C59.5105 57.4415 60.6101 56.0385 61.9241 54.8351C63.1452 53.9116 64.522 53.1967 65.9944 52.7216C69.2814 51.5288 72.8381 50.7749 76.3113 51.2816C79.7845 51.7884 83.1679 53.7536 84.6573 56.7818C85.227 57.7986 85.3979 58.9787 85.1388 60.1067C84.9712 60.6748 84.6496 61.1898 84.2072 61.5989C83.7647 62.008 83.2172 62.2966 82.6207 62.4349C82.0243 62.5733 81.4003 62.5565 80.8128 62.3863C80.2253 62.2161 79.6954 61.8985 79.2773 61.4663C79.9924 61.6386 80.7473 61.5688 81.4152 61.2685C81.7444 61.1129 82.0237 60.8745 82.2238 60.5786C82.4238 60.2827 82.537 59.9403 82.5515 59.5876C82.5376 59.3549 82.4714 59.1279 82.3576 58.9222C82.2438 58.7165 82.085 58.537 81.8922 58.396C81.6994 58.2551 81.4771 58.156 81.2407 58.1057C81.0043 58.0553 80.7594 58.0549 80.5228 58.1044C80.296 58.1829 80.091 58.3108 79.9239 58.478C79.7568 58.6453 79.632 58.8474 79.5593 59.0687C79.4866 59.29 79.468 59.5244 79.5048 59.7537C79.5416 59.9831 79.633 60.2012 79.7717 60.391L78.661 59.8533L78.539 60.564L77.255 59.6926L77.1587 60.3106C76.5681 60.082 72.4208 60.3106 71.002 60.4589C70.2906 60.5256 69.5876 60.6581 68.9026 60.8545C68.1322 61.0769 67.9139 61.1511 67.7727 61.9298C67.3747 64.1731 66.8803 65.9839 68.8577 67.2384Z" fill="#263238"/>
<path d="M69.352 56.1762C69.2317 56.2821 69.1382 56.4132 69.0787 56.5593C69.0193 56.7055 68.9955 56.8628 69.0091 57.0192C69.0228 57.1756 69.0735 57.3269 69.1574 57.4615C69.2414 57.596 69.3563 57.7103 69.4933 57.7954" stroke="#BFBFBF" stroke-linecap="round" stroke-linejoin="round"/>
<path d="M70.6553 56.4481C70.5742 56.5629 70.5308 56.6986 70.5308 56.8375C70.5308 56.9763 70.5742 57.112 70.6553 57.2268" stroke="#BFBFBF" stroke-linecap="round" stroke-linejoin="round"/>
<path d="M71.997 56.4419C71.9264 56.6953 71.8494 56.9549 71.7723 57.2083" stroke="#BFBFBF" stroke-linecap="round" stroke-linejoin="round"/>
<path d="M75.374 55.8116C75.1167 56.0004 74.9241 56.2591 74.8211 56.5544C74.7181 56.8496 74.7094 57.1678 74.7962 57.4678" stroke="#BFBFBF" stroke-linecap="round" stroke-linejoin="round"/>
<path d="M76.2599 57.5914C76.2178 57.195 76.3296 56.7976 76.5738 56.4758C76.818 56.154 77.1773 55.9306 77.5824 55.8487" stroke="#BFBFBF" stroke-linecap="round" stroke-linejoin="round"/>
<path d="M77.4861 57.7212C77.7656 57.1613 78.2024 56.6879 78.7471 56.3548C79.2917 56.0216 79.9225 55.842 80.5677 55.8363" stroke="#BFBFBF" stroke-linecap="round" stroke-linejoin="round"/>
<path d="M78.5455 58.265C78.7661 57.8998 79.072 57.589 79.4389 57.3571C79.8058 57.1252 80.2236 56.9786 80.6595 56.9288C81.0953 56.8791 81.5372 56.9276 81.9503 57.0705C82.3633 57.2133 82.7362 57.4467 83.0395 57.7521" stroke="#BFBFBF" stroke-linecap="round" stroke-linejoin="round"/>
<path d="M65.8338 57.3566C65.7479 57.4799 65.6913 57.6201 65.6682 57.767C65.6451 57.9139 65.656 58.0638 65.7002 58.2062C65.7443 58.3485 65.8207 58.4797 65.9237 58.5903C66.0267 58.7009 66.1539 58.7882 66.2961 58.846" stroke="#BFBFBF" stroke-linecap="round" stroke-linejoin="round"/>
<path d="M67.7535 55.5026C67.3795 56.1005 67.2492 56.8107 67.388 57.4957C67.5268 58.1807 67.9246 58.7918 68.5046 59.2106" stroke="#BFBFBF" stroke-linecap="round" stroke-linejoin="round"/>
<path d="M64.1904 58.401C64.156 58.5026 64.146 58.6104 64.1613 58.7162C64.1766 58.822 64.2167 58.9231 64.2785 59.0118C64.3404 59.1005 64.4224 59.1745 64.5183 59.2282C64.6143 59.282 64.7217 59.314 64.8324 59.3218" stroke="#BFBFBF" stroke-linecap="round" stroke-linejoin="round"/>
<path d="M62.7266 59.2786C62.6896 59.4145 62.7074 59.5589 62.7765 59.6827C62.8455 59.8066 62.9608 59.9006 63.0989 59.946" stroke="#BFBFBF" stroke-linecap="round" stroke-linejoin="round"/>
<path d="M61.4298 60.1561C61.415 60.1946 61.4091 60.2357 61.4124 60.2765C61.4157 60.3174 61.4281 60.3571 61.4489 60.3929C61.4696 60.4287 61.4981 60.4598 61.5325 60.484C61.5669 60.5082 61.6063 60.5249 61.648 60.5331" stroke="#BFBFBF" stroke-linecap="round" stroke-linejoin="round"/>
<path d="M88.1369 106.043C88.4515 116.666 87.129 127.778 74.0129 133.655" stroke="#263238" stroke-linecap="round" stroke-linejoin="round"/>
<path d="M68.6394 138.5C74.3544 140.002 80.3201 140.409 86.1981 139.699" stroke="#263238" stroke-linecap="round" stroke-linejoin="round"/>
<path d="M64.1133 137.06C64.8644 137.338 65.622 137.604 66.386 137.845" stroke="#263238" stroke-linecap="round" stroke-linejoin="round"/>
<path d="M133.347 122.858C133.371 122.597 133.329 122.335 133.226 122.092C133.122 121.85 132.96 121.635 132.753 121.465C132.545 121.296 132.298 121.177 132.033 121.118C131.768 121.059 131.492 121.063 131.228 121.128C131.228 121.19 131.087 121.208 131.1 121.264C131.596 121.638 131.985 122.127 132.229 122.685C132.602 122.71 132.974 122.846 133.347 122.858Z" stroke="#263238" stroke-linecap="round" stroke-linejoin="round"/>
<path d="M132.666 123.952C132.249 122.804 131.653 121.722 130.901 120.745C128.544 119.002 129.572 118.44 125.007 117.655C125.007 117.704 116.186 119.849 111.384 121.981C111.384 121.981 79.8038 118.384 79.8038 118.094L74.9246 111.914L61.1922 113.972C61.1922 113.972 68.5174 125.423 74.0322 128.359C74.0322 128.359 100.354 127.741 108.893 127.697C113.534 127.697 116.141 129.972 120.706 125.058C120.706 125.058 123.197 127.425 124.68 126.746C125.655 126.486 122.484 123.915 121.399 123.075C121.746 123.266 126.625 126.511 129.34 126.603C129.47 126.61 129.597 126.575 129.704 126.504C129.81 126.433 129.889 126.33 129.928 126.211C129.967 126.092 129.964 125.964 129.919 125.848C129.874 125.731 129.79 125.631 129.681 125.565C129.681 125.565 122.927 121.919 123.261 121.456C123.261 121.456 127.004 122.753 127.601 123.551C130.098 126.851 131.787 125.695 132.024 125.497C132.512 125.089 131.831 124.719 131.831 124.335C131.78 124.342 132.782 124.62 132.666 123.952Z" fill="white" stroke="#263238" stroke-linecap="round" stroke-linejoin="round"/>
<path d="M125.572 119.849C126.907 120.355 128.782 121.159 129.674 122.24C131.408 124.342 131.78 124.342 131.78 124.342" stroke="#263238" stroke-linecap="round" stroke-linejoin="round"/>
<path d="M55.6261 92.2056C55.6261 92.2056 51.376 95.9136 52.5766 105.715C53.2186 110.709 59.4396 119.002 59.4396 119.002L76.3691 113.829C76.3691 113.829 72.3694 105.128 68.1322 99.2508" stroke="#263238" stroke-miterlimit="10"/>
<path d="M70.88 99.0716C71.9787 101.511 72.6074 104.122 72.7354 106.778" stroke="#263238" stroke-linecap="round" stroke-linejoin="round"/>
<path d="M80.4201 67.9306C80.4201 67.9676 78.7766 70.4026 79.2902 71.0824C81.3318 73.6656 81.6142 76.7185 80.7219 76.8607C79.5406 77.0399 78.661 76.1252 78.1539 75.7915" stroke="#263238" stroke-linecap="round" stroke-linejoin="round"/>
<path d="M54.4062 115.479L57.7575 119.521L76.3755 113.829L74.09 109.312C74.09 109.312 54.0596 115.479 54.4062 115.479Z" fill="white" stroke="#263238" stroke-linecap="round" stroke-linejoin="round"/>
<path d="M76.7158 89.7089C76.7158 89.6038 79.0013 101.494 79.0013 101.494L77.4797 101.834" stroke="#263238" stroke-linecap="round" stroke-linejoin="round"/>
<path d="M90.782 105.449L93.228 104.578L93.3821 108.249L90.7371 109.194L90.782 105.449Z" fill="white" stroke="#263238" stroke-linecap="round" stroke-linejoin="round"/>
<path d="M89.4338 99.0654C90.1082 102.375 90.5586 105.723 90.782 109.089L89.4338 99.0654Z" fill="white"/>
<path d="M89.4338 99.0654C90.1082 102.375 90.5586 105.723 90.782 109.089" stroke="#263238" stroke-linecap="round" stroke-linejoin="round"/>
<path d="M88.6505 95.0299C88.7918 95.8085 88.933 96.5501 89.0807 97.2856L88.6505 95.0299Z" fill="white"/>
<path d="M88.6505 95.0299C88.7918 95.8085 88.933 96.5501 89.0807 97.2856" stroke="#263238" stroke-linecap="round" stroke-linejoin="round"/>
</svg>
