<svg width="69" height="69" viewBox="0 0 69 69" fill="none" xmlns="http://www.w3.org/2000/svg">
<path d="M34.3323 68.6C26.2195 68.6076 18.3667 65.7394 12.1686 60.5048C5.97059 55.2702 1.82861 48.0081 0.47843 40.0085C-0.871755 32.0088 0.657272 23.7896 4.79391 16.8107C8.93054 9.83179 15.407 4.54504 23.0728 1.88953C30.7386 -0.765981 39.0976 -0.618339 46.6649 2.30623C54.2322 5.2308 60.5179 10.743 64.4055 17.8636C68.2931 24.9842 69.5309 33.2524 67.899 41.1993C66.2672 49.1462 61.8713 56.2575 55.4923 61.27C49.4595 66.0153 42.0077 68.5966 34.3323 68.6ZM34.3323 1.04998C27.4106 1.04649 20.6602 3.2019 15.0213 7.21597C9.38246 11.23 5.13594 16.9029 2.8733 23.4443C0.610657 29.9857 0.444564 37.0699 2.39815 43.7102C4.35174 50.3504 8.32773 56.2161 13.7723 60.49C19.6196 65.1256 26.8705 67.6331 34.3323 67.6C43.0575 67.4487 51.3742 63.8765 57.491 57.6527C63.6079 51.4288 67.0354 43.0515 67.0354 34.325C67.0354 25.5985 63.6079 17.2211 57.491 10.9973C51.3742 4.7735 43.0575 1.20125 34.3323 1.04998Z" fill="#263238"/>
<path d="M48.4323 29.04C48.4343 26.2484 47.6081 23.519 46.0585 21.1971C44.5088 18.8752 42.3052 17.0652 39.7266 15.996C37.1479 14.9268 34.31 14.6465 31.572 15.1906C28.834 15.7347 26.3189 17.0788 24.345 19.0527C22.3711 21.0266 21.027 23.5417 20.4829 26.2797C19.9388 29.0177 20.2191 31.8556 21.2883 34.4343C22.3575 37.0129 24.1675 39.2165 26.4894 40.7662C28.8113 42.3159 31.5407 43.142 34.3323 43.14C38.0718 43.14 41.6582 41.6545 44.3025 39.0102C46.9468 36.3659 48.4323 32.7795 48.4323 29.04Z" fill="#597BCC"/>
<path d="M34.3323 43.64C31.4447 43.64 28.6219 42.7837 26.221 41.1795C23.82 39.5752 21.9487 37.295 20.8437 34.6272C19.7386 31.9594 19.4495 29.0238 20.0128 26.1917C20.5762 23.3596 21.9667 20.7581 24.0085 18.7162C26.0504 16.6744 28.6519 15.2839 31.484 14.7205C34.3161 14.1572 37.2517 14.4463 39.9195 15.5514C42.5873 16.6564 44.8675 18.5277 46.4718 20.9287C48.076 23.3296 48.9323 26.1524 48.9323 29.04C48.9244 32.9097 47.3836 36.6187 44.6473 39.355C41.911 42.0913 38.202 43.6321 34.3323 43.64ZM34.3323 15.44C31.6425 15.44 29.0131 16.2376 26.7765 17.732C24.54 19.2264 22.7969 21.3504 21.7675 23.8355C20.7382 26.3206 20.4689 29.0551 20.9936 31.6932C21.5184 34.3314 22.8137 36.7547 24.7156 38.6567C26.6176 40.5587 29.0409 41.8539 31.6791 42.3787C34.3172 42.9034 37.0517 42.6341 39.5368 41.6048C42.0219 40.5754 44.1459 38.8323 45.6403 36.5958C47.1347 34.3593 47.9323 31.7298 47.9323 29.04C47.927 25.4347 46.4925 21.9785 43.9431 19.4292C41.3938 16.8799 37.9376 15.4453 34.3323 15.44Z" fill="#263238"/>
<path d="M55.1923 60.88C49.2453 65.5579 41.8986 68.1012 34.3323 68.1012C26.766 68.1012 19.4192 65.5579 13.4723 60.88C14.5191 56.1271 17.1577 51.8743 20.9512 48.8254C24.7446 45.7766 29.4655 44.1146 34.3323 44.1146C39.1991 44.1146 43.92 45.7766 47.7134 48.8254C51.5069 51.8743 54.1454 56.1271 55.1923 60.88Z" fill="#597BCC"/>
<path d="M34.3615 68.0095C26.6826 68.0084 19.2269 65.4269 13.1915 60.6795C13.1175 60.6215 13.0614 60.5438 13.0296 60.4554C12.9977 60.367 12.9915 60.2713 13.0115 60.1795C14.0767 55.3111 16.7743 50.9531 20.6566 47.8284C24.539 44.7036 29.3729 43 34.3565 43C39.3401 43 44.174 44.7036 48.0563 47.8284C51.9387 50.9531 54.6362 55.3111 55.7015 60.1795C55.7226 60.2704 55.7179 60.3654 55.6879 60.4538C55.6578 60.5421 55.6037 60.6203 55.5315 60.6795C49.4953 65.4255 42.0401 68.0069 34.3615 68.0095ZM14.0515 60.1195C19.855 64.6365 27.0074 67.0735 34.3615 67.0395C41.7068 67.0384 48.8449 64.6051 54.6615 60.1195C53.5842 55.5432 50.9926 51.465 47.307 48.5462C43.6214 45.6275 39.0579 44.0393 34.3565 44.0393C29.6551 44.0393 25.0916 45.6275 21.4059 48.5462C17.7203 51.465 15.1288 55.5432 14.0515 60.1195Z" fill="#263238"/>
</svg>
