<svg width="219" height="206" viewBox="0 0 219 206" fill="none" xmlns="http://www.w3.org/2000/svg">
<circle cx="116" cy="103" r="103" fill="#4464A0" fill-opacity="0.38"/>
<path d="M43.0934 187.697C82.6618 211.605 146.81 211.605 186.373 187.697C225.937 163.789 225.937 125.02 186.373 101.113C146.81 77.2048 82.6618 77.2048 43.0934 101.113C3.52501 125.02 3.52991 163.785 43.0934 187.697Z" fill="#F0F0F0"/>
<path d="M190.065 160.632C193.684 162.819 199.548 162.819 203.166 160.632C206.785 158.445 206.78 154.905 203.166 152.718C199.553 150.531 193.684 150.531 190.065 152.718C186.447 154.905 186.451 158.435 190.065 160.632Z" fill="#E0E0E0"/>
<path d="M26.5404 131.801C26.5404 131.801 25.7068 124.447 22.054 118.764C18.4011 113.081 13.3852 109.512 8.70271 109.149C4.0202 108.786 0.239874 113.071 5.2705 116.048C10.3011 119.024 19.1807 122.02 23.2749 133.086L26.5404 131.801Z" fill="#4464A0"/>
<path d="M26.5404 131.801C26.5404 131.801 25.7068 124.447 22.054 118.764C18.4011 113.081 13.3852 109.512 8.70271 109.149C4.0202 108.786 0.239874 113.071 5.2705 116.048C10.3011 119.024 19.1807 122.02 23.2749 133.086L26.5404 131.801Z" fill="#263238"/>
<path d="M25.1681 129.894C25.1841 129.899 25.2011 129.899 25.2171 129.894C25.2477 129.882 25.2755 129.864 25.2991 129.841C25.3226 129.819 25.3413 129.791 25.3541 129.761C25.3669 129.731 25.3735 129.699 25.3736 129.666C25.3736 129.633 25.3671 129.601 25.3544 129.57C20.4169 117.406 11.0127 112.321 6.72244 111.336C6.69024 111.328 6.65693 111.328 6.62443 111.333C6.59193 111.339 6.56088 111.351 6.53308 111.369C6.50527 111.387 6.48126 111.41 6.46243 111.437C6.4436 111.464 6.43032 111.495 6.42335 111.527C6.40994 111.591 6.42182 111.658 6.45653 111.714C6.49123 111.769 6.54609 111.81 6.60967 111.826C10.8068 112.807 20.0247 117.783 24.8886 129.757C24.9121 129.808 24.9528 129.85 25.0037 129.875C25.0547 129.9 25.1128 129.907 25.1681 129.894Z" fill="white"/>
<path d="M0.161551 130.041C0.583222 130.997 1.6325 131.512 2.61312 131.885C3.59375 132.257 4.63812 132.694 5.16276 133.596C6.21694 135.425 4.48613 138.009 5.61875 139.764C5.88365 140.12 6.21796 140.418 6.60144 140.64C6.98492 140.863 7.40958 141.005 7.84969 141.058C8.57623 141.163 9.30785 141.228 10.0414 141.255C10.3908 141.251 10.7397 141.225 11.0858 141.176C12.1002 140.948 13.1616 141.06 14.1061 141.495C15.577 142.314 16.0036 144.143 16.8813 145.555C17.4277 146.39 18.1492 147.097 18.9958 147.626C19.8424 148.155 20.7939 148.494 21.7844 148.619C22.4366 148.707 23.6476 148.825 24.3096 148.452C24.3572 148.428 24.4031 148.4 24.4468 148.369C24.54 148.266 24.6528 148.134 24.7018 148.065C24.7118 148.051 24.72 148.037 24.7263 148.021C24.9862 147.075 24.5645 146.089 24.5498 145.113C24.5449 145.055 24.5449 144.996 24.5498 144.937C24.589 143.799 24.6234 142.672 24.6479 141.534C24.7002 139.452 24.7214 137.365 24.7116 135.273C24.7116 133.915 24.8587 132.434 24.285 131.154C23.6525 129.752 22.0688 129.717 21.4755 128.34C21.2353 127.791 21.1078 127.202 20.8773 126.648C20.5177 125.834 19.9417 125.135 19.212 124.625C18.4824 124.116 17.627 123.817 16.7391 123.76C13.9835 123.618 11.5074 125.854 8.75186 125.648C8.04222 125.553 7.33837 125.418 6.64351 125.246C4.40768 124.829 1.82862 125.466 0.573416 127.354C0.290669 127.734 0.105305 128.178 0.0335118 128.646C-0.0382817 129.115 0.00567777 129.594 0.161551 130.041Z" fill="#37474F"/>
<path d="M24.9519 143.662C24.9817 143.655 25.0097 143.641 25.0343 143.623C25.0589 143.605 25.0795 143.581 25.0951 143.555C25.1106 143.528 25.1207 143.499 25.1247 143.469C25.1287 143.438 25.1267 143.407 25.1186 143.378C21.3137 129.075 6.25125 127.011 2.72589 127.29C2.69516 127.292 2.66511 127.3 2.63752 127.314C2.60993 127.328 2.58535 127.347 2.56524 127.37C2.54513 127.393 2.52989 127.42 2.52043 127.45C2.51097 127.479 2.50747 127.51 2.51015 127.54C2.51516 127.602 2.5442 127.659 2.59099 127.7C2.63777 127.74 2.69855 127.76 2.76021 127.756C6.19241 127.511 20.9411 129.531 24.6675 143.515C24.6876 143.571 24.7281 143.617 24.7808 143.644C24.8335 143.672 24.8946 143.678 24.9519 143.662Z" fill="white"/>
<path d="M8.20289 136.42C8.25014 136.411 8.29318 136.387 8.32547 136.351C9.7181 135.148 11.3584 134.265 13.1302 133.766C14.902 133.267 16.7618 133.164 18.5779 133.463C18.6103 133.473 18.6443 133.476 18.6777 133.471C18.7111 133.466 18.7431 133.455 18.7715 133.436C18.7999 133.418 18.8242 133.394 18.8425 133.366C18.8609 133.338 18.873 133.306 18.8779 133.273C18.8829 133.239 18.8807 133.205 18.8713 133.173C18.862 133.14 18.8458 133.11 18.8239 133.085C18.8019 133.059 18.7748 133.039 18.7442 133.024C18.7136 133.01 18.6803 133.003 18.6466 133.003C16.7578 132.69 14.8233 132.799 12.9814 133.321C11.1395 133.843 9.4358 134.766 7.99205 136.023C7.94891 136.068 7.9248 136.127 7.9248 136.19C7.9248 136.252 7.94891 136.312 7.99205 136.356C8.01908 136.384 8.05254 136.404 8.08936 136.415C8.12619 136.426 8.16522 136.428 8.20289 136.42Z" fill="white"/>
<path d="M145.374 9.34028L172.473 24.9911C172.737 25.1631 172.957 25.3947 173.114 25.6673C173.272 25.9399 173.363 26.2458 173.38 26.5601V101.059C173.363 101.373 173.272 101.679 173.114 101.951C172.957 102.224 172.737 102.456 172.473 102.628L145.374 118.278C145.093 118.421 144.782 118.495 144.467 118.495C144.151 118.495 143.841 118.421 143.56 118.278L116.46 102.628C116.196 102.456 115.976 102.225 115.818 101.952C115.66 101.679 115.569 101.373 115.553 101.059V26.5601C115.57 26.2458 115.661 25.9399 115.819 25.6673C115.977 25.3947 116.196 25.1631 116.46 24.9911L143.56 9.34028C143.841 9.19995 144.152 9.12691 144.467 9.12691C144.781 9.12691 145.092 9.19995 145.374 9.34028Z" fill="#37474F"/>
<path d="M115.553 26.5601V101.059C115.57 101.372 115.661 101.678 115.817 101.95C115.974 102.223 116.192 102.455 116.455 102.628L143.56 118.278C143.838 118.428 144.151 118.502 144.467 118.494V41.8972C144.151 41.9027 143.839 41.8285 143.56 41.6815L116.455 26.0355L116.21 25.8296L115.886 25.5599C115.682 25.8549 115.567 26.2018 115.553 26.5601Z" fill="#263238"/>
<path d="M169.07 33.8903L148.771 45.6089C148.507 45.7816 148.287 46.0141 148.13 46.2875C147.972 46.5609 147.881 46.8676 147.864 47.1828V54.9052C147.864 55.4838 148.266 55.7191 148.766 55.4299L169.065 43.7113C169.329 43.5394 169.549 43.3077 169.706 43.0352C169.864 42.7626 169.955 42.4567 169.973 42.1423V34.415C169.977 33.8364 169.595 33.6011 169.07 33.8903Z" fill="#455A64"/>
<path d="M168.276 37.298C168.252 37.6022 168.158 37.8966 168 38.158C167.843 38.4193 167.627 38.6402 167.369 38.8033L150.473 48.5557C149.982 48.8449 149.565 48.639 149.565 48.0997C149.589 47.7955 149.683 47.5011 149.841 47.2397C149.998 46.9784 150.215 46.7575 150.473 46.5944L167.369 36.8371C167.869 36.5478 168.276 36.7538 168.276 37.298Z" fill="#4464A0"/>
<path d="M168.276 41.2254C168.252 41.5296 168.158 41.8241 168 42.0854C167.843 42.3467 167.627 42.5676 167.369 42.7307L150.473 52.4831C149.982 52.7724 149.565 52.5664 149.565 52.0271C149.589 51.7229 149.683 51.4285 149.841 51.1672C149.998 50.9058 150.215 50.6849 150.473 50.5218L167.369 40.7645C167.869 40.4753 168.276 40.6812 168.276 41.2254Z" fill="#263238"/>
<path d="M167.369 40.7646L158.053 46.158V48.1193L167.369 42.7258C167.627 42.5627 167.843 42.3418 168 42.0805C168.158 41.8192 168.252 41.5247 168.276 41.2205C168.276 40.6812 167.869 40.4753 167.369 40.7646Z" fill="#4464A0"/>
<path d="M169.07 47.6388L148.771 59.3573C148.508 59.5295 148.289 59.7613 148.131 60.0338C147.973 60.3063 147.882 60.612 147.864 60.9263V68.6537C147.864 69.2322 148.266 69.4676 148.766 69.1783L169.065 57.4598C169.329 57.2878 169.549 57.0562 169.706 56.7836C169.864 56.511 169.955 56.2052 169.973 55.8908V48.1634C169.977 47.5848 169.595 47.3691 169.07 47.6388Z" fill="#455A64"/>
<path d="M168.276 51.0416C168.253 51.3466 168.159 51.642 168.001 51.9042C167.844 52.1664 167.627 52.3882 167.369 52.5517L150.473 62.3041C149.982 62.5934 149.565 62.3874 149.565 61.8481C149.588 61.5431 149.682 61.2477 149.84 60.9854C149.997 60.7232 150.214 60.5015 150.473 60.3379L167.369 50.5856C167.869 50.311 168.276 50.5022 168.276 51.0416Z" fill="#4464A0"/>
<path d="M168.276 54.9739C168.252 55.278 168.158 55.5725 168 55.8338C167.843 56.0951 167.627 56.3161 167.369 56.4791L150.473 66.2315C149.982 66.5208 149.565 66.3149 149.565 65.7755C149.589 65.4713 149.683 65.1769 149.841 64.9156C149.998 64.6543 150.215 64.4333 150.473 64.2702L167.369 54.513C167.869 54.2335 168.276 54.4296 168.276 54.9739Z" fill="#263238"/>
<path d="M167.369 54.513L152.968 62.8483V64.8096L167.369 56.4988C167.627 56.3357 167.843 56.1147 168 55.8534C168.158 55.5921 168.252 55.2977 168.276 54.9935C168.276 54.4296 167.869 54.2335 167.369 54.513Z" fill="#4464A0"/>
<path d="M169.07 61.3872L148.771 73.1057C148.508 73.2777 148.288 73.5093 148.13 73.7819C147.973 74.0545 147.882 74.3604 147.864 74.6747V82.4021C147.864 82.9807 148.266 83.216 148.766 82.9267L169.065 71.2082C169.33 71.0355 169.549 70.803 169.707 70.5296C169.865 70.2561 169.956 69.9494 169.973 69.6343V61.9118C169.977 61.3333 169.595 61.0979 169.07 61.3872Z" fill="#455A64"/>
<path d="M168.276 64.79C168.252 65.0941 168.158 65.3886 168 65.6499C167.843 65.9112 167.627 66.1322 167.369 66.2952L150.473 76.0525C149.982 76.3418 149.565 76.1359 149.565 75.5916C149.589 75.2874 149.683 74.993 149.841 74.7317C149.998 74.4704 150.215 74.2494 150.473 74.0863L167.369 64.334C167.869 64.0398 168.276 64.2506 168.276 64.79Z" fill="#4464A0"/>
<path d="M168.276 68.7174C168.252 69.0216 168.158 69.316 168 69.5773C167.843 69.8386 167.627 70.0596 167.369 70.2227L150.473 79.9799C149.982 80.2692 149.565 80.0633 149.565 79.519C149.589 79.2149 149.683 78.9204 149.841 78.6591C149.998 78.3978 150.215 78.1768 150.473 78.0138L167.369 68.2614C167.869 67.9623 168.276 68.1781 168.276 68.7174Z" fill="#263238"/>
<path d="M167.369 68.2614L161.485 71.6642V73.6255L167.369 70.2178C167.626 70.0547 167.843 69.8337 168 69.5724C168.158 69.3111 168.252 69.0167 168.276 68.7125C168.276 68.1781 167.869 67.9623 167.369 68.2614Z" fill="#4464A0"/>
<path d="M169.07 75.1356L148.771 86.8541C148.508 87.0261 148.288 87.2577 148.13 87.5303C147.973 87.8029 147.882 88.1088 147.864 88.4231V96.1505C147.864 96.7291 148.266 96.9644 148.766 96.6751L169.065 84.9566C169.33 84.7839 169.549 84.5514 169.707 84.278C169.865 84.0045 169.956 83.6978 169.973 83.3827V75.6602C169.977 75.0817 169.595 74.8267 169.07 75.1356Z" fill="#455A64"/>
<path d="M168.276 78.5384C168.252 78.8426 168.158 79.137 168 79.3983C167.843 79.6596 167.627 79.8806 167.369 80.0437L150.473 89.8009C149.982 90.0902 149.565 89.8843 149.565 89.34C149.589 89.0359 149.683 88.7414 149.841 88.4801C149.998 88.2188 150.215 87.9978 150.473 87.8348L167.369 78.0824C167.869 77.7931 168.276 77.9991 168.276 78.5384Z" fill="#4464A0"/>
<path d="M168.276 82.4658C168.252 82.77 168.158 83.0645 168 83.3258C167.843 83.5871 167.627 83.808 167.369 83.9711L150.473 93.7284C149.982 94.0177 149.565 93.8117 149.565 93.2675C149.589 92.9633 149.683 92.6689 149.841 92.4076C149.998 92.1462 150.215 91.9253 150.473 91.7622L167.369 82.0098C167.869 81.7206 168.276 81.9265 168.276 82.4658Z" fill="#263238"/>
<path d="M167.369 82.0098L158.053 87.3788V89.3401L167.369 83.9711C167.627 83.808 167.843 83.5871 168 83.3258C168.158 83.0645 168.252 82.77 168.276 82.4658C168.276 81.9265 167.869 81.7206 167.369 82.0098Z" fill="#4464A0"/>
<path d="M169.07 88.8841L148.771 100.603C148.508 100.775 148.288 101.006 148.13 101.279C147.973 101.551 147.882 101.857 147.864 102.172V109.899C147.864 110.478 148.266 110.708 148.766 110.419L169.065 98.7002C169.329 98.5282 169.549 98.2965 169.706 98.024C169.864 97.7514 169.955 97.4455 169.973 97.1311V89.4038C169.977 88.8252 169.595 88.5948 169.07 88.8841Z" fill="#455A64"/>
<path d="M168.276 92.2868C168.252 92.591 168.158 92.8854 168 93.1467C167.843 93.4081 167.627 93.629 167.369 93.7921L150.473 103.549C149.982 103.834 149.565 103.633 149.565 103.088C149.589 102.784 149.683 102.49 149.841 102.229C149.998 101.967 150.215 101.746 150.473 101.583L167.369 91.8259C167.869 91.5415 168.276 91.7426 168.276 92.2868Z" fill="#4464A0"/>
<path d="M168.276 96.2142C168.252 96.5184 168.158 96.8129 168 97.0742C167.843 97.3355 167.627 97.5564 167.369 97.7195L150.473 107.477C149.982 107.766 149.565 107.56 149.565 107.016C149.589 106.712 149.683 106.417 149.841 106.156C149.998 105.895 150.215 105.674 150.473 105.511L167.369 95.7583C167.869 95.469 168.276 95.67 168.276 96.2142Z" fill="#263238"/>
<path d="M167.368 95.7583L154.669 103.088V105.05L167.368 97.695C167.626 97.5319 167.842 97.311 168 97.0497C168.157 96.7883 168.251 96.4939 168.275 96.1897C168.275 95.67 167.868 95.469 167.368 95.7583Z" fill="#4464A0"/>
<path d="M140.215 46.6287C139.274 46.0845 138.514 46.5797 138.514 47.7368V92.6546C138.538 93.2648 138.704 93.861 139 94.3956C139.295 94.9302 139.711 95.3884 140.215 95.7337C141.152 96.278 141.912 95.7828 141.912 94.6256V49.7079C141.888 49.0981 141.722 48.5022 141.428 47.9676C141.133 47.4331 140.718 46.9746 140.215 46.6287Z" fill="#37474F"/>
<path d="M140.215 94.7384C139.963 94.566 139.755 94.337 139.606 94.0697C139.458 93.8024 139.375 93.5042 139.362 93.1988V48.1585C139.362 47.5799 139.745 47.3299 140.215 47.6044C140.466 47.7769 140.673 48.0053 140.821 48.2717C140.968 48.5381 141.051 48.835 141.064 49.1391V94.1843C141.064 94.758 140.667 95.0081 140.215 94.7384Z" fill="#263238"/>
<path d="M140.215 94.7384C139.963 94.566 139.755 94.337 139.606 94.0697C139.458 93.8024 139.375 93.5042 139.362 93.1988V71.6642L141.064 72.6448V94.1794C141.064 94.758 140.667 95.0081 140.215 94.7384Z" fill="#4464A0"/>
<path d="M135.111 43.6819C134.17 43.1377 133.41 43.6329 133.41 44.79V89.7078C133.432 90.3186 133.597 90.9156 133.893 91.4505C134.188 91.9854 134.606 92.4433 135.111 92.787C136.048 93.3312 136.812 92.836 136.812 91.6788V46.7611C136.788 46.1508 136.622 45.5547 136.326 45.0201C136.031 44.4855 135.615 44.0273 135.111 43.6819Z" fill="#37474F"/>
<path d="M135.111 91.7916C134.859 91.6192 134.65 91.3902 134.502 91.1229C134.354 90.8556 134.27 90.5574 134.258 90.252V45.2117C134.258 44.6332 134.64 44.388 135.111 44.6577C135.362 44.8306 135.57 45.0598 135.717 45.3271C135.864 45.5944 135.947 45.8923 135.959 46.1973V91.2376C135.959 91.8161 135.582 92.0613 135.111 91.7916Z" fill="#4464A0"/>
<path d="M130.007 40.74C129.07 40.1909 128.305 40.691 128.305 41.8433V86.761C128.329 87.3712 128.496 87.9674 128.791 88.502C129.087 89.0366 129.503 89.4948 130.007 89.8401C130.948 90.3844 131.708 89.8892 131.708 88.732V43.8192C131.686 43.2084 131.52 42.6114 131.225 42.0765C130.929 41.5416 130.512 41.0837 130.007 40.74Z" fill="#37474F"/>
<path d="M130.006 88.8448C129.754 88.674 129.546 88.446 129.398 88.1793C129.251 87.9125 129.169 87.6147 129.158 87.3101V42.2649C129.158 41.6912 129.536 41.4412 130.006 41.7109C130.259 41.8833 130.467 42.1123 130.615 42.3796C130.764 42.6469 130.847 42.9451 130.86 43.2504V88.2908C130.86 88.8693 130.477 89.1194 130.006 88.8448Z" fill="#263238"/>
<path d="M130.006 88.8448C129.754 88.674 129.546 88.446 129.398 88.1793C129.251 87.9125 129.169 87.6147 129.158 87.3101V52.4978L130.86 53.4784V88.2908C130.86 88.8693 130.477 89.1194 130.006 88.8448Z" fill="#4464A0"/>
<path d="M124.907 37.7933C123.966 37.249 123.206 37.7442 123.206 38.9014V83.8142C123.228 84.425 123.394 85.022 123.689 85.5569C123.985 86.0919 124.402 86.5497 124.907 86.8934C125.844 87.4376 126.604 86.9424 126.604 85.7853V40.8724C126.58 40.2626 126.414 39.6667 126.12 39.1321C125.825 38.5976 125.41 38.1391 124.907 37.7933Z" fill="#37474F"/>
<path d="M124.907 85.898C124.656 85.7261 124.448 85.4979 124.299 85.2315C124.151 84.9651 124.067 84.6678 124.054 84.3633V39.323C124.054 38.7445 124.437 38.4944 124.907 38.7641C125.159 38.937 125.366 39.1662 125.514 39.4335C125.661 39.7008 125.744 39.9987 125.756 40.3037V85.344C125.756 85.9225 125.373 86.1726 124.907 85.898Z" fill="#263238"/>
<path d="M124.907 85.898C124.656 85.7261 124.448 85.4979 124.299 85.2315C124.151 84.9651 124.067 84.6679 124.054 84.3634V76.7586L125.756 77.7392V85.3391C125.756 85.9226 125.373 86.1726 124.907 85.898Z" fill="#4464A0"/>
<path d="M119.803 34.8465C118.862 34.3022 118.102 34.7974 118.102 35.9546V80.8674C118.124 81.4782 118.289 82.0752 118.585 82.6101C118.88 83.1451 119.298 83.6029 119.803 83.9466C120.739 84.4957 121.504 83.9956 121.504 82.8434V37.9256C121.48 37.3154 121.314 36.7192 121.018 36.1846C120.723 35.65 120.307 35.1918 119.803 34.8465Z" fill="#37474F"/>
<path d="M119.803 82.9561C119.551 82.7837 119.342 82.5547 119.194 82.2874C119.046 82.0201 118.962 81.7219 118.95 81.4166V36.3762C118.95 35.7977 119.332 35.5476 119.803 35.8222C120.055 35.993 120.264 36.221 120.411 36.4877C120.559 36.7545 120.641 37.0523 120.651 37.3569V82.3972C120.651 82.9758 120.274 83.2258 119.803 82.9561Z" fill="#263238"/>
<path d="M119.803 82.9561C119.551 82.7837 119.342 82.5547 119.194 82.2874C119.046 82.0201 118.962 81.7219 118.95 81.4165V57.9158L120.651 58.8964V82.3923C120.651 82.9757 120.274 83.2258 119.803 82.9561Z" fill="#4464A0"/>
<path d="M141.186 101.196L118.827 88.2859C118.425 88.0554 118.102 88.2417 118.102 88.7075V96.8517C118.115 97.1033 118.188 97.3481 118.314 97.5663C118.44 97.7844 118.616 97.9696 118.827 98.1069L141.186 111.017C141.588 111.247 141.911 111.061 141.911 110.6V102.451C141.898 102.199 141.825 101.955 141.699 101.736C141.573 101.518 141.397 101.333 141.186 101.196Z" fill="#37474F"/>
<path d="M140.269 103.613C140.269 104.152 139.862 104.358 139.362 104.069L120.651 93.2822C120.393 93.1191 120.177 92.8981 120.02 92.6368C119.862 92.3755 119.768 92.0811 119.744 91.7769C119.744 91.2326 120.151 91.0267 120.651 91.316L139.362 102.103C139.62 102.266 139.837 102.488 139.994 102.75C140.152 103.013 140.246 103.308 140.269 103.613Z" fill="#263238"/>
<path d="M140.269 103.613C140.269 104.152 139.862 104.358 139.362 104.069L125.755 96.224V94.2628L139.362 102.108C139.619 102.271 139.836 102.492 139.993 102.753C140.151 103.014 140.245 103.309 140.269 103.613Z" fill="#4464A0"/>
<path d="M140.269 107.541C140.269 108.08 139.862 108.286 139.362 107.997L120.651 97.2096C120.393 97.0465 120.177 96.8256 120.02 96.5643C119.862 96.3029 119.768 96.0085 119.744 95.7043C119.744 95.1601 120.151 94.9542 120.651 95.2434L139.362 106.03C139.62 106.194 139.837 106.416 139.994 106.678C140.152 106.94 140.246 107.236 140.269 107.541Z" fill="#263238"/>
<path d="M140.269 107.541C140.269 108.08 139.862 108.286 139.362 107.997L134.258 105.055V103.093L139.362 106.035C139.62 106.198 139.836 106.419 139.994 106.681C140.151 106.942 140.245 107.236 140.269 107.541Z" fill="#4464A0"/>
<path d="M116.459 24.9911L143.559 9.34028C143.841 9.19995 144.151 9.12691 144.466 9.12691C144.781 9.12691 145.091 9.19995 145.373 9.34028L172.473 24.9911C172.583 25.027 172.679 25.0969 172.747 25.1906C172.815 25.2844 172.852 25.3974 172.852 25.5133C172.852 25.6292 172.815 25.7422 172.747 25.836C172.679 25.9298 172.583 25.9996 172.473 26.0355L145.373 41.6814C145.092 41.824 144.781 41.8983 144.466 41.8983C144.151 41.8983 143.84 41.824 143.559 41.6814L116.459 26.0355C116.349 25.9996 116.253 25.9298 116.185 25.836C116.117 25.7422 116.08 25.6292 116.08 25.5133C116.08 25.3974 116.117 25.2844 116.185 25.1906C116.253 25.0969 116.349 25.027 116.459 24.9911Z" fill="#455A64"/>
<path d="M145.01 37.9649L166.03 25.8247C166.189 25.7225 166.322 25.5837 166.417 25.42C166.511 25.2562 166.565 25.0722 166.575 24.8833V24.1772C166.565 23.9883 166.511 23.8043 166.417 23.6405C166.322 23.4767 166.189 23.338 166.03 23.2358L145.01 11.0858C144.842 11.0012 144.655 10.9572 144.466 10.9572C144.277 10.9572 144.091 11.0012 143.922 11.0858L122.897 23.2358C122.739 23.3389 122.607 23.4778 122.513 23.6414C122.418 23.805 122.363 23.9886 122.353 24.1772V24.8833C122.363 25.0719 122.418 25.2555 122.513 25.4191C122.607 25.5827 122.739 25.7216 122.897 25.8247L143.922 37.9649C144.091 38.0494 144.277 38.0935 144.466 38.0935C144.655 38.0935 144.842 38.0494 145.01 37.9649Z" fill="#263238"/>
<path d="M166.03 23.8634L145.01 35.9987C144.841 36.0856 144.655 36.1309 144.465 36.1309C144.276 36.1309 144.09 36.0856 143.921 35.9987L122.897 23.8634C122.832 23.8402 122.776 23.7976 122.737 23.7414C122.697 23.6853 122.676 23.6183 122.676 23.5496C122.676 23.4809 122.697 23.4139 122.737 23.3578C122.776 23.3016 122.832 23.259 122.897 23.2358L143.921 11.5173C144.09 11.4304 144.276 11.3851 144.465 11.3851C144.655 11.3851 144.841 11.4304 145.01 11.5173L166.03 23.2358C166.097 23.2566 166.155 23.2982 166.197 23.3547C166.238 23.4111 166.261 23.4795 166.261 23.5496C166.261 23.6198 166.238 23.6881 166.197 23.7445C166.155 23.801 166.097 23.8426 166.03 23.8634Z" fill="#455A64"/>
<path d="M144.466 36.1311V38.0923C144.656 38.0973 144.843 38.0534 145.011 37.9649L166.03 25.8247C166.19 25.7225 166.322 25.5837 166.417 25.42C166.511 25.2562 166.565 25.0722 166.575 24.8833V24.1772C166.566 24.009 166.522 23.8444 166.446 23.6941C166.37 23.5438 166.264 23.411 166.133 23.3045C166.329 23.4761 166.295 23.7114 166.03 23.8634L145.011 35.9987C144.844 36.0889 144.656 36.1345 144.466 36.1311Z" fill="#37474F"/>
<path d="M145.01 32.0713L159.229 23.8634C159.39 23.762 159.525 23.6238 159.622 23.4601C159.719 23.2964 159.776 23.112 159.788 22.922V22.2111C159.777 22.0227 159.722 21.8395 159.627 21.6761C159.533 21.5127 159.401 21.3736 159.244 21.2697L150.109 15.989C149.76 15.7698 149.45 15.4929 149.192 15.1701L144.838 9.28636C144.734 9.14966 144.584 9.05511 144.416 9.01999C144.247 8.98488 144.072 9.01155 143.922 9.09514L129.702 17.303C129.544 17.4058 129.412 17.5447 129.317 17.7083C129.223 17.8719 129.168 18.0557 129.158 18.2444V22.8828C129.168 23.0715 129.223 23.255 129.318 23.4186C129.412 23.5822 129.544 23.7211 129.702 23.8242L143.922 32.0321C144.087 32.125 144.272 32.1771 144.461 32.184C144.65 32.1908 144.839 32.1521 145.01 32.0713Z" fill="#263238"/>
<path d="M143.922 30.11L134.782 24.844C134.608 24.7417 134.444 24.6235 134.292 24.491C134.128 24.3432 133.98 24.1789 133.851 24.0007L129.497 18.1169C129.447 18.0543 129.412 17.9816 129.393 17.9039C129.375 17.8262 129.374 17.7454 129.39 17.6673C129.407 17.5892 129.44 17.5156 129.488 17.4518C129.536 17.388 129.598 17.3355 129.668 17.2981L143.887 9.09023C144.038 9.00664 144.213 8.97997 144.381 9.01508C144.55 9.05019 144.7 9.14475 144.804 9.28145L149.158 15.1652C149.387 15.4958 149.672 15.7831 150.002 16.0135L159.195 21.2451C159.26 21.2683 159.315 21.3109 159.355 21.3671C159.394 21.4233 159.416 21.4903 159.416 21.5589C159.416 21.6276 159.394 21.6946 159.355 21.7508C159.315 21.8069 159.26 21.8495 159.195 21.8727L144.976 30.0855C144.813 30.1685 144.634 30.2137 144.452 30.218C144.269 30.2222 144.088 30.1853 143.922 30.11Z" fill="#455A64"/>
<path d="M129.703 17.3422L143.922 9.13436C144.072 9.05077 144.248 9.02409 144.416 9.05921C144.584 9.09432 144.734 9.18888 144.839 9.32558L149.193 15.2094C149.326 15.3775 149.475 15.5318 149.639 15.6703C149.639 15.6703 134.336 24.4959 134.331 24.4959C134.165 24.3495 134.015 24.185 133.885 24.0056L129.531 18.1218C129.488 18.0603 129.459 17.9905 129.444 17.917C129.43 17.8435 129.431 17.7678 129.447 17.6946C129.463 17.6214 129.494 17.5523 129.538 17.4917C129.582 17.431 129.638 17.3802 129.703 17.3422Z" fill="#37474F"/>
<path d="M155.777 21.4167C155.58 21.3152 155.362 21.2623 155.14 21.2623C154.918 21.2623 154.7 21.3152 154.503 21.4167C154.15 21.6178 154.15 21.9463 154.503 22.1522C154.7 22.2514 154.919 22.3031 155.14 22.3031C155.361 22.3031 155.58 22.2514 155.777 22.1522C156.13 21.9463 156.13 21.6178 155.777 21.4167Z" fill="#4464A0"/>
<path d="M153.228 22.8877C153.03 22.7885 152.811 22.7368 152.59 22.7368C152.369 22.7368 152.151 22.7885 151.953 22.8877C151.6 23.0936 151.6 23.4221 151.953 23.6232C152.15 23.7247 152.368 23.7776 152.59 23.7776C152.812 23.7776 153.03 23.7247 153.228 23.6232C153.581 23.4221 153.581 23.0936 153.228 22.8877Z" fill="#4464A0"/>
<path d="M150.679 24.3586C150.48 24.2594 150.261 24.2077 150.039 24.2077C149.817 24.2077 149.597 24.2594 149.399 24.3586C149.322 24.3855 149.256 24.4356 149.209 24.5019C149.161 24.5682 149.136 24.6475 149.136 24.7288C149.136 24.8101 149.161 24.8894 149.209 24.9557C149.256 25.0221 149.322 25.0721 149.399 25.099C149.597 25.1983 149.817 25.2499 150.039 25.2499C150.261 25.2499 150.48 25.1983 150.679 25.099C150.755 25.0721 150.822 25.0221 150.869 24.9557C150.916 24.8894 150.941 24.8101 150.941 24.7288C150.941 24.6475 150.916 24.5682 150.869 24.5019C150.822 24.4356 150.755 24.3855 150.679 24.3586Z" fill="#263238"/>
<path d="M148.123 25.8345C147.926 25.733 147.708 25.68 147.486 25.68C147.264 25.68 147.046 25.733 146.849 25.8345C146.771 25.8601 146.704 25.9094 146.656 25.9754C146.609 26.0414 146.583 26.1208 146.583 26.2022C146.583 26.2836 146.609 26.363 146.656 26.429C146.704 26.495 146.771 26.5444 146.849 26.5699C147.046 26.6714 147.264 26.7244 147.486 26.7244C147.708 26.7244 147.926 26.6714 148.123 26.5699C148.201 26.5444 148.268 26.495 148.316 26.429C148.363 26.363 148.389 26.2836 148.389 26.2022C148.389 26.1208 148.363 26.0414 148.316 25.9754C148.268 25.9094 148.201 25.8601 148.123 25.8345Z" fill="#263238"/>
<path d="M153.866 20.3086C153.668 20.2094 153.449 20.1577 153.228 20.1577C153.007 20.1577 152.789 20.2094 152.591 20.3086C152.514 20.3355 152.447 20.3856 152.4 20.4519C152.353 20.5182 152.328 20.5975 152.328 20.6788C152.328 20.7601 152.353 20.8394 152.4 20.9057C152.447 20.972 152.514 21.0221 152.591 21.049C152.789 21.1482 153.007 21.1999 153.228 21.1999C153.449 21.1999 153.668 21.1482 153.866 21.049C153.942 21.0221 154.009 20.972 154.056 20.9057C154.103 20.8394 154.128 20.7601 154.128 20.6788C154.128 20.5975 154.103 20.5182 154.056 20.4519C154.009 20.3856 153.942 20.3355 153.866 20.3086Z" fill="#4464A0"/>
<path d="M151.316 21.7845C151.118 21.6829 150.899 21.63 150.676 21.63C150.453 21.63 150.234 21.6829 150.036 21.7845C149.959 21.8101 149.892 21.8594 149.844 21.9254C149.796 21.9914 149.771 22.0708 149.771 22.1522C149.771 22.2337 149.796 22.313 149.844 22.379C149.892 22.4451 149.959 22.4944 150.036 22.52C150.235 22.6192 150.454 22.6709 150.676 22.6709C150.898 22.6709 151.117 22.6192 151.316 22.52C151.393 22.4944 151.46 22.4451 151.508 22.379C151.556 22.313 151.582 22.2337 151.582 22.1522C151.582 22.0708 151.556 21.9914 151.508 21.9254C151.46 21.8594 151.393 21.8101 151.316 21.7845Z" fill="#263238"/>
<path d="M148.123 24.1429C148.622 24.1429 149.026 23.9102 149.026 23.6232C149.026 23.3361 148.622 23.1034 148.123 23.1034C147.625 23.1034 147.221 23.3361 147.221 23.6232C147.221 23.9102 147.625 24.1429 148.123 24.1429Z" fill="#4464A0"/>
<path d="M146.212 24.7313C146.015 24.6298 145.796 24.5768 145.575 24.5768C145.353 24.5768 145.134 24.6298 144.937 24.7313C144.584 24.9323 144.584 25.2608 144.937 25.4667C145.135 25.5659 145.353 25.6176 145.575 25.6176C145.796 25.6176 146.014 25.5659 146.212 25.4667C146.55 25.2608 146.55 24.9323 146.212 24.7313Z" fill="#263238"/>
<path d="M151.944 19.2054C151.746 19.1062 151.528 19.0545 151.306 19.0545C151.085 19.0545 150.867 19.1062 150.669 19.2054C150.316 19.4113 150.316 19.7399 150.669 19.9409C150.866 20.0424 151.085 20.0953 151.306 20.0953C151.528 20.0953 151.747 20.0424 151.944 19.9409C152.307 19.7399 152.307 19.4212 151.944 19.2054Z" fill="#263238"/>
<path d="M149.399 20.6764C149.201 20.5771 148.983 20.5255 148.761 20.5255C148.54 20.5255 148.322 20.5771 148.124 20.6764C148.047 20.7032 147.981 20.7533 147.934 20.8196C147.887 20.8859 147.861 20.9652 147.861 21.0465C147.861 21.1278 147.887 21.2071 147.934 21.2735C147.981 21.3398 148.047 21.3898 148.124 21.4167C148.322 21.5159 148.54 21.5676 148.761 21.5676C148.983 21.5676 149.201 21.5159 149.399 21.4167C149.475 21.3898 149.542 21.3398 149.589 21.2735C149.636 21.2071 149.661 21.1278 149.661 21.0465C149.661 20.9652 149.636 20.8859 149.589 20.8196C149.542 20.7533 149.475 20.7032 149.399 20.6764Z" fill="#4464A0"/>
<path d="M146.849 22.1522C146.652 22.0507 146.433 21.9978 146.212 21.9978C145.99 21.9978 145.771 22.0507 145.574 22.1522C145.497 22.1778 145.43 22.2271 145.382 22.2931C145.334 22.3591 145.309 22.4385 145.309 22.52C145.309 22.6014 145.334 22.6808 145.382 22.7468C145.43 22.8128 145.497 22.8621 145.574 22.8877C145.772 22.9869 145.99 23.0386 146.212 23.0386C146.433 23.0386 146.651 22.9869 146.849 22.8877C146.926 22.8621 146.994 22.8128 147.041 22.7468C147.089 22.6808 147.115 22.6014 147.115 22.52C147.115 22.4385 147.089 22.3591 147.041 22.2931C146.994 22.2271 146.926 22.1778 146.849 22.1522Z" fill="#263238"/>
<path d="M145.569 27.2662C145.371 27.167 145.153 27.1153 144.931 27.1153C144.71 27.1153 144.492 27.167 144.294 27.2662C143.941 27.4721 143.941 27.8006 144.294 28.0017C144.491 28.1032 144.71 28.1561 144.931 28.1561C145.153 28.1561 145.372 28.1032 145.569 28.0017C145.912 27.8104 145.912 27.4819 145.569 27.2662Z" fill="#4464A0"/>
<path d="M143.647 26.1728C143.45 26.0713 143.232 26.0183 143.01 26.0183C142.788 26.0183 142.57 26.0713 142.373 26.1728C142.295 26.1984 142.228 26.2477 142.18 26.3137C142.133 26.3797 142.107 26.4591 142.107 26.5405C142.107 26.622 142.133 26.7013 142.18 26.7674C142.228 26.8334 142.295 26.8827 142.373 26.9083C142.57 27.0098 142.788 27.0627 143.01 27.0627C143.232 27.0627 143.45 27.0098 143.647 26.9083C143.725 26.8827 143.792 26.8334 143.84 26.7674C143.887 26.7013 143.913 26.622 143.913 26.5405C143.913 26.4591 143.887 26.3797 143.84 26.3137C143.792 26.2477 143.725 26.1984 143.647 26.1728Z" fill="#263238"/>
<path d="M144.299 23.6232C144.101 23.5239 143.883 23.4723 143.662 23.4723C143.44 23.4723 143.222 23.5239 143.024 23.6232C142.948 23.65 142.881 23.7001 142.834 23.7664C142.787 23.8327 142.762 23.912 142.762 23.9933C142.762 24.0746 142.787 24.1539 142.834 24.2203C142.881 24.2866 142.948 24.3366 143.024 24.3635C143.222 24.4627 143.44 24.5144 143.662 24.5144C143.883 24.5144 144.101 24.4627 144.299 24.3635C144.376 24.3366 144.442 24.2866 144.489 24.2203C144.536 24.1539 144.562 24.0746 144.562 23.9933C144.562 23.912 144.536 23.8327 144.489 23.7664C144.442 23.7001 144.376 23.65 144.299 23.6232Z" fill="#263238"/>
<path d="M150.041 18.1022C149.843 18.0007 149.624 17.9477 149.401 17.9477C149.179 17.9477 148.959 18.0007 148.761 18.1022C148.684 18.1278 148.617 18.1771 148.569 18.2431C148.521 18.3091 148.496 18.3885 148.496 18.4699C148.496 18.5514 148.521 18.6308 148.569 18.6968C148.617 18.7628 148.684 18.8121 148.761 18.8377C148.959 18.9392 149.179 18.9922 149.401 18.9922C149.624 18.9922 149.843 18.9392 150.041 18.8377C150.118 18.8121 150.186 18.7628 150.233 18.6968C150.281 18.6308 150.307 18.5514 150.307 18.4699C150.307 18.3885 150.281 18.3091 150.233 18.2431C150.186 18.1771 150.118 18.1278 150.041 18.1022Z" fill="#4464A0"/>
<path d="M146.849 20.4606C147.348 20.4606 147.752 20.2279 147.752 19.9409C147.752 19.6538 147.348 19.4212 146.849 19.4212C146.351 19.4212 145.947 19.6538 145.947 19.9409C145.947 20.2279 146.351 20.4606 146.849 20.4606Z" fill="#263238"/>
<path d="M144.937 21.049C144.74 20.9475 144.521 20.8946 144.3 20.8946C144.078 20.8946 143.859 20.9475 143.662 21.049C143.309 21.25 143.309 21.5785 143.662 21.7845C143.86 21.8837 144.078 21.9353 144.3 21.9353C144.521 21.9353 144.739 21.8837 144.937 21.7845C145.29 21.5785 145.29 21.25 144.937 21.049Z" fill="#4464A0"/>
<path d="M142.387 22.5199C142.188 22.4207 141.969 22.369 141.747 22.369C141.525 22.369 141.306 22.4207 141.107 22.5199C141.03 22.5455 140.963 22.5948 140.915 22.6608C140.867 22.7269 140.842 22.8062 140.842 22.8877C140.842 22.9691 140.867 23.0485 140.915 23.1145C140.963 23.1805 141.03 23.2298 141.107 23.2554C141.305 23.3569 141.525 23.4099 141.747 23.4099C141.97 23.4099 142.189 23.3569 142.387 23.2554C142.465 23.2298 142.532 23.1805 142.579 23.1145C142.627 23.0485 142.653 22.9691 142.653 22.8877C142.653 22.8062 142.627 22.7269 142.579 22.6608C142.532 22.5948 142.465 22.5455 142.387 22.5199Z" fill="#263238"/>
<path d="M141.735 25.0696C141.537 24.968 141.317 24.9151 141.095 24.9151C140.872 24.9151 140.653 24.968 140.455 25.0696C140.378 25.0952 140.311 25.1445 140.263 25.2105C140.215 25.2765 140.189 25.3559 140.189 25.4373C140.189 25.5188 140.215 25.5981 140.263 25.6641C140.311 25.7302 140.378 25.7795 140.455 25.805C140.653 25.9066 140.872 25.9595 141.095 25.9595C141.317 25.9595 141.537 25.9066 141.735 25.805C141.812 25.7795 141.879 25.7302 141.927 25.6641C141.975 25.5981 142 25.5188 142 25.4373C142 25.3559 141.975 25.2765 141.927 25.2105C141.879 25.1445 141.812 25.0952 141.735 25.0696Z" fill="#4464A0"/>
<path d="M139.818 23.9664C139.621 23.8649 139.403 23.8119 139.181 23.8119C138.959 23.8119 138.741 23.8649 138.544 23.9664C138.191 24.1674 138.191 24.4959 138.544 24.7018C138.741 24.8011 138.96 24.8527 139.181 24.8527C139.402 24.8527 139.621 24.8011 139.818 24.7018C140.176 24.4959 140.176 24.1674 139.818 23.9664Z" fill="#263238"/>
<path d="M144.437 30.2375V32.1988C144.636 32.2079 144.834 32.1639 145.01 32.0713L159.229 23.8634C159.391 23.7609 159.525 23.6218 159.622 23.4573C159.719 23.2928 159.776 23.1077 159.788 22.9171V22.211C159.778 22.0434 159.733 21.8796 159.656 21.7302C159.58 21.5808 159.473 21.449 159.342 21.3432C159.538 21.5148 159.504 21.7452 159.244 21.8972L145.025 30.11C144.844 30.2053 144.641 30.2494 144.437 30.2375Z" fill="#37474F"/>
<path d="M147.315 14.9446C147.244 14.8552 147.144 14.7936 147.032 14.7703C146.92 14.747 146.803 14.7636 146.702 14.8171L134.317 21.9463C134.27 21.9708 134.228 22.0055 134.196 22.0479C134.164 22.0903 134.142 22.1394 134.131 22.1916C134.12 22.2437 134.121 22.2976 134.134 22.3493C134.146 22.401 134.171 22.4493 134.204 22.4905C134.275 22.5799 134.376 22.6415 134.488 22.6648C134.6 22.6881 134.716 22.6715 134.817 22.618L147.198 15.4986C147.246 15.4742 147.289 15.4392 147.322 15.3961C147.355 15.3531 147.378 15.3031 147.389 15.2499C147.401 15.1967 147.4 15.1416 147.387 15.0888C147.374 15.0359 147.35 14.9867 147.315 14.9446Z" fill="#263238"/>
<path d="M147.315 14.9446C147.243 14.8552 147.143 14.7936 147.031 14.7703C146.919 14.747 146.803 14.7636 146.702 14.8171L137.489 20.1125L138.004 20.7989L147.197 15.4986C147.246 15.4742 147.288 15.4392 147.321 15.3961C147.354 15.3531 147.378 15.3031 147.389 15.2499C147.4 15.1967 147.399 15.1416 147.387 15.0888C147.374 15.0359 147.349 14.9867 147.315 14.9446Z" fill="#4464A0"/>
<path d="M146.29 13.5717C146.219 13.4835 146.119 13.4226 146.008 13.3994C145.898 13.3762 145.782 13.392 145.682 13.4442L133.311 20.5685C133.264 20.5941 133.224 20.6296 133.192 20.6725C133.16 20.7155 133.138 20.7647 133.128 20.817C133.117 20.8692 133.118 20.9232 133.13 20.9751C133.142 21.027 133.165 21.0757 133.198 21.1177C133.27 21.207 133.37 21.2687 133.482 21.2919C133.594 21.3152 133.71 21.2987 133.811 21.2451L146.182 14.1012C146.226 14.0755 146.264 14.0407 146.294 13.9993C146.323 13.9578 146.344 13.9105 146.354 13.8606C146.364 13.8106 146.364 13.7591 146.353 13.7093C146.342 13.6595 146.32 13.6126 146.29 13.5717Z" fill="#263238"/>
<path d="M146.29 13.5717C146.219 13.4835 146.12 13.4226 146.009 13.3994C145.898 13.3762 145.783 13.392 145.682 13.4442L142.603 15.2192L143.118 15.8909L146.192 14.116C146.238 14.0895 146.277 14.0536 146.307 14.0105C146.337 13.9674 146.358 13.9183 146.367 13.8665C146.376 13.8147 146.374 13.7616 146.361 13.7107C146.348 13.6597 146.324 13.6123 146.29 13.5717Z" fill="#4464A0"/>
<path d="M145.265 12.1988C145.194 12.1095 145.094 12.0478 144.982 12.0245C144.87 12.0013 144.753 12.0178 144.652 12.0713L132.267 19.1956C132.22 19.2213 132.18 19.2568 132.148 19.2997C132.116 19.3426 132.094 19.3919 132.084 19.4441C132.073 19.4963 132.074 19.5503 132.086 19.6022C132.098 19.6541 132.121 19.7028 132.154 19.7448C132.226 19.8341 132.326 19.8958 132.438 19.919C132.55 19.9423 132.666 19.9258 132.767 19.8722L145.138 12.7284C145.183 12.7043 145.223 12.6708 145.255 12.6301C145.287 12.5895 145.309 12.5425 145.321 12.4924C145.333 12.4423 145.335 12.3902 145.325 12.3396C145.315 12.289 145.295 12.241 145.265 12.1988Z" fill="#263238"/>
<path d="M145.265 12.1988C145.194 12.1095 145.094 12.0478 144.982 12.0245C144.87 12.0013 144.753 12.0178 144.652 12.0713L138.214 15.7634L138.729 16.4499L145.172 12.7431C145.217 12.7162 145.256 12.6799 145.286 12.6367C145.315 12.5934 145.335 12.5442 145.344 12.4924C145.353 12.4407 145.35 12.3877 145.337 12.337C145.323 12.2863 145.299 12.2391 145.265 12.1988Z" fill="#4464A0"/>
<path d="M144.245 10.8259C144.174 10.7366 144.074 10.6749 143.962 10.6517C143.85 10.6284 143.733 10.6449 143.632 10.6985L131.247 17.8227C131.2 17.8484 131.16 17.8839 131.128 17.9268C131.096 17.9697 131.074 18.019 131.064 18.0712C131.053 18.1235 131.054 18.1774 131.066 18.2293C131.078 18.2813 131.101 18.3299 131.134 18.3719C131.206 18.4612 131.306 18.5229 131.418 18.5462C131.53 18.5695 131.646 18.5529 131.747 18.4994L144.118 11.3555C144.163 11.3314 144.203 11.298 144.235 11.2573C144.267 11.2166 144.289 11.1696 144.301 11.1195C144.313 11.0694 144.315 11.0173 144.305 10.9667C144.295 10.9161 144.275 10.8681 144.245 10.8259Z" fill="#263238"/>
<path d="M144.245 10.8259C144.174 10.7366 144.074 10.6749 143.962 10.6517C143.85 10.6284 143.734 10.6449 143.633 10.6985L132.385 17.1657L132.9 17.8522L144.128 11.3702C144.175 11.3455 144.216 11.3108 144.248 11.2686C144.28 11.2263 144.303 11.1775 144.314 11.1256C144.325 11.0737 144.325 11.0199 144.313 10.9682C144.301 10.9164 144.278 10.8678 144.245 10.8259Z" fill="#4464A0"/>
<path d="M120.24 102.353C120.277 102.34 120.317 102.336 120.357 102.342C120.396 102.348 120.433 102.364 120.465 102.387C120.565 102.453 120.648 102.542 120.707 102.646C120.767 102.75 120.802 102.866 120.808 102.985C120.811 103.023 120.806 103.062 120.792 103.097C120.778 103.133 120.757 103.165 120.73 103.191L120.691 103.216L105.952 111.723L104.971 111.164L120.24 102.353Z" fill="#455A64"/>
<path d="M122.231 103.505C122.268 103.491 122.308 103.486 122.347 103.492C122.387 103.497 122.424 103.511 122.456 103.535C122.557 103.6 122.641 103.689 122.701 103.792C122.762 103.896 122.797 104.013 122.804 104.133C122.808 104.172 122.802 104.211 122.788 104.248C122.773 104.285 122.75 104.317 122.721 104.344L122.682 104.368L107.943 112.875L106.962 112.316L122.231 103.505Z" fill="#455A64"/>
<path d="M124.221 104.653C124.259 104.64 124.299 104.636 124.338 104.642C124.377 104.648 124.415 104.663 124.447 104.687C124.547 104.752 124.63 104.839 124.689 104.942C124.749 105.045 124.783 105.161 124.79 105.28C124.793 105.319 124.788 105.358 124.774 105.394C124.761 105.431 124.739 105.464 124.711 105.491L124.667 105.516L109.933 114.022L108.953 113.464L124.221 104.653Z" fill="#455A64"/>
<path d="M126.212 105.8C126.25 105.788 126.291 105.785 126.331 105.791C126.371 105.797 126.409 105.812 126.442 105.834C126.542 105.9 126.625 105.989 126.685 106.093C126.744 106.197 126.779 106.313 126.785 106.432C126.789 106.47 126.784 106.509 126.77 106.544C126.756 106.58 126.735 106.612 126.707 106.638L126.668 106.663L111.929 115.17L110.948 114.611L126.212 105.8Z" fill="#455A64"/>
<path d="M25.4424 154.042C25.4916 154.717 25.6993 155.372 26.0485 155.952C26.3978 156.532 26.8788 157.021 27.4527 157.381L83.8389 189.923C84.4626 190.24 85.1522 190.405 85.8516 190.405C86.5511 190.405 87.2406 190.24 87.8643 189.923L164.981 145.398C165.589 145.076 166.097 144.595 166.452 144.007C166.806 143.418 166.994 142.743 166.994 142.056C166.994 141.369 166.806 140.695 166.452 140.106C166.097 139.517 165.589 139.036 164.981 138.715L108.614 106.173C107.991 105.858 107.302 105.695 106.604 105.695C105.906 105.695 105.217 105.858 104.594 106.173L27.4723 150.698C26.8942 151.056 26.4089 151.545 26.0561 152.126C25.7033 152.708 25.493 153.364 25.4424 154.042Z" fill="#4464A0"/>
<path opacity="0.7" d="M85.8491 186.05V190.404C85.1467 190.414 84.4532 190.245 83.8339 189.913L27.4723 157.381C26.8812 157.071 26.3829 156.61 26.0286 156.045C25.6742 155.48 25.4764 154.83 25.4555 154.163C25.4345 153.496 25.5912 152.836 25.9093 152.249C26.2275 151.663 26.6958 151.172 27.2663 150.826C26.3642 151.473 26.4328 152.419 27.4723 153.017L83.8585 185.559C84.4695 185.889 85.1547 186.058 85.8491 186.05Z" fill="black"/>
<path d="M23.5737 150.772C23.0104 150.389 22.5456 149.879 22.2174 149.282C21.8893 148.686 21.7072 148.02 21.686 147.339V80.0976C21.7242 79.4002 21.9261 78.7217 22.2754 78.1168C22.6246 77.512 23.1114 76.998 23.6963 76.6163L100.818 32.0909C101.4 31.7261 102.07 31.5267 102.757 31.5142C103.443 31.5017 104.121 31.6764 104.715 32.0197C105.31 32.363 105.8 32.8618 106.133 33.4627C106.466 34.0635 106.628 34.7436 106.604 35.4299V102.691C106.566 103.389 106.365 104.068 106.015 104.673C105.666 105.278 105.179 105.791 104.593 106.173L27.4717 150.698C26.8736 151.016 26.2089 151.189 25.5316 151.201C24.8542 151.214 24.1834 151.067 23.5737 150.772Z" fill="#4464A0"/>
<path opacity="0.7" d="M27.2315 150.826C26.6552 151.085 26.0291 151.215 25.3972 151.206C24.7653 151.198 24.1429 151.051 23.5737 150.776C23.0106 150.394 22.5461 149.883 22.218 149.287C21.8899 148.69 21.7076 148.025 21.686 147.344V80.0976C21.7133 79.4046 21.9157 78.7299 22.2744 78.1364L26.0498 80.3134C25.6896 80.9065 25.4855 81.5812 25.4566 82.2746V149.541C25.4418 150.727 26.2362 151.262 27.2315 150.826Z" fill="black"/>
<path opacity="0.5" d="M25.4424 82.2795V149.541C25.4424 150.821 26.3397 151.34 27.4527 150.698L104.574 106.173C105.16 105.791 105.647 105.278 105.996 104.673C106.346 104.068 106.547 103.389 106.585 102.691V35.4299C106.585 34.1453 105.682 33.6256 104.574 34.2679L27.4723 78.7934C26.8828 79.173 26.3916 79.6868 26.0388 80.2927C25.686 80.8986 25.4816 81.5795 25.4424 82.2795Z" fill="black"/>
<path d="M27.4725 153.022L83.8586 185.564C84.4824 185.881 85.1719 186.046 85.8714 186.046C86.5708 186.046 87.2604 185.881 87.8841 185.564L164.976 141.019C166.089 140.377 166.089 139.337 164.976 138.695L108.615 106.173C107.991 105.858 107.303 105.695 106.604 105.695C105.906 105.695 105.218 105.858 104.594 106.173L27.4725 150.698C26.3594 151.34 26.3594 152.38 27.4725 153.022Z" fill="#4464A0"/>
<path opacity="0.3" d="M27.4725 153.022L83.8586 185.564C84.4824 185.881 85.1719 186.046 85.8714 186.046C86.5708 186.046 87.2604 185.881 87.8841 185.564L164.976 141.019C166.089 140.377 166.089 139.337 164.976 138.695L108.615 106.173C107.991 105.858 107.303 105.695 106.604 105.695C105.906 105.695 105.218 105.858 104.594 106.173L27.4725 150.698C26.3594 151.34 26.3594 152.38 27.4725 153.022Z" fill="black"/>
<path d="M28.5553 82.5247L102.912 39.6074C103.578 39.225 104.118 39.5388 104.118 40.3086V98.5334C104.095 98.9519 103.974 99.359 103.764 99.7219C103.555 100.085 103.263 100.393 102.912 100.622L28.5553 143.539C27.8885 143.922 27.3442 143.613 27.3442 142.843V84.633C27.3658 84.211 27.4867 83.8001 27.6971 83.4337C27.9076 83.0673 28.2016 82.7559 28.5553 82.5247Z" fill="#FAFAFA"/>
<path d="M77.6119 73.4391L77.1215 86.8836C77.1215 92.4192 73.6452 102.417 66.4915 109.806C65.9783 110.297 65.329 110.621 64.6283 110.737C64.2655 110.772 63.9174 110.786 63.5742 110.786C62.0441 110.809 60.5352 110.427 59.2006 109.678L59.1564 109.654L59.0731 109.6C55.8909 107.678 54.3219 103.755 54.3219 100.058L53.8316 87.2072C53.8284 86.8601 53.9583 86.525 54.1944 86.2707C54.37 86.0621 54.5893 85.8947 54.8367 85.7803C58.112 84.3094 63.0201 78.5286 65.3246 72.8066C65.4913 72.3997 65.7364 72.2673 66.011 72.3948L66.0502 72.4193C66.1441 72.4721 66.2286 72.54 66.3003 72.6203L66.3444 72.6742C68.796 75.5181 73.5962 75.5132 76.8028 73.0616C77.048 72.8753 77.249 72.8164 77.3863 72.8753C77.553 72.9733 77.6217 73.1498 77.6119 73.4391Z" fill="#4464A0"/>
<path opacity="0.2" d="M65.7319 72.3752C65.6394 72.4139 65.5567 72.4727 65.4897 72.5473C65.4227 72.6219 65.3732 72.7105 65.3446 72.8066C63.0401 78.5286 58.1321 84.329 54.8568 85.7804C54.6093 85.8947 54.39 86.0621 54.2144 86.2707C53.9783 86.525 53.8485 86.8601 53.8516 87.2072L54.3419 100.058C54.3419 103.77 55.9109 107.693 59.1078 109.6L59.1911 109.654L59.2353 109.678C60.57 110.427 62.0788 110.809 63.6089 110.786C63.9521 110.786 64.3002 110.786 64.6631 110.737C65.0464 110.684 65.4159 110.557 65.7516 110.365L65.7319 72.3752Z" fill="black"/>
<path opacity="0.3" d="M34.0132 151.281L105.599 109.953C105.911 109.796 106.255 109.714 106.604 109.714C106.953 109.714 107.298 109.796 107.609 109.953L111.272 112.066C111.394 112.107 111.5 112.185 111.575 112.289C111.65 112.394 111.69 112.519 111.69 112.647C111.69 112.776 111.65 112.901 111.575 113.005C111.5 113.109 111.394 113.187 111.272 113.228L39.6617 154.552C39.3499 154.709 39.0057 154.791 38.6565 154.791C38.3073 154.791 37.9631 154.709 37.6514 154.552L33.9985 152.444C33.8773 152.401 33.7724 152.322 33.6987 152.217C33.6251 152.111 33.5863 151.986 33.5879 151.857C33.5896 151.729 33.6315 151.604 33.7078 151.501C33.7841 151.398 33.891 151.321 34.0132 151.281Z" fill="black"/>
<path opacity="0.3" d="M43.4514 156.709L115.037 115.381C115.348 115.221 115.693 115.138 116.042 115.138C116.392 115.138 116.737 115.221 117.048 115.381L139.568 128.384C139.69 128.425 139.795 128.503 139.87 128.607C139.945 128.711 139.986 128.836 139.986 128.965C139.986 129.093 139.945 129.218 139.87 129.323C139.795 129.427 139.69 129.505 139.568 129.546L68.0652 170.835C67.7525 170.992 67.4075 171.074 67.0576 171.074C66.7077 171.074 66.3627 170.992 66.05 170.835L43.4514 157.886C43.3212 157.852 43.2058 157.776 43.1235 157.669C43.0412 157.563 42.9966 157.432 42.9966 157.298C42.9966 157.163 43.0412 157.032 43.1235 156.926C43.2058 156.819 43.3212 156.743 43.4514 156.709Z" fill="black"/>
<path d="M107.619 133.993L109.86 132.699C109.953 132.645 109.948 132.551 109.86 132.493L107.271 130.997C107.215 130.97 107.154 130.955 107.092 130.955C107.03 130.955 106.969 130.97 106.913 130.997L104.672 132.292C104.574 132.35 104.579 132.439 104.672 132.498L107.266 133.998C107.321 134.024 107.382 134.037 107.443 134.036C107.504 134.035 107.565 134.021 107.619 133.993ZM103.206 128.854L100.951 130.144C100.853 130.203 100.858 130.291 100.951 130.355L103.545 131.85C103.6 131.878 103.661 131.892 103.724 131.892C103.786 131.892 103.847 131.878 103.903 131.85L106.143 130.556C106.236 130.502 106.232 130.409 106.143 130.35L103.554 128.854C103.499 128.826 103.438 128.811 103.375 128.811C103.313 128.811 103.252 128.826 103.197 128.854H103.206ZM95.9644 133.032L92.1693 135.224C92.0762 135.278 92.0811 135.371 92.1693 135.43L94.7631 136.901C94.8179 136.928 94.8783 136.943 94.9396 136.943C95.0009 136.943 95.0614 136.928 95.1161 136.901L98.9112 134.709C99.0043 134.655 98.9994 134.562 98.9112 134.503L96.3223 133.032C96.2654 133.003 96.2024 132.987 96.1384 132.987C96.0745 132.987 96.0114 133.003 95.9546 133.032H95.9644ZM99.9212 130.723L97.6756 132.017C97.5824 132.071 97.5873 132.164 97.6756 132.223L100.269 133.694C100.325 133.722 100.386 133.736 100.448 133.736C100.51 133.736 100.572 133.722 100.627 133.694L102.868 132.399C102.961 132.346 102.956 132.252 102.868 132.194L100.279 130.698C100.222 130.674 100.159 130.664 100.097 130.668C100.035 130.672 99.9749 130.691 99.9212 130.723ZM91.1446 135.822L88.8842 137.097C88.7911 137.156 88.796 137.249 88.8842 137.308L91.4731 138.803C91.5287 138.831 91.59 138.845 91.6521 138.845C91.7142 138.845 91.7754 138.831 91.831 138.803L94.0718 137.509C94.1698 137.455 94.1649 137.361 94.0718 137.303L91.478 135.832C91.4267 135.805 91.3701 135.791 91.3124 135.789C91.2547 135.787 91.1974 135.799 91.1446 135.822ZM87.8693 137.71L85.6285 139.004C85.5354 139.058 85.5403 139.151 85.6285 139.21L88.2174 140.705C88.2727 140.734 88.3341 140.749 88.3964 140.749C88.4587 140.749 88.5201 140.734 88.5753 140.705L90.8161 139.411C90.9141 139.357 90.9092 139.264 90.8161 139.205L88.2027 137.719C88.1485 137.691 88.0885 137.675 88.0273 137.674C87.9661 137.672 87.9054 137.684 87.8497 137.71H87.8693ZM98.0629 143.794L100.309 142.5C100.402 142.446 100.397 142.353 100.309 142.294L97.7148 140.799C97.6595 140.77 97.5981 140.755 97.5358 140.755C97.4735 140.755 97.4121 140.77 97.3569 140.799L95.0671 142.088C94.9739 142.142 94.9788 142.235 95.0671 142.294L97.656 143.765C97.7128 143.802 97.7781 143.824 97.8458 143.83C97.9136 143.835 97.9815 143.823 98.0433 143.794H98.0629ZM94.7876 145.687L97.0284 144.393C97.1264 144.339 97.1215 144.245 97.0284 144.187L94.4346 142.716C94.379 142.688 94.3177 142.674 94.2556 142.674C94.1935 142.674 94.1323 142.688 94.0767 142.716L91.8065 143.961C91.7133 144.015 91.7183 144.108 91.8065 144.167L94.3954 145.667C94.4513 145.701 94.5144 145.72 94.5793 145.723C94.6442 145.726 94.7089 145.714 94.768 145.687H94.7876ZM91.5123 147.58L93.7531 146.285C93.8511 146.231 93.8462 146.138 93.7531 146.079L91.1446 144.584C91.0893 144.555 91.0279 144.54 90.9656 144.54C90.9033 144.54 90.8419 144.555 90.7867 144.584L88.5459 145.878C88.4527 145.932 88.4577 146.025 88.5459 146.084L91.1348 147.58C91.1904 147.607 91.2516 147.622 91.3137 147.622C91.3758 147.622 91.4371 147.607 91.4927 147.58H91.5123ZM88.2027 149.467L90.4434 148.178C90.5415 148.119 90.5317 148.026 90.4434 147.967L87.8497 146.472C87.7941 146.444 87.7328 146.429 87.6707 146.429C87.6086 146.429 87.5473 146.444 87.4917 146.472L85.2608 147.761C85.1676 147.815 85.1725 147.908 85.2608 147.967L87.8497 149.462C87.9039 149.491 87.9642 149.507 88.0256 149.507C88.087 149.508 88.1477 149.495 88.2027 149.467ZM104.329 135.886L106.57 134.591C106.663 134.537 106.658 134.444 106.57 134.385L103.981 132.89C103.925 132.862 103.864 132.848 103.802 132.848C103.74 132.848 103.679 132.862 103.623 132.89L101.382 134.155C101.284 134.209 101.289 134.302 101.382 134.361L103.976 135.856C104.031 135.89 104.092 135.91 104.156 135.916C104.22 135.921 104.285 135.91 104.344 135.886H104.329ZM101.304 141.907L106.305 139.019C106.403 138.965 106.393 138.872 106.305 138.813L100.009 135.18C99.9539 135.152 99.8926 135.138 99.8305 135.138C99.7684 135.138 99.7071 135.152 99.6515 135.18L97.0676 136.675C96.9695 136.729 96.9744 136.822 97.0676 136.881L100.402 138.803C100.505 138.862 100.51 138.955 100.402 139.009L98.3326 140.205C98.2394 140.259 98.2443 140.352 98.3326 140.411L100.926 141.907C100.986 141.941 101.054 141.959 101.122 141.959C101.191 141.959 101.259 141.941 101.319 141.907H101.304ZM84.5597 139.602L82.3189 140.897C82.2258 140.951 82.2307 141.044 82.3189 141.103L84.9078 142.598C84.9634 142.626 85.0246 142.64 85.0867 142.64C85.1488 142.64 85.2101 142.626 85.2657 142.598L87.5064 141.304C87.6045 141.25 87.5996 141.156 87.5064 141.098L84.9127 139.602C84.86 139.577 84.8021 139.563 84.7435 139.563C84.6849 139.563 84.6271 139.577 84.5744 139.602H84.5597ZM81.2991 141.51L79.0583 142.804C78.9652 142.858 78.9701 142.951 79.0583 143.01L81.6472 144.505C81.7024 144.534 81.7638 144.549 81.8261 144.549C81.8885 144.549 81.9498 144.534 82.0051 144.505L84.2458 143.216C84.3439 143.157 84.3341 143.064 84.2458 143.005L81.6521 141.534C81.599 141.503 81.5396 141.485 81.4784 141.481C81.4172 141.477 81.3559 141.486 81.2991 141.51ZM64.9324 162.716C64.9876 162.744 65.049 162.759 65.1113 162.759C65.1736 162.759 65.235 162.744 65.2903 162.716L67.531 161.426C67.6242 161.367 67.6193 161.274 67.531 161.215L64.9373 159.72C64.8826 159.692 64.8221 159.677 64.7607 159.677C64.6994 159.677 64.6389 159.692 64.5842 159.72L62.3386 161.014C62.2454 161.068 62.2503 161.161 62.3386 161.22L64.9324 162.716ZM55.0917 156.641L52.851 157.93C52.7578 157.989 52.7627 158.077 52.851 158.141L55.4399 159.636C55.4955 159.664 55.5567 159.678 55.6188 159.678C55.6809 159.678 55.7422 159.664 55.7978 159.636L58.0385 158.342C58.1366 158.288 58.1317 158.195 58.0385 158.136L55.4448 156.641C55.3913 156.61 55.3314 156.593 55.27 156.591C55.2086 156.588 55.1475 156.6 55.0917 156.626V156.641ZM60.3675 161.078C60.4231 161.106 60.4844 161.12 60.5465 161.12C60.6086 161.12 60.6699 161.106 60.7255 161.078L62.9662 159.784C63.0594 159.73 63.0544 159.636 62.9662 159.578L60.3773 158.082C60.3217 158.055 60.2605 158.04 60.1984 158.04C60.1363 158.04 60.075 158.055 60.0194 158.082L57.7787 159.377C57.6806 159.435 57.6855 159.524 57.7787 159.583L60.3675 161.078ZM70.7132 163.863L72.9539 162.573C73.052 162.515 73.0471 162.421 72.9539 162.363L70.3601 160.867C70.3045 160.84 70.2433 160.825 70.1812 160.825C70.1191 160.825 70.0578 160.84 70.0022 160.867L67.7615 162.162C67.6683 162.216 67.6732 162.309 67.7615 162.368L70.3503 163.863C70.4074 163.89 70.4703 163.903 70.5336 163.901C70.5968 163.898 70.6585 163.88 70.7132 163.848V163.863ZM67.0799 165.751C67.1355 165.778 67.1968 165.793 67.2589 165.793C67.321 165.793 67.3823 165.778 67.4379 165.751L69.6786 164.456C69.7767 164.402 69.7669 164.309 69.6786 164.25L67.0848 162.755C67.0292 162.727 66.968 162.713 66.9059 162.713C66.8438 162.713 66.7825 162.727 66.7269 162.755L64.4862 164.049C64.393 164.108 64.3979 164.196 64.4862 164.255L67.0799 165.751ZM58.367 154.748L56.1263 156.042C56.0331 156.096 56.038 156.19 56.1263 156.248L58.7201 157.744C58.7745 157.773 58.8351 157.788 58.8966 157.788C58.9581 157.788 59.0187 157.773 59.0731 157.744L61.3187 156.454C61.4119 156.395 61.407 156.307 61.3187 156.243L58.725 154.773C58.6713 154.741 58.611 154.722 58.5489 154.718C58.4868 154.714 58.4245 154.724 58.367 154.748ZM74.7485 145.29L72.5126 146.57C72.4146 146.624 72.4244 146.717 72.5126 146.775L75.1064 148.271C75.162 148.299 75.2232 148.313 75.2854 148.313C75.3475 148.313 75.4087 148.299 75.4643 148.271L77.7051 146.977C77.7982 146.923 77.7933 146.829 77.7051 146.771L75.1162 145.275C75.0593 145.246 74.9963 145.231 74.9323 145.231C74.8684 145.231 74.8053 145.246 74.7485 145.275V145.29ZM61.6472 152.855L59.4016 154.15C59.3084 154.204 59.3133 154.297 59.4016 154.356L61.9954 155.851C62.051 155.879 62.1122 155.893 62.1743 155.893C62.2364 155.893 62.2977 155.879 62.3533 155.851L64.594 154.557C64.6872 154.503 64.6823 154.41 64.594 154.351L62.0003 152.855C61.9467 152.826 61.8868 152.809 61.8255 152.806C61.7642 152.803 61.7031 152.815 61.6472 152.841V152.855ZM78.0238 143.397L75.783 144.692C75.685 144.75 75.6948 144.839 75.783 144.898L78.3768 146.398C78.4324 146.426 78.4936 146.44 78.5557 146.44C78.6178 146.44 78.6791 146.426 78.7347 146.398L80.9754 145.104C81.0735 145.05 81.0637 144.956 80.9754 144.898L78.3964 143.392C78.3397 143.361 78.2762 143.343 78.2113 143.342C78.1464 143.34 78.0821 143.354 78.0238 143.383V143.397ZM71.4732 147.182L69.2324 148.477C69.1344 148.531 69.1393 148.624 69.2324 148.683L71.8262 150.154C71.8818 150.181 71.943 150.196 72.0051 150.196C72.0672 150.196 72.1285 150.181 72.1841 150.154L74.4248 148.859C74.518 148.8 74.5131 148.712 74.4248 148.653L71.836 147.153C71.7786 147.127 71.7158 147.115 71.6528 147.117C71.5898 147.12 71.5282 147.137 71.4732 147.168V147.182ZM68.1978 149.075L65.9571 150.335C65.8591 150.389 65.864 150.482 65.9571 150.541L68.5509 152.037C68.6061 152.065 68.6675 152.08 68.7298 152.08C68.7922 152.08 68.8535 152.065 68.9088 152.037L71.1495 150.742C71.2427 150.688 71.2378 150.595 71.1495 150.536L68.5607 149.065C68.5052 149.035 68.4431 149.019 68.3799 149.018C68.3166 149.017 68.2541 149.031 68.1978 149.06V149.075ZM64.9226 150.963L62.7063 152.243C62.6083 152.296 62.6132 152.39 62.7063 152.448L65.3001 153.949C65.3557 153.976 65.417 153.991 65.4791 153.991C65.5412 153.991 65.6024 153.976 65.658 153.949L67.8988 152.654C67.9919 152.6 67.987 152.507 67.8988 152.448L65.3099 150.953C65.251 150.92 65.1846 150.902 65.1169 150.901C65.0491 150.9 64.9823 150.916 64.9226 150.948V150.963ZM81.6668 153.267L83.9075 151.973C84.0007 151.919 83.9958 151.826 83.9075 151.767L81.3187 150.271C81.2631 150.244 81.2018 150.229 81.1397 150.229C81.0776 150.229 81.0163 150.244 80.9607 150.271L78.72 151.566C78.6219 151.62 78.6317 151.713 78.72 151.772L81.3138 153.267C81.368 153.296 81.428 153.311 81.4892 153.313C81.5503 153.315 81.6111 153.302 81.6668 153.277V153.267ZM110.438 124.687L108.193 125.981C108.1 126.035 108.105 126.128 108.193 126.187L110.787 127.658C110.842 127.686 110.903 127.7 110.966 127.7C111.028 127.7 111.089 127.686 111.145 127.658L113.385 126.364C113.478 126.305 113.474 126.217 113.385 126.158L110.791 124.657C110.736 124.632 110.675 124.62 110.613 124.622C110.552 124.625 110.492 124.642 110.438 124.672V124.687ZM106.472 126.977L104.231 128.271C104.133 128.325 104.138 128.418 104.231 128.477L106.825 129.972C106.88 130.001 106.941 130.016 107.004 130.016C107.066 130.016 107.128 130.001 107.183 129.972L109.424 128.683C109.517 128.624 109.512 128.531 109.424 128.472L106.835 126.967C106.779 126.938 106.717 126.922 106.654 126.921C106.591 126.92 106.528 126.934 106.472 126.962V126.977ZM113.699 122.779L111.458 124.074C111.36 124.128 111.365 124.221 111.458 124.28L114.052 125.775C114.108 125.803 114.169 125.817 114.231 125.817C114.293 125.817 114.354 125.803 114.41 125.775L116.651 124.481C116.744 124.427 116.739 124.334 116.651 124.275L114.062 122.779C114.006 122.751 113.943 122.736 113.88 122.736C113.817 122.736 113.755 122.751 113.699 122.779ZM96.744 140.264L98.9847 138.97C99.0779 138.916 99.073 138.823 98.9847 138.764L96.3959 137.293C96.3402 137.265 96.279 137.251 96.2169 137.251C96.1548 137.251 96.0935 137.265 96.0379 137.293L93.7923 138.568C93.6991 138.626 93.704 138.715 93.7923 138.774L96.386 140.274C96.4443 140.302 96.5087 140.317 96.5736 140.315C96.6385 140.313 96.702 140.296 96.7587 140.264H96.744ZM117.337 120.897C117.282 120.869 117.22 120.855 117.158 120.855C117.096 120.855 117.035 120.869 116.979 120.897L114.739 122.191C114.64 122.25 114.645 122.338 114.739 122.397L117.332 123.897C117.388 123.925 117.449 123.939 117.511 123.939C117.573 123.939 117.635 123.925 117.69 123.897L119.931 122.603C120.024 122.549 120.019 122.456 119.931 122.397L117.337 120.897ZM84.9323 151.36L87.173 150.066C87.2711 150.012 87.2613 149.918 87.173 149.86L84.5793 148.389C84.5237 148.361 84.4624 148.347 84.4003 148.347C84.3382 148.347 84.2769 148.361 84.2213 148.389L81.9806 149.683C81.8825 149.742 81.8923 149.83 81.9806 149.889L84.5695 151.389C84.6293 151.415 84.6945 151.426 84.7594 151.421C84.8243 151.415 84.887 151.395 84.9421 151.36H84.9323ZM125.104 128.168L127.345 126.874C127.438 126.82 127.433 126.727 127.345 126.668L124.756 125.172C124.7 125.145 124.639 125.13 124.577 125.13C124.515 125.13 124.453 125.145 124.398 125.172L122.157 126.467C122.059 126.521 122.069 126.614 122.157 126.673L124.751 128.144C124.805 128.177 124.866 128.197 124.929 128.201C124.992 128.205 125.056 128.194 125.114 128.168H125.104ZM118.127 127.923L120.367 126.628C120.46 126.575 120.456 126.481 120.367 126.423L117.778 124.927C117.723 124.899 117.662 124.885 117.6 124.885C117.537 124.885 117.476 124.899 117.421 124.927L115.17 126.212C115.072 126.266 115.077 126.359 115.17 126.418L117.764 127.889C117.818 127.924 117.881 127.946 117.946 127.952C118.011 127.958 118.076 127.948 118.136 127.923H118.127ZM121.039 123.02C120.983 122.992 120.922 122.978 120.86 122.978C120.798 122.978 120.737 122.992 120.681 123.02L118.44 124.314C118.342 124.373 118.347 124.461 118.44 124.52L121.034 126.02C121.09 126.048 121.151 126.063 121.213 126.063C121.275 126.063 121.336 126.048 121.392 126.02L123.633 124.726C123.726 124.672 123.721 124.579 123.633 124.52L121.039 123.02ZM121.726 122.623L128.021 126.256C128.076 126.285 128.138 126.3 128.2 126.3C128.262 126.3 128.324 126.285 128.379 126.256L130.62 124.961C130.718 124.907 130.708 124.814 130.62 124.755L124.324 121.122C124.269 121.093 124.208 121.078 124.145 121.078C124.083 121.078 124.022 121.093 123.966 121.122L121.726 122.417C121.627 122.485 121.637 122.578 121.735 122.637L121.726 122.623ZM114.14 126.8L111.9 128.095C111.802 128.148 111.806 128.242 111.9 128.3L114.493 129.796C114.549 129.825 114.61 129.84 114.672 129.84C114.735 129.84 114.796 129.825 114.851 129.796L117.092 128.506C117.185 128.448 117.18 128.359 117.092 128.296L114.498 126.8C114.443 126.772 114.381 126.758 114.319 126.758C114.257 126.758 114.196 126.772 114.14 126.8ZM89.4824 141.019L87.2221 142.338C87.1289 142.392 87.1338 142.485 87.2221 142.544L89.8109 144.04C89.8665 144.067 89.9278 144.082 89.9899 144.082C90.052 144.082 90.1132 144.067 90.1688 144.04L92.4096 142.745C92.5077 142.686 92.5028 142.598 92.4096 142.539L89.8158 141.039C89.7631 141.016 89.7061 141.004 89.6486 141.005C89.5911 141.006 89.5344 141.019 89.4824 141.044V141.019ZM121.48 130.026C121.536 130.054 121.597 130.068 121.659 130.068C121.721 130.068 121.783 130.054 121.838 130.026L124.079 128.732C124.172 128.678 124.167 128.585 124.079 128.526L121.49 127.055C121.435 127.026 121.373 127.011 121.311 127.011C121.249 127.011 121.187 127.026 121.132 127.055L118.891 128.349C118.793 128.403 118.798 128.497 118.891 128.555L121.48 130.026ZM92.7577 139.127L90.517 140.421C90.4238 140.475 90.4287 140.568 90.517 140.627L93.1058 142.147C93.1606 142.175 93.221 142.189 93.2823 142.189C93.3437 142.189 93.4041 142.175 93.4589 142.147L95.7045 140.852C95.7977 140.799 95.7928 140.705 95.7045 140.647L93.1058 139.161C93.0523 139.133 92.9931 139.118 92.9329 139.116C92.8726 139.115 92.8128 139.127 92.7577 139.151V139.127ZM68.2077 160.784C68.2633 160.811 68.3245 160.826 68.3866 160.826C68.4487 160.826 68.51 160.811 68.5656 160.784L70.8063 159.489C70.8995 159.435 70.8946 159.342 70.8063 159.283L68.2175 157.788C68.1619 157.76 68.1006 157.746 68.0385 157.746C67.9764 157.746 67.9151 157.76 67.8595 157.788L65.6188 159.082C65.5207 159.136 65.5256 159.229 65.6188 159.288L68.2077 160.784ZM63.28 156.15L61.0393 157.445C60.9412 157.499 60.9461 157.592 61.0393 157.651L63.633 159.122C63.6883 159.15 63.7497 159.165 63.812 159.165C63.8743 159.165 63.9357 159.15 63.9909 159.122L66.2317 157.827C66.3249 157.773 66.3199 157.68 66.2317 157.621L63.6428 156.126C63.583 156.103 63.5186 156.096 63.4553 156.105C63.3919 156.113 63.3317 156.137 63.28 156.175V156.15ZM71.8409 158.901L74.0816 157.607C74.1748 157.553 74.1699 157.459 74.0816 157.401L71.4928 155.93C71.4372 155.902 71.3759 155.888 71.3138 155.888C71.2517 155.888 71.1904 155.902 71.1348 155.93L68.8794 157.2C68.7813 157.254 68.7862 157.347 68.8794 157.406L71.4732 158.906C71.5285 158.938 71.5907 158.957 71.6546 158.96C71.7186 158.964 71.7825 158.952 71.8409 158.925V158.901ZM75.1162 157.008L77.3569 155.714C77.4501 155.66 77.4452 155.567 77.3569 155.508L74.7681 154.013C74.7128 153.984 74.6514 153.969 74.5891 153.969C74.5268 153.969 74.4654 153.984 74.4101 154.013L72.1694 155.307C72.0713 155.361 72.0762 155.454 72.1694 155.513L74.7632 156.984C74.8138 157.02 74.8723 157.043 74.9337 157.051C74.9951 157.06 75.0577 157.054 75.1162 157.033V157.008ZM78.3915 155.121L80.6322 153.826C80.7254 153.767 80.7205 153.679 80.6322 153.62L78.0434 152.12C77.9878 152.092 77.9265 152.078 77.8644 152.078C77.8023 152.078 77.7411 152.092 77.6854 152.12L75.4545 153.434C75.3564 153.488 75.3613 153.581 75.4545 153.64L78.0483 155.135C78.1018 155.163 78.161 155.178 78.2212 155.18C78.2815 155.182 78.3413 155.17 78.3964 155.145L78.3915 155.121ZM66.5553 154.258L64.3146 155.552C64.2165 155.606 64.2214 155.699 64.3146 155.758L66.9083 157.254C66.9639 157.281 67.0252 157.296 67.0873 157.296C67.1494 157.296 67.2106 157.281 67.2663 157.254L69.507 155.959C69.6001 155.9 69.5952 155.812 69.507 155.753L66.9181 154.253C66.8596 154.229 66.7962 154.219 66.7332 154.224C66.6701 154.229 66.6092 154.249 66.5553 154.282V154.258ZM69.8306 152.365L67.6095 153.684C67.5114 153.738 67.5163 153.831 67.6095 153.89L70.2032 155.385C70.2588 155.413 70.3201 155.427 70.3822 155.427C70.4443 155.427 70.5056 155.413 70.5612 155.385L72.8019 154.091C72.8951 154.037 72.8902 153.944 72.8019 153.885L70.213 152.39C70.1543 152.358 70.0886 152.341 70.0218 152.341C69.9551 152.341 69.8893 152.358 69.8306 152.39V152.365ZM82.9318 144.8L80.6911 146.094C80.5979 146.148 80.6028 146.241 80.6911 146.3L83.2799 147.795C83.3352 147.824 83.3966 147.839 83.4589 147.839C83.5212 147.839 83.5826 147.824 83.6379 147.795L85.8786 146.501C85.9767 146.447 85.9718 146.354 85.8786 146.295L83.2995 144.834C83.2435 144.803 83.1808 144.786 83.1169 144.784C83.0529 144.783 82.9895 144.796 82.9318 144.824V144.8ZM79.6565 146.692L77.4158 148.011C77.3226 148.065 77.3275 148.158 77.4158 148.217L80.0046 149.712C80.0602 149.74 80.1215 149.755 80.1836 149.755C80.2457 149.755 80.3069 149.74 80.3626 149.712L82.6033 148.418C82.7014 148.364 82.6965 148.271 82.6033 148.212L80.0095 146.717C79.9549 146.689 79.8944 146.674 79.833 146.674C79.7716 146.674 79.7111 146.689 79.6565 146.717V146.692ZM86.2071 142.912L83.9664 144.201C83.8732 144.26 83.8781 144.353 83.9664 144.412L86.5552 145.883C86.6108 145.911 86.6721 145.925 86.7342 145.925C86.7963 145.925 86.8576 145.911 86.9132 145.883L89.1539 144.589C89.252 144.535 89.2471 144.442 89.1539 144.383L86.5601 142.887C86.5017 142.867 86.4391 142.86 86.3776 142.869C86.3162 142.877 86.2577 142.9 86.2071 142.936V142.912ZM73.1059 150.472L70.8652 151.806C70.7671 151.865 70.7769 151.953 70.8652 152.012L73.4589 153.512C73.5145 153.54 73.5758 153.554 73.6379 153.554C73.7 153.554 73.7613 153.54 73.8169 153.512L76.0576 152.218C76.1508 152.164 76.1459 152.071 76.0576 152.012L73.4687 150.541C73.416 150.506 73.3557 150.483 73.2926 150.475C73.2296 150.468 73.1656 150.475 73.1059 150.497V150.472ZM76.3812 148.585L74.1405 149.879C74.0473 149.933 74.0522 150.026 74.1405 150.085L76.7293 151.556C76.7846 151.585 76.846 151.6 76.9083 151.6C76.9706 151.6 77.032 151.585 77.0873 151.556L79.328 150.267C79.4261 150.208 79.4162 150.115 79.328 150.056L76.7342 148.56C76.6756 148.541 76.6132 148.535 76.552 148.544C76.4908 148.552 76.4323 148.575 76.3812 148.609V148.585ZM73.9836 161.961L76.2243 160.666C76.3224 160.612 76.3175 160.519 76.2243 160.46L73.6305 158.989C73.5753 158.96 73.5139 158.945 73.4516 158.945C73.3893 158.945 73.3279 158.96 73.2726 158.989L71.0417 160.249C70.9485 160.303 70.9534 160.396 71.0417 160.455L73.6305 161.951C73.6848 161.979 73.7447 161.995 73.8059 161.996C73.8671 161.998 73.9279 161.986 73.9836 161.961ZM54.7632 159.999L52.1695 158.504C52.1139 158.476 52.0526 158.462 51.9905 158.462C51.9284 158.462 51.8671 158.476 51.8115 158.504L49.5708 159.798C49.4776 159.852 49.4825 159.945 49.5708 160.004L52.1597 161.5C52.2153 161.527 52.2765 161.542 52.3386 161.542C52.4007 161.542 52.462 161.527 52.5176 161.5L54.7583 160.205C54.8613 160.171 54.8613 160.078 54.7681 160.019L54.7632 159.999ZM59.6664 161.441L57.0726 159.945C57.0179 159.918 56.9574 159.903 56.8961 159.903C56.8348 159.903 56.7743 159.918 56.7196 159.945L53.2874 161.936C53.1942 161.99 53.1991 162.083 53.2874 162.142L55.8762 163.613C55.9319 163.641 55.9931 163.655 56.0552 163.655C56.1173 163.655 56.1786 163.641 56.2342 163.613L59.6664 161.622C59.7644 161.612 59.7644 161.519 59.6762 161.46L59.6664 161.441ZM50.7819 157.106L48.1881 155.611C48.1325 155.583 48.0712 155.569 48.0091 155.569C47.947 155.569 47.8858 155.583 47.8302 155.611L45.0844 157.2C44.9864 157.254 44.9913 157.347 45.0844 157.406L47.6782 158.901C47.7338 158.929 47.795 158.943 47.8571 158.943C47.9192 158.943 47.9805 158.929 48.0361 158.901L50.7917 157.307C50.8995 157.278 50.8946 157.2 50.7917 157.126L50.7819 157.106ZM52.8951 155.886C52.9504 155.914 53.0118 155.929 53.0741 155.929C53.1364 155.929 53.1978 155.914 53.2531 155.886L55.4938 154.591C55.5919 154.537 55.5821 154.444 55.4938 154.385L52.9 152.914C52.8444 152.887 52.7832 152.872 52.7211 152.872C52.659 152.872 52.5977 152.887 52.5421 152.914L50.3014 154.209C50.2082 154.263 50.2131 154.356 50.3014 154.415L52.8951 155.886ZM64.241 163.083L61.6472 161.612C61.592 161.584 61.5306 161.569 61.4683 161.569C61.406 161.569 61.3446 161.584 61.2893 161.612L56.9795 164.064C56.8863 164.118 56.8912 164.211 56.9795 164.27L59.5732 165.765C59.628 165.793 59.6884 165.807 59.7497 165.807C59.811 165.807 59.8715 165.793 59.9262 165.765L64.241 163.275C64.3489 163.25 64.344 163.157 64.241 163.083ZM66.3935 166.118L63.7997 164.623C63.7441 164.595 63.6829 164.581 63.6208 164.581C63.5587 164.581 63.4974 164.595 63.4418 164.623L60.6813 166.216C60.5882 166.27 60.5931 166.364 60.6813 166.422L63.2751 167.918C63.3307 167.946 63.392 167.96 63.4541 167.96C63.5162 167.96 63.5774 167.946 63.633 167.918L66.3886 166.324C66.5014 166.285 66.4916 166.192 66.3935 166.133V166.118ZM77.2589 141.828C77.3145 141.856 77.3757 141.87 77.4378 141.87C77.4999 141.87 77.5612 141.856 77.6168 141.828L79.8575 140.534C79.9556 140.475 79.9507 140.387 79.8575 140.328L77.2638 138.827C77.2082 138.8 77.1469 138.785 77.0848 138.785C77.0227 138.785 76.9615 138.8 76.9058 138.827L74.6651 140.122C74.5719 140.176 74.5768 140.269 74.6651 140.328L77.2589 141.828ZM70.7083 145.609C70.7635 145.637 70.8249 145.652 70.8872 145.652C70.9495 145.652 71.0109 145.637 71.0662 145.609L73.3069 144.314C73.405 144.26 73.4001 144.167 73.3069 144.108L70.7132 142.613C70.6576 142.585 70.5963 142.571 70.5342 142.571C70.4721 142.571 70.4108 142.585 70.3552 142.613L68.0998 143.922C68.0066 143.976 68.0115 144.069 68.0998 144.128L70.7083 145.609ZM56.1802 154.013C56.2358 154.04 56.2971 154.055 56.3592 154.055C56.4213 154.055 56.4826 154.04 56.5382 154.013L58.7789 152.718C58.877 152.664 58.8721 152.571 58.7789 152.512L56.1851 151.012C56.1295 150.984 56.0683 150.97 56.0062 150.97C55.9441 150.97 55.8828 150.984 55.8272 151.012L53.5767 152.296C53.4835 152.35 53.4884 152.444 53.5767 152.502L56.1802 154.013ZM73.9836 143.716C74.0392 143.744 74.1004 143.758 74.1625 143.758C74.2246 143.758 74.2859 143.744 74.3415 143.716L76.5822 142.421C76.6803 142.368 76.6754 142.274 76.5822 142.216L73.9836 140.745C73.9283 140.716 73.8669 140.701 73.8046 140.701C73.7423 140.701 73.6809 140.716 73.6256 140.745L71.3849 142.034C71.2917 142.093 71.2966 142.186 71.3849 142.245L73.9836 143.716ZM67.433 147.496C67.4886 147.524 67.5498 147.538 67.6119 147.538C67.674 147.538 67.7353 147.524 67.7909 147.496L70.0316 146.202C70.1297 146.148 70.1199 146.055 70.0316 145.996L67.4379 144.496C67.3823 144.468 67.321 144.454 67.2589 144.454C67.1968 144.454 67.1355 144.468 67.0799 144.496L64.8392 145.79C64.746 145.844 64.7509 145.937 64.8392 145.996L67.433 147.496ZM68.1929 166.354C68.1373 166.326 68.0761 166.312 68.014 166.312C67.9519 166.312 67.8906 166.326 67.835 166.354L64.4028 168.344C64.3048 168.398 64.3097 168.492 64.4028 168.55L66.9966 170.046C67.0522 170.073 67.1134 170.088 67.1755 170.088C67.2376 170.088 67.2989 170.073 67.3545 170.046L70.7867 168.055C70.8799 168.001 70.875 167.908 70.7867 167.849L68.1929 166.354ZM62.7308 150.213C62.7865 150.24 62.8477 150.255 62.9098 150.255C62.9719 150.255 63.0332 150.24 63.0888 150.213L65.3295 148.918C65.4276 148.864 65.4227 148.771 65.3295 148.712L62.7063 147.241C62.6511 147.213 62.5897 147.197 62.5274 147.197C62.465 147.197 62.4037 147.213 62.3484 147.241L60.1077 148.531C60.0145 148.59 60.0194 148.678 60.1077 148.742L62.7308 150.213ZM59.4555 152.1C59.5111 152.128 59.5724 152.142 59.6345 152.142C59.6966 152.142 59.7579 152.128 59.8135 152.1L62.0542 150.806C62.1523 150.752 62.1474 150.659 62.0542 150.6L59.4604 149.104C59.4048 149.077 59.3436 149.062 59.2815 149.062C59.2194 149.062 59.1581 149.077 59.1025 149.104L56.8618 150.399C56.7686 150.453 56.7735 150.546 56.8618 150.605L59.4555 152.1ZM128.899 131.335C128.843 131.308 128.782 131.293 128.72 131.293C128.658 131.293 128.596 131.308 128.541 131.335L123.015 134.518C122.917 134.572 122.927 134.665 123.015 134.724L125.609 136.195C125.664 136.223 125.725 136.238 125.788 136.238C125.85 136.238 125.911 136.223 125.967 136.195L131.483 133.012C131.581 132.958 131.571 132.865 131.483 132.806L128.899 131.335ZM121.657 135.518C121.602 135.489 121.54 135.474 121.478 135.474C121.416 135.474 121.354 135.489 121.299 135.518L119.058 136.812C118.965 136.866 118.97 136.959 119.058 137.018L121.647 138.514C121.702 138.542 121.764 138.558 121.826 138.558C121.888 138.558 121.95 138.542 122.005 138.514L124.246 137.219C124.344 137.165 124.339 137.072 124.246 137.013L121.657 135.518ZM77.2834 160.068L79.529 158.773C79.6222 158.72 79.6173 158.626 79.529 158.568L76.9255 157.072C76.8698 157.044 76.8086 157.03 76.7465 157.03C76.6844 157.03 76.6231 157.044 76.5675 157.072L74.3268 158.367C74.2336 158.42 74.2385 158.514 74.3268 158.572L76.9156 160.073C76.9703 160.098 77.03 160.111 77.0903 160.11C77.1505 160.109 77.2098 160.095 77.2638 160.068H77.2834ZM115.106 139.303C115.051 139.275 114.989 139.261 114.927 139.261C114.865 139.261 114.804 139.275 114.748 139.303L112.508 140.598C112.41 140.651 112.419 140.745 112.508 140.803L115.096 142.274C115.152 142.302 115.213 142.316 115.275 142.316C115.338 142.316 115.399 142.302 115.454 142.274L117.695 140.98C117.793 140.926 117.783 140.833 117.695 140.774L115.106 139.303ZM132.174 129.448C132.118 129.42 132.057 129.406 131.995 129.406C131.933 129.406 131.872 129.42 131.816 129.448L129.556 130.723C129.463 130.777 129.468 130.87 129.556 130.929L132.145 132.424C132.2 132.452 132.262 132.466 132.324 132.466C132.386 132.466 132.447 132.452 132.503 132.424L134.743 131.13C134.841 131.076 134.832 130.982 134.743 130.924L132.174 129.448ZM138.058 129.051L131.762 125.417C131.707 125.389 131.646 125.374 131.583 125.374C131.521 125.374 131.46 125.389 131.404 125.417L129.164 126.707C129.07 126.766 129.075 126.859 129.164 126.918L135.454 130.551C135.51 130.579 135.571 130.593 135.633 130.593C135.695 130.593 135.757 130.579 135.812 130.551L138.053 129.257C138.131 129.203 138.127 129.109 138.024 129.051H138.058ZM102.878 146.369C102.823 146.341 102.763 146.327 102.701 146.327C102.64 146.327 102.58 146.341 102.525 146.369L99.7643 147.962C99.6662 148.016 99.6761 148.109 99.7643 148.168L102.358 149.663C102.413 149.692 102.475 149.707 102.537 149.707C102.599 149.707 102.661 149.692 102.716 149.663L105.476 148.07C105.57 148.016 105.565 147.923 105.476 147.864L102.878 146.369ZM111.154 141.588C111.099 141.56 111.037 141.546 110.975 141.546C110.913 141.546 110.852 141.56 110.796 141.588L107.364 143.579C107.271 143.633 107.276 143.726 107.364 143.785L109.953 145.28C110.009 145.308 110.07 145.322 110.132 145.322C110.194 145.322 110.255 145.308 110.311 145.28L113.743 143.289C113.841 143.235 113.836 143.142 113.743 143.083L111.154 141.588ZM95.2926 150.747C95.2374 150.718 95.176 150.703 95.1137 150.703C95.0514 150.703 94.99 150.718 94.9347 150.747L76.4351 161.392C76.342 161.446 76.3469 161.539 76.4351 161.598L79.024 163.069C79.0796 163.096 79.1409 163.111 79.203 163.111C79.2651 163.111 79.3263 163.096 79.3819 163.069L97.8276 152.414C97.9256 152.36 97.9207 152.267 97.8276 152.208L95.2926 150.747ZM75.8124 161.995C75.7572 161.966 75.6958 161.951 75.6335 161.951C75.5712 161.951 75.5098 161.966 75.4545 161.995L72.6597 163.574C72.5666 163.628 72.5715 163.721 72.6597 163.78L75.2535 165.275C75.3081 165.303 75.3686 165.318 75.43 165.318C75.4914 165.318 75.5519 165.303 75.6065 165.275L78.367 163.682C78.4601 163.628 78.4552 163.534 78.367 163.476L75.8124 161.995ZM99.0877 148.56C99.0324 148.531 98.971 148.516 98.9087 148.516C98.8464 148.516 98.785 148.531 98.7297 148.56L95.9693 150.154C95.8761 150.208 95.881 150.301 95.9693 150.36L98.5581 151.855C98.6137 151.883 98.675 151.897 98.7371 151.897C98.7992 151.897 98.8605 151.883 98.9161 151.855L101.677 150.262C101.77 150.208 101.765 150.115 101.677 150.056L99.0877 148.56ZM72.0174 164.187C71.9618 164.159 71.9005 164.145 71.8384 164.145C71.7763 164.145 71.7151 164.159 71.6595 164.187L68.9039 165.78C68.8058 165.834 68.8156 165.927 68.9039 165.986L71.4977 167.481C71.5533 167.509 71.6145 167.524 71.6766 167.524C71.7387 167.524 71.8 167.509 71.8556 167.481L74.6112 165.888C74.7092 165.834 74.7043 165.741 74.6112 165.682L72.0174 164.187ZM106.673 144.177C106.617 144.149 106.556 144.135 106.494 144.135C106.432 144.135 106.371 144.149 106.315 144.177L103.554 145.77C103.461 145.824 103.466 145.917 103.554 145.976L106.148 147.447C106.203 147.476 106.265 147.491 106.327 147.491C106.389 147.491 106.451 147.476 106.506 147.447L109.262 145.859C109.36 145.8 109.35 145.707 109.262 145.648L106.673 144.177ZM118.396 137.41C118.341 137.383 118.279 137.368 118.217 137.368C118.155 137.368 118.094 137.383 118.038 137.41L115.798 138.705C115.704 138.759 115.709 138.852 115.798 138.911L118.386 140.411C118.442 140.439 118.503 140.453 118.565 140.453C118.628 140.453 118.689 140.439 118.744 140.411L120.985 139.117C121.083 139.063 121.073 138.97 120.985 138.911L118.396 137.41ZM125.54 132.194L127.781 130.899C127.874 130.845 127.869 130.752 127.781 130.693L125.192 129.198C125.137 129.169 125.075 129.154 125.013 129.154C124.951 129.154 124.889 129.169 124.834 129.198L122.593 130.492C122.495 130.546 122.505 130.639 122.593 130.698L125.187 132.194C125.242 132.22 125.302 132.234 125.364 132.234C125.425 132.234 125.485 132.22 125.54 132.194ZM110.894 132.095L113.135 130.806C113.228 130.747 113.223 130.654 113.135 130.595L110.546 129.1C110.491 129.071 110.43 129.056 110.367 129.056C110.305 129.056 110.244 129.071 110.188 129.1L107.948 130.394C107.85 130.448 107.859 130.541 107.948 130.6L110.541 132.095C110.596 132.124 110.656 132.14 110.717 132.14C110.779 132.141 110.839 132.128 110.894 132.1V132.095ZM103.471 144.942L110.022 141.161C110.12 141.107 110.115 141.014 110.022 140.955L107.428 139.46C107.372 139.432 107.311 139.418 107.249 139.418C107.187 139.418 107.126 139.432 107.07 139.46L100.51 143.226C100.416 143.284 100.421 143.378 100.51 143.436L103.098 144.932C103.155 144.964 103.219 144.981 103.284 144.983C103.348 144.984 103.413 144.97 103.471 144.942ZM121.907 134.086C121.962 134.115 122.024 134.13 122.086 134.13C122.148 134.13 122.21 134.115 122.265 134.086L124.506 132.797C124.599 132.738 124.594 132.645 124.506 132.586L121.917 131.09C121.861 131.063 121.8 131.048 121.738 131.048C121.676 131.048 121.614 131.063 121.559 131.09L119.318 132.385C119.22 132.439 119.225 132.532 119.318 132.591L121.907 134.086ZM118.563 131.953L120.804 130.664C120.897 130.605 120.892 130.512 120.804 130.453L118.215 128.957C118.159 128.93 118.098 128.915 118.036 128.915C117.974 128.915 117.913 128.93 117.857 128.957L115.601 130.232C115.503 130.286 115.508 130.379 115.601 130.438L118.195 131.934C118.251 131.966 118.313 131.985 118.377 131.987C118.441 131.99 118.505 131.977 118.563 131.948V131.953ZM100.196 146.834L102.437 145.54C102.535 145.486 102.525 145.393 102.437 145.334L99.8428 143.839C99.7872 143.811 99.7259 143.796 99.6638 143.796C99.6017 143.796 99.5404 143.811 99.4848 143.839L97.2441 145.133C97.146 145.187 97.1558 145.28 97.2441 145.339L99.833 146.834C99.8896 146.862 99.9519 146.876 100.015 146.875C100.078 146.874 100.14 146.859 100.196 146.829V146.834ZM114.68 138.264C114.735 138.291 114.797 138.306 114.859 138.306C114.921 138.306 114.982 138.291 115.038 138.264L117.278 136.969C117.376 136.915 117.367 136.822 117.278 136.763L114.68 135.273C114.624 135.245 114.563 135.231 114.501 135.231C114.439 135.231 114.377 135.245 114.322 135.273L112.081 136.567C111.983 136.626 111.993 136.714 112.081 136.773L114.68 138.264ZM83.834 156.288L86.0747 154.993C86.1679 154.934 86.163 154.846 86.0747 154.787L83.4564 153.277C83.4008 153.249 83.3396 153.235 83.2775 153.235C83.2154 153.235 83.1541 153.249 83.0985 153.277L80.848 154.576C80.7499 154.63 80.7548 154.724 80.848 154.782L83.4417 156.278C83.499 156.31 83.5634 156.328 83.6293 156.33C83.6951 156.332 83.7604 156.317 83.8193 156.288H83.834ZM87.1093 154.395L89.35 153.101C89.4432 153.047 89.4383 152.953 89.35 152.895L86.7317 151.399C86.6761 151.372 86.6149 151.357 86.5528 151.357C86.4907 151.357 86.4294 151.372 86.3738 151.399L84.1331 152.694C84.035 152.748 84.0399 152.841 84.1331 152.9L86.7268 154.395C86.7837 154.424 86.8468 154.439 86.9107 154.439C86.9747 154.439 87.0377 154.424 87.0946 154.395H87.1093ZM80.5391 158.18L82.7847 156.886C82.8779 156.832 82.873 156.739 82.7847 156.68L80.1909 155.184C80.1357 155.156 80.0743 155.141 80.012 155.141C79.9497 155.141 79.8883 155.156 79.833 155.184L77.5923 156.479C77.4991 156.533 77.504 156.626 77.5923 156.685L80.186 158.18C80.2407 158.208 80.3012 158.223 80.3626 158.223C80.4239 158.223 80.4844 158.208 80.5391 158.18ZM93.6452 150.615L95.8859 149.325C95.9791 149.266 95.9742 149.173 95.8859 149.114L93.2971 147.619C93.2415 147.591 93.1802 147.577 93.1181 147.577C93.056 147.577 92.9947 147.591 92.9391 147.619L90.6984 148.913C90.6003 148.967 90.6052 149.06 90.6984 149.119L93.2922 150.615C93.3472 150.642 93.4079 150.656 93.4693 150.655C93.5306 150.654 93.5909 150.638 93.6452 150.61V150.615ZM90.3699 152.507L92.6106 151.213C92.7038 151.159 92.6989 151.066 92.6106 151.007L90.0218 149.511C89.9662 149.484 89.9049 149.469 89.8428 149.469C89.7807 149.469 89.7194 149.484 89.6638 149.511L87.4231 150.806C87.325 150.865 87.3299 150.953 87.4231 151.012L90.0169 152.512C90.0726 152.538 90.1333 152.55 90.1945 152.548C90.2557 152.546 90.3157 152.531 90.3699 152.502V152.507ZM96.9205 148.727L99.1612 147.433C99.2544 147.379 99.2495 147.285 99.1612 147.227L96.5724 145.756C96.5171 145.727 96.4557 145.712 96.3934 145.712C96.3311 145.712 96.2697 145.727 96.2144 145.756L93.9737 147.05C93.8756 147.104 93.8854 147.197 93.9737 147.256L96.5675 148.751C96.6246 148.774 96.6862 148.783 96.7474 148.778C96.8086 148.773 96.8678 148.754 96.9205 148.722V148.727ZM111.905 120.75C111.96 120.777 112.021 120.792 112.083 120.792C112.146 120.792 112.207 120.777 112.262 120.75L114.503 119.455C114.601 119.401 114.596 119.308 114.503 119.249L113.812 118.852C113.756 118.824 113.695 118.81 113.633 118.81C113.571 118.81 113.51 118.824 113.454 118.852L111.213 120.147C111.12 120.2 111.125 120.294 111.213 120.352L111.905 120.75ZM95.7879 131.149C95.8435 131.177 95.9047 131.191 95.9668 131.191C96.0289 131.191 96.0902 131.177 96.1458 131.149L98.3865 129.855C98.4846 129.801 98.4797 129.708 98.3865 129.649L95.7928 128.153C95.7371 128.126 95.6759 128.111 95.6138 128.111C95.5517 128.111 95.4904 128.126 95.4348 128.153L93.1941 129.448C93.1009 129.502 93.1058 129.595 93.1941 129.654L95.7879 131.149ZM102.338 127.369C102.394 127.398 102.455 127.413 102.517 127.413C102.58 127.413 102.641 127.398 102.696 127.369L104.937 126.074C105.035 126.02 105.03 125.927 104.937 125.868L102.343 124.373C102.288 124.344 102.227 124.329 102.164 124.329C102.102 124.329 102.041 124.344 101.985 124.373L99.7447 125.667C99.6515 125.721 99.6564 125.815 99.7447 125.873L102.338 127.369ZM91.7869 133.459C91.8425 133.486 91.9038 133.501 91.9659 133.501C92.028 133.501 92.0892 133.486 92.1448 133.459L94.3905 132.164C94.4836 132.11 94.4787 132.017 94.3905 131.958L91.7967 130.487C91.7411 130.46 91.6798 130.445 91.6177 130.445C91.5556 130.445 91.4944 130.46 91.4388 130.487L89.1833 131.752C89.0902 131.806 89.0951 131.899 89.1833 131.958L91.7869 133.459ZM99.0632 129.252C99.1188 129.279 99.18 129.294 99.2421 129.294C99.3042 129.294 99.3655 129.279 99.4211 129.252L101.662 127.957C101.76 127.903 101.755 127.81 101.662 127.751L99.0681 126.28C99.0125 126.253 98.9512 126.238 98.8891 126.238C98.827 126.238 98.7657 126.253 98.7101 126.28L96.4694 127.575C96.3762 127.634 96.3811 127.722 96.4694 127.781L99.0632 129.252ZM85.2608 137.239C85.3164 137.267 85.3777 137.281 85.4398 137.281C85.5019 137.281 85.5631 137.267 85.6187 137.239L87.8595 135.944C87.9575 135.891 87.9526 135.797 87.8595 135.739L85.2657 134.243C85.2104 134.214 85.1491 134.199 85.0867 134.199C85.0244 134.199 84.963 134.214 84.9078 134.243L82.667 135.533C82.5739 135.591 82.5788 135.685 82.667 135.743L85.2608 137.239ZM88.5361 135.346C88.5917 135.374 88.653 135.388 88.7151 135.388C88.7772 135.388 88.8384 135.374 88.894 135.346L91.1348 134.052C91.2328 133.993 91.2279 133.905 91.1348 133.846L88.541 132.346C88.4854 132.318 88.4241 132.304 88.362 132.304C88.2999 132.304 88.2387 132.318 88.1831 132.346L85.908 133.664C85.8149 133.718 85.8198 133.812 85.908 133.87L88.5361 135.346ZM105.364 124.525C105.419 124.554 105.48 124.569 105.543 124.569C105.605 124.569 105.666 124.554 105.722 124.525L107.962 123.235C108.06 123.177 108.056 123.088 107.962 123.025L107.271 122.627C107.215 122.6 107.154 122.585 107.092 122.585C107.03 122.585 106.969 122.6 106.913 122.627L104.672 123.922C104.579 123.976 104.584 124.069 104.672 124.128L105.364 124.525ZM115.17 118.852C115.225 118.881 115.287 118.896 115.349 118.896C115.411 118.896 115.473 118.881 115.528 118.852L117.774 117.558C117.867 117.504 117.862 117.411 117.774 117.352L117.082 116.955C117.027 116.926 116.966 116.911 116.903 116.911C116.841 116.911 116.78 116.926 116.724 116.955L114.484 118.244C114.39 118.303 114.395 118.396 114.484 118.455L115.17 118.852ZM120.617 121.995C120.673 122.024 120.734 122.039 120.796 122.039C120.859 122.039 120.92 122.024 120.975 121.995L123.216 120.701C123.309 120.647 123.304 120.553 123.216 120.495L120.627 119.024C120.572 118.995 120.511 118.98 120.448 118.98C120.386 118.98 120.325 118.995 120.269 119.024L118.029 120.318C117.93 120.372 117.935 120.465 118.029 120.524L120.617 121.995ZM128.806 130.306L131.046 129.011C131.144 128.957 131.135 128.864 131.046 128.805L128.453 127.335C128.397 127.307 128.336 127.292 128.274 127.292C128.212 127.292 128.15 127.307 128.095 127.335L125.854 128.629C125.756 128.683 125.766 128.776 125.854 128.835L128.443 130.33C128.502 130.358 128.567 130.37 128.632 130.366C128.697 130.362 128.76 130.341 128.815 130.306H128.806ZM108.629 122.632C108.685 122.66 108.746 122.674 108.808 122.674C108.87 122.674 108.932 122.66 108.987 122.632L111.228 121.338C111.326 121.284 111.321 121.191 111.228 121.132L110.537 120.735C110.481 120.706 110.42 120.691 110.358 120.691C110.295 120.691 110.234 120.706 110.179 120.735L107.938 122.029C107.845 122.083 107.85 122.176 107.938 122.235L108.629 122.632ZM81.961 139.127C82.0166 139.154 82.0778 139.169 82.1399 139.169C82.202 139.169 82.2633 139.154 82.3189 139.127L84.5597 137.832C84.6577 137.778 84.6528 137.685 84.5597 137.626L81.9659 136.131C81.9103 136.103 81.849 136.089 81.7869 136.089C81.7248 136.089 81.6636 136.103 81.608 136.131L79.377 137.425C79.2839 137.479 79.2888 137.572 79.377 137.631L81.961 139.127Z" fill="#263238"/>
<path opacity="0.3" d="M96.4889 158.793L118.602 146.02C118.976 145.832 119.389 145.733 119.808 145.733C120.227 145.733 120.64 145.832 121.014 146.02L133.699 153.346C134.366 153.728 134.366 154.351 133.699 154.738L111.581 167.486C111.207 167.677 110.794 167.777 110.375 167.777C109.955 167.777 109.542 167.677 109.168 167.486L96.4889 160.186C95.8221 159.798 95.8221 159.161 96.4889 158.793Z" fill="black"/>
<path d="M23.574 150.767C23.7692 150.878 23.9765 150.967 24.1918 151.031C23.9759 150.971 23.7683 150.884 23.574 150.772C23.5068 150.737 23.4428 150.696 23.3828 150.649C23.444 150.692 23.5079 150.731 23.574 150.767Z" fill="#4464A0"/>
<path opacity="0.3" d="M106.585 35.1112C106.443 34.0718 105.604 33.6893 104.589 34.2777L27.4727 78.7934C26.881 79.1543 26.3914 79.6607 26.0508 80.2643L22.2754 78.0922C22.6139 77.4792 23.1034 76.9628 23.6973 76.5919L100.819 32.086C101.377 31.7352 102.017 31.537 102.676 31.5113C103.335 31.4856 103.989 31.6333 104.572 31.9395C105.156 32.2458 105.649 32.6999 106.002 33.2565C106.356 33.8131 106.557 34.4527 106.585 35.1112Z" fill="black"/>
<path d="M27.0947 150.958C27.1044 150.956 27.1144 150.956 27.124 150.958H27.0947Z" fill="#4464A0"/>
<path opacity="0.5" d="M166.991 142.059C166.941 142.734 166.733 143.388 166.384 143.967C166.035 144.547 165.554 145.037 164.981 145.398L87.8594 189.923C87.2403 190.255 86.5467 190.424 85.8442 190.413V186.064C86.5467 186.075 87.2402 185.906 87.8594 185.574L164.981 141.019C166.016 140.416 166.084 139.475 165.182 138.827C165.704 139.199 166.136 139.681 166.449 140.24C166.762 140.799 166.947 141.42 166.991 142.059Z" fill="black"/>
<path d="M216.356 103.932L207.349 98.7344C207.148 98.6266 206.858 98.7001 206.505 98.9698C206.319 99.1071 206.133 99.2444 205.946 99.3718L205.735 99.5042C205.613 99.5827 205.49 99.666 205.363 99.7396C205.235 99.8131 205.186 99.8376 205.098 99.8916L204.77 100.073L204.466 100.225L204.162 100.372L203.823 100.514C203.73 100.553 203.637 100.598 203.539 100.632L203.171 100.769L202.911 100.862L202.514 100.985L202.279 101.054L201.852 101.161L201.636 101.211C201.489 101.245 201.337 101.274 201.185 101.299L200.999 101.333L200.509 101.402H200.347C200.18 101.402 200.009 101.436 199.857 101.446H199.724H199.195H199.087C198.905 101.446 198.724 101.446 198.543 101.446H198.459C198.273 101.446 198.082 101.446 197.895 101.407H197.841L197.258 101.328H197.229L196.959 101.274L191.369 98.048C190.957 97.8175 190.58 97.9843 190.335 98.5873C187.089 106.648 180.175 114.822 175.566 116.866C175.475 116.905 175.386 116.951 175.302 117.004C175.245 117.036 175.191 117.072 175.14 117.111L175.066 117.16L174.865 117.332C174.797 117.396 174.733 117.464 174.669 117.533C174.34 117.892 174.157 118.36 174.154 118.847L174.821 127.035C174.821 132.316 177.067 137.886 181.651 140.548L190.663 145.741L190.727 145.775C193.055 147.063 195.729 147.587 198.371 147.271C199.358 147.107 200.272 146.649 200.994 145.957C211.075 135.547 215.973 121.441 215.973 113.665L216.64 104.643C216.635 104.285 216.532 104.035 216.356 103.932Z" fill="#4464A0"/>
<path opacity="0.4" d="M200.308 103.231C200.218 103.185 200.118 103.164 200.017 103.169C199.916 103.174 199.819 103.206 199.734 103.26L199.636 103.334C199.579 103.39 199.528 103.453 199.484 103.52C199.435 103.605 199.392 103.693 199.357 103.785C198.512 105.856 197.496 107.853 196.322 109.757C195.305 111.43 194.186 113.04 192.973 114.577C192.384 115.312 191.796 116.013 191.203 116.67C191.205 116.678 191.205 116.687 191.203 116.695L190.712 117.239C190.541 117.411 190.379 117.587 190.222 117.754C190.139 117.847 190.055 117.935 189.967 118.019C188.074 119.921 186.221 121.343 184.637 122.044C184.367 122.164 184.12 122.33 183.907 122.534L183.725 122.716C183.715 122.731 183.704 122.746 183.691 122.76L183.725 122.716L174.723 117.528C174.73 117.515 174.74 117.503 174.753 117.494C174.769 117.467 174.789 117.442 174.811 117.42L174.865 117.371C174.88 117.354 174.897 117.337 174.914 117.322L174.968 117.273C175.015 117.228 175.064 117.185 175.115 117.146L175.189 117.097C175.243 117.062 175.297 117.018 175.351 116.989C175.434 116.934 175.523 116.888 175.616 116.852C180.224 114.807 187.143 106.633 190.384 98.5726C190.56 98.1412 190.801 97.9303 191.075 97.9303C191.197 97.9351 191.316 97.9724 191.418 98.0382L196.954 101.304L200.308 103.231Z" fill="white"/>
<path opacity="0.1" d="M216.355 103.932L207.348 98.7344C207.152 98.6315 206.858 98.705 206.51 98.9698C206.328 99.112 206.137 99.2493 205.946 99.3767L205.74 99.5091C205.617 99.5876 205.495 99.6709 205.367 99.7445C205.24 99.818 205.191 99.8425 205.103 99.8965L204.774 100.078C204.676 100.132 204.573 100.176 204.47 100.225L204.166 100.377L203.823 100.519C203.735 100.563 203.637 100.603 203.543 100.642L203.176 100.774L202.916 100.867L202.514 100.99L202.278 101.059L201.857 101.166L201.646 101.215L201.19 101.304L200.999 101.338C200.842 101.367 200.685 101.387 200.508 101.407H200.347L199.856 101.456H199.724C199.547 101.456 199.371 101.456 199.194 101.456H199.091C198.905 101.456 198.724 101.456 198.542 101.456H198.464C198.273 101.456 198.081 101.431 197.895 101.416H197.841C197.645 101.416 197.449 101.372 197.262 101.343H197.233C197.142 101.331 197.051 101.311 196.963 101.284L200.317 103.216L200.376 103.25C200.503 103.33 200.616 103.431 200.709 103.549C200.733 103.57 200.754 103.593 200.773 103.618C204.205 107.629 210.991 107.624 215.517 104.162C215.86 103.902 216.144 103.819 216.336 103.907H216.365C216.455 103.961 216.522 104.044 216.556 104.143C216.515 104.052 216.444 103.978 216.355 103.932Z" fill="black"/>
<path opacity="0.2" d="M190.521 145.716L181.632 140.598C177.052 137.93 174.802 132.36 174.802 127.08L174.135 118.891C174.14 118.577 174.217 118.267 174.36 117.987C174.502 117.707 174.707 117.463 174.958 117.273C174.847 117.366 174.744 117.467 174.65 117.577L183.657 122.765C183.332 123.127 183.157 123.598 183.166 124.084L183.828 132.272C183.814 137.504 186.02 143.025 190.521 145.716Z" fill="black"/>
<path d="M216.62 104.692L215.953 113.714C215.953 121.51 211.05 135.596 200.979 146.006C200.256 146.701 199.337 147.158 198.346 147.315C195.708 147.64 193.035 147.125 190.707 145.844L190.643 145.81L190.525 145.736C186.019 143.044 183.808 137.528 183.808 132.292L183.146 124.103C183.139 123.619 183.314 123.15 183.637 122.789C183.692 122.725 183.751 122.665 183.813 122.608C184.026 122.403 184.273 122.237 184.544 122.118C186.132 121.412 187.976 119.99 189.878 118.092L190.133 117.827L190.623 117.308L191.114 116.763C191.712 116.101 192.3 115.4 192.889 114.665C194.102 113.128 195.22 111.518 196.238 109.845C197.411 107.943 198.424 105.947 199.268 103.878C199.307 103.786 199.351 103.696 199.4 103.608C199.444 103.543 199.495 103.482 199.552 103.427C199.582 103.399 199.615 103.375 199.65 103.353C199.733 103.297 199.83 103.264 199.93 103.259C200.031 103.254 200.131 103.276 200.219 103.324L200.283 103.353C200.411 103.432 200.524 103.533 200.616 103.652L200.68 103.726C204.112 107.732 210.898 107.727 215.424 104.27C215.762 104.01 216.051 103.927 216.242 104.01H216.267C216.313 104.03 216.352 104.062 216.38 104.103C216.526 104.266 216.611 104.474 216.62 104.692Z" fill="#4464A0"/>
<path d="M202.499 134.282L197.135 137.376L197.964 127.673C197.322 127.334 196.915 126.496 196.915 125.3C196.915 123.162 198.214 120.681 199.817 119.754C201.421 118.828 202.72 119.808 202.72 121.946C202.685 123.213 202.324 124.449 201.671 125.535L202.499 134.282Z" fill="#455A64"/>
<path d="M202.499 134.282L197.64 131.473L197.135 137.376L202.499 134.282Z" fill="#37474F"/>
<path d="M199.817 119.754C198.649 120.542 197.777 121.699 197.341 123.039L201.671 125.535C202.324 124.449 202.685 123.213 202.72 121.946C202.72 119.808 201.421 118.828 199.817 119.754Z" fill="#37474F"/>
<path d="M206.564 81.0488C205.093 80.1858 203.201 80.2839 201.421 81.3086L187.324 89.4528C185.855 90.3836 184.634 91.6576 183.766 93.1652C182.898 94.6728 182.41 96.3686 182.343 98.1068V115.376C182.363 115.595 182.442 115.804 182.57 115.982C182.699 116.161 182.872 116.302 183.073 116.391C183.62 116.665 184.222 116.808 184.834 116.808C185.445 116.808 186.048 116.665 186.594 116.391C186.795 116.302 186.969 116.161 187.097 115.982C187.225 115.804 187.304 115.595 187.324 115.376V98.1068C187.392 97.2424 187.652 96.4041 188.085 95.6532C188.519 94.9024 189.115 94.2581 189.83 93.7675L203.917 85.6136V102.897C203.938 103.117 204.017 103.326 204.146 103.505C204.275 103.683 204.45 103.824 204.652 103.912C205.197 104.188 205.799 104.332 206.41 104.332C207.021 104.332 207.623 104.188 208.168 103.912C208.369 103.823 208.542 103.682 208.671 103.504C208.799 103.326 208.878 103.116 208.898 102.897V85.6136C208.908 83.5788 208.055 81.9068 206.564 81.0488Z" fill="#37474F"/>
<path d="M203.917 85.6136V102.882C203.937 103.102 204.017 103.312 204.146 103.49C204.275 103.669 204.45 103.809 204.652 103.897C204.881 104.027 205.127 104.125 205.383 104.187V84.7703L203.917 85.6136Z" fill="#263238"/>
</svg>
