<svg width="80" height="80" viewBox="0 0 80 80" fill="none" xmlns="http://www.w3.org/2000/svg">
<path d="M14 36C20.5519 39.5143 27.8714 41.3534 35.3063 41.3534H44.0914C51.6458 41.3534 59.0696 39.384 65.6305 35.6393L60.1681 69H17.2694L14 36Z" fill="url(#paint0_linear_30_350)"/>
<path d="M7.35052 40.0081C7.16103 37.3006 9.30628 35 12.0204 35C14.1374 35 15.9909 36.4208 16.5409 38.4651L22.8909 62.0692C23.69 65.0397 26.2364 67.2111 29.2958 67.5309C32.053 67.8192 34.7414 66.5491 36.2699 64.2364L36.3251 64.1528C36.8253 63.3959 37.1315 62.5275 37.2166 61.6243L38.0124 53.176C38.1157 52.0795 39.6565 51.931 39.9674 52.9875L42.6553 62.1238C42.8262 62.7047 43.0828 63.2568 43.4166 63.7619L43.7301 64.2364C45.2586 66.5492 47.947 67.8192 50.7042 67.5309C53.7636 67.2111 56.31 65.0397 57.1091 62.0692L63.4591 38.4651C64.0091 36.4208 65.8626 35 67.9797 35C70.6937 35 72.839 37.3007 72.6495 40.0081L70.9117 64.8378C70.4717 71.1247 65.2432 76 58.941 76H21.0591C14.7568 76 9.52836 71.1247 9.08834 64.8378L7.35052 40.0081Z" fill="#F7A6A5"/>
<defs>
<linearGradient id="paint0_linear_30_350" x1="43" y1="36" x2="42.5299" y2="67.5004" gradientUnits="userSpaceOnUse">
<stop stop-color="#C15D5D"/>
<stop offset="0.828884" stop-color="#D7908E"/>
</linearGradient>
</defs>
</svg>
