<svg width="21" height="21" viewBox="0 0 21 21" fill="none" xmlns="http://www.w3.org/2000/svg">
<path d="M3.5 11.8752C3.5 9.98956 3.5 9.04676 4.08579 8.46097C4.67157 7.87518 5.61438 7.87518 7.5 7.87518H13.5C15.3856 7.87518 16.3284 7.87518 16.9142 8.46097C17.5 9.04676 17.5 9.98957 17.5 11.8752V12.3752C17.5 15.2036 17.5 16.6178 16.6213 17.4965C15.7426 18.3752 14.3284 18.3752 11.5 18.3752H9.5C6.67157 18.3752 5.25736 18.3752 4.37868 17.4965C3.5 16.6178 3.5 15.2036 3.5 12.3752V11.8752Z" stroke="#67A4D3" stroke-width="2"/>
<path d="M14.4373 7.87502L14.5051 7.332C14.7317 5.51936 13.916 3.73403 12.3975 2.71868V2.71868C10.5894 1.50972 8.19616 1.65873 6.55197 3.08264L5.83594 3.70274" stroke="#67A4D3" stroke-width="2" stroke-linecap="round"/>
<circle cx="10.5" cy="13.125" r="1.75" fill="#67A4D3"/>
</svg>
