<svg width="70" height="69" viewBox="0 0 70 69" fill="none" xmlns="http://www.w3.org/2000/svg">
<path d="M34.75 68.89C26.6372 68.8976 18.7844 66.0294 12.5864 60.7948C6.38831 55.5602 2.24634 48.2981 0.896154 40.2985C-0.45403 32.2989 1.075 24.0796 5.21163 17.1007C9.34826 10.1218 15.8247 4.83508 23.4905 2.17957C31.1564 -0.475942 39.5153 -0.3283 47.0826 2.59627C54.6499 5.52084 60.9356 11.033 64.8232 18.1536C68.7108 25.2743 69.9486 33.5424 68.3167 41.4893C66.6849 49.4363 62.289 56.5476 55.91 61.56C49.8772 66.3053 42.4254 68.8867 34.75 68.89ZM34.75 1.34002C27.8283 1.33653 21.0779 3.49194 15.439 7.50601C9.80018 11.5201 5.55366 17.1929 3.29102 23.7343C1.02838 30.2757 0.862289 37.36 2.81588 44.0002C4.76947 50.6405 8.74546 56.5061 14.19 60.78C20.0373 65.4157 27.2882 67.9232 34.75 67.89C43.4752 67.7388 51.7919 64.1665 57.9087 57.9427C64.0256 51.7189 67.4531 43.3415 67.4531 34.615C67.4531 25.8885 64.0256 17.5112 57.9087 11.2874C51.7919 5.06354 43.4752 1.49129 34.75 1.34002Z" fill="#263238"/>
</svg>
