<svg width="24" height="22" viewBox="0 0 24 22" fill="none" xmlns="http://www.w3.org/2000/svg">
<path fill-rule="evenodd" clip-rule="evenodd" d="M4.00712 3.15038C3.08502 4.32379 2.52632 5.92699 2.52632 7.60074C2.52632 8.57192 2.69334 9.50116 2.98738 10.3859H8.47276L10.6125 6.58181L11.9497 11.2616L13.5858 9.1579H17.6842V10.4211H14.2036L11.4188 14.0016L10.2296 9.83924L9.21145 11.6491H0V10.3859H1.66476C1.40863 9.50255 1.26316 8.57255 1.26316 7.60074C1.26316 5.65844 1.90815 3.7771 3.01391 2.36994C4.12269 0.958882 5.71964 0 7.59865 0C9.81145 0 11.4942 1.24002 12.6316 2.98977C13.7689 1.24011 15.4516 0 17.6645 0C19.5437 0 21.1407 0.959053 22.2494 2.37013C23.3551 3.77741 24 5.65876 24 7.60074C24 11.7581 21.1303 15.2298 18.4153 17.5996C17.0423 18.798 15.6723 19.7466 14.6468 20.3953C14.1335 20.72 13.7048 20.9706 13.4032 21.1407C13.2523 21.2258 13.1331 21.2908 13.0507 21.335C13.0096 21.3571 12.9776 21.374 12.9555 21.3855L12.9299 21.3988L12.9228 21.4025L12.9207 21.4036L12.92 21.404C12.92 21.404 12.9196 21.4042 12.6316 20.8421C12.3576 21.4112 12.3574 21.4111 12.3574 21.4111L12.3536 21.4093L12.3448 21.405L12.3129 21.3893C12.2855 21.3757 12.2458 21.3558 12.1948 21.3299C12.0927 21.2778 11.9452 21.2011 11.7597 21.1005C11.3889 20.8993 10.8652 20.602 10.2479 20.2148C9.01554 19.4418 7.39901 18.3033 5.87886 16.8468C5.06798 16.0699 4.2804 15.1986 3.59216 14.2396C3.38877 13.9563 3.45362 13.5616 3.737 13.3583C4.02038 13.1549 4.41499 13.2198 4.61836 13.5032C5.25278 14.3871 5.98623 15.2003 6.75272 15.9347C8.19208 17.3138 9.73345 18.401 10.9191 19.1447C11.5108 19.5159 12.0112 19.7998 12.3621 19.9902C12.4617 20.0442 12.5492 20.0907 12.6232 20.1294C12.6709 20.1032 12.7242 20.0735 12.7827 20.0404C13.0682 19.8795 13.4783 19.6398 13.9716 19.3278C14.9593 18.7029 16.2735 17.7924 17.5847 16.6479C20.2381 14.3319 22.7368 11.1829 22.7368 7.60074C22.7368 5.92724 22.1782 4.32404 21.2562 3.15057C20.3372 1.98095 19.0821 1.26316 17.6645 1.26316C15.7048 1.26316 14.1849 2.53945 13.1985 4.54851L12.6316 5.70322L12.0647 4.54851C11.0782 2.53933 9.55825 1.26316 7.59865 1.26316C6.18114 1.26316 4.92613 1.98082 4.00712 3.15038ZM12.6316 20.8421L12.3574 21.4111L12.6404 21.5473L12.92 21.404L12.6316 20.8421Z" fill="#67A4D3"/>
</svg>
